<?xml version="1.0" standalone="no"?>
<!DOCTYPE svg PUBLIC "-//W3C//DTD SVG 1.1//EN" "http://www.w3.org/Graphics/SVG/1.1/DTD/svg11.dtd" >
<svg xmlns="http://www.w3.org/2000/svg">
<metadata></metadata>
<defs>
<font id="interface_blackregular" horiz-adv-x="1228" >
<font-face units-per-em="2048" ascent="1638" descent="-410" />
<missing-glyph horiz-adv-x="317" />
<glyph unicode="&#xfb01;" horiz-adv-x="1286" d="M12 723v287h138v30q0 74 29.5 137.5t90 111.5t149.5 76t208 28q152 0 233.5 -18.5t128.5 -39.5l-96 -260q-37 16 -83 28.5t-101 12.5q-66 0 -97.5 -25.5t-31.5 -66.5v-14h143v-287h-141v-723h-432v723h-138zM774 0v1010h430v-1010h-430z" />
<glyph unicode="&#xfb02;" horiz-adv-x="1286" d="M12 723v287h138v30q0 76 33.5 141.5t101 111.5t171 73t244.5 27q172 0 302.5 -20.5t201.5 -37.5v-1335h-432v1108q-31 8 -82 8q-59 0 -84.5 -25.5t-25.5 -56.5v-24h141v-287h-139v-723h-432v723h-138z" />
<glyph unicode="&#xfb03;" horiz-adv-x="2017" d="M12 723v287h138v30q0 160 101 256.5t300 96.5q55 0 106.5 -7.5t94.5 -17.5t75.5 -21.5t51.5 -19.5l-88 -233q-2 0 -3.5 1t-3.5 1q-23 8 -48 14t-60 6q-47 0 -71.5 -25.5t-24.5 -56.5v-24h303v30q0 74 29.5 137.5t90 111.5t149.5 76t208 28q152 0 233.5 -18.5t128.5 -39.5 l-96 -260q-37 16 -83 28.5t-101 12.5q-66 0 -97.5 -25.5t-31.5 -66.5v-14h143v-287h-141v-723h-432v723h-301v-723h-432v723h-138zM1507 0v1010h430v-1010h-430z" />
<glyph unicode="&#xfb04;" horiz-adv-x="2060" d="M12 723v287h138v30q0 160 101 256.5t300 96.5q55 0 106.5 -7.5t94.5 -17.5t75.5 -21.5t51.5 -19.5l-88 -233q-23 8 -49.5 15t-65.5 7q-47 0 -71.5 -25.5t-24.5 -56.5v-24h344v30q0 76 33.5 141.5t101 111.5t171 73t245.5 27q172 0 302 -20.5t201 -37.5v-1335h-432v1108 q-31 8 -82 8q-59 0 -84.5 -25.5t-25.5 -56.5v-24h141v-287h-139v-723h-432v723h-342v-723h-432v723h-138z" />
<glyph horiz-adv-x="0" />
<glyph horiz-adv-x="0" />
<glyph unicode="&#xd;" horiz-adv-x="317" />
<glyph unicode=" "  horiz-adv-x="317" />
<glyph unicode="&#x09;" horiz-adv-x="317" />
<glyph unicode="&#xa0;" horiz-adv-x="317" />
<glyph unicode="!" horiz-adv-x="577" d="M72 471v895h434v-895h-434zM76 164q0 88 60.5 136t152.5 48t152.5 -48t60.5 -136t-60.5 -136t-152.5 -48q-93 0 -154 47q-59 49 -59 137z" />
<glyph unicode="&#x22;" horiz-adv-x="835" d="M51 760v606h318v-606h-318zM467 760v606h317v-606h-317z" />
<glyph unicode="#" horiz-adv-x="1384" d="M41 246v309h203v219h-203v307h203v232h356v-232h184v232h355v-232h204v-307h-204v-219h204v-309h-204v-230h-355v230h-184v-230h-356v230h-203zM592 547h201v235h-201v-235z" />
<glyph unicode="$" d="M25 195l307 221q49 -43 120.5 -75t137.5 -32q68 0 109.5 17.5t41.5 54.5q0 18 -7 34.5t-33.5 34t-79 37t-140.5 43.5q-102 29 -177 64t-125 82t-74.5 113.5t-24.5 158.5q0 172 97 282.5t284 141.5v375h309v-373q131 -18 219 -67.5t160 -130.5l-295 -218q-39 43 -96.5 70 t-120.5 27q-133 0 -133 -66q0 -23 10 -39t35.5 -30.5t71 -28.5t114.5 -33q86 -25 165 -57.5t139.5 -82.5t95 -124t34.5 -180q0 -94 -29.5 -167t-81.5 -127t-126 -88t-162 -48v-330h-309v328q-113 8 -228.5 61t-207.5 152z" />
<glyph unicode="%" horiz-adv-x="1744" d="M31 1030q0 70 25.5 134.5t74.5 112.5t120 76.5t163 28.5t162.5 -28.5t119.5 -76.5t75 -112.5t26 -134.5q0 -72 -26 -134t-75 -110.5t-119.5 -76t-162.5 -27.5t-163 27.5t-120 74.5q-49 49 -74.5 111.5t-25.5 134.5zM88 150l1382 1253l189 -182l-1387 -1262zM324 1034 q0 -66 27.5 -93.5t62.5 -27.5t62.5 28t27.5 93q0 63 -27.5 92t-62.5 29t-62.5 -29t-27.5 -92zM948 328q0 70 25.5 134t75 112.5t120 77t162.5 28.5t163 -28.5t120 -77t74.5 -113t25.5 -133.5q0 -72 -25.5 -134.5t-74.5 -110.5t-120 -75.5t-163 -27.5t-162.5 27.5 t-119.5 74.5q-49 49 -75 111.5t-26 134.5zM1241 332q0 -66 27.5 -93.5t62.5 -27.5t62.5 27.5t27.5 93.5q0 63 -27.5 92t-62.5 29t-62.5 -29t-27.5 -92z" />
<glyph unicode="&#x26;" horiz-adv-x="1433" d="M31 410q0 84 23.5 149.5t65.5 115.5t100.5 89t125.5 70q-41 51 -67.5 107t-26.5 124q0 72 33.5 132t92 103t138.5 68t172 25q190 0 305 -69t181 -200l-291 -149q-27 51 -58.5 84t-76.5 33q-33 0 -53.5 -16.5t-20.5 -47.5q0 -18 15.5 -41.5t33.5 -48.5l188 -252 q66 86 148 153.5t174 108.5l186 -284q-100 -59 -168.5 -124t-124.5 -143l293 -397h-469l-86 117q-35 -27 -72.5 -51.5t-85 -44t-105.5 -30.5t-134 -11q-96 0 -176 31.5t-138.5 89t-90 136t-31.5 173.5zM434 416q0 -55 32 -83t75 -28q78 0 137 78l-137 188q-47 -25 -77 -60.5 t-30 -94.5z" />
<glyph unicode="'" horiz-adv-x="419" d="M51 760v606h318v-606h-318z" />
<glyph unicode="(" horiz-adv-x="749" d="M72 698q0 172 45 309.5t116.5 241t160.5 176t177 115.5l179 -205q-49 -41 -93.5 -100t-78 -139t-53 -179.5t-19.5 -218.5t19.5 -218t53 -179t77.5 -139.5t94 -100.5l-179 -204q-88 43 -177 115.5t-160.5 176t-116.5 240.5t-45 309z" />
<glyph unicode=")" horiz-adv-x="749" d="M0 61q49 41 93 100.5t78 139.5t53.5 179.5t19.5 217.5q0 119 -19.5 218.5t-53.5 179.5t-78 139t-93 100l178 205q88 -43 177 -115.5t161 -176t117 -241t45 -309.5t-45 -309t-117 -240.5t-161 -176t-177 -115.5z" />
<glyph unicode="*" horiz-adv-x="931" d="M55 1235l117 166l188 -121v205h203v-205l195 121l119 -166l-226 -137l219 -137l-104 -177l-203 125v-215h-203v215l-196 -125l-105 177l224 135z" />
<glyph unicode="+" d="M88 516v328h352v370h346v-370h355v-328h-355v-364h-346v364h-352z" />
<glyph unicode="," horiz-adv-x="528" d="M4 -102q41 10 91 34.5t77 47.5q-20 6 -41.5 20t-39 35.5t-29 51.5t-11.5 71q0 78 53.5 133t159.5 55q98 0 155.5 -55t57.5 -156q0 -123 -102.5 -226.5t-317.5 -160.5z" />
<glyph unicode="-" horiz-adv-x="675" d="M37 412v325h602v-325h-602z" />
<glyph unicode="." horiz-adv-x="528" d="M51 164q0 88 60.5 136t152.5 48t152.5 -48t60.5 -136t-60.5 -136t-152.5 -48t-153 47q-59 49 -60 137z" />
<glyph unicode="/" horiz-adv-x="1079" d="M0 68l774 1503l305 -152l-774 -1503z" />
<glyph unicode="0" d="M39 676q0 160 35 290t106.5 222t180 142t253.5 50t254 -50t180.5 -142t106.5 -222t35 -290t-35 -290t-106.5 -222t-180 -142.5t-254.5 -50.5q-145 0 -254 49q-109 51 -180 143.5t-106 222.5t-35 290zM483 676q0 -199 33 -281q33 -80 98 -80q66 0 98.5 81t32.5 280 t-32.5 279.5t-98.5 80.5t-98.5 -81t-32.5 -279z" />
<glyph unicode="1" d="M90 1071l531 285h319v-1356h-444v872l-232 -129z" />
<glyph unicode="2" d="M51 1044q33 63 80 124t112.5 108t154.5 75.5t206 28.5q242 0 374 -109.5t132 -307.5q0 -98 -33 -182.5t-87 -158t-122.5 -140t-140.5 -132.5h422v-350h-1051v242q135 125 258 248.5t217 242.5q98 123 99 199q0 90 -99 90q-61 0 -102 -46t-74 -104z" />
<glyph unicode="3" d="M8 254l328 209q31 -59 85 -96t132 -37q166 0 166 98q0 63 -59.5 93t-190.5 30v266q70 0 114 10.5t69.5 26.5t34.5 36.5t9 41.5q0 43 -34.5 67.5t-104.5 24.5t-116 -31.5t-81 -87.5l-319 205q35 53 85 101.5t122 91.5q63 37 149 57t211 20q113 0 210 -24.5t168 -72.5 t111 -117.5t40 -157.5q0 -74 -18.5 -126.5t-48.5 -89t-67.5 -59t-78.5 -37.5q45 -12 88 -36.5t75.5 -62.5t52 -92t19.5 -124q0 -100 -43 -176t-117.5 -128t-177 -79t-221.5 -27q-117 0 -210 21.5t-165.5 59.5t-126 89.5t-90.5 112.5z" />
<glyph unicode="4" d="M31 270v330l626 756h383v-781h150v-305h-150v-270h-411v270h-598zM367 575h262v340z" />
<glyph unicode="5" d="M16 250l344 199q31 -51 80 -86t123 -35q68 0 105 26.5t37 83.5q0 76 -72 116t-252 40h-260v762h944v-338h-567v-133h24q139 0 253 -25.5t194 -80t124 -140.5t44 -209q0 -115 -40 -201t-112 -143t-173 -86t-224 -29q-233 0 -374.5 78t-197.5 201z" />
<glyph unicode="6" d="M57 565q0 215 84 368.5t250 264.5q117 78 257 125t276 68l88 -295q-162 -29 -280 -87.5t-167 -131.5q31 12 79 20t114 8q94 0 173 -32.5t134 -91t86 -139.5t31 -179q0 -109 -38 -199t-108.5 -154.5t-175 -101.5t-235.5 -37q-127 0 -231.5 42t-179.5 120t-116 187.5 t-41 244.5zM483 506q0 -106 38 -148.5t97 -42.5t94.5 39t35.5 117q0 66 -37 109t-93 43q-44 -1 -75 -9q-29 -6 -47 -16q-2 -10 -7.5 -33.5t-5.5 -58.5z" />
<glyph unicode="7" d="M86 1006v350h1079v-289l-530 -1067h-447l488 1006h-590z" />
<glyph unicode="8" d="M72 393q0 127 51 195q53 70 143 117q-37 20 -68.5 44.5t-55 59.5t-37 83t-13.5 118q0 74 33 141.5t98.5 117.5t163.5 80.5t229 30.5t229.5 -30.5t163 -80.5t97.5 -118t33 -141q0 -70 -13.5 -118t-36 -83t-54 -59.5t-68.5 -44.5q90 -47 141 -116t51 -196 q0 -86 -31.5 -162.5t-98 -134t-169 -91.5t-244.5 -34q-141 0 -243.5 34t-169 91.5t-99 134t-32.5 162.5zM481 424q0 -61 37 -100t98 -39t97.5 38.5t36.5 100.5q0 61 -36 100t-98 39q-61 0 -98 -39t-37 -100zM496 952q0 -57 33.5 -90t86.5 -33t86 33t33 92t-32.5 91t-86.5 32 q-53 0 -86.5 -33t-33.5 -92z" />
<glyph unicode="9" d="M51 891q0 106 38 197.5t108.5 156t174 101t236.5 36.5q131 0 236.5 -41t179.5 -117.5t113 -184t39 -238.5q0 -186 -67 -329.5t-196 -254.5q-111 -98 -261 -157.5t-330 -92.5l-101 295q72 14 141.5 39t129 54.5t105.5 64.5t71 69q-29 -12 -81 -20t-112 -8q-96 0 -174 30.5 t-133 87t-86 135.5t-31 177zM485 901q0 -74 42 -113.5t102 -39.5q34 0 61 4q27 6 47 12q2 12 5 33.5t3 62.5q0 78 -32.5 133.5t-108.5 55.5q-59 0 -89 -45.5t-30 -102.5z" />
<glyph unicode=":" horiz-adv-x="528" d="M51 164q0 88 60.5 136t152.5 48t152.5 -48t60.5 -136t-60.5 -136t-152.5 -48t-153 47q-59 49 -60 137zM51 721q0 88 60.5 136t152.5 48t152.5 -48t60.5 -136t-60.5 -136t-152.5 -48t-153 47q-59 49 -60 137z" />
<glyph unicode=";" horiz-adv-x="528" d="M4 -102q41 10 91 34.5t77 47.5q-20 6 -41.5 20t-39 35.5t-29 51.5t-11.5 71q0 78 53.5 133t159.5 55q98 0 155.5 -55t57.5 -156q0 -123 -102.5 -226.5t-317.5 -160.5zM51 721q0 88 60.5 136t152.5 48t152.5 -48t60.5 -136t-60.5 -136t-152.5 -48t-153 47q-59 49 -60 137z " />
<glyph unicode="&#x3c;" d="M59 496v325l1012 361l100 -334l-636 -184l657 -197l-102 -348z" />
<glyph unicode="=" d="M88 260v328h1053v-328h-1053zM88 750v327h1053v-327h-1053z" />
<glyph unicode="&#x3e;" d="M37 467l657 197l-637 184l101 334l1011 -361v-325l-1030 -377z" />
<glyph unicode="?" horiz-adv-x="999" d="M-10 1124q35 57 80 106.5t105.5 85.5t138 56.5t180.5 20.5q113 0 201.5 -28t150 -77t93.5 -117.5t32 -150.5q0 -119 -48.5 -195.5t-127.5 -136.5q-70 -53 -95.5 -94t-25.5 -107v-16h-418v76q0 92 33 154.5t86 103.5q45 35 76.5 60.5t53 47t32 42t10.5 42.5 q0 31 -20.5 51.5t-61.5 20.5q-49 0 -94 -43t-74 -92zM256 164q0 88 60.5 136t152.5 48t152.5 -48t60.5 -136t-60.5 -136t-152.5 -48q-93 0 -154 47q-59 49 -59 137z" />
<glyph unicode="@" horiz-adv-x="1796" d="M72 522q0 215 71.5 378t193.5 272.5t280.5 165t332.5 55.5q164 0 290 -40t212 -116t130 -182.5t44 -239.5v-846q0 -39 16.5 -51t38.5 -12q39 0 80 22l86 -239q-55 -31 -125.5 -52.5t-181.5 -21.5q-68 0 -129 21.5t-106 63.5t-72 105.5t-27 149.5v68q-33 -20 -88 -37 t-133 -17t-145.5 34t-116.5 95.5t-78 147.5t-29 192q0 223 111 343t291 120q70 0 118 -13.5t70 -27.5v25q0 78 -66.5 132t-209.5 54q-80 0 -165 -29.5t-155.5 -96t-115.5 -172t-45 -257.5q0 -150 40.5 -280t128.5 -254l-309 -187q-41 53 -84 128t-76.5 168t-55 201.5 t-21.5 229.5zM1014 436q0 -94 33.5 -136t74.5 -42q25 0 46.5 9t37.5 22v289q-12 6 -31.5 13t-48.5 7q-47 0 -79.5 -37t-32.5 -125z" />
<glyph unicode="A" horiz-adv-x="1433" d="M-20 0l507 1366h461l506 -1366h-469l-72 203h-401l-72 -203h-460zM588 522h246l-123 389z" />
<glyph unicode="B" horiz-adv-x="1275" d="M102 0v1366h588q111 0 202 -22.5t155.5 -66.5t99.5 -110.5t35 -154.5q0 -68 -17.5 -116t-45 -83t-60.5 -57.5t-62 -36.5q43 -12 88 -37t82 -63.5t60.5 -94t23.5 -127.5q0 -90 -32.5 -162.5t-95 -125t-152.5 -81t-203 -28.5h-666zM532 338h156q57 0 90 23.5t33 78.5 t-31.5 80t-91.5 25h-156v-207zM532 840h115q61 0 89 30.5t28 77.5t-27.5 73t-89.5 26h-115v-207z" />
<glyph unicode="C" horiz-adv-x="1353" d="M61 682q0 172 50.5 304t137.5 222t205.5 137.5t258.5 47.5q154 0 253 -35t175 -101q61 -53 101 -115.5t67 -131.5l-385 -185q-12 41 -28.5 79t-40.5 66.5t-57.5 46t-78.5 17.5q-111 0 -159 -93t-48 -259q0 -162 59.5 -255t153.5 -93q92 0 142.5 56t74.5 136l367 -184 q-35 -78 -84 -145.5t-120 -117.5t-168 -79t-226 -29q-156 0 -277 51.5t-204 145.5t-126 224t-43 290z" />
<glyph unicode="D" horiz-adv-x="1394" d="M102 0v1366h521q170 0 303 -49t225 -138t140 -214t48 -279q0 -152 -48 -277.5t-140 -216t-225 -141.5t-303 -51h-521zM543 369h82q111 0 187.5 79.5t76.5 237.5q0 162 -77 237.5t-187 75.5h-82v-630z" />
<glyph unicode="E" horiz-adv-x="1189" d="M102 0v1366h1000v-369h-559v-151h450v-326h-450v-149h600v-371h-1041z" />
<glyph unicode="F" horiz-adv-x="1107" d="M102 0v1366h985v-369h-544v-188h436v-365h-436v-444h-441z" />
<glyph unicode="G" horiz-adv-x="1386" d="M61 684q0 164 45.5 295t130.5 223t205.5 141.5t274.5 49.5q166 0 266 -35t170 -94q47 -39 83 -88.5t58 -96.5l-383 -182q-20 53 -63 95t-119 42q-94 0 -155.5 -88t-61.5 -268q0 -98 19.5 -168t52 -113t78 -62.5t98.5 -19.5q31 0 61.5 3.5t65.5 7.5v149h-170v297h581v-719 q-104 -37 -247.5 -59.5t-309.5 -22.5q-164 0 -290.5 50.5t-212.5 143.5t-131.5 224t-45.5 295z" />
<glyph unicode="H" horiz-adv-x="1423" d="M102 0v1366h441v-477h338v477h440v-1366h-440v514h-338v-514h-441z" />
<glyph unicode="I" horiz-adv-x="645" d="M102 0v1366h441v-1366h-441z" />
<glyph unicode="J" horiz-adv-x="657" d="M-53 -53q78 23 123 62.5t45 111.5v1245h440v-1257q0 -104 -37 -188.5t-103.5 -146t-159.5 -101.5t-206 -58z" />
<glyph unicode="K" horiz-adv-x="1431" d="M102 0v1366h441v-410l346 410h514l-461 -532l510 -834h-537l-280 520l-92 -90v-430h-441z" />
<glyph unicode="L" horiz-adv-x="1095" d="M102 0v1366h441v-995h553v-371h-994z" />
<glyph unicode="M" horiz-adv-x="1687" d="M102 0v1366h455l287 -735l286 735h455v-1366h-420v590l-227 -598h-188l-228 598v-590h-420z" />
<glyph unicode="N" horiz-adv-x="1433" d="M102 0v1366h443l356 -616v616h430v-1366h-407l-392 666v-666h-430z" />
<glyph unicode="O" horiz-adv-x="1454" d="M61 684q0 156 43 287t128 224t209 145.5t286 52.5t286 -52.5t209 -145.5t128 -224t43 -287q0 -158 -43 -288t-128 -225t-209 -147.5t-286 -52.5q-162 1 -287 52q-123 53 -208 148t-128 225t-43 288zM512 684q0 -168 53 -260q55 -92 162 -92q106 0 160.5 92t54.5 260 q0 166 -54 257t-161 91q-106 0 -160.5 -91t-54.5 -257z" />
<glyph unicode="P" horiz-adv-x="1247" d="M102 0v1366h578q127 0 228.5 -31.5t172 -93t108.5 -149.5t38 -201t-38 -201t-108.5 -149.5t-172 -94t-228.5 -32.5h-143v-414h-435zM537 764h129q59 0 92 37t33 90t-33 88t-92 35h-129v-250z" />
<glyph unicode="Q" horiz-adv-x="1454" d="M61 684q0 156 43 287t128 224t209 145.5t286 52.5t286 -52.5t209 -145.5t128 -224t43 -287q0 -264 -111 -438t-332 -242q20 -35 82 -56.5t144 -21.5l-46 -280q-117 2 -216 25.5t-175.5 67.5t-127 109.5t-68.5 151.5q-240 55 -361 233.5t-121 450.5zM512 684 q0 -168 53 -260q55 -92 162 -92q106 0 160.5 92t54.5 260q0 166 -54 257t-161 91q-106 0 -160.5 -91t-54.5 -257z" />
<glyph unicode="R" horiz-adv-x="1337" d="M102 0v1366h646q121 0 217 -33t162.5 -92t101.5 -141t35 -180q0 -141 -48.5 -232.5t-146.5 -150.5l274 -537h-491l-197 446h-118v-446h-435zM537 791h161q72 0 100.5 33.5t28.5 80.5t-28.5 79t-100.5 32h-161v-225z" />
<glyph unicode="S" horiz-adv-x="1222" d="M16 238l344 202q43 -57 104.5 -94t137.5 -37q74 0 116 17.5t42 52.5q0 20 -9.5 35.5t-35 30t-72.5 31t-121 36.5q-109 29 -194.5 64.5t-146 87t-92.5 121t-32 167.5q0 100 39 182.5t112 139.5t177 88t233 31q184 0 304 -47.5t200 -126.5q35 -35 60 -72l-328 -209 q-12 20 -32.5 41.5t-49.5 40t-66.5 31t-82.5 12.5q-74 0 -108 -18.5t-34 -49.5q0 -18 8.5 -33.5t37 -31t83 -32.5t144.5 -40q86 -20 164.5 -51t139 -82t95.5 -126t35 -185q0 -115 -47 -198t-127 -137t-184.5 -81t-219.5 -27q-186 0 -308 42t-204 120q-41 41 -82 105z" />
<glyph unicode="T" horiz-adv-x="1173" d="M6 997v369h1161v-369h-358v-997h-442v997h-361z" />
<glyph unicode="U" horiz-adv-x="1421" d="M94 508v858h441v-838q0 -100 45 -144t131 -44t131 44t45 144v838h440v-858q0 -258 -160.5 -397.5t-455.5 -139.5t-456 139.5t-161 397.5z" />
<glyph unicode="V" horiz-adv-x="1427" d="M-20 1366h520l248 -760l227 760h473l-508 -1366h-381z" />
<glyph unicode="W" horiz-adv-x="1802" d="M-20 1366h446l149 -618l164 618h324l162 -618l153 618h445l-373 -1366h-356l-195 686l-188 -686h-359z" />
<glyph unicode="X" horiz-adv-x="1392" d="M-20 0l466 698l-436 668h500l190 -319l193 319h487l-434 -657l467 -709h-510l-211 354l-215 -354h-497z" />
<glyph unicode="Y" horiz-adv-x="1404" d="M-20 1366h501l228 -430l219 430h497l-499 -846v-520h-441v518z" />
<glyph unicode="Z" horiz-adv-x="1267" d="M51 0v301l576 696h-549v369h1114v-307l-571 -688h593v-371h-1163z" />
<glyph unicode="[" horiz-adv-x="788" d="M135 -293v1800h653v-286h-233v-1227h233v-287h-653z" />
<glyph unicode="\" horiz-adv-x="1079" d="M0 1419l305 152l774 -1503l-305 -152z" />
<glyph unicode="]" horiz-adv-x="788" d="M0 -6h233v1227h-233v286h653v-1800h-653v287z" />
<glyph unicode="^" horiz-adv-x="1130" d="M25 618l378 748h324l379 -748l-330 -79l-211 469l-211 -469z" />
<glyph unicode="_" horiz-adv-x="1146" d="M0 -172h1147v-320h-1147v320z" />
<glyph unicode="`" horiz-adv-x="614" d="M0 1276l121 254l493 -242l-100 -194z" />
<glyph unicode="a" horiz-adv-x="1091" d="M29 283q0 72 25.5 127t70.5 95t105.5 63.5t129.5 33.5q78 12 129.5 14t104.5 5v20q0 53 -36 80t-89 27q-111 0 -184 -62l-201 188q35 33 76 62t96 50.5t128 33.5t169 12q217 0 339 -100.5t122 -304.5v-627h-346l-41 80q-41 -33 -112 -62.5t-175 -29.5q-143 0 -227 79.5 t-84 215.5zM422 334q0 -37 23.5 -60.5t64.5 -23.5q27 0 46 6t38 16v172q-23 0 -41 -1t-43 -5q-45 -8 -66.5 -36.5t-21.5 -67.5z" />
<glyph unicode="b" horiz-adv-x="1208" d="M82 59v1307h432v-365q37 14 88 22.5t119 8.5q98 0 179 -35.5t137.5 -101.5t88 -159t31.5 -208q0 -137 -41 -240.5t-117.5 -172t-185 -103.5t-244.5 -35q-166 0 -282.5 24t-204.5 58zM514 291q16 -4 31.5 -6t48.5 -2q63 0 101 52t38 169q0 111 -38 164t-101 53 q-29 0 -46.5 -5t-33.5 -9v-416z" />
<glyph unicode="c" horiz-adv-x="1122" d="M51 500q0 123 38 221t108.5 167.5t170 106.5t222.5 37q211 0 329.5 -86t172.5 -229l-359 -129q-14 61 -42.5 100t-82.5 39q-59 0 -95 -53t-36 -170q0 -113 37 -169t94 -56t91 39.5t46 109.5l353 -147q-57 -139 -178 -220t-336 -81q-117 0 -215.5 35.5t-169 102 t-109.5 163t-39 219.5z" />
<glyph unicode="d" horiz-adv-x="1208" d="M51 504q0 119 33 216t92.5 166.5t141 107.5t180.5 38q59 0 110 -8t86 -25v367h432v-1366h-364l-23 80q-14 -18 -33.5 -35.5t-49 -32t-70.5 -23.5t-99 -9q-96 0 -176 37.5t-138 106.5t-90 165t-32 215zM475 504q0 -123 39 -175.5t96 -52.5q59 0 84 31v400q-12 8 -28.5 14 t-51.5 6q-59 0 -99 -58.5t-40 -164.5z" />
<glyph unicode="e" horiz-adv-x="1056" d="M51 502q0 125 40 223t110.5 167t169 104.5t215.5 35.5q236 0 373 -145.5t137 -454.5h-631q2 -59 45 -105t129 -46q66 0 106.5 21.5t63.5 47.5l250 -190q-27 -35 -66 -67t-94 -57.5t-131 -40.5t-176 -15q-115 0 -213 33.5t-171 99t-115 163t-42 226.5zM467 631h242 q-4 66 -34 108.5t-83 42.5q-57 0 -89 -44t-36 -107z" />
<glyph unicode="f" horiz-adv-x="798" d="M12 723v287h138v30q0 160 101 256.5t300 96.5q55 0 106.5 -7.5t94.5 -17.5t75.5 -21.5t51.5 -19.5l-88 -233q-23 8 -49.5 15t-65.5 7q-47 0 -71.5 -25.5t-24.5 -56.5v-24h202v-287h-200v-723h-432v723h-138z" />
<glyph unicode="g" horiz-adv-x="1163" d="M43 -143q0 45 15.5 78.5t38 55t48 35t45.5 19.5q-53 33 -80.5 74t-27.5 119q0 29 12 58.5t29.5 54t37 44t36.5 25.5q-51 29 -93.5 95.5t-42.5 143.5q0 102 39 173t105.5 116t157 64.5t192.5 19.5q76 0 124 -7t93 -21l123 135l213 -160l-100 -119q29 -23 59.5 -76 t30.5 -125q0 -88 -38 -152.5t-102.5 -107.5t-152.5 -63.5t-189 -20.5q-76 0 -128 9.5t-64 15.5q-10 -8 -21.5 -25.5t-11.5 -33.5q0 -12 5 -22.5t20.5 -18t46.5 -11.5t84 -6q113 -4 183.5 -8t115.5 -10t75.5 -15.5t65.5 -21.5q86 -29 131 -91.5t45 -166.5q0 -57 -20.5 -106.5 t-55.5 -84.5q-72 -68 -198.5 -99.5t-306.5 -31.5q-272 0 -405.5 74t-133.5 195zM391 -104q0 -41 54.5 -65t158.5 -24t150.5 15.5t46.5 50.5q0 29 -30 46.5t-107 21.5q-105 6 -158 10q-53 2 -90 6q-10 -14 -17.5 -28.5t-7.5 -32.5zM465 659q0 -40 29 -73t86 -33t83.5 32.5 t26.5 73.5t-26.5 75t-83.5 34t-86 -34t-29 -75z" />
<glyph unicode="h" horiz-adv-x="1222" d="M82 0v1366h432v-401q41 27 104.5 47t145.5 20q174 0 277.5 -93t103.5 -273v-666h-432v610q0 113 -92 113q-35 0 -60.5 -11.5t-46.5 -27.5v-684h-432z" />
<glyph unicode="i" horiz-adv-x="593" d="M80 1235q0 80 58.5 119t158.5 39t158.5 -39t58.5 -119q0 -82 -58.5 -122t-158.5 -40q-101 0 -160 39q-57 41 -57 123zM82 0v1010h430v-1010h-430z" />
<glyph unicode="j" horiz-adv-x="587" d="M-55 -178q27 18 50 35.5t41.5 39t29 52.5t10.5 78v983h430v-1006q0 -92 -24.5 -162.5t-67.5 -123t-103.5 -88.5t-132.5 -58zM74 1235q0 80 58 119t159 39q100 0 158.5 -39t58.5 -119q0 -82 -58.5 -122t-158.5 -40q-101 0 -160 39q-57 41 -57 123z" />
<glyph unicode="k" horiz-adv-x="1214" d="M82 0v1366h432v-616l254 260h432l-299 -336l334 -674h-465l-176 399l-80 -90v-309h-432z" />
<glyph unicode="l" horiz-adv-x="595" d="M82 0v1366h432v-1366h-432z" />
<glyph unicode="m" horiz-adv-x="1804" d="M82 0v1010h369l22 -90q39 39 109.5 75.5t169.5 36.5q104 0 176.5 -31.5t113.5 -87.5q66 59 142 89t174 30q174 0 271 -93t97 -273v-666h-432v623q0 49 -18.5 74.5t-65.5 25.5q-29 0 -51 -11.5t-39 -25.5v-686h-432v623q0 49 -18.5 74.5t-65.5 25.5q-29 0 -51.5 -11.5 t-38.5 -25.5v-686h-432z" />
<glyph unicode="n" horiz-adv-x="1222" d="M82 0v1010h369l22 -90q39 39 112.5 75.5t178.5 36.5q174 0 277.5 -93t103.5 -273v-666h-432v610q0 113 -92 113q-35 0 -60.5 -11.5t-46.5 -27.5v-684h-432z" />
<glyph unicode="o" horiz-adv-x="1196" d="M51 510q0 119 39 216t109.5 164.5t172 104.5t226.5 37t226.5 -37t172 -104.5t109.5 -164.5t39 -216q0 -121 -39 -218t-109.5 -167t-172 -107.5t-226.5 -37.5t-226 37.5t-173 107.5q-70 70 -109 167t-39 218zM477 510q0 -100 31 -166q31 -65 88 -65h2q59 0 90 65.5 t31 165.5q0 98 -31 157.5t-90 59.5t-90 -59.5t-31 -157.5z" />
<glyph unicode="p" horiz-adv-x="1208" d="M82 -387v1397h364l23 -78q12 12 31.5 29.5t49.5 33t72 26.5t99 11q96 0 176 -38t138.5 -106.5t90 -165.5t31.5 -216t-32.5 -216t-92 -167t-141.5 -108t-180 -38q-59 0 -110.5 8.5t-86.5 24.5v-397h-432zM514 303q12 -8 28.5 -14t51.5 -6q59 0 99 58t40 165q0 123 -39 176 t-96 53q-59 0 -84 -30v-402z" />
<glyph unicode="q" horiz-adv-x="1200" d="M51 485q0 137 45 240.5t126 171.5t190.5 101.5t238.5 33.5q160 0 276.5 -14t190.5 -29v-1376h-432v379q-25 -4 -65.5 -8t-110.5 -4q-96 0 -180 33.5t-145.5 99t-97.5 159t-36 213.5zM475 492q0 -111 45 -160t98 -49q23 0 40.5 4t27.5 8v422q-16 2 -32.5 3t-32.5 1 q-59 0 -102.5 -59.5t-43.5 -169.5z" />
<glyph unicode="r" horiz-adv-x="864" d="M82 0v1010h379l24 -92q33 41 89.5 71.5t123.5 30.5q53 0 103.5 -13.5t79.5 -29.5l-111 -326q-29 14 -60.5 22.5t-70.5 8.5t-75 -15.5t-50 -29.5v-637h-432z" />
<glyph unicode="s" horiz-adv-x="1052" d="M18 127l203 195q41 -31 111.5 -60t152.5 -29q37 0 61.5 4.5t41.5 10.5q29 12 28 35q0 14 -8 25t-29.5 22.5t-59.5 23t-97 27.5q-80 23 -144.5 49.5t-109.5 64t-68.5 89t-23.5 123.5q0 80 38 140t102.5 102t152.5 62.5t190 20.5q92 0 165 -12t129 -32.5t97 -46.5t70 -52 l-209 -187q-35 27 -91 53.5t-134 26.5q-31 0 -49.5 -3t-34.5 -11q-27 -12 -27 -37q0 -10 2 -19.5t19.5 -18.5t53.5 -21.5t103 -28.5q82 -20 149.5 -46t117 -63.5t76 -92t26.5 -132.5q0 -90 -41 -152.5t-109.5 -101.5t-157.5 -57t-186 -18q-199 0 -324.5 43t-185.5 104z" />
<glyph unicode="t" horiz-adv-x="866" d="M12 723v287h142v250h432v-250h225v-287h-225v-383q0 -33 16 -49q14 -14 43 -15q35 0 64.5 13.5t54.5 32.5l110 -236q-68 -47 -160.5 -76.5t-215.5 -29.5q-96 0 -162 25.5t-106 70.5t-58 104.5t-18 126.5v416h-142z" />
<glyph unicode="u" horiz-adv-x="1222" d="M78 344v666h432v-611q0 -112 90 -112h2q35 0 60.5 11t46.5 28v684h432v-1010h-369l-22 90q-39 -39 -113 -76t-178 -37q-174 0 -277.5 93.5t-103.5 273.5z" />
<glyph unicode="v" horiz-adv-x="1214" d="M-16 1010h477l164 -543l155 543h451l-430 -1010h-371z" />
<glyph unicode="w" horiz-adv-x="1619" d="M-16 1010h438l123 -480l121 480h290l119 -480l123 480h438l-356 -1010h-338l-133 487l-131 -487h-338z" />
<glyph unicode="x" horiz-adv-x="1171" d="M-16 1010h475l139 -246l137 246h441l-353 -502l365 -508h-475l-133 244l-146 -244h-444l364 500z" />
<glyph unicode="y" horiz-adv-x="1214" d="M-16 1010h477l157 -510l162 510h451l-490 -1155q-59 -139 -146 -203t-226 -64q-133 0 -207 20.5t-127 45.5l94 262q29 -12 69 -22.5t74 -10.5q78 0 107 66l41 96z" />
<glyph unicode="z" horiz-adv-x="1120" d="M53 0v242l455 477h-432v291h977v-262l-437 -457h453v-291h-1016z" />
<glyph unicode="{" horiz-adv-x="860" d="M31 588v192q100 10 137 48t37 118v189q0 61 12 114.5t43 96.5t86 74.5t141 47.5q72 14 155 20.5t177 8.5l23 -266q-127 -8 -178.5 -44t-51.5 -114v-170q0 -92 -50 -146.5t-136 -72.5q86 -18 136 -72.5t50 -146.5v-170q0 -76 50.5 -112t179.5 -46l-23 -266q-94 2 -177 8 t-155 21q-86 16 -141 48t-86 75t-43 96t-12 114v189q0 80 -37 118t-137 48z" />
<glyph unicode="|" horiz-adv-x="593" d="M123 -152v1663h348v-1663h-348z" />
<glyph unicode="}" horiz-adv-x="860" d="M18 137q129 10 179.5 46t50.5 112v170q0 92 50 146.5t136 72.5q-86 18 -136 72.5t-50 146.5v170q0 78 -51.5 114t-178.5 44l23 266q94 -2 177 -8t155 -21q86 -16 141 -47.5t86 -74.5t43 -96.5t12 -114.5v-189q0 -80 37 -117.5t137 -48.5v-192q-100 -10 -137 -48t-37 -118 v-189q0 -61 -12 -114t-43 -96t-86 -75t-141 -48q-72 -14 -155 -20.5t-177 -8.5z" />
<glyph unicode="~" horiz-adv-x="970" d="M-4 909q2 88 21.5 167t57.5 136.5t94 91t130 33.5q68 0 117 -22.5t86 -48t67.5 -48t63.5 -22.5q74 0 86 139h256q-8 -193 -82 -309.5t-209 -116.5q-68 0 -116 22.5t-86 49.5t-71.5 49.5t-74.5 22.5t-59.5 -36t-24.5 -108h-256z" />
<glyph unicode="&#xa1;" horiz-adv-x="577" d="M72 -387v905h434v-905h-434zM76 825q0 88 60.5 136.5t152.5 48.5t152.5 -48.5t60.5 -136.5t-60.5 -136t-152.5 -48q-93 0 -154 47q-59 49 -59 137z" />
<glyph unicode="&#xa2;" d="M121 678q0 106 28.5 188t80 139.5t122 94.5t154.5 55v211h336v-207q43 -4 88 -16.5t85 -29.5t72.5 -35.5t53.5 -35.5l-170 -278q-41 29 -98.5 54.5t-143.5 25.5t-139 -47t-53 -119q0 -78 55 -126t129 -48q68 0 132.5 23.5t113.5 60.5l151 -285q-59 -47 -138 -74.5 t-138 -38.5v-213h-336v220q-78 20 -148.5 57t-123 95.5t-83 139t-30.5 189.5z" />
<glyph unicode="&#xa3;" d="M29 504v305h159v63q0 236 127 372t402 136q119 0 201.5 -24.5t139 -66.5t90.5 -96t54 -114l-379 -106q-10 29 -33.5 55.5t-68.5 26.5q-55 0 -81 -33t-26 -76v-137h433v-305h-433v-174h566v-330h-992v504h-159z" />
<glyph unicode="&#xa4;" horiz-adv-x="1511" d="M0 199l328 311q-63 113 -64 244q0 127 58 233l-322 303l184 166l303 -289q59 35 127 51.5t138 16.5q72 0 140.5 -16.5t129.5 -53.5l305 291l184 -166l-323 -303q29 -53 41 -110.5t12 -116.5q0 -137 -63 -246l333 -315l-176 -170l-329 311q-59 -33 -125 -47t-133 -14 q-63 0 -126 14t-120 45l-326 -309zM508 756q0 -53 17 -99.5t50 -81.5t77 -54t100 -19q55 0 100 19.5t78 54t50 80.5t17 100q0 53 -17 100t-50 82t-78 54.5t-100 19.5t-100.5 -19.5t-77 -54.5t-49 -81t-17.5 -101z" />
<glyph unicode="&#xa5;" d="M0 1356h461l147 -484l140 484h456l-299 -656h201v-305h-289v-395h-424v395h-307v305h217z" />
<glyph unicode="&#xa6;" horiz-adv-x="593" d="M123 -152v633h348v-633h-348zM123 879v632h348v-632h-348z" />
<glyph unicode="&#xa7;" horiz-adv-x="1050" d="M41 -158l166 267q47 -35 121.5 -62t140.5 -27q78 0 108.5 16.5t30.5 49.5q0 31 -30.5 54.5t-98.5 49.5l-125 48q-86 33 -144 100.5t-58 159.5q0 35 8 69.5t28 71.5l574 -233q104 -43 160.5 -120t56.5 -223q0 -70 -32 -134t-92 -114.5t-146 -80t-195 -29.5 q-154 0 -270.5 40t-202.5 97zM80 1038q0 70 30.5 134.5t89 113.5t141.5 78t189 29q86 0 154 -11.5t122 -30t99 -43t88 -53.5l-166 -266q-47 35 -115.5 61.5t-136.5 26.5q-57 0 -90.5 -16.5t-33.5 -48.5q0 -31 28.5 -54.5t95.5 -48.5l109 -41q88 -33 146.5 -100.5 t58.5 -159.5q0 -72 -39 -141l-557 227q-98 41 -155.5 119t-57.5 225z" />
<glyph unicode="&#xa8;" horiz-adv-x="876" d="M0 1292q0 72 50 119t145 47q92 0 141 -47t49 -119t-49 -117t-141 -45q-95 1 -146 46q-49 45 -49 116zM489 1292q0 72 50.5 119t144.5 47q92 0 141 -47t49 -119t-49 -117t-141 -45q-94 1 -145 46q-49 45 -50 116z" />
<glyph unicode="&#xa9;" horiz-adv-x="1587" d="M90 608q0 143 44 279.5t133 244t220 173t308 65.5q174 0 306 -65.5t220 -173t132 -243.5t44 -280q0 -145 -44 -282.5t-132 -245t-220 -173t-306 -65.5q-177 0 -308 66t-220 173t-133 244.5t-44 282.5zM264 608q0 -117 33.5 -225.5t101.5 -192.5t167.5 -134t228.5 -50 t228 50t165.5 134t100.5 193t34 225q0 115 -34 223.5t-100.5 192.5t-165.5 134t-228 50q-131 0 -230.5 -50t-166 -134t-100.5 -192.5t-34 -223.5zM395 604q0 119 34 208t90 147.5t130 87t154 28.5q129 0 212 -53t134 -164l-172 -94q-31 63 -69 99t-101 36q-39 0 -76 -17.5 t-64.5 -54t-45 -92t-17.5 -131.5q0 -135 62.5 -212t150.5 -77q47 0 88 25t84 102l168 -100q-66 -117 -149.5 -161t-196.5 -44q-92 0 -169 32t-132 92.5t-85 146.5t-30 196z" />
<glyph unicode="&#xaa;" horiz-adv-x="759" d="M35 834q0 63 33.5 109t89 77t129 47t153.5 23v20q0 23 -20.5 38t-54.5 15q-33 0 -61 -11t-50 -28l-152 146q23 14 49.5 30.5t61.5 29.5t81 21.5t107 8.5q150 0 228 -73t78 -208v-461h-246l-8 54q-27 -25 -70 -46.5t-102 -21.5q-47 0 -91.5 14.5t-79 42t-55 70.5 t-20.5 103zM295 836q0 -27 11 -40.5t46 -13.5q25 0 48.5 11.5t41.5 29.5v103q-23 -4 -45 -8.5t-39 -10.5q-63 -20 -63 -71z" />
<glyph unicode="&#xab;" horiz-adv-x="1175" d="M10 512l307 477l308 -180l-205 -285l219 -293l-293 -180zM551 512l309 430l273 -188l-172 -230l200 -233l-266 -205z" />
<glyph unicode="&#xac;" d="M88 516v328h1053v-651h-346v323h-707z" />
<glyph unicode="&#xad;" horiz-adv-x="675" d="M37 412v325h602v-325h-602z" />
<glyph unicode="&#xae;" horiz-adv-x="1589" d="M92 608q0 143 44 279.5t133 244t220.5 173t307.5 65.5q174 0 305 -65.5t219 -173t132 -243.5t44 -280q0 -145 -44 -282.5t-132 -245t-220 -173t-306 -65.5q-177 0 -308 66t-219 173t-132 244.5t-44 282.5zM264 608q0 -117 33.5 -225.5t101.5 -192.5t167.5 -134t230.5 -50 q129 0 227 50t165.5 134t101.5 193t34 225q0 115 -34 223.5t-100.5 192.5t-165.5 134t-228 50q-131 0 -230.5 -50t-167 -134t-101.5 -192.5t-34 -223.5zM502 209v831h311q166 0 246 -66.5t80 -195.5q0 -104 -47.5 -162.5t-118.5 -83.5l174 -323h-203l-158 301h-94v-301h-190 zM692 684h107q78 0 110.5 20.5t32.5 79.5q0 49 -29.5 65.5t-105.5 16.5h-115v-182z" />
<glyph unicode="&#xaf;" horiz-adv-x="663" d="M0 1182v235h664v-235h-664z" />
<glyph unicode="&#xb0;" horiz-adv-x="811" d="M61 1040q0 74 26 134.5t72 102.5t108.5 65.5t138.5 23.5t138 -23.5t108 -65.5t72 -102.5t26 -134.5t-26 -134t-71 -103t-108.5 -66.5t-138.5 -23.5q-76 0 -139.5 23.5t-108.5 66.5t-71 103.5t-26 133.5zM295 1038q0 -63 35 -95t76 -32t75.5 32t34.5 95q0 66 -35 97.5 t-75 31.5q-41 0 -76 -31.5t-35 -97.5z" />
<glyph unicode="&#xb1;" d="M88 0v328h1053v-328h-1053zM88 670v327h352v371h346v-371h355v-327h-355v-250h-346v250h-352z" />
<glyph unicode="&#xb2;" horiz-adv-x="757" d="M35 1194q20 35 55 68.5t81 60.5t104.5 43t125.5 16q68 0 126.5 -17t101.5 -48t68.5 -72t25.5 -90t-20.5 -90t-53.5 -77t-77 -66.5t-89 -61.5h236v-194h-647v125q78 59 162.5 123.5t148.5 117.5q29 25 43 45.5t14 48.5q0 53 -65 54q-35 0 -60.5 -27t-42.5 -55z" />
<glyph unicode="&#xb3;" horiz-adv-x="757" d="M39 797l199 114q16 -27 45.5 -43t70.5 -16q90 0 90 49q0 27 -26.5 38t-104.5 11v140q76 0 97.5 12t21.5 35q0 45 -76 45q-31 0 -60.5 -15.5t-47.5 -38.5l-191 113q27 31 57.5 56.5t70.5 45t92.5 29.5t119.5 10q147 0 228.5 -51t81.5 -143q0 -74 -40 -109t-85 -53 q55 -12 96 -48t41 -114q0 -98 -87 -156.5t-247 -58.5q-135 0 -217 40t-129 108z" />
<glyph unicode="&#xb4;" horiz-adv-x="614" d="M0 1288l494 242l120 -254l-514 -182z" />
<glyph unicode="&#xb5;" horiz-adv-x="1306" d="M92 -385v1395h432v-527v-37.5t2 -37.5q4 -55 25.5 -84t75.5 -29q41 0 65.5 26.5t28.5 98.5q2 18 2 40.5v41.5v508h432v-607q0 -88 21.5 -117.5t60.5 -29.5q37 0 80 14l20 -258q-43 -16 -89 -24t-93 -8q-104 0 -167.5 37.5t-90.5 101.5q-33 -76 -88 -109 q-33 -18 -63.5 -24t-57.5 -6q-66 0 -112 22.5t-66 50.5v-438h-418z" />
<glyph unicode="&#xb6;" horiz-adv-x="1085" d="M33 938q0 86 31.5 163t89 136t136.5 94t175 35h164v-1663h-219v813q-84 10 -154 47t-119 93.5t-76.5 129t-27.5 152.5zM727 -297v1663h223v-1663h-223z" />
<glyph unicode="&#xb7;" horiz-adv-x="667" d="M123 754q0 88 60.5 146t152.5 58t152.5 -58t60.5 -146t-60.5 -146.5t-152.5 -58.5q-93 0 -154 57q-59 59 -59 148z" />
<glyph unicode="&#xb8;" horiz-adv-x="471" d="M-14 -422l139 305h332l-183 -305h-288z" />
<glyph unicode="&#xb9;" horiz-adv-x="747" d="M41 1210l291 150h227v-694h-295v430l-127 -68z" />
<glyph unicode="&#xba;" horiz-adv-x="845" d="M47 983q0 80 24.5 148.5t71.5 118.5t117 80t160 30t159.5 -30t117.5 -80t73 -118.5t25 -148.5q0 -78 -23.5 -147.5t-72 -120.5t-118 -81t-161.5 -30t-162 29q-70 31 -117 82t-70.5 120.5t-23.5 147.5zM324 983q-1 -82 26 -121q27 -37 70 -37t70.5 38t27.5 120 q0 86 -26.5 124t-71.5 38q-43 0 -69.5 -38t-26.5 -124z" />
<glyph unicode="&#xbb;" horiz-adv-x="1175" d="M14 750l267 204l344 -426l-310 -430l-272 189l172 229zM537 809l292 180l336 -461l-307 -477l-307 180l205 285z" />
<glyph unicode="&#xbc;" horiz-adv-x="1884" d="M98 1210l291 150h227v-694h-295v430l-127 -68zM203 150l1382 1253l189 -182l-1387 -1262zM1073 124v191l324 393h290v-405h82v-179h-82v-120h-305v120h-309zM1237 303h145v176z" />
<glyph unicode="&#xbd;" horiz-adv-x="1884" d="M33 1210l291 150h227v-694h-295v430l-127 -68zM113 150l1382 1253l189 -182l-1387 -1262zM1098 532q20 35 55 68.5t81 60.5t104.5 43t125.5 16q68 0 126.5 -17t101.5 -48t68.5 -72t25.5 -90t-20.5 -90t-53.5 -77t-77 -66.5t-89 -61.5h236v-194h-647v125 q78 59 162.5 123.5t148.5 117.5q29 25 43 45.5t14 48.5q0 53 -65 54q-35 0 -60.5 -27t-42.5 -55z" />
<glyph unicode="&#xbe;" horiz-adv-x="1884" d="M68 797l199 114q16 -27 45.5 -43t70.5 -16q90 0 90 49q0 27 -26.5 38t-104.5 11v140q76 0 97.5 12t21.5 35q0 45 -76 45q-31 0 -60.5 -15.5t-47.5 -38.5l-191 113q27 31 57.5 56.5t70.5 45t92.5 29.5t119.5 10q147 0 228.5 -51t81.5 -143q0 -74 -40 -109t-85 -53 q55 -12 96 -48t41 -114q0 -98 -87 -156.5t-247 -58.5q-135 0 -217 40t-129 108zM203 150l1382 1253l189 -182l-1387 -1262zM1083 124v191l324 393h290v-405h82v-179h-82v-120h-305v120h-309zM1247 303h145v176z" />
<glyph unicode="&#xbf;" horiz-adv-x="999" d="M29 -31q0 119 48 196t128 136q70 53 95.5 94t25.5 107v16h417v-76q0 -92 -32.5 -154.5t-85.5 -103.5q-45 -35 -77 -60.5t-53.5 -47t-31.5 -42t-10 -42.5q0 -31 20.5 -51.5t61.5 -20.5q49 0 94 43t73 92l308 -190q-35 -57 -80 -106.5t-105.5 -85t-139.5 -56t-179 -20.5 q-115 0 -203 27.5t-149.5 76.5t-93 117.5t-31.5 150.5zM317 825q0 88 60.5 136.5t152.5 48.5t152.5 -48.5t60.5 -136.5t-60 -136t-153 -48q-92 0 -153 47q-59 49 -60 137z" />
<glyph unicode="&#xc0;" horiz-adv-x="1433" d="M-20 0l507 1366h461l506 -1366h-469l-72 203h-401l-72 -203h-460zM344 1610l121 254l493 -242l-100 -194zM588 522h246l-123 389z" />
<glyph unicode="&#xc1;" horiz-adv-x="1433" d="M-20 0l507 1366h461l506 -1366h-469l-72 203h-401l-72 -203h-460zM463 1622l494 242l120 -254l-514 -182zM588 522h246l-123 389z" />
<glyph unicode="&#xc2;" horiz-adv-x="1433" d="M-20 0l507 1366h461l506 -1366h-469l-72 203h-401l-72 -203h-460zM342 1604l250 203h262l250 -209l-141 -158l-240 145l-258 -145zM588 522h246l-123 389z" />
<glyph unicode="&#xc3;" horiz-adv-x="1433" d="M-20 0l507 1366h461l506 -1366h-469l-72 203h-401l-72 -203h-460zM281 1540q35 131 102.5 204t159.5 73q39 0 76 -13.5t71.5 -30t67.5 -29.5t64 -13q49 0 73.5 25.5t38.5 66.5l189 -62q-10 -59 -30.5 -110t-52.5 -90t-76 -61.5t-101 -22.5q-43 0 -82 13t-75 29.5 t-69.5 30t-64.5 13.5q-43 0 -65.5 -22.5t-45.5 -76.5zM588 522h246l-123 389z" />
<glyph unicode="&#xc4;" horiz-adv-x="1433" d="M-20 0l507 1366h461l506 -1366h-469l-72 203h-401l-72 -203h-460zM279 1626q0 72 50 119t145 47q92 0 141 -47t49 -119t-49 -117t-141 -45q-95 1 -146 46q-49 45 -49 116zM588 522h246l-123 389zM768 1626q0 72 50.5 119t144.5 47q92 0 141 -47t49 -119t-49 -117 t-141 -45q-94 1 -145 46q-49 45 -50 116z" />
<glyph unicode="&#xc5;" horiz-adv-x="1433" d="M-20 0l507 1366h461l506 -1366h-469l-72 203h-401l-72 -203h-460zM432 1618q0 49 17.5 97t52 85t88 59.5t127.5 22.5t127 -22.5t88 -59.5t52 -85t17 -97t-17 -96t-52 -83t-88.5 -58.5t-126.5 -22.5q-74 -1 -127 22t-88 59t-52.5 83t-17.5 96zM588 522h246l-123 389z M612 1620q0 -45 29 -72.5t76 -27.5t75.5 27.5t28.5 72.5q0 47 -28.5 74.5t-75.5 27.5t-76 -27.5t-29 -74.5z" />
<glyph unicode="&#xc6;" horiz-adv-x="1959" d="M-20 0l776 1368h1116v-371h-533v-151h424v-326h-424v-149h574v-371h-1004v203h-362l-107 -203h-460zM674 522h235v441z" />
<glyph unicode="&#xc7;" horiz-adv-x="1353" d="M61 682q0 172 50.5 304t137.5 222t205.5 137.5t258.5 47.5q154 0 253 -35t175 -101q61 -53 101 -115.5t67 -131.5l-385 -185q-12 41 -28.5 79t-40.5 66.5t-57.5 46t-78.5 17.5q-111 0 -159 -93t-48 -259q0 -162 59.5 -255t153.5 -93q92 0 142.5 56t74.5 136l367 -184 q-35 -78 -84 -145.5t-120 -117.5t-168 -79t-226 -29q-156 0 -277 51.5t-204 145.5t-126 224t-43 290zM414 -422l139 305h332l-183 -305h-288z" />
<glyph unicode="&#xc8;" horiz-adv-x="1189" d="M102 0v1366h1000v-369h-559v-151h450v-326h-450v-149h600v-371h-1041zM291 1610l121 254l493 -242l-100 -194z" />
<glyph unicode="&#xc9;" horiz-adv-x="1189" d="M102 0v1366h1000v-369h-559v-151h450v-326h-450v-149h600v-371h-1041zM313 1622l494 242l120 -254l-514 -182z" />
<glyph unicode="&#xca;" horiz-adv-x="1189" d="M102 0v1366h1000v-369h-559v-151h450v-326h-450v-149h600v-371h-1041zM225 1604l250 203h262l250 -209l-141 -158l-240 145l-258 -145z" />
<glyph unicode="&#xcb;" horiz-adv-x="1189" d="M102 0v1366h1000v-369h-559v-151h450v-326h-450v-149h600v-371h-1041zM184 1626q0 72 50 119t145 47q92 0 141 -47t49 -119t-49 -117t-141 -45q-95 1 -146 46q-49 45 -49 116zM673 1626q0 72 50.5 119t144.5 47q92 0 141 -47t49 -119t-49 -117t-141 -45q-94 1 -145 46 q-49 45 -50 116z" />
<glyph unicode="&#xcc;" horiz-adv-x="645" d="M-10 1610l121 254l493 -242l-100 -194zM102 0v1366h441v-1366h-441z" />
<glyph unicode="&#xcd;" horiz-adv-x="645" d="M102 0v1366h441v-1366h-441zM104 1622l494 242l120 -254l-514 -182z" />
<glyph unicode="&#xce;" horiz-adv-x="645" d="M-47 1604l250 203h262l250 -209l-141 -158l-240 145l-258 -145zM102 0v1366h441v-1366h-441z" />
<glyph unicode="&#xcf;" horiz-adv-x="645" d="M-106 1626q0 72 50 119t145 47q92 0 141 -47t49 -119t-49 -117t-141 -45q-95 1 -146 46q-49 45 -49 116zM102 0v1366h441v-1366h-441zM383 1626q0 72 50.5 119t144.5 47q92 0 141 -47t49 -119t-49 -117t-141 -45q-94 1 -145 46q-49 45 -50 116z" />
<glyph unicode="&#xd0;" horiz-adv-x="1394" d="M-27 541v307h129v520h521q170 0 303 -49t225 -138t140 -215t48 -280q0 -152 -48 -277.5t-140 -216t-225 -141.5t-303 -51h-521v541h-129zM543 369h82q111 0 187.5 79.5t76.5 237.5q0 162 -77 237.5t-187 75.5h-82v-151h192v-307h-192v-172z" />
<glyph unicode="&#xd1;" horiz-adv-x="1433" d="M102 0v1366h443l356 -616v616h430v-1366h-407l-392 666v-666h-430zM313 1540q35 131 102.5 204t159.5 73q39 0 76 -13.5t71.5 -30t67.5 -29.5t64 -13q49 0 73.5 25.5t38.5 66.5l189 -62q-10 -59 -30.5 -110t-52.5 -90t-76 -61.5t-101 -22.5q-43 0 -82 13t-75 29.5 t-69.5 30t-64.5 13.5q-43 0 -65.5 -22.5t-45.5 -76.5z" />
<glyph unicode="&#xd2;" horiz-adv-x="1454" d="M61 684q0 156 43 287t128 224t209 145.5t286 52.5t286 -52.5t209 -145.5t128 -224t43 -287q0 -158 -43 -288t-128 -225t-209 -147.5t-286 -52.5q-162 1 -287 52q-123 53 -208 148t-128 225t-43 288zM408 1610l121 254l493 -242l-100 -194zM512 684q0 -168 53 -260 q55 -92 162 -92q106 0 160.5 92t54.5 260q0 166 -54 257t-161 91q-106 0 -160.5 -91t-54.5 -257z" />
<glyph unicode="&#xd3;" horiz-adv-x="1454" d="M61 684q0 156 43 287t128 224t209 145.5t286 52.5t286 -52.5t209 -145.5t128 -224t43 -287q0 -158 -43 -288t-128 -225t-209 -147.5t-286 -52.5q-162 1 -287 52q-123 53 -208 148t-128 225t-43 288zM432 1622l494 242l120 -254l-514 -182zM512 684q0 -168 53 -260 q55 -92 162 -92q106 0 160.5 92t54.5 260q0 166 -54 257t-161 91q-106 0 -160.5 -91t-54.5 -257z" />
<glyph unicode="&#xd4;" horiz-adv-x="1454" d="M61 684q0 156 43 287t128 224t209 145.5t286 52.5t286 -52.5t209 -145.5t128 -224t43 -287q0 -158 -43 -288t-128 -225t-209 -147.5t-286 -52.5q-162 1 -287 52q-123 53 -208 148t-128 225t-43 288zM348 1604l250 203h262l250 -209l-141 -158l-240 145l-258 -145z M512 684q0 -168 53 -260q55 -92 162 -92q106 0 160.5 92t54.5 260q0 166 -54 257t-161 91q-106 0 -160.5 -91t-54.5 -257z" />
<glyph unicode="&#xd5;" horiz-adv-x="1454" d="M61 684q0 156 43 287t128 224t209 145.5t286 52.5t286 -52.5t209 -145.5t128 -224t43 -287q0 -158 -43 -288t-128 -225t-209 -147.5t-286 -52.5q-162 1 -287 52q-123 53 -208 148t-128 225t-43 288zM291 1540q35 131 102.5 204t159.5 73q39 0 76 -13.5t71.5 -30 t67.5 -29.5t64 -13q49 0 73.5 25.5t38.5 66.5l189 -62q-10 -59 -30.5 -110t-52.5 -90t-76 -61.5t-101 -22.5q-43 0 -82 13t-75 29.5t-69.5 30t-64.5 13.5q-43 0 -65.5 -22.5t-45.5 -76.5zM512 684q0 -168 53 -260q55 -92 162 -92q106 0 160.5 92t54.5 260q0 166 -54 257 t-161 91q-106 0 -160.5 -91t-54.5 -257z" />
<glyph unicode="&#xd6;" horiz-adv-x="1454" d="M61 684q0 156 43 287t128 224t209 145.5t286 52.5t286 -52.5t209 -145.5t128 -224t43 -287q0 -158 -43 -288t-128 -225t-209 -147.5t-286 -52.5q-162 1 -287 52q-123 53 -208 148t-128 225t-43 288zM291 1626q0 72 50 119t145 47q92 0 141 -47t49 -119t-49 -117t-141 -45 q-95 1 -146 46q-49 45 -49 116zM512 684q0 -168 53 -260q55 -92 162 -92q106 0 160.5 92t54.5 260q0 166 -54 257t-161 91q-106 0 -160.5 -91t-54.5 -257zM780 1626q0 72 50.5 119t144.5 47q92 0 141 -47t49 -119t-49 -117t-141 -45q-94 1 -145 46q-49 45 -50 116z" />
<glyph unicode="&#xd7;" d="M115 936l245 246l263 -262l249 249l232 -231l-250 -252l258 -256l-246 -246l-256 258l-250 -249l-231 231l248 250z" />
<glyph unicode="&#xd8;" horiz-adv-x="1454" d="M61 684q0 156 43 287t128 224t209 145.5t286 52.5q117 0 210 -27t171 -76l115 133l188 -161l-129 -148q111 -176 111 -430q0 -158 -43 -288t-128 -225t-209 -147.5t-286 -52.5q-209 0 -358 88l-115 -131l-188 162l120 139q-125 182 -125 455zM512 684q0 -168 53 -260 q55 -92 162 -92q106 0 160.5 92t54.5 260q0 166 -54 257t-161 91q-106 0 -160.5 -91t-54.5 -257z" />
<glyph unicode="&#xd9;" horiz-adv-x="1421" d="M94 508v858h441v-838q0 -100 45 -144t131 -44t131 44t45 144v838h440v-858q0 -258 -160.5 -397.5t-455.5 -139.5t-456 139.5t-161 397.5zM367 1610l121 254l493 -242l-100 -194z" />
<glyph unicode="&#xda;" horiz-adv-x="1421" d="M94 508v858h441v-838q0 -100 45 -144t131 -44t131 44t45 144v838h440v-858q0 -258 -160.5 -397.5t-455.5 -139.5t-456 139.5t-161 397.5zM432 1622l494 242l120 -254l-514 -182z" />
<glyph unicode="&#xdb;" horiz-adv-x="1421" d="M94 508v858h441v-838q0 -100 45 -144t131 -44t131 44t45 144v838h440v-858q0 -258 -160.5 -397.5t-455.5 -139.5t-456 139.5t-161 397.5zM338 1604l250 203h262l250 -209l-141 -158l-240 145l-258 -145z" />
<glyph unicode="&#xdc;" horiz-adv-x="1421" d="M94 508v858h441v-838q0 -100 45 -144t131 -44t131 44t45 144v838h440v-858q0 -258 -160.5 -397.5t-455.5 -139.5t-456 139.5t-161 397.5zM276 1626q0 72 50 119t145 47q92 0 141 -47t49 -119t-49 -117t-141 -45q-95 1 -146 46q-49 45 -49 116zM765 1626q0 72 50.5 119 t144.5 47q92 0 141 -47t49 -119t-49 -117t-141 -45q-94 1 -145 46q-49 45 -50 116z" />
<glyph unicode="&#xdd;" horiz-adv-x="1404" d="M-20 1366h501l228 -430l219 430h497l-499 -846v-520h-441v518zM446 1622l494 242l120 -254l-514 -182z" />
<glyph unicode="&#xde;" horiz-adv-x="1247" d="M102 0v1368h435v-190h143q127 0 228.5 -33t172 -94.5t108.5 -149.5t38 -201t-38 -200.5t-108.5 -149t-172 -94.5t-228.5 -33h-143v-223h-435zM537 573h129q59 0 92 37t33 90t-33 88t-92 35h-129v-250z" />
<glyph unicode="&#xdf;" horiz-adv-x="1472" d="M12 723v287h138q20 180 148 281.5t374 101.5q127 0 220 -31t153.5 -85t90 -130t29.5 -164v-188q55 -14 107.5 -42t93.5 -74t65.5 -113.5t24.5 -162.5q0 -199 -112.5 -311t-317.5 -112q-133 0 -216 31.5t-144 82.5l141 197q29 -23 61.5 -39t69.5 -16q49 0 81 34.5 t32 116.5q0 98 -75 147.5t-216 61.5v403q0 53 -22.5 85t-65.5 32q-90 0 -90 -104v-1012h-432v723h-138z" />
<glyph unicode="&#xe0;" horiz-adv-x="1091" d="M29 283q0 72 25.5 127t70.5 95t105.5 63.5t129.5 33.5q78 12 129.5 14t104.5 5v20q0 53 -36 80t-89 27q-111 0 -184 -62l-201 188q35 33 76 62t96 50.5t128 33.5t169 12q217 0 339 -100.5t122 -304.5v-627h-346l-41 80q-41 -33 -112 -62.5t-175 -29.5q-143 0 -227 79.5 t-84 215.5zM219 1276l121 254l493 -242l-100 -194zM422 334q0 -37 23.5 -60.5t64.5 -23.5q27 0 46 6t38 16v172q-23 0 -41 -1t-43 -5q-45 -8 -66.5 -36.5t-21.5 -67.5z" />
<glyph unicode="&#xe1;" horiz-adv-x="1091" d="M29 283q0 72 25.5 127t70.5 95t105.5 63.5t129.5 33.5q78 12 129.5 14t104.5 5v20q0 53 -36 80t-89 27q-111 0 -184 -62l-201 188q35 33 76 62t96 50.5t128 33.5t169 12q217 0 339 -100.5t122 -304.5v-627h-346l-41 80q-41 -33 -112 -62.5t-175 -29.5q-143 0 -227 79.5 t-84 215.5zM227 1288l494 242l120 -254l-514 -182zM422 334q0 -37 23.5 -60.5t64.5 -23.5q27 0 46 6t38 16v172q-23 0 -41 -1t-43 -5q-45 -8 -66.5 -36.5t-21.5 -67.5z" />
<glyph unicode="&#xe2;" horiz-adv-x="1091" d="M29 283q0 72 25.5 127t70.5 95t105.5 63.5t129.5 33.5q78 12 129.5 14t104.5 5v20q0 53 -36 80t-89 27q-111 0 -184 -62l-201 188q35 33 76 62t96 50.5t128 33.5t169 12q217 0 339 -100.5t122 -304.5v-627h-346l-41 80q-41 -33 -112 -62.5t-175 -29.5q-143 0 -227 79.5 t-84 215.5zM162 1270l250 203h262l250 -209l-141 -158l-240 145l-258 -145zM422 334q0 -37 23.5 -60.5t64.5 -23.5q27 0 46 6t38 16v172q-23 0 -41 -1t-43 -5q-45 -8 -66.5 -36.5t-21.5 -67.5z" />
<glyph unicode="&#xe3;" horiz-adv-x="1091" d="M29 283q0 72 25.5 127t70.5 95t105.5 63.5t129.5 33.5q78 12 129.5 14t104.5 5v20q0 53 -36 80t-89 27q-111 0 -184 -62l-201 188q35 33 76 62t96 50.5t128 33.5t169 12q217 0 339 -100.5t122 -304.5v-627h-346l-41 80q-41 -33 -112 -62.5t-175 -29.5q-143 0 -227 79.5 t-84 215.5zM125 1206q35 131 102.5 204t159.5 73q39 0 76 -13.5t71.5 -30t67.5 -29.5t64 -13q49 0 73.5 25.5t38.5 66.5l189 -62q-10 -59 -30.5 -110t-52.5 -90t-76 -61.5t-101 -22.5q-43 0 -82 13t-75 29.5t-69.5 30t-64.5 13.5q-43 0 -65.5 -22.5t-45.5 -76.5zM422 334 q0 -37 23.5 -60.5t64.5 -23.5q27 0 46 6t38 16v172q-23 0 -41 -1t-43 -5q-45 -8 -66.5 -36.5t-21.5 -67.5z" />
<glyph unicode="&#xe4;" horiz-adv-x="1091" d="M29 283q0 72 25.5 127t70.5 95t105.5 63.5t129.5 33.5q78 12 129.5 14t104.5 5v20q0 53 -36 80t-89 27q-111 0 -184 -62l-201 188q35 33 76 62t96 50.5t128 33.5t169 12q217 0 339 -100.5t122 -304.5v-627h-346l-41 80q-41 -33 -112 -62.5t-175 -29.5q-143 0 -227 79.5 t-84 215.5zM106 1292q0 72 50 119t145 47q92 0 141 -47t49 -119t-49 -117t-141 -45q-95 1 -146 46q-49 45 -49 116zM422 334q0 -37 23.5 -60.5t64.5 -23.5q27 0 46 6t38 16v172q-23 0 -41 -1t-43 -5q-45 -8 -66.5 -36.5t-21.5 -67.5zM595 1292q0 72 50.5 119t144.5 47 q92 0 141 -47t49 -119t-49 -117t-141 -45q-94 1 -145 46q-49 45 -50 116z" />
<glyph unicode="&#xe5;" horiz-adv-x="1091" d="M29 283q0 72 25.5 127t70.5 95t105.5 63.5t129.5 33.5q78 12 129.5 14t104.5 5v20q0 53 -36 80t-89 27q-111 0 -184 -62l-201 188q35 33 76 62t96 50.5t128 33.5t169 12q217 0 339 -100.5t122 -304.5v-627h-346l-41 80q-41 -33 -112 -62.5t-175 -29.5q-143 0 -227 79.5 t-84 215.5zM260 1360q0 49 17.5 97t52 85t88 59.5t127.5 22.5t127 -22.5t88 -59.5t52 -85t17 -97t-17 -96t-52 -83t-88.5 -58.5t-126.5 -22.5q-74 -1 -127 22t-88 59t-52.5 83t-17.5 96zM422 334q0 -37 23.5 -60.5t64.5 -23.5q27 0 46 6t38 16v172q-23 0 -41 -1t-43 -5 q-45 -8 -66.5 -36.5t-21.5 -67.5zM440 1362q0 -45 29 -72.5t76 -27.5t75.5 27.5t28.5 72.5q0 47 -28.5 74.5t-75.5 27.5t-76 -27.5t-29 -74.5z" />
<glyph unicode="&#xe6;" horiz-adv-x="1691" d="M29 272q0 137 89 216t238 108q78 16 131.5 19t106.5 6v20q0 53 -36 80t-89 27q-59 0 -103 -16.5t-81 -45.5l-201 188q78 70 182.5 114t259.5 44q63 0 111.5 -8t86.5 -23.5t67.5 -35t56.5 -41.5q41 37 112.5 72.5t190.5 35.5q236 0 368 -145.5t132 -454.5h-621 q4 -59 47 -105t121 -46q63 0 102 22.5t64 46.5l250 -190q-61 -74 -163.5 -127t-266.5 -53q-76 0 -134.5 13t-102.5 32.5t-75.5 44t-54.5 47.5q-70 -55 -161 -92t-236 -37q-186 0 -288.5 74.5t-102.5 209.5zM422 334q0 -33 25.5 -58.5t62.5 -25.5q27 0 46 6t38 16v172 q-23 0 -41 -1t-43 -5q-41 -8 -64.5 -36.5t-23.5 -67.5zM1026 631h242q-4 63 -34 107t-83 44q-57 0 -89 -44t-36 -107z" />
<glyph unicode="&#xe7;" horiz-adv-x="1122" d="M51 500q0 123 38 221t108.5 167.5t170 106.5t222.5 37q211 0 329.5 -86t172.5 -229l-359 -129q-14 61 -42.5 100t-82.5 39q-59 0 -95 -53t-36 -170q0 -113 37 -169t94 -56t91 39.5t46 109.5l353 -147q-57 -139 -178 -220t-336 -81q-117 0 -215.5 35.5t-169 102 t-109.5 163t-39 219.5zM289 -422l139 305h332l-183 -305h-288z" />
<glyph unicode="&#xe8;" horiz-adv-x="1136" d="M51 502q0 125 40 223t110.5 167t169 104.5t215.5 35.5q236 0 373 -145.5t137 -454.5h-631q2 -59 45 -105t129 -46q66 0 106.5 21.5t63.5 47.5l250 -190q-27 -35 -66 -67t-94 -57.5t-131 -40.5t-176 -15q-115 0 -213 33.5t-171 99t-115 163t-42 226.5zM250 1276l121 254 l493 -242l-100 -194zM467 631h242q-4 66 -34 108.5t-83 42.5q-57 0 -89 -44t-36 -107z" />
<glyph unicode="&#xe9;" horiz-adv-x="1136" d="M51 502q0 125 40 223t110.5 167t169 104.5t215.5 35.5q236 0 373 -145.5t137 -454.5h-631q2 -59 45 -105t129 -46q66 0 106.5 21.5t63.5 47.5l250 -190q-27 -35 -66 -67t-94 -57.5t-131 -40.5t-176 -15q-115 0 -213 33.5t-171 99t-115 163t-42 226.5zM264 1288l494 242 l120 -254l-514 -182zM467 631h242q-4 66 -34 108.5t-83 42.5q-57 0 -89 -44t-36 -107z" />
<glyph unicode="&#xea;" horiz-adv-x="1136" d="M51 502q0 125 40 223t110.5 167t169 104.5t215.5 35.5q236 0 373 -145.5t137 -454.5h-631q2 -59 45 -105t129 -46q66 0 106.5 21.5t63.5 47.5l250 -190q-27 -35 -66 -67t-94 -57.5t-131 -40.5t-176 -15q-115 0 -213 33.5t-171 99t-115 163t-42 226.5zM199 1270l250 203 h262l250 -209l-141 -158l-240 145l-258 -145zM467 631h242q-4 66 -34 108.5t-83 42.5q-57 0 -89 -44t-36 -107z" />
<glyph unicode="&#xeb;" horiz-adv-x="1136" d="M51 502q0 125 40 223t110.5 167t169 104.5t215.5 35.5q236 0 373 -145.5t137 -454.5h-631q2 -59 45 -105t129 -46q66 0 106.5 21.5t63.5 47.5l250 -190q-27 -35 -66 -67t-94 -57.5t-131 -40.5t-176 -15q-115 0 -213 33.5t-171 99t-115 163t-42 226.5zM139 1292 q0 72 50 119t145 47q92 0 141 -47t49 -119t-49 -117t-141 -45q-95 1 -146 46q-49 45 -49 116zM467 631h242q-4 66 -34 108.5t-83 42.5q-57 0 -89 -44t-36 -107zM628 1292q0 72 50.5 119t144.5 47q92 0 141 -47t49 -119t-49 -117t-141 -45q-94 1 -145 46q-49 45 -50 116z" />
<glyph unicode="&#xec;" horiz-adv-x="593" d="M-25 1276l121 254l493 -242l-100 -194zM82 0v1010h430v-1010h-430z" />
<glyph unicode="&#xed;" horiz-adv-x="593" d="M0 1288l494 242l120 -254l-514 -182zM82 0v1010h430v-1010h-430z" />
<glyph unicode="&#xee;" horiz-adv-x="593" d="M-78 1270l250 203h262l250 -209l-141 -158l-240 145l-258 -145zM82 0v1010h430v-1010h-430z" />
<glyph unicode="&#xef;" horiz-adv-x="593" d="M-133 1292q0 72 50 119t145 47q92 0 141 -47t49 -119t-49 -117t-141 -45q-95 1 -146 46q-49 45 -49 116zM82 0v1010h430v-1010h-430zM356 1292q0 72 50.5 119t144.5 47q92 0 141 -47t49 -119t-49 -117t-141 -45q-94 1 -145 46q-49 45 -50 116z" />
<glyph unicode="&#xf0;" horiz-adv-x="1183" d="M45 510q0 98 41 182t113.5 147.5t173 103.5t221.5 48q-47 57 -145.5 105.5t-204.5 72.5l84 261q39 -4 86 -13.5t93 -23t87 -28.5t68 -32l108 117l217 -162l-100 -112q117 -117 184.5 -266.5t67.5 -360.5q0 -127 -37 -232.5t-108.5 -180.5t-175 -115.5t-234.5 -40.5 q-117 0 -215.5 35.5t-170 103t-112.5 166t-41 225.5zM473 512q0 -117 33 -175t88 -58q59 0 90 55t31 184q0 23 -3 49.5t-7.5 53t-10.5 49.5q-4 25 -8 39q-41 -2 -80 -13.5t-68.5 -35t-47 -59.5t-17.5 -89z" />
<glyph unicode="&#xf1;" horiz-adv-x="1222" d="M82 0v1010h369l22 -90q39 39 112.5 75.5t178.5 36.5q174 0 277.5 -93t103.5 -273v-666h-432v610q0 113 -92 113q-35 0 -60.5 -11.5t-46.5 -27.5v-684h-432zM186 1206q35 131 102.5 204t159.5 73q39 0 76 -13.5t71.5 -30t67.5 -29.5t64 -13q49 0 73.5 25.5t38.5 66.5 l189 -62q-10 -59 -30.5 -110t-52.5 -90t-76 -61.5t-101 -22.5q-43 0 -82 13t-75 29.5t-69.5 30t-64.5 13.5q-43 0 -65.5 -22.5t-45.5 -76.5z" />
<glyph unicode="&#xf2;" horiz-adv-x="1196" d="M51 510q0 119 39 216t109.5 164.5t172 104.5t226.5 37t226.5 -37t172 -104.5t109.5 -164.5t39 -216q0 -121 -39 -218t-109.5 -167t-172 -107.5t-226.5 -37.5t-226 37.5t-173 107.5q-70 70 -109 167t-39 218zM262 1276l121 254l493 -242l-100 -194zM477 510 q0 -100 31 -166t90 -65q59 0 90 65.5t31 165.5q0 98 -31 157.5t-90 59.5t-90 -59.5t-31 -157.5z" />
<glyph unicode="&#xf3;" horiz-adv-x="1196" d="M51 510q0 119 39 216t109.5 164.5t172 104.5t226.5 37t226.5 -37t172 -104.5t109.5 -164.5t39 -216q0 -121 -39 -218t-109.5 -167t-172 -107.5t-226.5 -37.5t-226 37.5t-173 107.5q-70 70 -109 167t-39 218zM289 1288l494 242l120 -254l-514 -182zM477 510 q0 -100 31 -166t90 -65q59 0 90 65.5t31 165.5q0 98 -31 157.5t-90 59.5t-90 -59.5t-31 -157.5z" />
<glyph unicode="&#xf4;" horiz-adv-x="1196" d="M51 510q0 119 39 216t109.5 164.5t172 104.5t226.5 37t226.5 -37t172 -104.5t109.5 -164.5t39 -216q0 -121 -39 -218t-109.5 -167t-172 -107.5t-226.5 -37.5t-226 37.5t-173 107.5q-70 70 -109 167t-39 218zM217 1270l250 203h262l250 -209l-141 -158l-240 145l-258 -145 zM477 510q0 -100 31 -166t90 -65q59 0 90 65.5t31 165.5q0 98 -31 157.5t-90 59.5t-90 -59.5t-31 -157.5z" />
<glyph unicode="&#xf5;" horiz-adv-x="1196" d="M51 510q0 119 39 216t109.5 164.5t172 104.5t226.5 37t226.5 -37t172 -104.5t109.5 -164.5t39 -216q0 -121 -39 -218t-109.5 -167t-172 -107.5t-226.5 -37.5t-226 37.5t-173 107.5q-70 70 -109 167t-39 218zM184 1206q35 131 102.5 204t159.5 73q39 0 76 -13.5t71.5 -30 t67.5 -29.5t64 -13q49 0 73.5 25.5t38.5 66.5l189 -62q-10 -59 -30.5 -110t-52.5 -90t-76 -61.5t-101 -22.5q-43 0 -82 13t-75 29.5t-69.5 30t-64.5 13.5q-43 0 -65.5 -22.5t-45.5 -76.5zM477 510q0 -100 31 -166t90 -65q59 0 90 65.5t31 165.5q0 98 -31 157.5t-90 59.5 t-90 -59.5t-31 -157.5z" />
<glyph unicode="&#xf6;" horiz-adv-x="1196" d="M51 510q0 119 39 216t109.5 164.5t172 104.5t226.5 37t226.5 -37t172 -104.5t109.5 -164.5t39 -216q0 -121 -39 -218t-109.5 -167t-172 -107.5t-226.5 -37.5t-226 37.5t-173 107.5q-70 70 -109 167t-39 218zM166 1292q0 72 50 119t145 47q92 0 141 -47t49 -119t-49 -117 t-141 -45q-95 1 -146 46q-49 45 -49 116zM477 510q0 -100 31 -166t90 -65q59 0 90 65.5t31 165.5q0 98 -31 157.5t-90 59.5t-90 -59.5t-31 -157.5zM655 1292q0 72 50.5 119t144.5 47q92 0 141 -47t49 -119t-49 -117t-141 -45q-94 1 -145 46q-49 45 -50 116z" />
<glyph unicode="&#xf7;" d="M88 516v328h1053v-328h-1053zM428 262q0 76 53.5 127t132.5 51q80 0 133.5 -51t53.5 -127q0 -78 -53.5 -128t-133.5 -50t-133 49q-53 51 -53 129zM428 1098q0 78 53.5 128t132.5 50q80 0 133.5 -50t53.5 -128q0 -76 -53.5 -127t-133.5 -51t-133 51t-53 127z" />
<glyph unicode="&#xf8;" horiz-adv-x="1196" d="M51 504q0 119 39 215t109.5 162.5t172 102.5t226.5 36q59 0 108.5 -7t98.5 -24l102 156l168 -113l-96 -139q166 -133 166 -389q0 -121 -39 -217.5t-109.5 -165t-172 -105t-226.5 -36.5q-119 0 -211 30l-104 -160l-168 113l100 146q-78 66 -121 166t-43 229zM477 504 q0 -101 31 -164q31 -61 90 -61t90 62t31 163q0 98 -31 154.5t-90 56.5t-90 -56.5t-31 -154.5z" />
<glyph unicode="&#xf9;" horiz-adv-x="1222" d="M78 344v666h432v-611q0 -113 92 -112q35 0 60.5 11t46.5 28v684h432v-1010h-369l-22 90q-39 -39 -113 -76t-178 -37q-174 0 -277.5 93.5t-103.5 273.5zM270 1276l121 254l493 -242l-100 -194z" />
<glyph unicode="&#xfa;" horiz-adv-x="1222" d="M78 344v666h432v-611q0 -113 92 -112q35 0 60.5 11t46.5 28v684h432v-1010h-369l-22 90q-39 -39 -113 -76t-178 -37q-174 0 -277.5 93.5t-103.5 273.5zM315 1288l494 242l120 -254l-514 -182z" />
<glyph unicode="&#xfb;" horiz-adv-x="1222" d="M78 344v666h432v-611q0 -113 92 -112q35 0 60.5 11t46.5 28v684h432v-1010h-369l-22 90q-39 -39 -113 -76t-178 -37q-174 0 -277.5 93.5t-103.5 273.5zM231 1270l250 203h262l250 -209l-141 -158l-240 145l-258 -145z" />
<glyph unicode="&#xfc;" horiz-adv-x="1222" d="M78 344v666h432v-611q0 -113 92 -112q35 0 60.5 11t46.5 28v684h432v-1010h-369l-22 90q-39 -39 -113 -76t-178 -37q-174 0 -277.5 93.5t-103.5 273.5zM176 1292q0 72 50 119t145 47q92 0 141 -47t49 -119t-49 -117t-141 -45q-95 1 -146 46q-49 45 -49 116zM665 1292 q0 72 50.5 119t144.5 47q92 0 141 -47t49 -119t-49 -117t-141 -45q-94 1 -145 46q-49 45 -50 116z" />
<glyph unicode="&#xfd;" horiz-adv-x="1214" d="M-16 1010h477l157 -510l162 510h451l-490 -1155q-59 -139 -146 -203t-226 -64q-133 0 -207 20.5t-127 45.5l94 262q29 -12 69 -22.5t74 -10.5q78 0 107 66l41 96zM305 1288l494 242l120 -254l-514 -182z" />
<glyph unicode="&#xfe;" horiz-adv-x="1208" d="M82 -385v1753h432v-385q33 12 90.5 23.5t116.5 11.5q96 0 176 -37t138.5 -104.5t90 -163t31.5 -213.5q0 -119 -32.5 -215.5t-92 -165t-141.5 -105.5t-180 -37q-59 0 -110.5 8.5t-86.5 24.5v-395h-432zM514 303q12 -8 28.5 -14t51.5 -6q59 0 99 55t40 162q0 121 -39 167 t-96 46q-55 0 -84 -23v-387z" />
<glyph unicode="&#xff;" horiz-adv-x="1214" d="M-16 1010h477l157 -510l162 510h451l-490 -1155q-59 -139 -146 -203t-226 -64q-133 0 -207 20.5t-127 45.5l94 262q29 -12 69 -22.5t74 -10.5q78 0 107 66l41 96zM180 1292q0 72 50 119t145 47q92 0 141 -47t49 -119t-49 -117t-141 -45q-95 1 -146 46q-49 45 -49 116z M669 1292q0 72 50.5 119t144.5 47q92 0 141 -47t49 -119t-49 -117t-141 -45q-94 1 -145 46q-49 45 -50 116z" />
<glyph unicode="&#x152;" horiz-adv-x="2017" d="M61 684q0 156 55.5 283t156 216t239.5 137t309 48h1108v-371h-545v-151h437v-326h-437v-149h586v-371h-1149q-170 0 -309 48t-239.5 137t-156 215t-55.5 284zM512 684q0 -80 23.5 -140.5t64.5 -101.5t97.5 -61.5t123.5 -20.5h123v648h-123q-68 0 -124 -20.5t-97 -61.5 t-64.5 -101.5t-23.5 -140.5z" />
<glyph unicode="&#x153;" horiz-adv-x="1742" d="M51 510q0 119 38 216t108.5 164.5t170 104.5t220.5 37q119 0 192.5 -37t120.5 -77q47 43 124 78.5t187 35.5q236 0 362 -145.5t128 -454.5h-617q4 -66 51.5 -108.5t110.5 -42.5q57 0 98 20.5t70 48.5l250 -190q-61 -70 -165.5 -125t-260.5 -55q-68 0 -121 10t-95 26.5 t-72.5 36t-53.5 35.5q-47 -41 -118.5 -74.5t-190.5 -33.5q-121 0 -220.5 37.5t-170 107.5t-108.5 167t-38 218zM477 510q0 -100 29 -166t82 -65q53 0 81.5 65.5t28.5 165.5q0 98 -28.5 151.5t-81.5 53.5t-82 -53.5t-29 -151.5zM1083 631h236q-4 66 -35 108.5t-84 42.5 q-55 0 -84 -44t-33 -107z" />
<glyph unicode="&#x178;" horiz-adv-x="1404" d="M-20 1366h501l228 -430l219 430h497l-499 -846v-520h-441v518zM272 1626q0 72 50 119t145 47q92 0 141 -47t49 -119t-49 -117t-141 -45q-95 1 -146 46q-49 45 -49 116zM761 1626q0 72 50.5 119t144.5 47q92 0 141 -47t49 -119t-49 -117t-141 -45q-94 1 -145 46 q-49 45 -50 116z" />
<glyph unicode="&#x2c6;" horiz-adv-x="761" d="M0 1270l250 203h262l250 -209l-141 -158l-240 145l-258 -145z" />
<glyph unicode="&#x2dc;" horiz-adv-x="841" d="M0 1206q35 131 102.5 204t159.5 73q39 0 76 -13.5t71.5 -30t67.5 -29.5t64 -13q49 0 73.5 25.5t38.5 66.5l189 -62q-10 -59 -30.5 -110t-52.5 -90t-76 -61.5t-101 -22.5q-43 0 -82 13t-75 29.5t-69.5 30t-64.5 13.5q-43 0 -65.5 -22.5t-45.5 -76.5z" />
<glyph unicode="&#x2000;" horiz-adv-x="941" />
<glyph unicode="&#x2001;" horiz-adv-x="1882" />
<glyph unicode="&#x2002;" horiz-adv-x="941" />
<glyph unicode="&#x2003;" horiz-adv-x="1882" />
<glyph unicode="&#x2004;" horiz-adv-x="627" />
<glyph unicode="&#x2005;" horiz-adv-x="470" />
<glyph unicode="&#x2006;" horiz-adv-x="313" />
<glyph unicode="&#x2007;" horiz-adv-x="313" />
<glyph unicode="&#x2008;" horiz-adv-x="235" />
<glyph unicode="&#x2009;" horiz-adv-x="376" />
<glyph unicode="&#x200a;" horiz-adv-x="104" />
<glyph unicode="&#x2010;" horiz-adv-x="675" d="M37 412v325h602v-325h-602z" />
<glyph unicode="&#x2011;" horiz-adv-x="675" d="M37 412v325h602v-325h-602z" />
<glyph unicode="&#x2012;" horiz-adv-x="675" d="M37 412v325h602v-325h-602z" />
<glyph unicode="&#x2013;" horiz-adv-x="1024" d="M0 387v279h1024v-279h-1024z" />
<glyph unicode="&#x2014;" horiz-adv-x="2048" d="M0 387v279h2048v-279h-2048z" />
<glyph unicode="&#x2018;" horiz-adv-x="530" d="M41 1157q0 100 57.5 155.5t155.5 55.5q106 0 159.5 -55.5t53.5 -132.5q0 -82 -40 -122t-81 -57q27 -23 77 -47t91 -34l-53 -150q-215 57 -317.5 160.5t-102.5 226.5z" />
<glyph unicode="&#x2019;" horiz-adv-x="530" d="M16 920q41 10 91.5 34.5t76.5 46.5q-41 16 -81 56.5t-40 122.5q0 78 53.5 133t159.5 55q98 0 155.5 -55.5t57.5 -155.5q0 -123 -102 -226.5t-317 -160.5z" />
<glyph unicode="&#x201a;" horiz-adv-x="530" d="M16 -102q41 10 91.5 34.5t76.5 47.5q-20 6 -41.5 20t-39 35.5t-29 51.5t-11.5 71q0 78 53.5 133t159.5 55q98 0 155.5 -55t57.5 -156q0 -123 -102 -226.5t-317 -160.5z" />
<glyph unicode="&#x201c;" horiz-adv-x="1040" d="M41 1157q0 100 57.5 155.5t155.5 55.5q106 0 159.5 -55.5t53.5 -132.5q0 -82 -40 -122t-81 -57q27 -23 77 -47t91 -34l-53 -150q-215 57 -317.5 160.5t-102.5 226.5zM551 1157q0 100 57.5 155.5t155.5 55.5q106 0 159.5 -55.5t53.5 -132.5q0 -82 -40 -122t-81 -57 q27 -23 77 -47t91 -34l-53 -150q-215 57 -317.5 160.5t-102.5 226.5z" />
<glyph unicode="&#x201d;" horiz-adv-x="1040" d="M16 920q41 10 91.5 34.5t76.5 46.5q-41 16 -81 56.5t-40 122.5q0 78 53.5 133t159.5 55q98 0 155.5 -55.5t57.5 -155.5q0 -123 -102 -226.5t-317 -160.5zM526 920q41 10 91.5 34.5t76.5 46.5q-41 16 -81 56.5t-40 122.5q0 78 53.5 133t159.5 55q98 0 155.5 -55.5 t57.5 -155.5q0 -123 -102 -226.5t-317 -160.5z" />
<glyph unicode="&#x201e;" horiz-adv-x="1040" d="M16 -102q41 10 91.5 34.5t76.5 47.5q-20 6 -41.5 20t-39 35.5t-29 51.5t-11.5 71q0 78 53.5 133t159.5 55q98 0 155.5 -55t57.5 -156q0 -123 -102 -226.5t-317 -160.5zM526 -102q41 10 91.5 34.5t76.5 47.5q-20 6 -41.5 20t-39 35.5t-29 51.5t-11.5 71q0 78 53.5 133 t159.5 55q98 0 155.5 -55t57.5 -156q0 -123 -102 -226.5t-317 -160.5z" />
<glyph unicode="&#x2022;" horiz-adv-x="1052" d="M102 788q0 86 34 163t91.5 134.5t135 91t163.5 33.5t164 -33.5t135.5 -91t91 -134.5t33.5 -163t-33.5 -162.5t-91 -134t-135.5 -91t-164 -33.5q-86 -1 -164 32q-78 35 -135 92.5t-91 134t-34 162.5z" />
<glyph unicode="&#x2026;" horiz-adv-x="1708" d="M51 164q0 88 60.5 136t152.5 48t152.5 -48t60.5 -136t-60.5 -136t-152.5 -48t-153 47q-59 49 -60 137zM641 164q0 88 60.5 136t152.5 48t152.5 -48t60.5 -136t-60.5 -136t-152.5 -48q-93 0 -154 47q-59 49 -59 137zM1231 164q0 88 60.5 136t152.5 48t152.5 -48t60.5 -136 t-60.5 -136t-152.5 -48q-93 0 -154 47q-59 49 -59 137z" />
<glyph unicode="&#x202f;" horiz-adv-x="376" />
<glyph unicode="&#x2039;" horiz-adv-x="653" d="M10 512l307 477l308 -180l-205 -285l219 -293l-293 -180z" />
<glyph unicode="&#x203a;" horiz-adv-x="653" d="M14 809l293 180l336 -461l-307 -477l-307 180l204 285z" />
<glyph unicode="&#x205f;" horiz-adv-x="470" />
<glyph unicode="&#x20ac;" d="M12 530v306h90q6 113 45 212t110 172.5t174.5 116.5t238.5 43q227 0 348 -93t172 -255l-377 -90q-16 59 -47 85t-76 26q-51 0 -88 -52.5t-43 -164.5h227v-306h-229q6 -121 46 -168t91 -47q53 0 84 31t47 80l373 -119q-51 -152 -176 -241t-344 -89q-135 0 -239.5 41 t-178.5 114t-114 174.5t-46 223.5h-88z" />
<glyph unicode="&#x2122;" horiz-adv-x="1345" d="M33 1200v166h485v-166h-160v-422h-165v422h-160zM594 778v588h197l131 -291l120 291h195v-588h-162v344l-137 -348h-31l-151 342v-338h-162z" />
<glyph unicode="&#x25fc;" horiz-adv-x="1013" d="M0 0v1014h1014v-1014h-1014z" />
</font>
</defs>
</svg>
