<?xml version="1.0" standalone="no"?>
<!DOCTYPE svg PUBLIC "-//W3C//DTD SVG 1.1//EN" "http://www.w3.org/Graphics/SVG/1.1/DTD/svg11.dtd" >
<svg xmlns="http://www.w3.org/2000/svg">
<metadata></metadata>
<defs>
<font id="interface_thinitalic" horiz-adv-x="1028" >
<font-face units-per-em="2048" ascent="1638" descent="-410" />
<missing-glyph horiz-adv-x="393" />
<glyph unicode="&#xfb01;" horiz-adv-x="894" d="M176 0l193 909h-146l15 66h145l31 143q33 147 110.5 211t188.5 64q92 0 144 -27t81 -49l-45 -57q-18 14 -62.5 40.5t-121.5 26.5q-39 0 -75 -10t-65.5 -35t-52 -68t-35.5 -108l-26 -131h225l-14 -66h-224l-192 -909h-74zM662 0l206 975h74l-207 -975h-73z" />
<glyph unicode="&#xfb02;" horiz-adv-x="894" d="M176 0l193 909h-146l15 66h145l29 137q29 135 112.5 208t220.5 73q92 0 158 -23.5t111 -48.5l-281 -1321h-74l273 1282q-31 16 -77 30.5t-124 14.5q-92 0 -158.5 -55t-91.5 -172l-26 -125h225l-14 -66h-224l-192 -909h-74z" />
<glyph unicode="&#xfb03;" horiz-adv-x="1370" d="M176 0l193 909h-146l15 66h145l31 143q57 274 268 275q61 0 108.5 -14.5t75.5 -32.5l-35 -60q-18 14 -58 27.5t-87 13.5q-70 0 -125 -48t-80 -173l-26 -131h411l31 143q33 147 110.5 211t188.5 64q92 0 144.5 -27t80.5 -49l-45 -57q-18 14 -62 40.5t-122 26.5 q-39 0 -75 -10t-65.5 -35t-52 -68t-34.5 -108l-27 -131h225l-14 -66h-223l-193 -909h-74l193 909h-410l-192 -909h-74zM1145 0l207 975h73l-206 -975h-74z" />
<glyph unicode="&#xfb04;" horiz-adv-x="1386" d="M176 0l193 909h-146l15 66h145l31 143q57 274 268 275q61 0 108.5 -14.5t75.5 -32.5l-35 -60q-18 14 -58 27.5t-87 13.5q-70 0 -125 -48t-80 -173l-26 -131h411l29 137q29 135 113 208t221 73q92 0 157.5 -23.5t110.5 -48.5l-280 -1321h-74l272 1282q-31 16 -77 30.5 t-124 14.5q-92 0 -158.5 -55t-90.5 -172l-27 -125h225l-14 -66h-223l-193 -909h-74l193 909h-410l-192 -909h-74z" />
<glyph horiz-adv-x="0" />
<glyph unicode="&#xd;" horiz-adv-x="481" />
<glyph unicode=" "  horiz-adv-x="393" />
<glyph unicode="&#x09;" horiz-adv-x="393" />
<glyph unicode="&#xa0;" horiz-adv-x="393" />
<glyph unicode="!" horiz-adv-x="329" d="M121 41q0 37 21.5 68.5t58.5 31.5q23 0 35 -18.5t12 -44.5q0 -37 -21.5 -69t-58.5 -32q-23 0 -35 18.5t-12 45.5zM215 403l205 963h74l-205 -963h-74z" />
<glyph unicode="&#x22;" horiz-adv-x="540" d="M268 760l129 606h74l-129 -606h-74zM518 760l129 606h74l-129 -606h-74z" />
<glyph unicode="#" horiz-adv-x="1163" d="M117 514l14 66h344l72 344h-344l14 65h344l80 377h72l-80 -377h315l80 377h72l-80 -377h344l-14 -65h-344l-72 -344h344l-14 -66h-344l-78 -362h-72l78 362h-316l-77 -362h-72l78 362h-344zM547 580h315l72 344h-316z" />
<glyph unicode="$" d="M129 170l64 49q59 -78 138 -119t156 -53l142 664q-55 31 -109.5 61.5t-96.5 68.5t-67.5 88t-25.5 118q0 72 28.5 134t84 109t134 75t181.5 28h14l49 227h66l-49 -236q113 -18 192.5 -77.5t120.5 -124.5l-66 -41q-37 66 -106.5 111.5t-157.5 62.5l-119 -557 q55 -31 109.5 -66t97.5 -79t69 -100t26 -130q0 -102 -35 -178t-95.5 -128t-143.5 -78t-179 -26h-14l-50 -231h-65l49 238q-41 6 -86 18t-90 34.5t-87 56.5t-79 81zM414 1051q0 -47 18.5 -84t51 -68t73.5 -57.5t88 -50.5l113 532h-10q-66 0 -126.5 -18.5t-106.5 -53 t-73.5 -85t-27.5 -115.5zM551 43h6q63 0 127 18.5t116 58.5t85 102.5t33 152.5q0 57 -18.5 103t-51.5 82t-75 64.5t-87 55.5z" />
<glyph unicode="%" horiz-adv-x="1454" d="M90 59l1516 1313l39 -45l-1516 -1323zM291 1038q0 61 22.5 122t65.5 109t103.5 78.5t133.5 30.5q109 0 169.5 -71.5t60.5 -171.5q0 -61 -22.5 -122t-65.5 -109t-103.5 -78.5t-134.5 -30.5q-109 0 -169 71.5t-60 171.5zM358 1038q0 -80 45 -131q47 -51 123 -51 q51 0 96.5 22.5t80 60.5t55 89t20.5 107q0 80 -46 131t-122 51q-51 0 -96 -22.5t-80 -60.5t-55.5 -89t-20.5 -107zM893 233q0 61 22.5 122t65.5 109t103.5 78.5t134.5 30.5q109 0 169 -71.5t60 -171.5q0 -61 -22.5 -122t-65.5 -109t-103.5 -78.5t-134.5 -30.5 q-109 0 -169 71.5t-60 171.5zM961 233q0 -80 45 -131q47 -51 122 -51q51 0 96.5 22.5t80 60.5t55 89t20.5 107q0 80 -46 131t-122 51q-51 0 -96 -22.5t-80 -60.5t-55 -89t-20 -107z" />
<glyph unicode="&#x26;" horiz-adv-x="1163" d="M137 260q0 88 33 167t92.5 148.5t142 131t185.5 114.5q-45 86 -65.5 147.5t-20.5 121.5q0 57 20.5 109t59.5 92t94 63.5t127 23.5q92 0 158.5 -53t66.5 -147q0 -127 -94 -218.5t-252 -168.5l195 -396q31 45 78 110.5t97 130t98 118t83 75.5l37 -47q-41 -29 -85 -79 t-90 -111.5t-93.5 -130t-92.5 -131.5l168 -330h-78l-133 264q-63 -78 -118.5 -133t-108.5 -90t-106.5 -51.5t-114.5 -16.5q-125 0 -204 78t-79 209zM217 276q0 -113 56.5 -175t148.5 -62q61 0 117.5 24.5t106.5 64.5t97.5 92t90.5 108l-216 432q-86 -41 -158.5 -93.5 t-126.5 -113.5t-85 -131t-31 -146zM580 1090q0 -56 16 -105q18 -47 59 -133q141 66 221 140.5t80 178.5q0 63 -42 101.5t-107 38.5q-43 0 -84 -14.5t-73 -42t-51 -68.5t-19 -96z" />
<glyph unicode="'" horiz-adv-x="294" d="M270 760l129 606h74l-129 -606h-74z" />
<glyph unicode="(" horiz-adv-x="497" d="M233 549q0 129 33 260t99.5 255t168 234.5t240.5 200.5l33 -55q-129 -86 -224.5 -189.5t-156.5 -219t-91 -239.5t-30 -247q0 -111 19.5 -202t51.5 -164.5t70.5 -130t77.5 -95.5l-49 -51q-45 43 -89 106.5t-78 144.5t-54.5 179t-20.5 213z" />
<glyph unicode=")" horiz-adv-x="497" d="M-10 -39q129 86 224 189.5t156.5 219t91.5 239.5t30 247q0 111 -19.5 202t-51.5 164.5t-71 129t-78 96.5l50 51q45 -43 89 -106.5t77.5 -144.5t54 -179t20.5 -213q0 -129 -32.5 -260t-99 -255t-168 -235.5t-240.5 -199.5z" />
<glyph unicode="*" horiz-adv-x="800" d="M252 836l319 186l-239 190l37 48l229 -189l66 320h61l-70 -320l299 180l29 -49l-317 -186l239 -189l-35 -47l-235 191l-70 -338h-63l73 330l-294 -177z" />
<glyph unicode="+" d="M219 643v72h410v456h71v-456h410v-72h-410v-457h-71v457h-410z" />
<glyph unicode="," horiz-adv-x="311" d="M6 -115q31 12 71 38t58 52q-31 23 -31 70q0 37 24 66.5t54 29.5q27 0 38 -18.5t11 -44.5q0 -39 -18 -75t-49 -65.5t-70 -51t-78 -33.5z" />
<glyph unicode="-" horiz-adv-x="612" d="M199 508l18 82h428l-18 -82h-428z" />
<glyph unicode="." horiz-adv-x="309" d="M102 41q0 37 21.5 68.5t58.5 31.5q23 0 35 -18.5t12 -44.5q0 -37 -21 -69t-58 -32q-23 0 -35.5 18.5t-12.5 45.5z" />
<glyph unicode="/" horiz-adv-x="913" d="M2 8l1178 1530l53 -41l-1176 -1534z" />
<glyph unicode="0" d="M199 442q0 109 17 220.5t51 215t84 195.5t115.5 159.5t145.5 106.5t174 39q98 0 162 -43t101.5 -109.5t53 -148.5t15.5 -159q0 -164 -39 -330t-114.5 -301t-184 -220t-250.5 -85q-95 0 -161 43q-63 43 -101.5 109.5t-53.5 148.5t-15 159zM279 449q0 -63 10 -134.5 t39 -130.5q29 -57 78 -96t129 -39q119 0 213 84t159.5 212t99 279.5t33.5 286.5q0 63 -10 134t-38.5 129.5t-79 97.5t-130.5 39q-121 0 -215 -84t-158.5 -212t-97 -279.5t-32.5 -286.5z" />
<glyph unicode="1" d="M422 1098l412 254h92l-287 -1352h-78l268 1268l-372 -230z" />
<glyph unicode="2" d="M150 0l10 53q127 115 255 236t279 268q63 61 123 122.5t106 126t73.5 134.5t27.5 150q0 117 -69.5 168t-172.5 51q-121 0 -208 -62.5t-160 -156.5l-56 43q29 39 69 81.5t93 79.5t120 60.5t146 23.5q147 0 233.5 -75.5t86.5 -212.5q0 -86 -31 -165t-83 -153t-119.5 -143.5 t-139.5 -136.5l-448 -420h647l-14 -72h-768z" />
<glyph unicode="3" d="M129 164l68 43q47 -80 134 -123t177 -43q80 0 151.5 24.5t124 69.5t83 108.5t30.5 143.5q0 121 -74.5 191.5t-187.5 99.5l12 59q49 4 114.5 29t126 70t101.5 110.5t41 151.5q0 90 -69.5 153.5t-192.5 63.5q-61 0 -112.5 -15.5t-94.5 -41t-77.5 -58.5t-65.5 -67l-51 34 q18 29 52 66t84 68.5t117.5 54t153.5 22.5q156 0 244 -79.5t88 -208.5q0 -72 -28.5 -134.5t-77 -112.5t-113 -86t-135.5 -52q43 -18 84 -47t71.5 -68t49 -88t18.5 -109q0 -90 -33 -166.5t-94.5 -133t-148.5 -88.5t-197 -32q-53 0 -108.5 12.5t-104.5 37t-91 60.5t-69 81z " />
<glyph unicode="4" d="M170 418l20 94l844 840h60l-185 -863h152l-14 -71h-152l-88 -418h-72l88 418h-653zM262 489h576l157 734z" />
<glyph unicode="5" d="M137 174l62 37q18 -35 52 -66.5t77 -55t92 -37t96 -13.5q90 0 168 30.5t134 85t89 131t33 169.5q0 86 -36 154.5t-97.5 115.5t-142 71.5t-170.5 24.5h-136l113 531h674l-17 -72h-600l-82 -391h70q88 0 177 -27.5t161 -81t116 -132.5t44 -181q0 -104 -34 -195.5 t-98.5 -157t-156.5 -103.5t-209 -38q-61 0 -120.5 15.5t-111 43t-90 64.5t-57.5 78z" />
<glyph unicode="6" d="M225 383q0 168 71 328.5t188.5 294t274 228.5t328.5 132l17 -61q-96 -23 -201.5 -71t-203 -122t-180.5 -170t-136 -215q29 20 60.5 40.5t70.5 36t86 25t107 9.5q76 0 139 -26t109 -72t73 -111.5t27 -147.5q0 -102 -33 -194t-95.5 -162t-151.5 -111t-200 -41 q-76 0 -139 25t-110 75t-74 126.5t-27 183.5zM299 379q0 -70 16.5 -131.5t49.5 -108.5q35 -47 89 -74.5t128 -27.5q90 0 162.5 37t125 97t81 138t28.5 162q0 131 -78 216t-209 85q-106 0 -186 -38t-152 -93q-25 -61 -40 -123.5t-15 -138.5z" />
<glyph unicode="7" d="M340 0l770 1280h-756l17 72h843l-12 -60l-776 -1292h-86z" />
<glyph unicode="8" d="M164 297q0 76 25.5 145.5t73.5 124.5t114 92q68 39 149 50q-86 23 -142 93t-56 177q0 86 32.5 158.5t92 127t143.5 84t188 29.5q82 0 147.5 -25.5t109.5 -68.5t68 -99.5t24 -117.5q0 -80 -30 -144.5t-79 -111.5t-110.5 -73.5t-125.5 -32.5q45 -14 86 -46t71 -76 t47.5 -95.5t17.5 -106.5q0 -102 -37 -179t-100.5 -128t-148.5 -76t-183 -25q-88 0 -158 25t-119 69t-74.5 103t-25.5 127zM238 307q-1 -59 22 -108t62.5 -85t97 -56.5t127.5 -20.5q68 0 137.5 17.5t124.5 57.5t91 105.5t36 159.5q0 53 -17.5 106.5t-52.5 95.5t-90 68.5 t-131 26.5q-86 0 -160.5 -29t-129 -78t-86 -116.5t-31.5 -143.5zM403 985q0 -111 72 -177.5t193 -66.5q76 0 146.5 19.5t125.5 59.5t88 101.5t33 143.5q0 106 -76 179t-207 73q-76 0 -143.5 -22.5t-118.5 -65.5t-82 -104.5t-31 -139.5z" />
<glyph unicode="9" d="M213 47q113 27 223.5 79t208.5 127t179 172t137 216q-59 -47 -133 -78t-177 -31q-86 0 -154.5 28t-115.5 76t-72.5 114.5t-25.5 144.5q0 96 31.5 184t90 154.5t142.5 105.5t190 39q170 0 271.5 -101t101.5 -282q0 -88 -13.5 -157.5t-35.5 -135.5q-47 -135 -130 -252.5 t-192.5 -211t-239.5 -159t-270 -93.5zM358 901q0 -141 80 -223q80 -80 217 -80q45 0 92.5 11.5t90.5 29.5t81.5 42t67.5 48q23 49 36 124t13 130q0 156 -81 244t-218 88q-92 0 -162.5 -38t-118.5 -98.5t-73 -134t-25 -143.5z" />
<glyph unicode=":" horiz-adv-x="309" d="M102 41q0 37 21.5 68.5t58.5 31.5q23 0 35 -18.5t12 -44.5q0 -37 -21 -69t-58 -32q-23 0 -35.5 18.5t-12.5 45.5zM264 801q0 37 21.5 68.5t58.5 31.5q23 0 35 -18.5t12 -44.5q0 -37 -21 -69t-58 -32q-23 0 -35.5 18.5t-12.5 45.5z" />
<glyph unicode=";" horiz-adv-x="309" d="M6 -115q31 12 71 38t58 52q-31 23 -31 70q0 37 24 66.5t54 29.5q27 0 38 -18.5t11 -44.5q0 -39 -18 -75t-49 -65.5t-70 -51t-78 -33.5zM264 801q0 37 21.5 68.5t58.5 31.5q23 0 35 -18.5t12 -44.5q0 -37 -21 -69t-58 -32q-23 0 -35.5 18.5t-12.5 45.5z" />
<glyph unicode="&#x3c;" d="M246 647v70l784 317l27 -71l-709 -281l715 -283l-27 -73z" />
<glyph unicode="=" d="M217 469v72h895v-72h-895zM217 780v72h895v-72h-895z" />
<glyph unicode="&#x3e;" d="M293 399l713 283l-709 281l29 71l784 -317v-70l-791 -321z" />
<glyph unicode="?" horiz-adv-x="696" d="M262 1184q14 29 45 62.5t76 63t103.5 49t131.5 19.5q131 0 207 -70.5t76 -185.5q0 -72 -29.5 -138t-73.5 -124.5t-98.5 -109t-103.5 -88.5q-37 -29 -59.5 -55.5t-38 -52.5t-24.5 -52.5t-17 -57.5l-11 -41h-73l10 46q18 80 55 142t119 128q43 37 91 81t88 95t65.5 106.5 t25.5 112.5q0 92 -54 145.5t-163 53.5q-55 0 -101 -15.5t-83 -38t-63.5 -52t-45.5 -56.5zM299 41q0 37 21.5 68.5t58.5 31.5q23 0 35 -18.5t12 -44.5q0 -37 -21.5 -69t-58.5 -32q-23 0 -35 18.5t-12 45.5z" />
<glyph unicode="@" horiz-adv-x="1560" d="M244 401q0 119 24.5 239t74.5 230.5t124 205.5t171 166t218 111t264 40q213 0 330 -98.5t117 -256.5q0 -59 -13 -114l-206 -967q-10 -41 -11 -78q0 -35 10.5 -55.5t29 -31.5t42 -15t49.5 -4q37 0 66 5t53 15v-65q-31 -12 -63.5 -18.5t-77.5 -6.5q-80 0 -132 42t-52 122 q0 45 10 92l47 223q-63 -47 -133 -81.5t-174 -34.5q-63 0 -116.5 22.5t-91.5 65.5t-58.5 102t-20.5 133q0 104 33 194.5t91 158t139 105.5t179 38q86 0 160 -30t121 -69l29 119q8 33 12 61.5t4 57.5q0 82 -28.5 139.5t-79 93t-119 52t-150.5 16.5q-201 0 -349.5 -84 t-248.5 -217t-149.5 -298t-49.5 -329q0 -154 26 -257t56 -175l-65 -31q-29 55 -60.5 174t-31.5 293zM805 397q0 -53 12 -100t40 -83t70 -57.5t103 -21.5q92 0 169 42t136 89l95 445q-47 41 -116 72.5t-155 31.5q-82 0 -147.5 -33.5t-111.5 -90t-70.5 -132.5t-24.5 -162z" />
<glyph unicode="A" horiz-adv-x="1105" d="M10 0l803 1366h76l229 -1366h-78l-77 451h-607l-264 -451h-82zM397 522h557l-123 752z" />
<glyph unicode="B" horiz-adv-x="1042" d="M166 0l289 1366h346q162 0 245.5 -80t83.5 -203q0 -74 -24.5 -136t-68.5 -109t-103.5 -78t-128.5 -39q117 -20 184.5 -100t67.5 -201q0 -106 -38 -185t-101.5 -131.5t-147.5 -78t-174 -25.5h-430zM258 74h344q82 0 150.5 22.5t119 66.5t78 108.5t27.5 148.5 q0 68 -24.5 118t-67.5 81.5t-100.5 48t-122.5 16.5h-275zM403 758h269q78 0 147.5 21.5t121.5 62.5t82 99t30 134q0 111 -69 164t-193 53h-273z" />
<glyph unicode="C" horiz-adv-x="1116" d="M227 494q0 154 44 313.5t130 289.5t214 213t296 83q160 0 255.5 -77t133.5 -206l-67 -20q-35 106 -109.5 169.5t-214.5 63.5q-100 0 -183 -37t-150.5 -100.5t-117.5 -147.5t-84 -177t-51.5 -189.5t-17.5 -184.5q0 -80 19.5 -159.5t62.5 -142t111.5 -102.5t169.5 -40 q125 0 224 53.5t177 175.5l59 -36q-78 -127 -189.5 -195t-276.5 -68q-121 0 -203 45t-134.5 119t-75 167t-22.5 190z" />
<glyph unicode="D" horiz-adv-x="1218" d="M166 0l289 1366h307q127 0 225 -40t166 -109.5t103.5 -166t35.5 -208.5q0 -182 -57 -337t-162.5 -266.5t-253 -175t-327.5 -63.5h-326zM258 74h227q162 0 295 53t229.5 153.5t149.5 245t53 326.5q0 84 -26.5 164t-82.5 141.5t-141 98t-202 36.5h-242z" />
<glyph unicode="E" horiz-adv-x="978" d="M166 0l289 1366h745l-14 -74h-668l-112 -524h487l-14 -74h-490l-133 -620h705l-15 -74h-780z" />
<glyph unicode="F" horiz-adv-x="905" d="M166 0l289 1366h739l-14 -74h-662l-117 -544h486l-17 -74h-487l-141 -674h-76z" />
<glyph unicode="G" horiz-adv-x="1189" d="M227 520q0 166 48.5 322.5t138.5 279.5t218 197t286 74q82 0 149.5 -21.5t117.5 -57.5t84 -84t50 -102l-70 -24q-33 92 -112.5 155.5t-221.5 63.5q-123 0 -233.5 -60.5t-193 -168t-132 -256t-49.5 -324.5q0 -109 23.5 -186.5t60.5 -130t84 -84t94 -48t90 -21.5t72 -5 q76 0 161 17.5t140 45.5l101 469h-281l14 74h357l-125 -596q-76 -33 -165 -54.5t-212 -21.5q-111 0 -202 34t-155.5 101.5t-100.5 170t-36 241.5z" />
<glyph unicode="H" horiz-adv-x="1271" d="M166 0l289 1366h77l-131 -621h785l131 621h78l-289 -1366h-78l141 672h-784l-141 -672h-78z" />
<glyph unicode="I" horiz-adv-x="409" d="M166 0l289 1366h77l-288 -1366h-78z" />
<glyph unicode="J" horiz-adv-x="423" d="M-119 -180q45 10 95.5 28.5t94.5 50t78.5 82t51.5 121.5l268 1264h78l-271 -1272q-18 -84 -55 -143.5t-87 -99t-111.5 -64.5t-124.5 -37z" />
<glyph unicode="K" horiz-adv-x="1079" d="M166 0l289 1366h77l-147 -694l829 694h105l-637 -539l397 -827h-86l-375 772l-256 -207l-118 -565h-78z" />
<glyph unicode="L" horiz-adv-x="921" d="M166 0l289 1366h77l-274 -1292h678l-14 -74h-756z" />
<glyph unicode="M" horiz-adv-x="1454" d="M166 0l289 1366h104l207 -1208l700 1208h111l-289 -1366h-76l265 1243l-732 -1266h-20l-221 1264l-262 -1241h-76z" />
<glyph unicode="N" horiz-adv-x="1310" d="M166 0l289 1366h80l559 -1239l262 1239h78l-289 -1366h-76l-563 1245l-262 -1245h-78z" />
<glyph unicode="O" horiz-adv-x="1292" d="M227 504q0 154 45 311.5t132.5 286.5t215.5 210t293 81q119 0 202 -47.5t134 -122t75 -170t24 -191.5q0 -154 -45.5 -311.5t-132.5 -286.5t-216 -210t-295 -81q-118 0 -202 47q-82 47 -133.5 122t-74 170.5t-22.5 191.5zM305 500q0 -82 18.5 -164t61.5 -148 q43 -63 111.5 -104t169.5 -41q150 0 262 80t188 201.5t115 266t39 275.5q0 82 -18.5 164t-61.5 146.5t-111.5 105.5t-169.5 41q-150 0 -262 -80t-188 -201.5t-115 -266t-39 -275.5z" />
<glyph unicode="P" horiz-adv-x="1040" d="M164 0l291 1366h401q78 0 143.5 -20.5t112.5 -60.5t73.5 -100.5t26.5 -140.5q0 -98 -36.5 -182t-105.5 -144.5t-168 -94t-224 -33.5h-309l-125 -590h-80zM383 664h303q96 0 178 25.5t141.5 73.5t92 118.5t32.5 160.5q0 106 -68.5 178t-223.5 72h-320z" />
<glyph unicode="Q" horiz-adv-x="1292" d="M227 504q0 154 45 311.5t132.5 286.5t215.5 210t293 81q119 0 202 -47.5t134 -122t75 -170t24 -191.5q0 -102 -19.5 -206.5t-59.5 -204t-97.5 -185.5t-133 -150.5t-169 -103.5t-203.5 -39q12 -88 87.5 -124.5t186.5 -43.5l-8 -69q-70 6 -129.5 18.5t-105.5 40t-76.5 72.5 t-40.5 113q-96 14 -164 65t-110 124t-60.5 160t-18.5 175zM305 500q0 -82 18.5 -164t61.5 -148q43 -63 111.5 -104t169.5 -41q150 0 262 80t188 201.5t115 266t39 275.5q0 82 -18.5 164t-61.5 146.5t-111.5 105.5t-169.5 41q-150 0 -262 -80t-188 -201.5t-115 -266 t-39 -275.5z" />
<glyph unicode="R" horiz-adv-x="1054" d="M158 0l288 1366h416q158 0 249 -80t91 -219q0 -193 -118.5 -306.5t-335.5 -127.5l251 -633h-84l-253 633h-293l-133 -633h-78zM385 705h332q86 0 160.5 22.5t129 67.5t85 112.5t30.5 155.5q0 113 -73.5 171t-206.5 58h-332z" />
<glyph unicode="S" horiz-adv-x="1011" d="M133 170l64 49q37 -47 81 -81t92 -55.5t97 -30.5t94 -9q63 0 127 18.5t116 58.5t85 102.5t33 152.5t-44 151.5t-108.5 106.5t-141.5 82t-141.5 81t-108.5 103t-44 148q0 72 28.5 134t84 109t134 75t181.5 28q72 0 133 -18.5t111.5 -48.5t88.5 -67.5t60 -76.5l-65 -41 q-45 78 -130.5 130t-207.5 52q-66 0 -126.5 -18.5t-106.5 -53t-73.5 -85t-27.5 -115.5q0 -72 44 -123t109.5 -92t141 -80t141.5 -89.5t110 -118t44 -165.5q0 -102 -35 -178t-95.5 -128t-143.5 -78t-179 -26q-45 0 -99.5 8.5t-110.5 31t-110.5 60.5t-101.5 97z" />
<glyph unicode="T" horiz-adv-x="980" d="M303 1292l14 74h926l-14 -74h-424l-275 -1292h-79l274 1292h-422z" />
<glyph unicode="U" horiz-adv-x="1271" d="M242 336q0 18 4 60t10 71l188 899h78l-184 -874q-6 -33 -12.5 -71t-6.5 -73q0 -143 90.5 -222t249.5 -79q109 0 190 31t138 87t94 135t58 175l188 891h78l-195 -922q-49 -231 -184 -351t-377 -120q-78 0 -150.5 19.5t-130 63.5t-92 113t-34.5 167z" />
<glyph unicode="V" horiz-adv-x="1120" d="M317 1366h74l205 -1231l713 1231h88l-801 -1366h-51z" />
<glyph unicode="W" horiz-adv-x="1525" d="M309 1366h72l51 -1212l590 1212h53l80 -1212l565 1212h74l-635 -1366h-61l-84 1186l-588 -1186h-59z" />
<glyph unicode="X" horiz-adv-x="970" d="M18 0l574 707l-246 659h80l221 -600l465 600h86l-520 -672l268 -694h-80l-243 635l-514 -635h-91z" />
<glyph unicode="Y" horiz-adv-x="1015" d="M289 1366h80l278 -639l565 639h93l-627 -707l-139 -659h-78l139 657z" />
<glyph unicode="Z" horiz-adv-x="1093" d="M80 0l12 74l1082 1218h-785l14 74h875l-12 -74l-1080 -1218h850l-14 -74h-942z" />
<glyph unicode="[" horiz-adv-x="380" d="M88 -293l383 1800h229l-14 -65h-156l-354 -1669h156l-15 -66h-229z" />
<glyph unicode="\" horiz-adv-x="911" d="M319 1516l64 22l528 -1530l-69 -26z" />
<glyph unicode="]" horiz-adv-x="380" d="M-61 -293l14 66h153l355 1669h-156l14 65h230l-383 -1800h-227z" />
<glyph unicode="^" d="M281 657l483 713h78l190 -731l-67 -16l-172 677l-459 -677z" />
<glyph unicode="_" horiz-adv-x="1021" d="M-92 -436l16 76h1020l-16 -76h-1020z" />
<glyph unicode="`" horiz-adv-x="393" d="M303 1395l57 55l277 -287l-41 -41z" />
<glyph unicode="a" horiz-adv-x="907" d="M139 223q0 109 58.5 186.5t156 128t222 75t258.5 24.5q14 63 18 90t4 41q0 96 -52 132t-149 36q-82 0 -152.5 -36t-115.5 -79l-47 47q51 49 135 91t197 42q123 0 191.5 -57t68.5 -164q0 -6 -1 -15t-6 -36t-14.5 -76t-27 -133t-44 -211t-65.5 -309h-65l10 86 q-55 -47 -136 -78t-177 -31q-117 0 -192 58.5t-75 187.5zM213 223q0 -61 20.5 -97t51 -54.5t65.5 -23.5t64 -5q102 0 180 39t141 90l84 397q-104 0 -212.5 -19.5t-195.5 -60t-142.5 -107.5t-55.5 -159z" />
<glyph unicode="b" horiz-adv-x="1017" d="M147 35l283 1331h74l-94 -446q47 31 112.5 56t157.5 25q57 0 119.5 -16t115 -59t86 -115t33.5 -182q0 -135 -38 -254t-111.5 -207t-181 -139.5t-244.5 -51.5q-100 0 -176 17.5t-136 40.5zM231 86q47 -23 102.5 -33t135.5 -10q106 0 197.5 44t157 123t102.5 184.5 t37 228.5q0 156 -79 236.5t-212 80.5q-76 0 -147.5 -27.5t-131.5 -68.5z" />
<glyph unicode="c" horiz-adv-x="905" d="M190 381q0 125 37 237.5t103.5 197.5t160 135t207.5 50q61 0 112.5 -16t91.5 -43t66.5 -62.5t43.5 -74.5l-64 -29q-12 31 -32.5 59.5t-52.5 51t-75 36t-100 13.5q-100 0 -179 -51t-133 -132t-83 -180.5t-29 -195.5q0 -66 16.5 -126.5t50.5 -105.5t84 -71.5t120 -26.5 q92 0 166.5 42t138.5 114l53 -47q-29 -33 -65.5 -65t-82 -57.5t-99.5 -41t-118 -15.5q-59 0 -119.5 20.5t-108.5 69t-79 125t-31 189.5z" />
<glyph unicode="d" horiz-adv-x="1017" d="M188 375q0 129 39 242.5t110 199.5t169 135t215 49q98 0 170 -30.5t106 -50.5l95 446h73l-288 -1366h-62l6 90q-53 -47 -123.5 -80t-165.5 -33q-158 0 -251 102.5t-93 295.5zM264 375q0 -160 72 -246t205 -86q100 0 169.5 43t129.5 100l141 660q-16 14 -45 30.5t-64.5 30 t-76.5 21.5t-80 8q-96 0 -179 -44t-143.5 -120t-94.5 -178t-34 -219z" />
<glyph unicode="e" horiz-adv-x="964" d="M188 387q0 121 35 232.5t100.5 196.5t156.5 135t206 50q145 0 237.5 -88t92.5 -254q0 -41 -2 -76.5t-10 -70.5h-728q-4 -20 -8 -52t-4 -91q0 -43 11.5 -98.5t42 -106.5t87 -86t146.5 -35q104 0 184 46t139 128l54 -39q-61 -84 -150.5 -142.5t-228.5 -58.5 q-174 0 -267.5 109t-93.5 301zM293 580h645q4 18 4 42.5v34.5q0 139 -72.5 209t-183.5 70q-129 0 -235.5 -88t-157.5 -268z" />
<glyph unicode="f" horiz-adv-x="497" d="M176 0l193 909h-146l15 66h145l31 143q57 274 268 275q61 0 108.5 -14.5t75.5 -32.5l-35 -60q-18 14 -58 27.5t-87 13.5q-70 0 -125 -48t-80 -173l-26 -131h225l-14 -66h-224l-192 -909h-74z" />
<glyph unicode="g" horiz-adv-x="1003" d="M55 -145q0 94 53.5 159.5t163.5 116.5q-25 14 -43 44t-18 65q0 61 44 102t107 64q-47 37 -75.5 89t-28.5 117q0 84 36 156t97.5 124t142 80.5t168.5 28.5q68 0 127.5 -20t104.5 -55l147 137l45 -43l-145 -137q29 -35 43 -77t14 -97q0 -80 -36.5 -147.5t-98 -118 t-141.5 -78t-166 -27.5q-41 0 -85 8t-79 21q-25 -4 -51.5 -14.5t-48 -26t-35.5 -35t-14 -39.5q0 -16 5 -31.5t22.5 -28t49 -21.5t84.5 -15q68 -8 117 -14.5t84 -10.5t60.5 -9t44.5 -9q39 -10 74.5 -25.5t64.5 -40t46 -59.5t17 -82q0 -150 -129 -233t-362 -83 q-90 0 -164 18.5t-128 52.5t-84 83t-30 111zM127 -131q0 -57 29.5 -98t77 -68t108.5 -39t123 -12q100 0 178 19.5t131 53t80 78.5t27 97q0 49 -29 80.5t-77 51t-109.5 30t-128.5 16.5q-44 4 -99 12q-53 8 -84 14q-41 -12 -81 -34.5t-72.5 -52t-53 -67.5t-20.5 -81zM332 625 q0 -106 73.5 -164t196.5 -58q68 0 133.5 23t115.5 63.5t82 97t32 122.5q0 98 -68 162.5t-201 64.5q-70 0 -135 -22.5t-116.5 -64.5t-82 -99t-30.5 -125z" />
<glyph unicode="h" horiz-adv-x="1034" d="M141 0l289 1366h74l-101 -479q72 53 155 83.5t194 30.5q135 0 217 -61t82 -178q0 -25 -5.5 -57.5t-20.5 -109.5t-45 -216t-79 -379h-74q51 238 80 376t43.5 213t17.5 108.5t3 62.5q0 33 -12.5 63.5t-40 55t-71.5 39t-106 14.5q-109 0 -196.5 -35t-159.5 -90l-170 -807 h-74z" />
<glyph unicode="i" horiz-adv-x="358" d="M141 0l207 975h74l-207 -975h-74zM395 1274q0 35 19.5 63.5t54.5 28.5q20 0 31.5 -17.5t11.5 -39.5q0 -35 -19.5 -63.5t-54.5 -28.5q-20 0 -31.5 17t-11.5 40z" />
<glyph unicode="j" horiz-adv-x="354" d="M-102 -342q106 57 162.5 140t78.5 194l209 983h74l-209 -983q-33 -147 -104.5 -243.5t-182.5 -149.5zM395 1274q0 35 19.5 63.5t54.5 28.5q20 0 31.5 -17.5t11.5 -39.5q0 -35 -19.5 -63.5t-54.5 -28.5q-20 0 -31.5 17t-11.5 40z" />
<glyph unicode="k" horiz-adv-x="901" d="M141 0l289 1366h74l-178 -840l569 449h102l-395 -318l299 -657h-80l-280 612l-236 -184l-90 -428h-74z" />
<glyph unicode="l" horiz-adv-x="356" d="M141 0l289 1366h74l-289 -1366h-74z" />
<glyph unicode="m" horiz-adv-x="1581" d="M141 0l207 975h68l-19 -101q57 43 137 85t191 42q102 0 156.5 -32.5t87.5 -79.5q61 45 138 78.5t191 33.5q137 0 216 -67.5t79 -196.5q0 -23 -2 -47t-8 -51l-135 -639h-74l135 637q4 23 6.5 44t2.5 40q0 106 -62.5 158.5t-161.5 52.5q-92 0 -164.5 -29t-138.5 -76 q10 -31 10 -75q0 -23 -3 -47.5t-7 -49.5l-139 -655h-74q37 170 61.5 290t41 199.5t25.5 128t13.5 74t5.5 35.5t1 16q0 86 -51.5 137.5t-163.5 51.5q-90 0 -178.5 -44t-149.5 -95l-168 -793h-74z" />
<glyph unicode="n" horiz-adv-x="1038" d="M141 0l207 975h66l-15 -98q72 53 157 88.5t196 35.5q135 0 219 -61t84 -178q0 -25 -5.5 -57.5t-20.5 -109.5t-45 -216t-79 -379h-74q51 238 80 376t43.5 214t17.5 109.5t3 64.5t-13.5 61.5t-41 54t-72.5 38t-107 14.5q-109 0 -197.5 -42t-160.5 -97l-168 -793h-74z" />
<glyph unicode="o" horiz-adv-x="1038" d="M193 389q0 104 32.5 213t99 198t164 145t226.5 56q160 0 249 -112.5t89 -298.5q0 -104 -33 -213t-98.5 -198t-163 -145.5t-226.5 -56.5q-160 0 -249.5 113t-89.5 299zM264 387q0 -63 15.5 -124.5t48.5 -110.5t85 -79t126 -30q102 0 184 49t139.5 128t88 177.5t30.5 194.5 q0 63 -15.5 124.5t-48 111t-85 79t-125.5 29.5q-102 0 -184.5 -49t-139.5 -128t-88 -177.5t-31 -194.5z" />
<glyph unicode="p" horiz-adv-x="1015" d="M57 -387l291 1362h66l-11 -86q45 39 115 75.5t176 36.5q150 0 244 -107.5t94 -299.5q0 -100 -31.5 -209t-97 -200t-166 -149.5t-237.5 -58.5q-96 0 -165 25t-110 51l-94 -440h-74zM242 133q41 -37 112.5 -62.5t153.5 -25.5q106 0 190 50t142.5 129t88 176.5t29.5 189.5 q0 70 -17 132t-51 110.5t-85 76t-121 27.5q-92 0 -169 -41t-130 -90z" />
<glyph unicode="q" horiz-adv-x="1017" d="M182 371q0 133 48.5 247.5t129 199.5t188 134t226.5 49q98 0 178 -14t127 -29l-286 -1345h-74l96 450q-37 -29 -107.5 -57.5t-181.5 -28.5q-160 0 -252 103.5t-92 290.5zM258 375q0 -61 14.5 -120.5t47 -107t86 -76t131.5 -28.5q94 0 171.5 36t125.5 71l159 751 q-41 14 -92 24.5t-137 10.5q-90 0 -181 -41t-163 -114.5t-117 -177t-45 -228.5z" />
<glyph unicode="r" horiz-adv-x="585" d="M141 0l207 975h64l-19 -109q57 59 129 95t150 36q35 0 65.5 -4t50.5 -12l-24 -70q-16 6 -42 12.5t-63 6.5t-75.5 -13.5t-75.5 -35t-69.5 -48t-59.5 -55.5l-164 -778h-74z" />
<glyph unicode="s" horiz-adv-x="761" d="M117 137l57 43q35 -57 102.5 -97t149.5 -40q68 0 116 20.5t79.5 54.5t46 74.5t14.5 81.5q0 61 -29.5 103.5t-76 73t-98.5 57.5t-98 58.5t-76 74.5t-30 109q0 49 19.5 94t57.5 79.5t94.5 56t129.5 21.5q98 0 176 -40.5t117 -112.5l-59 -35q-31 57 -94.5 92t-149.5 35 q-55 0 -95 -16.5t-66.5 -43t-40 -59.5t-13.5 -65q0 -51 30 -87t76 -65t98 -56.5t98 -64.5t76 -86t30 -123q0 -53 -20.5 -106t-62.5 -95t-105.5 -69t-151.5 -27q-53 0 -100.5 14.5t-86 37t-68.5 51.5t-46 57z" />
<glyph unicode="t" horiz-adv-x="569" d="M223 909l15 66h168l53 258h73l-53 -258h256l-14 -66h-256l-139 -651q-4 -18 -10.5 -50t-6.5 -67q0 -45 25.5 -71.5t77.5 -26.5q59 0 120 35l25 -55q-76 -45 -156 -46q-82 0 -125 43t-43 109q0 39 5.5 66.5t9.5 44.5l143 669h-168z" />
<glyph unicode="u" horiz-adv-x="1034" d="M193 231q0 47 12 107l135 637h74l-135 -633q-6 -27 -8.5 -52.5t-2.5 -45.5q0 -109 69 -154t169 -45q49 0 99 13.5t97.5 35t88 49t69.5 56.5l166 776h74l-207 -975h-64l15 111q-59 -53 -143.5 -93.5t-206.5 -40.5q-61 0 -115.5 15.5t-95.5 46.5t-65.5 79t-24.5 113z" />
<glyph unicode="v" horiz-adv-x="839" d="M207 975h76l155 -881l525 881h84l-588 -975h-72z" />
<glyph unicode="w" horiz-adv-x="1314" d="M207 975h72l94 -850l452 850h62l92 -848l467 848h76l-541 -975h-59l-93 840l-450 -840h-60z" />
<glyph unicode="x" horiz-adv-x="751" d="M0 0l442 500l-219 475h78l195 -418l362 418h88l-418 -479l222 -496h-78l-195 436l-387 -436h-90z" />
<glyph unicode="y" horiz-adv-x="870" d="M-70 -373l35 58q23 -12 57.5 -24.5t69.5 -12.5q45 0 85 24.5t77 85.5l137 232l-184 985h76l163 -893l549 893h82l-760 -1239q-49 -82 -100 -116t-129 -34q-45 0 -86 12.5t-72 28.5z" />
<glyph unicode="z" horiz-adv-x="921" d="M86 0l8 70l826 839h-619l14 66h705l-12 -72l-826 -837h658l-13 -66h-741z" />
<glyph unicode="{" horiz-adv-x="475" d="M188 651l15 68q49 6 85 19.5t61.5 38t43 64.5t29.5 103l67 309q29 129 99.5 186.5t156.5 57.5l-10 -61q-76 -4 -118 -56.5t-60 -136.5l-65 -301q-23 -113 -69 -178.5t-159 -83.5q74 -14 102.5 -50t28.5 -98q0 -12 -2 -30.5t-9 -60.5t-23.5 -116.5t-43.5 -201.5 q-4 -23 -7 -43.5t-3 -42.5q0 -49 24.5 -77t84.5 -32l-15 -59q-70 2 -116.5 41t-46.5 127q0 37 8 76q27 131 43 207.5t24.5 118.5t10.5 58.5t2 26.5q0 63 -33 89t-105 38z" />
<glyph unicode="|" horiz-adv-x="405" d="M133 -152l352 1663h74l-352 -1663h-74z" />
<glyph unicode="}" horiz-adv-x="475" d="M16 -129l13 61q78 4 118.5 56.5t59.5 136.5l65 301q12 55 27.5 100t41.5 78t63.5 53.5t95.5 30.5q-74 14 -102.5 50t-28.5 98q0 12 2 30.5t9 60.5t22.5 116.5t43.5 201.5q4 23 7.5 43.5t3.5 42.5q0 49 -23.5 77t-87.5 32l12 59q70 0 119 -39t49 -129q0 -37 -8 -76 q-29 -131 -44 -207.5t-23.5 -118.5t-10.5 -58.5t-2 -26.5q0 -63 33 -89t104 -38l-14 -68q-49 -6 -85 -19.5t-61.5 -38t-43 -64.5t-29.5 -103l-68 -309q-14 -66 -40.5 -113t-60.5 -75.5t-74 -42t-83 -13.5z" />
<glyph unicode="~" horiz-adv-x="876" d="M254 1100q35 115 109.5 170t179.5 55q63 0 111 -26.5t89 -57.5t80 -57.5t82 -26.5q61 0 102.5 46t63.5 122h66q-18 -104 -86 -165.5t-148 -61.5q-55 0 -100 26.5t-88 57t-86 57.5t-94 27q-84 0 -138.5 -50.5t-79.5 -115.5h-63z" />
<glyph unicode="&#xa1;" horiz-adv-x="329" d="M39 -401l205 962h73l-204 -962h-74zM285 887q0 37 21.5 68.5t58.5 31.5q23 0 35 -18.5t12 -44.5q0 -37 -21.5 -69t-58.5 -32q-23 0 -35 18.5t-12 45.5z" />
<glyph unicode="&#xa2;" d="M336 569q0 86 26.5 170t76.5 154t121 117t159 57l63 299h66l-64 -295q74 -4 127.5 -31.5t81.5 -62.5l-47 -47q-31 29 -65.5 49t-110.5 25l-137 -650q76 0 115.5 27t78.5 61l43 -49q-49 -47 -105 -76.5t-147 -31.5l-61 -293h-65l61 297q-90 16 -153.5 85.5t-63.5 194.5z M408 571q0 -92 45 -144t116 -67l136 639q-63 -12 -118 -53t-94.5 -99.5t-62 -130t-22.5 -145.5z" />
<glyph unicode="&#xa3;" d="M225 537l15 69h141l80 373q86 399 409 399q109 0 183.5 -55t103.5 -141l-72 -27q-25 63 -76 108.5t-147 45.5q-135 0 -214 -85t-116 -255l-77 -363h452l-14 -69h-453l-98 -467h604l-14 -70h-676l113 537h-144z" />
<glyph unicode="&#xa4;" horiz-adv-x="1368" d="M84 123l385 338q-51 86 -51 196q0 117 45 218.5t123 179.5l-232 319l58 41l223 -319q66 53 145.5 81.5t167.5 28.5q78 0 139.5 -27.5t106.5 -74.5l360 317l43 -53l-364 -317q51 -86 51 -199q0 -121 -50 -225.5t-132 -180.5l231 -329l-51 -39l-235 323q-63 -43 -135 -67.5 t-150 -24.5t-141.5 25.5t-108.5 73.5l-385 -334zM483 672q0 -141 80 -218t211 -77q82 0 162 38t142.5 102.5t101.5 147.5t39 173q0 143 -78 223t-207 80q-86 0 -167 -39t-144.5 -104.5t-101.5 -150.5t-38 -175z" />
<glyph unicode="&#xa5;" d="M217 444l14 68h326l29 137l-33 92h-274l14 68h239l-194 541h76l219 -637l512 637h86l-443 -541h234l-14 -68h-271l-73 -90l-29 -139h326l-15 -68h-325l-95 -444h-77l94 444h-326z" />
<glyph unicode="&#xa6;" horiz-adv-x="434" d="M147 -152l119 564h74l-119 -564h-74zM381 946l119 565h73l-118 -565h-74z" />
<glyph unicode="&#xa7;" horiz-adv-x="862" d="M92 -174l47 43q37 -39 88.5 -70.5t141.5 -31.5q51 0 96 15t79 43t53 65.5t19 82.5q0 37 -9 67t-27.5 59.5t-47 61.5t-67.5 72q-90 94 -143.5 165t-53.5 161q0 68 29 122t75 94t105.5 66.5t120.5 37.5q-55 57 -96 115.5t-41 142.5q0 51 19.5 97t55 82t89 56.5t120.5 20.5 q86 0 144.5 -33t93.5 -72l-47 -41q-41 39 -82 61.5t-119 22.5q-88 0 -146.5 -54t-58.5 -138q0 -35 11.5 -66t33 -60.5t52 -62t69.5 -73.5q90 -96 125 -163t35 -136q0 -70 -23.5 -124.5t-63.5 -96.5t-93 -72.5t-115 -51.5q27 -29 49.5 -56t40 -58t26.5 -66t9 -78 q0 -55 -22.5 -104t-65.5 -86t-103.5 -58.5t-136.5 -21.5q-49 0 -91 11.5t-75.5 29.5t-59.5 39.5t-40 40.5zM340 563q0 -49 16.5 -88t43 -72.5t57.5 -64.5q31 -29 59 -59q49 16 97.5 39.5t86 57.5t61 82t23.5 113q0 78 -42 139.5t-101 120.5q-49 -6 -102.5 -24.5t-97.5 -52 t-72.5 -80.5t-28.5 -111z" />
<glyph unicode="&#xa8;" horiz-adv-x="409" d="M285 1276q0 33 19.5 61.5t53.5 28.5q18 0 29.5 -17.5t11.5 -41.5q0 -33 -19 -61.5t-52 -28.5q-20 0 -31.5 17t-11.5 42zM559 1276q0 33 19.5 61.5t54.5 28.5q18 0 29.5 -17.5t11.5 -41.5q0 -33 -19.5 -61.5t-52.5 -28.5q-20 0 -31.5 17t-11.5 42z" />
<glyph unicode="&#xa9;" horiz-adv-x="1589" d="M225 608q0 160 51.5 298t144.5 241.5t225 163t294 59.5t293 -59.5t225 -163t145.5 -241.5t51.5 -298t-51.5 -300t-145.5 -243.5t-225 -163t-293 -59.5q-162 1 -295 60q-131 59 -224 162.5t-144.5 244t-51.5 299.5zM295 608q0 -139 45 -266t129 -223t204 -154.5t267 -58.5 t267 58.5t204 154.5t129 223t45 266t-45 266t-129 223.5t-204 154t-267 57.5t-267 -57.5t-204 -154t-129 -223t-45 -266.5zM608 604q0 119 29 205t77 143.5t111.5 85t132.5 27.5q98 0 163 -45t96 -102l-60 -33q-33 51 -76 82.5t-127 31.5q-119 0 -196.5 -102t-77.5 -293 q0 -186 79 -285.5t199 -99.5q74 0 124.5 33t84.5 86l56 -41q-43 -63 -105.5 -103t-161.5 -40q-70 0 -133 26.5t-110 81.5t-76 140t-29 202z" />
<glyph unicode="&#xaa;" horiz-adv-x="620" d="M254 928q0 84 41 143t110.5 97t157.5 55.5t185 17.5q10 45 13 63.5t3 34.5q0 109 -137 109q-57 0 -103.5 -21.5t-89.5 -62.5l-43 43q39 41 102.5 70.5t139.5 29.5q96 0 148.5 -43t52.5 -116q0 -25 -3.5 -44.5t-7.5 -37.5l-106 -500h-62l9 65q-35 -29 -90.5 -57.5 t-120.5 -28.5q-90 0 -144.5 51.5t-54.5 131.5zM326 932q0 -55 34.5 -89t102.5 -34q66 0 118 27.5t95 68.5l59 277q-74 0 -147.5 -13.5t-132 -43t-94 -77t-35.5 -116.5z" />
<glyph unicode="&#xab;" horiz-adv-x="927" d="M190 514l422 387l45 -51l-374 -340l247 -324l-53 -41zM559 514l422 387l45 -51l-375 -340l248 -324l-53 -41z" />
<glyph unicode="&#xac;" d="M180 643v72h891v-529h-72v457h-819z" />
<glyph unicode="&#xad;" horiz-adv-x="612" d="M199 508l18 82h428l-18 -82h-428z" />
<glyph unicode="&#xae;" horiz-adv-x="1589" d="M219 608q0 160 51.5 298t144.5 241.5t225 163t294 59.5t293 -59.5t225 -163t145.5 -241.5t51.5 -298t-51.5 -300t-145.5 -243.5t-225 -163t-293 -59.5q-162 1 -295 60q-131 59 -224 162.5t-144.5 244t-51.5 299.5zM289 608q0 -139 45 -266t129 -223t203.5 -154.5 t267.5 -58.5q147 0 267 58.5t204 154.5t129 223t45 266t-45 266t-129 223.5t-204 154t-267 57.5t-267 -57.5t-204 -154t-129 -223t-45 -266.5zM700 176v879h265q121 0 195.5 -61.5t74.5 -174.5q0 -59 -17.5 -100t-46 -68.5t-67.5 -44t-82 -24.5l219 -406h-78l-213 402h-184 v-402h-66zM766 641h192q98 0 152.5 40t54.5 138q0 86 -53 131t-145 45h-201v-354z" />
<glyph unicode="&#xaf;" horiz-adv-x="577" d="M266 1262l15 67h577l-14 -67h-578z" />
<glyph unicode="&#xb0;" horiz-adv-x="718" d="M289 1085q0 55 21.5 106.5t59.5 89.5t88 61.5t107 23.5t107.5 -22.5t87.5 -61.5t58.5 -89t21.5 -108q0 -57 -21.5 -108t-58.5 -89t-87 -60.5t-108 -22.5q-57 -1 -108 22q-49 23 -87 61t-59.5 89t-21.5 108zM354 1085q0 -45 17.5 -83.5t46.5 -69.5q29 -29 66.5 -45.5 t80.5 -16.5q45 0 84 17.5t66.5 47.5t44 68.5t16.5 81.5t-15.5 82t-44 69t-67.5 48.5t-84 18.5t-83 -17.5t-66.5 -47.5t-45 -69t-16.5 -84z" />
<glyph unicode="&#xb1;" d="M217 0v72h891v-72h-891zM217 643v72h410v456h71v-456h410v-72h-410v-457h-71v457h-410z" />
<glyph unicode="&#xb2;" horiz-adv-x="573" d="M211 690l10 43q78 59 140.5 108.5t132.5 110.5q72 63 122 129t50 136q0 51 -32 76.5t-85 25.5q-59 0 -99 -28.5t-77 -71.5l-47 34q14 18 34.5 41t48 41.5t64.5 30.5t86 12q86 0 132 -44t46 -111q0 -47 -15 -88t-41 -79t-61.5 -73t-74.5 -72q-20 -18 -47 -39.5t-54.5 -43 t-55.5 -42t-48 -36.5h324l-13 -60h-440z" />
<glyph unicode="&#xb3;" horiz-adv-x="573" d="M223 788l53 37q23 -35 64 -59.5t106 -24.5q68 0 117 37t49 105q0 51 -40 88t-101 43l10 51q35 4 70 16.5t62.5 32t45 46t17.5 59.5q0 49 -35 74.5t-92 25.5q-53 0 -89 -22.5t-71 -57.5l-43 37q27 33 81 67.5t130 34.5q86 0 138.5 -42t52.5 -111q0 -78 -55.5 -124 t-129.5 -63q53 -14 87 -59t34 -105q0 -82 -65.5 -138t-178.5 -56q-76 0 -133 30.5t-84 77.5z" />
<glyph unicode="&#xb4;" horiz-adv-x="393" d="M242 1171l397 283l47 -65l-412 -265z" />
<glyph unicode="&#xb5;" horiz-adv-x="1114" d="M80 -387l291 1362h73l-131 -610q-6 -35 -6 -68q0 -55 18.5 -102.5t51.5 -81t78 -52t100 -18.5q61 0 116.5 17.5t101.5 45t80 64.5t52 74q10 23 21.5 62.5t17.5 68.5l129 600h74l-166 -780q-4 -25 -8 -49.5t-4 -41.5q0 -29 14 -45t49 -16q33 0 64 12v-61q-16 -6 -38 -11.5 t-50 -5.5q-53 0 -84 34t-31 87v15.5t2 17.5q-61 -63 -143 -108.5t-203 -45.5q-98 0 -173 46.5t-108 130.5l-114 -541h-74z" />
<glyph unicode="&#xb6;" horiz-adv-x="942" d="M270 944q0 86 30 162t87 134t138 92t184 34h112l-352 -1663h-72l193 907q-59 0 -116.5 22.5t-102.5 65.5t-73 104.5t-28 141.5zM350 946q0 -61 19.5 -110.5t54.5 -84t81 -53t99 -18.5l131 616h-41q-74 0 -136 -26.5t-108.5 -73.5t-73 -111.5t-26.5 -138.5zM672 -297 l352 1663h74l-353 -1663h-73z" />
<glyph unicode="&#xb7;" horiz-adv-x="538" d="M342 735q0 43 28.5 79t73.5 36q35 0 53.5 -22.5t18.5 -51.5q0 -45 -28.5 -79.5t-75.5 -34.5q-35 0 -52.5 22.5t-17.5 50.5z" />
<glyph unicode="&#xb8;" horiz-adv-x="210" d="M-33 -356l156 266h98l-190 -266h-64z" />
<glyph unicode="&#xb9;" horiz-adv-x="573" d="M326 1231l249 131h74l-143 -672h-70l127 600l-217 -110z" />
<glyph unicode="&#xba;" horiz-adv-x="718" d="M285 1042q0 82 25.5 165t74.5 149.5t118.5 108.5t160.5 42q63 0 109 -23.5t77 -63.5t46 -94t15 -116q0 -80 -25.5 -162.5t-74.5 -150.5t-119.5 -110t-159.5 -42q-63 0 -110 23q-45 25 -76 64.5t-46 94t-15 115.5zM352 1044q0 -47 10.5 -90.5t30.5 -76.5 q23 -33 58.5 -52.5t85.5 -19.5q74 0 130 37t96 95t60.5 130t20.5 141q0 45 -10.5 89t-32 77t-55 53.5t-82.5 20.5q-74 0 -132.5 -37t-98.5 -94t-60.5 -130t-20.5 -143z" />
<glyph unicode="&#xbb;" horiz-adv-x="927" d="M129 199l375 340l-248 323l53 41l287 -368l-422 -388zM498 199l374 340l-247 323l53 41l287 -368l-422 -388z" />
<glyph unicode="&#xbc;" horiz-adv-x="1454" d="M103 53l1515 1313l41 -41l-1515 -1323zM344 1227l249 131h74l-143 -672h-70l127 600l-217 -110zM897 191l12 61l428 422h57l-90 -424h97l-13 -59h-96l-41 -189h-65l41 189h-330zM985 250h254l67 322z" />
<glyph unicode="&#xbd;" horiz-adv-x="1454" d="M76 53l1515 1313l41 -41l-1515 -1323zM344 1227l249 131h74l-143 -672h-70l127 600l-217 -110zM916 2l10 43q78 59 140.5 108.5t132.5 110.5q72 63 122 129t50 136q0 51 -32 76.5t-85 25.5q-59 0 -99 -28.5t-77 -71.5l-47 34q14 18 34.5 41t48 41.5t64.5 30.5t86 12 q86 0 132 -44t46 -111q0 -47 -15 -88t-41 -79t-61.5 -73t-74.5 -72q-20 -18 -47 -39.5t-54.5 -43t-55.5 -42t-48 -36.5h324l-13 -60h-440z" />
<glyph unicode="&#xbe;" horiz-adv-x="1454" d="M140 53l1515 1313l41 -41l-1515 -1323zM241 788l53 37q23 -35 64 -59.5t106 -24.5q68 0 117 37t49 105q0 51 -40 88t-101 43l10 51q35 4 70 16.5t62.5 32t45 46t17.5 59.5q0 49 -35 74.5t-92 25.5q-53 0 -89 -22.5t-71 -57.5l-43 37q27 33 81 67.5t130 34.5 q86 0 138.5 -42t52.5 -111q0 -78 -55.5 -124t-129.5 -63q53 -14 87 -59t34 -105q0 -82 -65.5 -138t-178.5 -56q-76 0 -133 30.5t-84 77.5zM903 191l12 61l428 422h57l-90 -424h97l-13 -59h-96l-41 -189h-65l41 189h-330zM991 250h254l67 322z" />
<glyph unicode="&#xbf;" horiz-adv-x="696" d="M53 -156q0 72 30 138.5t74 125t98 108.5t103 89q37 29 59.5 55.5t38 52t24.5 52.5t18 57l10 41h74l-11 -45q-18 -80 -55 -142.5t-119 -127.5q-43 -37 -91 -81t-88 -95.5t-65.5 -106.5t-25.5 -112q0 -92 54.5 -145.5t162.5 -53.5q55 0 101.5 15.5t83 38t63 52t45.5 56.5 l55 -33q-14 -29 -45 -62.5t-76 -63.5t-103 -49.5t-132 -19.5q-131 0 -207 71t-76 185zM528 889q0 37 21.5 68.5t58.5 31.5q23 0 35 -18.5t12 -44.5q0 -37 -21.5 -69t-58.5 -32q-23 0 -35 18.5t-12 45.5z" />
<glyph unicode="&#xc0;" horiz-adv-x="1105" d="M10 0l803 1366h76l229 -1366h-78l-77 451h-607l-264 -451h-82zM397 522h557l-123 752zM672 1731l57 55l277 -287l-41 -41z" />
<glyph unicode="&#xc1;" horiz-adv-x="1105" d="M10 0l803 1366h76l229 -1366h-78l-77 451h-607l-264 -451h-82zM397 522h557l-123 752zM682 1507l397 283l47 -65l-412 -265z" />
<glyph unicode="&#xc2;" horiz-adv-x="1105" d="M10 0l803 1366h76l229 -1366h-78l-77 451h-607l-264 -451h-82zM397 522h557l-123 752zM557 1491l319 315h74l178 -315l-55 -37l-168 291l-297 -291z" />
<glyph unicode="&#xc3;" horiz-adv-x="1105" d="M10 0l803 1366h76l229 -1366h-78l-77 451h-607l-264 -451h-82zM397 522h557l-123 752zM573 1581q41 59 92.5 97t116.5 38q45 0 80 -16t65.5 -35.5t58.5 -36t58 -16.5q63 0 138 100l53 -28q-37 -66 -89 -100t-112 -34q-37 0 -69.5 16.5t-64.5 37t-61.5 37t-58.5 16.5 q-43 0 -79.5 -27.5t-75.5 -79.5z" />
<glyph unicode="&#xc4;" horiz-adv-x="1105" d="M10 0l803 1366h76l229 -1366h-78l-77 451h-607l-264 -451h-82zM397 522h557l-123 752zM705 1641q0 33 19.5 61.5t53.5 28.5q18 0 29.5 -17.5t11.5 -41.5q0 -33 -19 -61.5t-52 -28.5q-20 0 -31.5 17t-11.5 42zM979 1641q0 33 19.5 61.5t54.5 28.5q18 0 29.5 -17.5 t11.5 -41.5q0 -33 -19.5 -61.5t-52.5 -28.5q-20 0 -31.5 17t-11.5 42z" />
<glyph unicode="&#xc5;" horiz-adv-x="1105" d="M10 0l803 1366h76l229 -1366h-78l-77 451h-607l-264 -451h-82zM397 522h557l-123 752zM698 1526q0 49 18.5 91t49.5 72.5t71.5 49t86.5 18.5q72 0 115.5 -50t43.5 -120q0 -47 -17.5 -89t-48 -72.5t-71.5 -49t-88 -18.5q-72 0 -116 49t-44 119zM758 1534q-1 -51 26 -88 q29 -35 82 -35q31 0 58.5 13.5t50 36t36 53t13.5 65.5q0 51 -27.5 88t-81.5 37q-29 0 -56.5 -13.5t-50 -36t-36.5 -53t-14 -67.5z" />
<glyph unicode="&#xc6;" horiz-adv-x="1695" d="M0 0l1151 1366h766l-14 -74h-668l-113 -524h488l-15 -74h-489l-133 -620h704l-14 -74h-780l96 459h-500l-389 -459h-90zM539 532h456l156 734z" />
<glyph unicode="&#xc7;" horiz-adv-x="1116" d="M227 494q0 154 44 313.5t130 289.5t214 213t296 83q160 0 255.5 -77t133.5 -206l-67 -20q-35 106 -109.5 169.5t-214.5 63.5q-100 0 -183 -37t-150.5 -100.5t-117.5 -147.5t-84 -177t-51.5 -189.5t-17.5 -184.5q0 -80 19.5 -159.5t62.5 -142t111.5 -102.5t169.5 -40 q125 0 224 53.5t177 175.5l59 -36q-78 -127 -189.5 -195t-276.5 -68q-121 0 -203 45t-134.5 119t-75 167t-22.5 190zM475 -356l156 266h98l-190 -266h-64z" />
<glyph unicode="&#xc8;" horiz-adv-x="978" d="M166 0l289 1366h745l-14 -74h-668l-112 -524h487l-14 -74h-490l-133 -620h705l-15 -74h-780zM672 1731l57 55l277 -287l-41 -41z" />
<glyph unicode="&#xc9;" horiz-adv-x="978" d="M166 0l289 1366h745l-14 -74h-668l-112 -524h487l-14 -74h-490l-133 -620h705l-15 -74h-780zM666 1507l397 283l47 -65l-412 -265z" />
<glyph unicode="&#xca;" horiz-adv-x="978" d="M166 0l289 1366h745l-14 -74h-668l-112 -524h487l-14 -74h-490l-133 -620h705l-15 -74h-780zM566 1491l319 315h74l178 -315l-55 -37l-168 291l-297 -291z" />
<glyph unicode="&#xcb;" horiz-adv-x="978" d="M166 0l289 1366h745l-14 -74h-668l-112 -524h487l-14 -74h-490l-133 -620h705l-15 -74h-780zM693 1641q0 33 19.5 61.5t53.5 28.5q18 0 29.5 -17.5t11.5 -41.5q0 -33 -19 -61.5t-52 -28.5q-20 0 -31.5 17t-11.5 42zM967 1641q0 33 19.5 61.5t54.5 28.5q18 0 29.5 -17.5 t11.5 -41.5q0 -33 -19.5 -61.5t-52.5 -28.5q-20 0 -31.5 17t-11.5 42z" />
<glyph unicode="&#xcc;" horiz-adv-x="409" d="M166 0l289 1366h77l-288 -1366h-78zM362 1731l57 55l277 -287l-41 -41z" />
<glyph unicode="&#xcd;" horiz-adv-x="409" d="M166 0l289 1366h77l-288 -1366h-78zM340 1507l397 283l47 -65l-412 -265z" />
<glyph unicode="&#xce;" horiz-adv-x="409" d="M166 0l289 1366h77l-288 -1366h-78zM234 1491l319 315h74l178 -315l-55 -37l-168 291l-297 -291z" />
<glyph unicode="&#xcf;" horiz-adv-x="409" d="M166 0l289 1366h77l-288 -1366h-78zM338 1612q0 33 19.5 61.5t53.5 28.5q18 0 29.5 -17.5t11.5 -41.5q0 -33 -19 -61.5t-52 -28.5q-20 0 -31.5 17t-11.5 42zM612 1612q0 33 19.5 61.5t54.5 28.5q18 0 29.5 -17.5t11.5 -41.5q0 -33 -19.5 -61.5t-52.5 -28.5 q-20 0 -31.5 17t-11.5 42z" />
<glyph unicode="&#xd0;" horiz-adv-x="1218" d="M156 700l16 74h158l125 592h307q127 0 225 -40t166 -109.5t103.5 -166t35.5 -208.5q0 -182 -57 -337t-162.5 -266.5t-253 -175t-327.5 -63.5h-326l147 700h-157zM258 74h227q162 0 295 53t229.5 153.5t149.5 245t53 326.5q0 84 -26.5 164t-82.5 141.5t-141 98t-202 36.5 h-242l-110 -518h346l-17 -74h-346z" />
<glyph unicode="&#xd1;" horiz-adv-x="1310" d="M166 0l289 1366h80l559 -1239l262 1239h78l-289 -1366h-76l-563 1245l-262 -1245h-78zM673 1581q41 59 92.5 97t116.5 38q45 0 80 -16t65.5 -35.5t58.5 -36t58 -16.5q63 0 138 100l53 -28q-37 -66 -89 -100t-112 -34q-37 0 -69.5 16.5t-64.5 37t-61.5 37t-58.5 16.5 q-43 0 -79.5 -27.5t-75.5 -79.5z" />
<glyph unicode="&#xd2;" horiz-adv-x="1292" d="M227 504q0 154 45 311.5t132.5 286.5t215.5 210t293 81q119 0 202 -47.5t134 -122t75 -170t24 -191.5q0 -154 -45.5 -311.5t-132.5 -286.5t-216 -210t-295 -81q-118 0 -202 47q-82 47 -133.5 122t-74 170.5t-22.5 191.5zM305 500q0 -82 18.5 -164t61.5 -148 q43 -63 111.5 -104t169.5 -41q150 0 262 80t188 201.5t115 266t39 275.5q0 82 -18.5 164t-61.5 146.5t-111.5 105.5t-169.5 41q-150 0 -262 -80t-188 -201.5t-115 -266t-39 -275.5zM815 1731l57 55l277 -287l-41 -41z" />
<glyph unicode="&#xd3;" horiz-adv-x="1292" d="M227 504q0 154 45 311.5t132.5 286.5t215.5 210t293 81q119 0 202 -47.5t134 -122t75 -170t24 -191.5q0 -154 -45.5 -311.5t-132.5 -286.5t-216 -210t-295 -81q-118 0 -202 47q-82 47 -133.5 122t-74 170.5t-22.5 191.5zM305 500q0 -82 18.5 -164t61.5 -148 q43 -63 111.5 -104t169.5 -41q150 0 262 80t188 201.5t115 266t39 275.5q0 82 -18.5 164t-61.5 146.5t-111.5 105.5t-169.5 41q-150 0 -262 -80t-188 -201.5t-115 -266t-39 -275.5zM762 1507l397 283l47 -65l-412 -265z" />
<glyph unicode="&#xd4;" horiz-adv-x="1292" d="M227 504q0 154 45 311.5t132.5 286.5t215.5 210t293 81q119 0 202 -47.5t134 -122t75 -170t24 -191.5q0 -154 -45.5 -311.5t-132.5 -286.5t-216 -210t-295 -81q-118 0 -202 47q-82 47 -133.5 122t-74 170.5t-22.5 191.5zM305 500q0 -82 18.5 -164t61.5 -148 q43 -63 111.5 -104t169.5 -41q150 0 262 80t188 201.5t115 266t39 275.5q0 82 -18.5 164t-61.5 146.5t-111.5 105.5t-169.5 41q-150 0 -262 -80t-188 -201.5t-115 -266t-39 -275.5zM645 1491l319 315h74l178 -315l-55 -37l-168 291l-297 -291z" />
<glyph unicode="&#xd5;" horiz-adv-x="1292" d="M227 504q0 154 45 311.5t132.5 286.5t215.5 210t293 81q119 0 202 -47.5t134 -122t75 -170t24 -191.5q0 -154 -45.5 -311.5t-132.5 -286.5t-216 -210t-295 -81q-118 0 -202 47q-82 47 -133.5 122t-74 170.5t-22.5 191.5zM305 500q0 -82 18.5 -164t61.5 -148 q43 -63 111.5 -104t169.5 -41q150 0 262 80t188 201.5t115 266t39 275.5q0 82 -18.5 164t-61.5 146.5t-111.5 105.5t-169.5 41q-150 0 -262 -80t-188 -201.5t-115 -266t-39 -275.5zM624 1581q41 59 92.5 97t116.5 38q45 0 80 -16t65.5 -35.5t58.5 -36t58 -16.5q63 0 138 100 l53 -28q-37 -66 -89 -100t-112 -34q-37 0 -69.5 16.5t-64.5 37t-61.5 37t-58.5 16.5q-43 0 -79.5 -27.5t-75.5 -79.5z" />
<glyph unicode="&#xd6;" horiz-adv-x="1292" d="M227 504q0 154 45 311.5t132.5 286.5t215.5 210t293 81q119 0 202 -47.5t134 -122t75 -170t24 -191.5q0 -154 -45.5 -311.5t-132.5 -286.5t-216 -210t-295 -81q-118 0 -202 47q-82 47 -133.5 122t-74 170.5t-22.5 191.5zM305 500q0 -82 18.5 -164t61.5 -148 q43 -63 111.5 -104t169.5 -41q150 0 262 80t188 201.5t115 266t39 275.5q0 82 -18.5 164t-61.5 146.5t-111.5 105.5t-169.5 41q-150 0 -262 -80t-188 -201.5t-115 -266t-39 -275.5zM795 1641q0 33 19.5 61.5t53.5 28.5q18 0 29.5 -17.5t11.5 -41.5q0 -33 -19 -61.5 t-52 -28.5q-20 0 -31.5 17t-11.5 42zM1069 1641q0 33 19.5 61.5t54.5 28.5q18 0 29.5 -17.5t11.5 -41.5q0 -33 -19.5 -61.5t-52.5 -28.5q-20 0 -31.5 17t-11.5 42z" />
<glyph unicode="&#xd7;" d="M289 356l323 322l-323 323l51 52l322 -324l323 324l51 -52l-323 -323l323 -322l-51 -51l-323 324l-322 -324z" />
<glyph unicode="&#xd8;" horiz-adv-x="1292" d="M94 14l193 193q-31 68 -45.5 143.5t-14.5 153.5q0 154 45 311.5t132.5 286.5t215.5 210t293 81q131 0 218.5 -56.5t138.5 -144.5l194 194l47 -47l-211 -211q25 -61 36.5 -129.5t11.5 -136.5q0 -154 -45.5 -311.5t-132.5 -286.5t-216 -210t-295 -81q-123 0 -205.5 49.5 t-134.5 127.5l-182 -183zM305 500q0 -59 8.5 -120t30.5 -114l868 869q-41 82 -113.5 135t-189.5 53q-150 0 -262 -80t-188 -201.5t-115 -266t-39 -275.5zM375 205q41 -72 111.5 -117t179.5 -45q150 0 262 80t188 201.5t115 266t39 275.5q0 104 -31 203z" />
<glyph unicode="&#xd9;" horiz-adv-x="1271" d="M242 336q0 18 4 60t10 71l188 899h78l-184 -874q-6 -33 -12.5 -71t-6.5 -73q0 -143 90.5 -222t249.5 -79q109 0 190 31t138 87t94 135t58 175l188 891h78l-195 -922q-49 -231 -184 -351t-377 -120q-78 0 -150.5 19.5t-130 63.5t-92 113t-34.5 167zM784 1731l57 55 l277 -287l-41 -41z" />
<glyph unicode="&#xda;" horiz-adv-x="1271" d="M242 336q0 18 4 60t10 71l188 899h78l-184 -874q-6 -33 -12.5 -71t-6.5 -73q0 -143 90.5 -222t249.5 -79q109 0 190 31t138 87t94 135t58 175l188 891h78l-195 -922q-49 -231 -184 -351t-377 -120q-78 0 -150.5 19.5t-130 63.5t-92 113t-34.5 167zM813 1507l397 283 l47 -65l-412 -265z" />
<glyph unicode="&#xdb;" horiz-adv-x="1271" d="M242 336q0 18 4 60t10 71l188 899h78l-184 -874q-6 -33 -12.5 -71t-6.5 -73q0 -143 90.5 -222t249.5 -79q109 0 190 31t138 87t94 135t58 175l188 891h78l-195 -922q-49 -231 -184 -351t-377 -120q-78 0 -150.5 19.5t-130 63.5t-92 113t-34.5 167zM676 1491l319 315h74 l178 -315l-55 -37l-168 291l-297 -291z" />
<glyph unicode="&#xdc;" horiz-adv-x="1271" d="M242 336q0 18 4 60t10 71l188 899h78l-184 -874q-6 -33 -12.5 -71t-6.5 -73q0 -143 90.5 -222t249.5 -79q109 0 190 31t138 87t94 135t58 175l188 891h78l-195 -922q-49 -231 -184 -351t-377 -120q-78 0 -150.5 19.5t-130 63.5t-92 113t-34.5 167zM795 1641 q0 33 19.5 61.5t53.5 28.5q18 0 29.5 -17.5t11.5 -41.5q0 -33 -19 -61.5t-52 -28.5q-20 0 -31.5 17t-11.5 42zM1069 1641q0 33 19.5 61.5t54.5 28.5q18 0 29.5 -17.5t11.5 -41.5q0 -33 -19.5 -61.5t-52.5 -28.5q-20 0 -31.5 17t-11.5 42z" />
<glyph unicode="&#xdd;" horiz-adv-x="1015" d="M289 1366h80l278 -639l565 639h93l-627 -707l-139 -659h-78l139 657zM672 1507l397 283l47 -65l-412 -265z" />
<glyph unicode="&#xde;" horiz-adv-x="1026" d="M166 0l289 1366h77l-57 -266h336q63 0 124.5 -20.5t109 -61.5t77 -102.5t29.5 -143.5q0 -119 -43 -204t-110.5 -139t-152.5 -79.5t-169 -25.5h-365l-67 -324h-78zM328 397h364q70 0 138.5 23.5t122 70t86 114t32.5 155.5q0 63 -21.5 113.5t-58.5 84t-85 51t-101 17.5 h-344z" />
<glyph unicode="&#xdf;" horiz-adv-x="1046" d="M176 0l193 909h-146l15 66h145l12 65q33 174 138.5 263.5t261.5 89.5q129 0 209.5 -78t80.5 -230q0 -47 -7 -94t-21 -82h-144q-111 0 -181 -39t-70 -122q0 -55 28.5 -92.5t70.5 -66t91 -54t91 -60.5t70.5 -84t28.5 -125q0 -53 -19 -105t-59 -93t-101.5 -66t-147.5 -25 q-104 0 -178 49.5t-105 106.5l57 43q33 -57 95.5 -95t136.5 -38q63 0 109.5 19.5t77 50t45 69.5t14.5 80q0 63 -29 105.5t-71 74t-91 57t-91 56.5t-70.5 73t-28.5 103q0 123 95 183.5t243 60.5h77q12 39 13 119q0 109 -57.5 171t-165.5 62q-264 0 -326 -299l-217 -1028h-72z " />
<glyph unicode="&#xe0;" horiz-adv-x="907" d="M139 223q0 109 58.5 186.5t156 128t222 75t258.5 24.5q14 63 18 90t4 41q0 96 -52 132t-149 36q-82 0 -152.5 -36t-115.5 -79l-47 47q51 49 135 91t197 42q123 0 191.5 -57t68.5 -164q0 -6 -1 -15t-6 -36t-14.5 -76t-27 -133t-44 -211t-65.5 -309h-65l10 86 q-55 -47 -136 -78t-177 -31q-117 0 -192 58.5t-75 187.5zM213 223q0 -61 20.5 -97t51 -54.5t65.5 -23.5t64 -5q102 0 180 39t141 90l84 397q-104 0 -212.5 -19.5t-195.5 -60t-142.5 -107.5t-55.5 -159zM545 1395l57 55l277 -287l-41 -41z" />
<glyph unicode="&#xe1;" horiz-adv-x="907" d="M139 223q0 109 58.5 186.5t156 128t222 75t258.5 24.5q14 63 18 90t4 41q0 96 -52 132t-149 36q-82 0 -152.5 -36t-115.5 -79l-47 47q51 49 135 91t197 42q123 0 191.5 -57t68.5 -164q0 -6 -1 -15t-6 -36t-14.5 -76t-27 -133t-44 -211t-65.5 -309h-65l10 86 q-55 -47 -136 -78t-177 -31q-117 0 -192 58.5t-75 187.5zM213 223q0 -61 20.5 -97t51 -54.5t65.5 -23.5t64 -5q102 0 180 39t141 90l84 397q-104 0 -212.5 -19.5t-195.5 -60t-142.5 -107.5t-55.5 -159zM535 1171l397 283l47 -65l-412 -265z" />
<glyph unicode="&#xe2;" horiz-adv-x="907" d="M139 223q0 109 58.5 186.5t156 128t222 75t258.5 24.5q14 63 18 90t4 41q0 96 -52 132t-149 36q-82 0 -152.5 -36t-115.5 -79l-47 47q51 49 135 91t197 42q123 0 191.5 -57t68.5 -164q0 -6 -1 -15t-6 -36t-14.5 -76t-27 -133t-44 -211t-65.5 -309h-65l10 86 q-55 -47 -136 -78t-177 -31q-117 0 -192 58.5t-75 187.5zM213 223q0 -61 20.5 -97t51 -54.5t65.5 -23.5t64 -5q102 0 180 39t141 90l84 397q-104 0 -212.5 -19.5t-195.5 -60t-142.5 -107.5t-55.5 -159zM416 1155l319 315h74l178 -315l-55 -37l-168 291l-297 -291z" />
<glyph unicode="&#xe3;" horiz-adv-x="907" d="M139 223q0 109 58.5 186.5t156 128t222 75t258.5 24.5q14 63 18 90t4 41q0 96 -52 132t-149 36q-82 0 -152.5 -36t-115.5 -79l-47 47q51 49 135 91t197 42q123 0 191.5 -57t68.5 -164q0 -6 -1 -15t-6 -36t-14.5 -76t-27 -133t-44 -211t-65.5 -309h-65l10 86 q-55 -47 -136 -78t-177 -31q-117 0 -192 58.5t-75 187.5zM213 223q0 -61 20.5 -97t51 -54.5t65.5 -23.5t64 -5q102 0 180 39t141 90l84 397q-104 0 -212.5 -19.5t-195.5 -60t-142.5 -107.5t-55.5 -159zM403 1245q41 59 92.5 97t116.5 38q45 0 80 -16t65.5 -35.5t58.5 -36 t58 -16.5q63 0 138 100l53 -28q-37 -66 -89 -100t-112 -34q-37 0 -69.5 16.5t-64.5 37t-61.5 37t-58.5 16.5q-43 0 -79.5 -27.5t-75.5 -79.5z" />
<glyph unicode="&#xe4;" horiz-adv-x="907" d="M139 223q0 109 58.5 186.5t156 128t222 75t258.5 24.5q14 63 18 90t4 41q0 96 -52 132t-149 36q-82 0 -152.5 -36t-115.5 -79l-47 47q51 49 135 91t197 42q123 0 191.5 -57t68.5 -164q0 -6 -1 -15t-6 -36t-14.5 -76t-27 -133t-44 -211t-65.5 -309h-65l10 86 q-55 -47 -136 -78t-177 -31q-117 0 -192 58.5t-75 187.5zM213 223q0 -61 20.5 -97t51 -54.5t65.5 -23.5t64 -5q102 0 180 39t141 90l84 397q-104 0 -212.5 -19.5t-195.5 -60t-142.5 -107.5t-55.5 -159zM545 1276q0 33 19.5 61.5t53.5 28.5q18 0 29.5 -17.5t11.5 -41.5 q0 -33 -19 -61.5t-52 -28.5q-20 0 -31.5 17t-11.5 42zM819 1276q0 33 19.5 61.5t54.5 28.5q18 0 29.5 -17.5t11.5 -41.5q0 -33 -19.5 -61.5t-52.5 -28.5q-20 0 -31.5 17t-11.5 42z" />
<glyph unicode="&#xe5;" horiz-adv-x="907" d="M139 223q0 109 58.5 186.5t156 128t222 75t258.5 24.5q14 63 18 90t4 41q0 96 -52 132t-149 36q-82 0 -152.5 -36t-115.5 -79l-47 47q51 49 135 91t197 42q123 0 191.5 -57t68.5 -164q0 -6 -1 -15t-6 -36t-14.5 -76t-27 -133t-44 -211t-65.5 -309h-65l10 86 q-55 -47 -136 -78t-177 -31q-117 0 -192 58.5t-75 187.5zM213 223q0 -61 20.5 -97t51 -54.5t65.5 -23.5t64 -5q102 0 180 39t141 90l84 397q-104 0 -212.5 -19.5t-195.5 -60t-142.5 -107.5t-55.5 -159zM553 1266q0 49 18.5 91t49.5 72.5t71.5 49t86.5 18.5q72 0 115.5 -50 t43.5 -120q0 -47 -17.5 -89t-48 -72.5t-71.5 -49t-88 -18.5q-72 0 -116 49t-44 119zM613 1274q-1 -51 26 -88q29 -35 82 -35q31 0 58.5 13.5t50 36t36 53t13.5 65.5q0 51 -27.5 88t-81.5 37q-29 0 -56.5 -13.5t-50 -36t-36.5 -53t-14 -67.5z" />
<glyph unicode="&#xe6;" horiz-adv-x="1548" d="M139 221q0 123 70 194.5t176.5 109.5t229 49.5t231.5 11.5q12 72 18 119t6 61q0 84 -55 127t-149 43q-76 0 -149 -29.5t-126 -87.5l-49 47q55 53 134 94t202 41q47 0 92 -11t81 -34.5t59.5 -58.5t29.5 -80q53 76 138 130t212 54q150 0 232 -88t82 -251q0 -72 -15 -144 h-688q-10 -47 -17 -97t-7 -112q0 -111 64.5 -188.5t199.5 -77.5q92 0 171 51t136 131l53 -37q-29 -41 -63.5 -78.5t-78.5 -66.5t-101.5 -47.5t-133.5 -18.5q-68 0 -121 19.5t-91 50.5t-61.5 69t-33.5 74q-57 -88 -150.5 -150.5t-236.5 -62.5q-49 0 -101.5 13.5t-94 42 t-68.5 75t-27 113.5zM215 223q0 -55 23.5 -91t57.5 -55.5t73 -26.5t69 -7q66 0 123 21.5t102.5 58.5t76 85t42.5 101l49 209q-90 0 -197.5 -8t-200.5 -38t-155.5 -88t-62.5 -161zM915 586h609q6 45 6 84q0 70 -19.5 121t-53.5 82.5t-78 47t-95 15.5q-92 0 -172 -52.5 t-133 -131.5q-25 -41 -39 -78t-25 -88z" />
<glyph unicode="&#xe7;" horiz-adv-x="905" d="M190 381q0 125 37 237.5t103.5 197.5t160 135t207.5 50q61 0 112.5 -16t91.5 -43t66.5 -62.5t43.5 -74.5l-64 -29q-12 31 -32.5 59.5t-52.5 51t-75 36t-100 13.5q-100 0 -179 -51t-133 -132t-83 -180.5t-29 -195.5q0 -66 16.5 -126.5t50.5 -105.5t84 -71.5t120 -26.5 q92 0 166.5 42t138.5 114l53 -47q-29 -33 -65.5 -65t-82 -57.5t-99.5 -41t-118 -15.5q-59 0 -119.5 20.5t-108.5 69t-79 125t-31 189.5zM338 -356l156 266h98l-190 -266h-64z" />
<glyph unicode="&#xe8;" horiz-adv-x="964" d="M188 387q0 121 35 232.5t100.5 196.5t156.5 135t206 50q145 0 237.5 -88t92.5 -254q0 -41 -2 -76.5t-10 -70.5h-728q-4 -20 -8 -52t-4 -91q0 -43 11.5 -98.5t42 -106.5t87 -86t146.5 -35q104 0 184 46t139 128l54 -39q-61 -84 -150.5 -142.5t-228.5 -58.5 q-174 0 -267.5 109t-93.5 301zM293 580h645q4 18 4 42.5v34.5q0 139 -72.5 209t-183.5 70q-129 0 -235.5 -88t-157.5 -268zM573 1395l57 55l277 -287l-41 -41z" />
<glyph unicode="&#xe9;" horiz-adv-x="964" d="M188 387q0 121 35 232.5t100.5 196.5t156.5 135t206 50q145 0 237.5 -88t92.5 -254q0 -41 -2 -76.5t-10 -70.5h-728q-4 -20 -8 -52t-4 -91q0 -43 11.5 -98.5t42 -106.5t87 -86t146.5 -35q104 0 184 46t139 128l54 -39q-61 -84 -150.5 -142.5t-228.5 -58.5 q-174 0 -267.5 109t-93.5 301zM293 580h645q4 18 4 42.5v34.5q0 139 -72.5 209t-183.5 70q-129 0 -235.5 -88t-157.5 -268zM545 1171l397 283l47 -65l-412 -265z" />
<glyph unicode="&#xea;" horiz-adv-x="964" d="M188 387q0 121 35 232.5t100.5 196.5t156.5 135t206 50q145 0 237.5 -88t92.5 -254q0 -41 -2 -76.5t-10 -70.5h-728q-4 -20 -8 -52t-4 -91q0 -43 11.5 -98.5t42 -106.5t87 -86t146.5 -35q104 0 184 46t139 128l54 -39q-61 -84 -150.5 -142.5t-228.5 -58.5 q-174 0 -267.5 109t-93.5 301zM293 580h645q4 18 4 42.5v34.5q0 139 -72.5 209t-183.5 70q-129 0 -235.5 -88t-157.5 -268zM453 1155l319 315h74l178 -315l-55 -37l-168 291l-297 -291z" />
<glyph unicode="&#xeb;" horiz-adv-x="964" d="M188 387q0 121 35 232.5t100.5 196.5t156.5 135t206 50q145 0 237.5 -88t92.5 -254q0 -41 -2 -76.5t-10 -70.5h-728q-4 -20 -8 -52t-4 -91q0 -43 11.5 -98.5t42 -106.5t87 -86t146.5 -35q104 0 184 46t139 128l54 -39q-61 -84 -150.5 -142.5t-228.5 -58.5 q-174 0 -267.5 109t-93.5 301zM293 580h645q4 18 4 42.5v34.5q0 139 -72.5 209t-183.5 70q-129 0 -235.5 -88t-157.5 -268zM561 1276q0 33 19.5 61.5t53.5 28.5q18 0 29.5 -17.5t11.5 -41.5q0 -33 -19 -61.5t-52 -28.5q-20 0 -31.5 17t-11.5 42zM835 1276q0 33 19.5 61.5 t54.5 28.5q18 0 29.5 -17.5t11.5 -41.5q0 -33 -19.5 -61.5t-52.5 -28.5q-20 0 -31.5 17t-11.5 42z" />
<glyph unicode="&#xec;" horiz-adv-x="358" d="M141 0l207 975h74l-207 -975h-74zM266 1395l57 55l277 -287l-41 -41z" />
<glyph unicode="&#xed;" horiz-adv-x="358" d="M141 0l207 975h74l-207 -975h-74zM246 1171l397 283l47 -65l-412 -265z" />
<glyph unicode="&#xee;" horiz-adv-x="358" d="M136 1155l319 315h74l178 -315l-55 -37l-168 291l-297 -291zM141 0l207 975h74l-207 -975h-74z" />
<glyph unicode="&#xef;" horiz-adv-x="358" d="M141 0l207 975h74l-207 -975h-74zM258 1276q0 33 19.5 61.5t53.5 28.5q18 0 29.5 -17.5t11.5 -41.5q0 -33 -19 -61.5t-52 -28.5q-20 0 -31.5 17t-11.5 42zM532 1276q0 33 19.5 61.5t54.5 28.5q18 0 29.5 -17.5t11.5 -41.5q0 -33 -19.5 -61.5t-52.5 -28.5q-20 0 -31.5 17 t-11.5 42z" />
<glyph unicode="&#xf0;" horiz-adv-x="1021" d="M188 375q0 129 37 242.5t103.5 198.5t159 135t202.5 50q102 0 171 -28.5t116 -57.5q-23 90 -54.5 164t-109.5 140l-74 -86l-45 32l76 84q-41 29 -90 50.5t-96 35.5l20 54q61 -12 108.5 -34t100.5 -55l66 72l41 -33l-64 -71q92 -80 147.5 -204t55.5 -296q0 -154 -32 -296 t-97.5 -252.5t-166.5 -176.5t-239 -66q-68 0 -129 25t-107 75t-73 124.5t-27 173.5zM262 381q0 -164 77 -251t200 -87q111 0 194.5 61.5t140 161t85 227.5t28.5 263q0 47 -6 78q-55 43 -128 72.5t-171 29.5q-90 0 -166 -46t-133 -123t-89 -177.5t-32 -208.5z" />
<glyph unicode="&#xf1;" horiz-adv-x="1038" d="M141 0l207 975h66l-15 -98q72 53 157 88.5t196 35.5q135 0 219 -61t84 -178q0 -25 -5.5 -57.5t-20.5 -109.5t-45 -216t-79 -379h-74q51 238 80 376t43.5 214t17.5 109.5t3 64.5t-13.5 61.5t-41 54t-72.5 38t-107 14.5q-109 0 -197.5 -42t-160.5 -97l-168 -793h-74z M471 1245q41 59 92.5 97t116.5 38q45 0 80 -16t65.5 -35.5t58.5 -36t58 -16.5q63 0 138 100l53 -28q-37 -66 -89 -100t-112 -34q-37 0 -69.5 16.5t-64.5 37t-61.5 37t-58.5 16.5q-43 0 -79.5 -27.5t-75.5 -79.5z" />
<glyph unicode="&#xf2;" horiz-adv-x="1038" d="M193 389q0 104 32.5 213t99 198t164 145t226.5 56q160 0 249 -112.5t89 -298.5q0 -104 -33 -213t-98.5 -198t-163 -145.5t-226.5 -56.5q-160 0 -249.5 113t-89.5 299zM264 387q0 -63 15.5 -124.5t48.5 -110.5t85 -79t126 -30q102 0 184 49t139.5 128t88 177.5t30.5 194.5 q0 63 -15.5 124.5t-48 111t-85 79t-125.5 29.5q-102 0 -184.5 -49t-139.5 -128t-88 -177.5t-31 -194.5zM602 1395l57 55l277 -287l-41 -41z" />
<glyph unicode="&#xf3;" horiz-adv-x="1038" d="M193 389q0 104 32.5 213t99 198t164 145t226.5 56q160 0 249 -112.5t89 -298.5q0 -104 -33 -213t-98.5 -198t-163 -145.5t-226.5 -56.5q-160 0 -249.5 113t-89.5 299zM264 387q0 -63 15.5 -124.5t48.5 -110.5t85 -79t126 -30q102 0 184 49t139.5 128t88 177.5t30.5 194.5 q0 63 -15.5 124.5t-48 111t-85 79t-125.5 29.5q-102 0 -184.5 -49t-139.5 -128t-88 -177.5t-31 -194.5zM568 1171l397 283l47 -65l-412 -265z" />
<glyph unicode="&#xf4;" horiz-adv-x="1038" d="M193 389q0 104 32.5 213t99 198t164 145t226.5 56q160 0 249 -112.5t89 -298.5q0 -104 -33 -213t-98.5 -198t-163 -145.5t-226.5 -56.5q-160 0 -249.5 113t-89.5 299zM264 387q0 -63 15.5 -124.5t48.5 -110.5t85 -79t126 -30q102 0 184 49t139.5 128t88 177.5t30.5 194.5 q0 63 -15.5 124.5t-48 111t-85 79t-125.5 29.5q-102 0 -184.5 -49t-139.5 -128t-88 -177.5t-31 -194.5zM469 1155l319 315h74l178 -315l-55 -37l-168 291l-297 -291z" />
<glyph unicode="&#xf5;" horiz-adv-x="1038" d="M193 389q0 104 32.5 213t99 198t164 145t226.5 56q160 0 249 -112.5t89 -298.5q0 -104 -33 -213t-98.5 -198t-163 -145.5t-226.5 -56.5q-160 0 -249.5 113t-89.5 299zM264 387q0 -63 15.5 -124.5t48.5 -110.5t85 -79t126 -30q102 0 184 49t139.5 128t88 177.5t30.5 194.5 q0 63 -15.5 124.5t-48 111t-85 79t-125.5 29.5q-102 0 -184.5 -49t-139.5 -128t-88 -177.5t-31 -194.5zM438 1245q41 59 92.5 97t116.5 38q45 0 80 -16t65.5 -35.5t58.5 -36t58 -16.5q63 0 138 100l53 -28q-37 -66 -89 -100t-112 -34q-37 0 -69.5 16.5t-64.5 37t-61.5 37 t-58.5 16.5q-43 0 -79.5 -27.5t-75.5 -79.5z" />
<glyph unicode="&#xf6;" horiz-adv-x="1038" d="M193 389q0 104 32.5 213t99 198t164 145t226.5 56q160 0 249 -112.5t89 -298.5q0 -104 -33 -213t-98.5 -198t-163 -145.5t-226.5 -56.5q-160 0 -249.5 113t-89.5 299zM264 387q0 -63 15.5 -124.5t48.5 -110.5t85 -79t126 -30q102 0 184 49t139.5 128t88 177.5t30.5 194.5 q0 63 -15.5 124.5t-48 111t-85 79t-125.5 29.5q-102 0 -184.5 -49t-139.5 -128t-88 -177.5t-31 -194.5zM588 1276q0 33 19.5 61.5t53.5 28.5q18 0 29.5 -17.5t11.5 -41.5q0 -33 -19 -61.5t-52 -28.5q-20 0 -31.5 17t-11.5 42zM862 1276q0 33 19.5 61.5t54.5 28.5 q18 0 29.5 -17.5t11.5 -41.5q0 -33 -19.5 -61.5t-52.5 -28.5q-20 0 -31.5 17t-11.5 42z" />
<glyph unicode="&#xf7;" d="M221 643v72h891v-72h-891zM590 340q0 35 21.5 60.5t54.5 25.5t54 -25.5t21 -60.5t-21 -59.5t-54 -24.5t-54.5 24.5t-21.5 59.5zM590 1016q0 35 21.5 59.5t54.5 24.5t54 -24.5t21 -59.5t-21 -60.5t-54 -25.5t-54.5 25.5t-21.5 60.5z" />
<glyph unicode="&#xf8;" horiz-adv-x="1038" d="M131 -82l143 180q-82 111 -81 291q0 104 32.5 213t99 198t164 145t226.5 56q131 0 217 -79l137 172l47 -39l-143 -178q39 -53 59.5 -126t20.5 -161q0 -104 -33 -213t-98.5 -198t-162.5 -145.5t-227 -56.5q-131 0 -215 78l-141 -176zM264 387q0 -61 14.5 -121.5 t43.5 -107.5l565 706q-68 72 -180 72q-102 0 -184.5 -49t-139.5 -128t-88 -177.5t-31 -194.5zM360 111q68 -68 179 -68q102 0 184 49t139.5 128t88 177.5t30.5 194.5q0 59 -14.5 117.5t-42.5 105.5z" />
<glyph unicode="&#xf9;" horiz-adv-x="1034" d="M193 231q0 47 12 107l135 637h74l-135 -633q-6 -27 -8.5 -52.5t-2.5 -45.5q0 -109 69 -154t169 -45q49 0 99 13.5t97.5 35t88 49t69.5 56.5l166 776h74l-207 -975h-64l15 111q-59 -53 -143.5 -93.5t-206.5 -40.5q-61 0 -115.5 15.5t-95.5 46.5t-65.5 79t-24.5 113z M590 1395l57 55l277 -287l-41 -41z" />
<glyph unicode="&#xfa;" horiz-adv-x="1034" d="M193 231q0 47 12 107l135 637h74l-135 -633q-6 -27 -8.5 -52.5t-2.5 -45.5q0 -109 69 -154t169 -45q49 0 99 13.5t97.5 35t88 49t69.5 56.5l166 776h74l-207 -975h-64l15 111q-59 -53 -143.5 -93.5t-206.5 -40.5q-61 0 -115.5 15.5t-95.5 46.5t-65.5 79t-24.5 113z M596 1171l397 283l47 -65l-412 -265z" />
<glyph unicode="&#xfb;" horiz-adv-x="1034" d="M193 231q0 47 12 107l135 637h74l-135 -633q-6 -27 -8.5 -52.5t-2.5 -45.5q0 -109 69 -154t169 -45q49 0 99 13.5t97.5 35t88 49t69.5 56.5l166 776h74l-207 -975h-64l15 111q-59 -53 -143.5 -93.5t-206.5 -40.5q-61 0 -115.5 15.5t-95.5 46.5t-65.5 79t-24.5 113z M480 1155l319 315h74l178 -315l-55 -37l-168 291l-297 -291z" />
<glyph unicode="&#xfc;" horiz-adv-x="1034" d="M193 231q0 47 12 107l135 637h74l-135 -633q-6 -27 -8.5 -52.5t-2.5 -45.5q0 -109 69 -154t169 -45q49 0 99 13.5t97.5 35t88 49t69.5 56.5l166 776h74l-207 -975h-64l15 111q-59 -53 -143.5 -93.5t-206.5 -40.5q-61 0 -115.5 15.5t-95.5 46.5t-65.5 79t-24.5 113z M592 1276q0 33 19.5 61.5t53.5 28.5q18 0 29.5 -17.5t11.5 -41.5q0 -33 -19 -61.5t-52 -28.5q-20 0 -31.5 17t-11.5 42zM866 1276q0 33 19.5 61.5t54.5 28.5q18 0 29.5 -17.5t11.5 -41.5q0 -33 -19.5 -61.5t-52.5 -28.5q-20 0 -31.5 17t-11.5 42z" />
<glyph unicode="&#xfd;" horiz-adv-x="870" d="M-70 -373l35 58q23 -12 57.5 -24.5t69.5 -12.5q45 0 85 24.5t77 85.5l137 232l-184 985h76l163 -893l549 893h82l-760 -1239q-49 -82 -100 -116t-129 -34q-45 0 -86 12.5t-72 28.5zM539 1171l397 283l47 -65l-412 -265z" />
<glyph unicode="&#xfe;" horiz-adv-x="1015" d="M57 -387l373 1753h74l-103 -477q45 39 116 75.5t177 36.5q150 0 244 -107.5t94 -299.5q0 -100 -31.5 -209t-97 -200t-166 -149.5t-237.5 -58.5q-96 0 -165 25t-110 51l-94 -440h-74zM242 133q41 -37 112.5 -62.5t153.5 -25.5q104 0 187 50t141.5 129t90 176.5t31.5 189.5 q0 70 -17 132t-51 110.5t-85 76t-121 27.5q-92 0 -169 -41t-130 -90z" />
<glyph unicode="&#xff;" horiz-adv-x="870" d="M-70 -373l35 58q23 -12 57.5 -24.5t69.5 -12.5q45 0 85 24.5t77 85.5l137 232l-184 985h76l163 -893l549 893h82l-760 -1239q-49 -82 -100 -116t-129 -34q-45 0 -86 12.5t-72 28.5zM523 1276q0 33 19.5 61.5t53.5 28.5q18 0 29.5 -17.5t11.5 -41.5q0 -33 -19 -61.5 t-52 -28.5q-20 0 -31.5 17t-11.5 42zM797 1276q0 33 19.5 61.5t54.5 28.5q18 0 29.5 -17.5t11.5 -41.5q0 -33 -19.5 -61.5t-52.5 -28.5q-20 0 -31.5 17t-11.5 42z" />
<glyph unicode="&#x152;" horiz-adv-x="1761" d="M231 569q0 182 62.5 330t170 251t251 159.5t307.5 56.5h960l-14 -74h-647l-113 -524h467l-14 -74h-469l-133 -620h684l-14 -74h-965q-104 0 -200.5 42t-170.5 118t-118 180t-44 229zM313 575q0 -102 36 -193t98.5 -159.5t146.5 -108.5t182 -40h207l260 1218h-227 q-150 0 -278 -53t-222 -148.5t-148.5 -227.5t-54.5 -288z" />
<glyph unicode="&#x153;" horiz-adv-x="1638" d="M184 383q0 104 32 214t96.5 200t158.5 147t221 57q135 0 216 -69.5t104 -186.5q23 43 54.5 88.5t75.5 83t105.5 61t141.5 23.5q137 0 220 -91t83 -259q0 -33 -4.5 -67.5t-10.5 -71.5h-667q-6 -33 -11.5 -68.5t-5.5 -68.5q0 -70 16.5 -130.5t49.5 -105.5t83 -70.5 t118 -25.5q100 0 168.5 45t130.5 129l49 -39q-33 -43 -67 -80t-76 -63.5t-92 -42t-118 -15.5q-78 0 -134 26t-96 67t-62.5 91t-32.5 97q-59 -125 -157.5 -203t-244.5 -78q-88 0 -152.5 34t-107.5 89.5t-63.5 129t-20.5 153.5zM260 381q0 -72 17.5 -133.5t52.5 -108.5 q35 -45 86 -70.5t119 -25.5q117 0 199.5 69.5t133.5 174.5q41 84 59.5 171t18.5 171q0 29 -2 57.5t-6 54.5q-18 94 -82.5 144.5t-171.5 50.5q-98 0 -177 -51t-134.5 -132t-84 -179.5t-28.5 -192.5zM1024 580h588q6 45 6 84q0 72 -19.5 124t-52.5 84.5t-74.5 48t-85.5 15.5 q-131 0 -220 -87t-142 -269z" />
<glyph unicode="&#x178;" horiz-adv-x="1015" d="M289 1366h80l278 -639l565 639h93l-627 -707l-139 -659h-78l139 657zM664 1612q0 33 19.5 61.5t53.5 28.5q18 0 29.5 -17.5t11.5 -41.5q0 -33 -19 -61.5t-52 -28.5q-20 0 -31.5 17t-11.5 42zM938 1612q0 33 19.5 61.5t54.5 28.5q18 0 29.5 -17.5t11.5 -41.5 q0 -33 -19.5 -61.5t-52.5 -28.5q-20 0 -31.5 17t-11.5 42z" />
<glyph unicode="&#x2c6;" horiz-adv-x="571" d="M242 1155l319 315h74l178 -315l-55 -37l-168 291l-297 -291z" />
<glyph unicode="&#x2dc;" horiz-adv-x="663" d="M274 1245q41 59 92.5 97t116.5 38q45 0 80 -16t65.5 -35.5t58.5 -36t58 -16.5q63 0 138 100l53 -28q-37 -66 -89 -100t-112 -34q-37 0 -69.5 16.5t-64.5 37t-61.5 37t-58.5 16.5q-43 0 -79.5 -27.5t-75.5 -79.5z" />
<glyph unicode="&#x2000;" horiz-adv-x="903" />
<glyph unicode="&#x2001;" horiz-adv-x="1806" />
<glyph unicode="&#x2002;" horiz-adv-x="903" />
<glyph unicode="&#x2003;" horiz-adv-x="1806" />
<glyph unicode="&#x2004;" horiz-adv-x="602" />
<glyph unicode="&#x2005;" horiz-adv-x="451" />
<glyph unicode="&#x2006;" horiz-adv-x="301" />
<glyph unicode="&#x2007;" horiz-adv-x="301" />
<glyph unicode="&#x2008;" horiz-adv-x="225" />
<glyph unicode="&#x2009;" horiz-adv-x="361" />
<glyph unicode="&#x200a;" horiz-adv-x="100" />
<glyph unicode="&#x2010;" horiz-adv-x="612" d="M199 508l18 82h428l-18 -82h-428z" />
<glyph unicode="&#x2011;" horiz-adv-x="612" d="M199 508l18 82h428l-18 -82h-428z" />
<glyph unicode="&#x2012;" horiz-adv-x="612" d="M199 508l18 82h428l-18 -82h-428z" />
<glyph unicode="&#x2013;" horiz-adv-x="1024" d="M102 489l15 62h1024l-15 -62h-1024z" />
<glyph unicode="&#x2014;" horiz-adv-x="2048" d="M102 489l15 62h2048l-15 -62h-2048z" />
<glyph unicode="&#x2018;" horiz-adv-x="229" d="M299 1249q0 20 5 43t15.5 42.5t25.5 31.5t38 12q27 0 40 -16t13 -43q0 -41 -23.5 -71.5t-52.5 -41.5q6 -29 30 -68.5t52 -58.5l-28 -35q-47 37 -81 90.5t-34 114.5z" />
<glyph unicode="&#x2019;" horiz-adv-x="229" d="M236 1083q16 8 36.5 23.5t39 33t33.5 35t26 31.5q-14 12 -24.5 30.5t-10.5 51.5q0 29 17.5 59.5t56.5 30.5q29 0 41 -19.5t12 -45.5q0 -41 -17.5 -78t-47 -71t-66.5 -62.5t-76 -52.5z" />
<glyph unicode="&#x201a;" horiz-adv-x="229" d="M-14 -152q16 8 36.5 23.5t39 33t33.5 35t26 31.5q-14 12 -24.5 30.5t-10.5 51.5q0 29 17.5 59.5t56.5 30.5q29 0 41 -19.5t12 -45.5q0 -41 -17.5 -78t-47 -71t-66.5 -62.5t-76 -52.5z" />
<glyph unicode="&#x201c;" horiz-adv-x="471" d="M299 1249q0 20 5 43t15.5 42.5t25.5 31.5t38 12q27 0 40 -16t13 -43q0 -41 -23.5 -71.5t-52.5 -41.5q6 -29 30 -68.5t52 -58.5l-28 -35q-47 37 -81 90.5t-34 114.5zM541 1249q0 20 5 43t15 42.5t25.5 31.5t38.5 12q27 0 40 -16t13 -43q0 -41 -23.5 -71.5t-52.5 -41.5 q6 -29 29.5 -68.5t52.5 -58.5l-29 -35q-47 37 -80.5 90.5t-33.5 114.5z" />
<glyph unicode="&#x201d;" horiz-adv-x="471" d="M227 1083q16 8 37 23.5t39.5 33t33.5 35t25 31.5q-14 12 -24 30.5t-10 51.5q0 29 17 59.5t56 30.5q29 0 41.5 -19.5t12.5 -45.5q0 -41 -17.5 -78t-47.5 -71t-66.5 -62.5t-75.5 -52.5zM467 1083q16 8 36.5 23.5t39 33t34 35t25.5 31.5q-14 12 -24.5 30.5t-10.5 51.5 q0 29 17.5 59.5t56.5 30.5q29 0 41 -19.5t12 -45.5q0 -41 -17.5 -78t-47 -71t-66.5 -62.5t-76 -52.5z" />
<glyph unicode="&#x201e;" horiz-adv-x="471" d="M-17 -152q16 8 37 23.5t39.5 33t33.5 35t25 31.5q-14 12 -24 30.5t-10 51.5q0 29 17 59.5t56 30.5q29 0 41.5 -19.5t12.5 -45.5q0 -41 -17.5 -78t-47.5 -71t-66.5 -62.5t-75.5 -52.5zM223 -152q16 8 36.5 23.5t39 33t34 35t25.5 31.5q-14 12 -24.5 30.5t-10.5 51.5 q0 29 17.5 59.5t56.5 30.5q29 0 41 -19.5t12 -45.5q0 -41 -17.5 -78t-47 -71t-66.5 -62.5t-76 -52.5z" />
<glyph unicode="&#x2022;" horiz-adv-x="679" d="M264 748q0 49 18.5 93t50.5 75.5t76 51t93 19.5t93 -19.5t75.5 -51t50 -75.5t18.5 -93t-18.5 -92.5t-50 -76t-75.5 -51t-93 -18.5t-92 18.5t-76 49.5q-33 33 -51.5 76.5t-18.5 93.5z" />
<glyph unicode="&#x2026;" horiz-adv-x="1124" d="M94 41q0 37 21.5 68.5t58.5 31.5q23 0 35 -18.5t12 -44.5q0 -37 -21 -69t-58 -32q-23 0 -35.5 18.5t-12.5 45.5zM499 41q0 37 21.5 68.5t58.5 31.5q23 0 35 -18.5t12 -44.5q0 -37 -21 -69t-58 -32q-23 0 -35.5 18.5t-12.5 45.5zM907 41q0 37 21.5 68.5t58.5 31.5 q23 0 35 -18.5t12 -44.5q0 -37 -21 -69t-58 -32q-23 0 -35.5 18.5t-12.5 45.5z" />
<glyph unicode="&#x202f;" horiz-adv-x="361" />
<glyph unicode="&#x2039;" horiz-adv-x="573" d="M190 514l433 401l45 -51l-385 -354l258 -340l-54 -41z" />
<glyph unicode="&#x203a;" horiz-adv-x="573" d="M125 178l385 354l-258 340l53 41l297 -385l-432 -401z" />
<glyph unicode="&#x205f;" horiz-adv-x="451" />
<glyph unicode="&#x20ac;" d="M137 469l13 59h137q4 70 18 140.5t37 142.5h-131l12 61h139q37 102 91.5 194.5t123 161t149.5 108.5t173 40q66 0 118 -20.5t89 -53t61.5 -74.5t34.5 -85l-63 -23q-27 88 -90.5 140.5t-151.5 52.5q-74 0 -141.5 -35t-126 -94.5t-106.5 -139t-83 -172.5h383l-12 -61h-393 q-23 -70 -37 -140.5t-21 -142.5h390l-13 -59h-381v-31q0 -78 13.5 -148.5t45 -124.5t83 -87t125.5 -33q113 0 183.5 53.5t129.5 132.5l55 -36q-35 -45 -70.5 -85t-80.5 -69t-101.5 -46.5t-128.5 -17.5q-86 0 -147.5 35t-101 96.5t-59 145.5t-19.5 182v33h-146z" />
<glyph unicode="&#x2122;" horiz-adv-x="1114" d="M266 1309l13 57h473l-13 -57h-204l-113 -531h-64l113 531h-205zM670 778l125 588h88l90 -440l266 440h90l-125 -588h-65l106 486l-299 -490l-106 481l-105 -477h-65z" />
<glyph unicode="&#x25fc;" horiz-adv-x="972" d="M0 0v973h973v-973h-973z" />
</font>
</defs>
</svg>
