<?xml version="1.0" standalone="no"?>
<!DOCTYPE svg PUBLIC "-//W3C//DTD SVG 1.1//EN" "http://www.w3.org/Graphics/SVG/1.1/DTD/svg11.dtd" >
<svg xmlns="http://www.w3.org/2000/svg">
<metadata></metadata>
<defs>
<font id="interface_blackitalic" horiz-adv-x="1228" >
<font-face units-per-em="2048" ascent="1638" descent="-410" />
<missing-glyph horiz-adv-x="317" />
<glyph unicode="&#xfb01;" horiz-adv-x="1286" d="M150 0l153 723h-137l61 287h138l8 32q20 76 62 140.5t109.5 111.5t161 73t216.5 26q117 0 197.5 -13.5t152.5 -44.5l-139 -250q-33 12 -81 21.5t-100 9.5q-76 0 -110.5 -23.5t-44.5 -68.5l-2 -14h120l-61 -287h-119l-153 -723h-432zM774 0l215 1010h428l-213 -1010h-430z " />
<glyph unicode="&#xfb02;" horiz-adv-x="1282" d="M145 0l154 723h-137l61 287h137l9 32q20 76 61 140.5t113.5 110.5t179 73t258.5 27q141 0 271 -27t223 -72l-275 -1294h-432l236 1112q-20 6 -40 8t-38 2q-66 0 -94.5 -27.5t-34.5 -60.5l-6 -24h120l-61 -287h-119l-153 -723h-433z" />
<glyph unicode="&#xfb03;" horiz-adv-x="2019" d="M145 0l154 723h-137l61 287h137l7 30q35 158 156.5 255.5t320.5 97.5q102 0 167.5 -19.5t100.5 -36.5l-92 -243q-23 10 -47.5 16t-63.5 6q-47 0 -76.5 -25.5t-37.5 -56.5l-4 -24h307l8 32q20 76 62 140.5t110 111.5t161 73t216 26q117 0 197.5 -13.5t152.5 -44.5 l-139 -250q-33 12 -81 21.5t-99 9.5q-76 0 -111 -23.5t-45 -68.5l-2 -14h121l-62 -287h-119l-153 -723h-432l153 723h-305l-153 -723h-433zM1507 0l215 1010h428l-213 -1010h-430z" />
<glyph unicode="&#xfb04;" horiz-adv-x="2019" d="M145 0l154 723h-137l61 287h137l7 30q35 158 156.5 255.5t320.5 97.5q102 0 167.5 -19.5t100.5 -36.5l-92 -243q-23 10 -47.5 16t-63.5 6q-47 0 -76.5 -25.5t-37.5 -56.5l-4 -24h307l8 32q20 76 61 140.5t114 110.5t179.5 73t257.5 27q141 0 271.5 -27t222.5 -72 l-275 -1294h-432l236 1112q-20 6 -40 8t-38 2q-66 0 -94.5 -27.5t-34.5 -60.5l-6 -24h121l-62 -287h-119l-153 -723h-432l153 723h-305l-153 -723h-433z" />
<glyph horiz-adv-x="0" />
<glyph horiz-adv-x="0" />
<glyph unicode="&#xd;" horiz-adv-x="317" />
<glyph unicode=" "  horiz-adv-x="317" />
<glyph unicode="&#x09;" horiz-adv-x="317" />
<glyph unicode="&#xa0;" horiz-adv-x="317" />
<glyph unicode="!" horiz-adv-x="577" d="M106 145q0 94 68 148.5t178 54.5q76 0 130.5 -43t54.5 -123q0 -94 -68 -148t-178 -54q-76 0 -131 43q-53 43 -54 122zM170 471l190 895h435l-191 -895h-434z" />
<glyph unicode="&#x22;" horiz-adv-x="835" d="M213 760l129 606h317l-129 -606h-317zM629 760l129 606h317l-129 -606h-317z" />
<glyph unicode="#" horiz-adv-x="1384" d="M94 246l66 309h202l48 219h-203l65 307h203l49 232h357l-50 -232h185l49 232h354l-49 -232h205l-66 -307h-204l-48 -219h205l-65 -309h-205l-49 -230h-355l50 230h-185l-49 -230h-356l49 230h-203zM709 547h200l52 235h-201z" />
<glyph unicode="$" d="M94 180l320 240q20 -25 50 -44.5t63.5 -34.5t70.5 -23.5t72 -8.5q72 0 111.5 18.5t39.5 53.5q0 23 -11 40t-39 35.5t-76 39t-124 49.5q-59 23 -114.5 53.5t-98.5 73.5t-68.5 100t-25.5 131q0 111 38 193t104.5 139t154.5 91t189 46l79 375h310l-80 -373q96 -10 180 -60 t129 -118l-303 -231q-29 41 -84 65.5t-123 24.5q-66 0 -107.5 -18.5t-41.5 -53.5q0 -16 9 -31.5t31.5 -31t60.5 -33t97 -37.5q76 -29 141.5 -61.5t113.5 -76.5t76 -104.5t28 -142.5q0 -117 -40 -204t-108.5 -147.5t-161 -93t-194.5 -40.5l-70 -326h-309l70 328 q-111 10 -207 65t-152 133z" />
<glyph unicode="%" horiz-adv-x="1744" d="M193 987q0 86 31.5 159t90 125t139.5 81.5t179 29.5q152 0 243 -81.5t91 -223.5q0 -86 -32 -158.5t-90.5 -125t-139 -82t-179.5 -29.5q-151 0 -243 82q-90 82 -90 223zM223 150l1383 1253l188 -182l-1386 -1262zM485 999q1 -40 19 -65q20 -25 55 -25q59 0 88 48.5 t29 103.5q0 41 -19.5 65.5t-54.5 24.5q-59 0 -88 -48t-29 -104zM1067 285q0 86 31.5 158.5t90 125t139.5 82t177 29.5q154 0 244 -82t90 -223q0 -86 -31.5 -159t-90 -125t-139.5 -81.5t-177 -29.5q-154 -1 -244 81t-90 224zM1358 297q0 -41 18 -66q20 -25 56 -24 q59 0 87.5 48t28.5 103q0 41 -19.5 66t-53.5 25q-59 0 -88 -48.5t-29 -103.5z" />
<glyph unicode="&#x26;" horiz-adv-x="1433" d="M125 313q0 106 29.5 187.5t84 143t128 107.5t161.5 83q-23 41 -37 89t-14 97q0 76 34 144.5t95.5 118.5t148.5 80t195 30q178 0 290 -66.5t177 -202.5l-305 -141q-29 59 -55.5 84t-73.5 25q-37 0 -61.5 -18.5t-24.5 -51.5q0 -18 10.5 -43t20.5 -41l135 -252 q80 80 166 141.5t192 106.5l125 -285q-51 -29 -94 -55.5t-82 -56t-77 -63.5t-76 -77l208 -397h-469l-61 117q-90 -66 -180 -101.5t-223 -35.5q-76 0 -142.5 21.5t-117 63t-79 104t-28.5 144.5zM539 401q0 -41 23.5 -68.5t64.5 -27.5t77.5 24.5t59.5 53.5l-96 188 q-20 -10 -43 -24.5t-42.5 -36t-31.5 -49t-12 -60.5z" />
<glyph unicode="'" horiz-adv-x="419" d="M215 760l123 606h317l-123 -606h-317z" />
<glyph unicode="(" horiz-adv-x="749" d="M193 516q0 170 51 326.5t143 290t221 238t287 169.5l133 -221q-98 -72 -173 -165t-126 -200.5t-77.5 -225.5t-26.5 -234q0 -53 8 -114t25.5 -119t42 -110.5t59.5 -89.5l-221 -204q-84 45 -148.5 117.5t-108.5 160.5t-66.5 186.5t-22.5 194.5z" />
<glyph unicode=")" horiz-adv-x="749" d="M14 78q98 70 173 164t126.5 201.5t78 225t26.5 234.5q0 53 -8.5 113.5t-25.5 119t-43 110.5t-58 89l221 205q84 -47 148.5 -118.5t108.5 -159.5t66.5 -186.5t22.5 -194.5q0 -170 -51 -327t-143.5 -290t-221.5 -237.5t-287 -169.5z" />
<glyph unicode="*" horiz-adv-x="931" d="M250 952l266 144l-194 137l137 176l174 -129l43 205h203l-43 -205l219 121l90 -164l-260 -139l190 -137l-141 -179l-178 127l-45 -215h-203l45 215l-217 -121z" />
<glyph unicode="+" d="M221 516v328h352v370h347v-370h354v-328h-354v-364h-347v364h-352z" />
<glyph unicode="," horiz-adv-x="528" d="M-18 -109q45 12 100 37t86 52q-39 16 -64.5 58t-25.5 99q0 92 64.5 150.5t168.5 58.5q96 0 147.5 -52t51.5 -134q0 -88 -44 -155.5t-113.5 -117t-155.5 -83t-170 -54.5z" />
<glyph unicode="-" horiz-adv-x="675" d="M123 412l70 325h602l-70 -325h-602z" />
<glyph unicode="." horiz-adv-x="528" d="M82 145q0 94 67.5 148.5t178.5 54.5q76 0 130 -43t54 -123q0 -94 -67.5 -148t-178.5 -54q-76 0 -131 43q-53 43 -53 122z" />
<glyph unicode="/" horiz-adv-x="1079" d="M25 113l1069 1468l272 -203l-1069 -1468z" />
<glyph unicode="0" d="M158 463q0 166 43 329.5t133 294t228 211t329 80.5q227 0 348 -125t121 -360q0 -170 -39 -335t-127 -295t-227 -211t-340 -81q-225 0 -347 130t-122 362zM596 457q-1 -68 22 -105t68 -37q47 0 90 53.5t75 136.5t51.5 186.5t19.5 203.5q0 68 -22.5 104.5t-68.5 36.5 q-47 0 -90 -53t-75.5 -136t-51 -186.5t-18.5 -203.5z" />
<glyph unicode="1" d="M324 1071l575 281h336l-289 -1352h-444l184 872l-258 -129z" />
<glyph unicode="2" d="M98 0l52 242q150 119 297 236.5t282 252.5q59 59 101 110.5t42 104.5q0 35 -22.5 54.5t-54.5 19.5q-59 0 -110.5 -36t-104.5 -101l-285 209q53 66 110.5 119t127 89.5t153.5 57t191 20.5q96 0 178 -22.5t142 -67.5t94 -111.5t34 -154.5q0 -90 -29.5 -164t-79 -139.5 t-114 -123.5t-133.5 -114q-45 -37 -89 -70.5t-79 -60.5h422l-74 -350h-1051z" />
<glyph unicode="3" d="M90 260l318 195q29 -47 78 -85t141 -38q78 0 131 26.5t53 90.5q0 31 -16.5 50t-43 31.5t-57 16.5t-59.5 4h-51l57 266q133 2 193.5 27.5t60.5 95.5q0 84 -123 84q-72 0 -130 -23.5t-105 -62.5l-242 236q57 49 118.5 86.5t133 63.5t154.5 40t186 14q100 0 186 -22.5 t148.5 -65.5t98.5 -107.5t36 -150.5q0 -74 -24.5 -129t-64.5 -95t-91.5 -66.5t-106.5 -45.5q78 -35 128 -95t50 -169q0 -111 -46 -196.5t-126 -144t-187.5 -88.5t-232.5 -30q-199 0 -343 70t-222 217z" />
<glyph unicode="4" d="M92 270l70 330l788 750h383l-166 -775h150l-66 -305h-149l-58 -270h-411l57 270h-598zM494 575h262l71 340z" />
<glyph unicode="5" d="M96 233l357 199q33 -49 84 -76.5t127 -27.5q74 0 118.5 32.5t44.5 88.5q0 78 -75.5 112.5t-216.5 34.5h-256l157 754h944l-71 -332h-568l-28 -133q109 0 209 -22.5t177 -71t123 -127t46 -191.5q0 -123 -46 -216t-127 -156.5t-192.5 -96.5t-243.5 -33q-113 0 -201.5 19.5 t-158.5 55.5t-120 84t-83 103z" />
<glyph unicode="6" d="M176 459q0 147 43 268t117 219t174 173t214 128t236.5 86t241.5 47l60 -295q-178 -31 -301 -79t-216 -136q45 16 88.5 25.5t96.5 9.5q94 0 164.5 -28.5t119 -80t72 -121t23.5 -151.5q0 -100 -29 -183t-79 -147.5t-120.5 -111.5t-156.5 -76q-61 -20 -117.5 -27.5 t-134.5 -7.5q-117 0 -209 37t-155.5 101.5t-97.5 154.5t-34 195zM598 442q0 -59 29.5 -93t87.5 -34q68 0 110.5 49.5t42.5 133.5q0 53 -27.5 89t-80.5 36q-33 -1 -64 -9q-31 -6 -57 -16q-10 -20 -25.5 -64.5t-15.5 -91.5z" />
<glyph unicode="7" d="M182 0l701 1006h-590l76 344h1079l-62 -283l-757 -1067h-447z" />
<glyph unicode="8" d="M158 328q-1 141 75 231q78 92 207 152q-55 35 -96 94t-41 145q0 109 47 190t127 134t187.5 79.5t228.5 26.5q229 0 352 -88t123 -248q0 -72 -20.5 -126t-56.5 -95t-83 -71.5t-100 -51.5q29 -14 57.5 -36.5t51 -54t36 -70.5t13.5 -88q0 -119 -46 -208t-129 -149.5 t-197 -91.5t-249 -31q-106 0 -195.5 23.5t-154 70t-101 112t-36.5 151.5zM580 391q0 -51 33.5 -78.5t82.5 -27.5q72 0 116 50t44 122q0 49 -31.5 77.5t-81.5 28.5q-72 0 -117.5 -50t-45.5 -122zM702 928q0 -45 30 -72t73 -27q66 0 105.5 44.5t39.5 107.5q0 45 -29.5 70.5 t-70.5 25.5q-66 0 -107 -43t-41 -106z" />
<glyph unicode="9" d="M217 846q0 131 48 231.5t131 168t196 102t244 34.5q121 0 216 -32.5t161.5 -93t102.5 -145.5t36 -191q0 -219 -85 -384t-226.5 -280t-325 -185.5t-379.5 -103.5l-70 295q63 12 136 34.5t143.5 53.5t131 67t97.5 75q-35 -12 -80 -19.5t-102 -7.5q-78 0 -145.5 27.5 t-119 78t-81 121t-29.5 154.5zM662 870q0 -63 32.5 -92.5t85.5 -29.5q29 0 58 2q31 4 57 14q18 35 27.5 74t9.5 75q0 66 -27.5 101t-81.5 35q-72 0 -116.5 -51.5t-44.5 -127.5z" />
<glyph unicode=":" horiz-adv-x="528" d="M82 145q0 94 67.5 148.5t178.5 54.5q76 0 130 -43t54 -123q0 -94 -67.5 -148t-178.5 -54q-76 0 -131 43q-53 43 -53 122zM203 702q0 94 67.5 148.5t178.5 54.5q76 0 130 -43t54 -123q0 -94 -67.5 -148t-178.5 -54q-76 0 -131 43q-53 43 -53 122z" />
<glyph unicode=";" horiz-adv-x="528" d="M-18 -109q45 12 100 37t86 52q-39 16 -64.5 58t-25.5 99q0 92 64.5 150.5t168.5 58.5q96 0 147.5 -52t51.5 -134q0 -88 -44 -155.5t-113.5 -117t-155.5 -83t-170 -54.5zM203 702q0 94 67.5 148.5t178.5 54.5q76 0 130 -43t54 -123q0 -94 -67.5 -148t-178.5 -54 q-76 0 -131 43q-53 43 -53 122z" />
<glyph unicode="&#x3c;" d="M195 496v325l1011 361l101 -334l-637 -184l657 -197l-102 -348z" />
<glyph unicode="=" d="M231 260v328h1053v-328h-1053zM231 750v327h1053v-327h-1053z" />
<glyph unicode="&#x3e;" d="M170 467l657 197l-637 184l101 334l1012 -361v-325l-1031 -377z" />
<glyph unicode="?" horiz-adv-x="999" d="M244 1174q92 94 223 156.5t313 62.5q201 0 309.5 -75t108.5 -218q0 -129 -73.5 -225.5t-196.5 -182.5q-39 -27 -65.5 -48t-44 -42.5t-28 -46.5t-14.5 -59l-4 -25h-418l13 70q20 119 90 188q43 45 96 79t98 63.5t76 61.5t31 73q0 29 -19.5 46t-60.5 17q-53 0 -108.5 -27.5 t-102.5 -74.5zM293 145q0 94 67.5 148.5t178.5 54.5q76 0 130 -43t54 -123q0 -94 -67.5 -148t-178.5 -54q-76 0 -131 43q-53 43 -53 122z" />
<glyph unicode="@" horiz-adv-x="1796" d="M150 305q0 252 71.5 454t204.5 342t325.5 216t432.5 76q311 0 466.5 -118t155.5 -333q0 -29 -5 -77t-13 -83l-174 -813q-2 -8 -2 -24q0 -23 16.5 -31t38.5 -8q20 0 39.5 6t34.5 16l35 -239q-61 -35 -133 -54.5t-173 -19.5q-59 0 -111 15.5t-91 47t-62.5 77.5t-23.5 108 q0 41 7 83t17 77q-39 -23 -92 -38.5t-131 -15.5q-72 0 -127 29t-92 78t-56.5 116.5t-19.5 147.5q0 111 35 213t100.5 179t157.5 123t207 46q59 0 112.5 -11t83.5 -30q2 16 4.5 28.5t2.5 29.5q0 78 -61.5 115.5t-192.5 37.5q-141 0 -253 -54t-191 -151.5t-121 -230.5 t-42 -289q0 -119 24 -223.5t48 -163.5l-334 -166q-14 29 -34.5 80t-39 117.5t-31.5 147.5t-13 167zM1094 379q0 -18 4 -40t14 -40t27.5 -29.5t44.5 -11.5q25 0 41 8t37 23l61 289q-35 20 -76 20t-70.5 -21.5t-48 -54.5t-26.5 -71.5t-8 -71.5z" />
<glyph unicode="A" horiz-adv-x="1433" d="M-18 0l796 1366h461l217 -1366h-469l-29 203h-401l-115 -203h-460zM700 522h246l-41 389z" />
<glyph unicode="B" horiz-adv-x="1275" d="M102 0l289 1366h570q197 0 311 -70.5t114 -228.5q0 -131 -70.5 -220t-185.5 -128q29 -8 66 -24.5t69.5 -49.5t55 -85t22.5 -134q0 -102 -44 -181t-121.5 -133.5t-183 -83t-226.5 -28.5h-666zM604 338h156q80 0 113.5 32.5t33.5 78.5q0 55 -34.5 75.5t-86.5 20.5h-139z M711 840h114q61 0 102.5 31.5t41.5 89.5q0 86 -101 86h-114z" />
<glyph unicode="C" horiz-adv-x="1341" d="M182 537q0 174 52.5 329.5t152.5 272t242.5 185.5t324.5 69q106 0 200.5 -22.5t168.5 -70t125 -120t74 -170.5l-402 -162q-8 33 -21.5 66.5t-35 60t-55 43t-82.5 16.5q-66 0 -119 -40t-90 -105.5t-57.5 -153.5t-20.5 -182q0 -104 46 -161.5t128 -57.5q90 0 145.5 52 t102.5 138l344 -194q-63 -96 -133 -164t-150 -111t-172 -63.5t-200 -20.5q-129 0 -234.5 38t-179.5 111t-114 178t-40 239z" />
<glyph unicode="D" horiz-adv-x="1394" d="M102 0l289 1366h496q143 0 258 -36t194.5 -103.5t121.5 -165.5t42 -223q0 -184 -55 -338t-162.5 -265.5t-264.5 -173t-362 -61.5h-557zM621 369h96q82 0 144.5 35.5t102.5 94t60 131t20 146.5q0 61 -17 104.5t-46 70t-70 37.5t-86 11h-71z" />
<glyph unicode="E" horiz-adv-x="1189" d="M102 0l289 1366h1000l-78 -369h-559l-33 -151h450l-69 -326h-451l-30 -149h600l-78 -371h-1041z" />
<glyph unicode="F" horiz-adv-x="1107" d="M102 0l289 1366h985l-78 -369h-544l-41 -188h436l-76 -354h-434l-96 -455h-441z" />
<glyph unicode="G" horiz-adv-x="1386" d="M184 553q0 174 54.5 326.5t156 266.5t245.5 180.5t325 66.5q119 0 209 -19.5t156.5 -58.5t113.5 -97.5t80 -138.5l-400 -172q-20 53 -61 90t-127 37q-66 0 -120 -39t-94 -103.5t-61.5 -148.5t-21.5 -176q0 -117 51 -184.5t141 -67.5q33 0 63 3.5t62 7.5l33 149h-170 l62 297h581l-151 -719q-104 -35 -247.5 -58.5t-303.5 -23.5q-123 0 -228.5 36t-182.5 108.5t-121 182.5t-44 255z" />
<glyph unicode="H" horiz-adv-x="1423" d="M102 0l289 1366h440l-100 -477h338l100 477h441l-289 -1366h-440l108 514h-338l-108 -514h-441z" />
<glyph unicode="I" horiz-adv-x="645" d="M102 0l289 1366h440l-288 -1366h-441z" />
<glyph unicode="J" horiz-adv-x="657" d="M-125 -57q109 16 179.5 65t92.5 148l256 1210h441l-266 -1257q-45 -211 -202 -339t-413 -167z" />
<glyph unicode="K" horiz-adv-x="1431" d="M100 0l291 1366h440l-88 -410l435 410h540l-573 -553l305 -813h-516l-170 541l-131 -111l-92 -430h-441z" />
<glyph unicode="L" horiz-adv-x="1095" d="M102 0l289 1366h440l-210 -995h553l-78 -371h-994z" />
<glyph unicode="M" horiz-adv-x="1687" d="M102 0l289 1366h455l131 -735l442 735h455l-289 -1366h-420l125 590l-354 -598h-188l-101 598l-125 -590h-420z" />
<glyph unicode="N" horiz-adv-x="1433" d="M102 0l289 1366h443l225 -616l131 616h430l-289 -1366h-407l-250 666l-142 -666h-430z" />
<glyph unicode="O" horiz-adv-x="1454" d="M182 512q0 178 53.5 339t155 280.5t249.5 190.5t339 71q129 0 235.5 -36t183.5 -103.5t119 -167t42 -224.5q0 -178 -50.5 -340t-151 -284.5t-252 -194.5t-353.5 -72q-166 0 -277 49t-175 127t-91 174.5t-27 190.5zM637 532q0 -41 7.5 -76.5t25.5 -64.5q18 -27 49 -43 t76 -16q82 0 141 53t96 131t54.5 164t17.5 151q0 39 -8.5 76t-26.5 64.5t-49 44t-76 16.5q-84 0 -142.5 -53t-95 -130t-53 -164t-16.5 -153z" />
<glyph unicode="P" horiz-adv-x="1247" d="M102 0l289 1366h553q229 0 356 -95t127 -276q0 -141 -49 -249.5t-137 -182.5t-210 -111.5t-265 -37.5h-143l-86 -414h-435zM698 764h111q70 0 122 38t52 111q0 47 -29.5 74t-81.5 27h-120z" />
<glyph unicode="Q" horiz-adv-x="1454" d="M182 512q0 178 53.5 339t155 280.5t249.5 190.5t339 71q129 0 235.5 -36t183.5 -103.5t119 -167t42 -224.5q0 -156 -38 -298t-116 -258t-194.5 -197.5t-276.5 -114.5q20 -47 84.5 -67.5t140.5 -20.5l-76 -289q-117 2 -215 29.5t-170.5 78t-113.5 119t-41 154.5 q-104 29 -173 83t-111 124.5t-59.5 149.5t-17.5 157zM637 532q0 -41 7.5 -76.5t25.5 -64.5q18 -27 49 -43t76 -16q82 0 141 53t96 131t54.5 164t17.5 151q0 39 -8.5 76t-26.5 64.5t-49 44t-76 16.5q-84 0 -142.5 -53t-95 -130t-53 -164t-16.5 -153z" />
<glyph unicode="R" horiz-adv-x="1337" d="M102 0l289 1366h621q211 0 333.5 -95t122.5 -263q0 -180 -79.5 -293t-206.5 -178l161 -537h-485l-108 446h-119l-94 -446h-435zM705 791h143q84 0 129 34.5t45 96.5q0 94 -119 94h-151z" />
<glyph unicode="S" horiz-adv-x="1222" d="M66 244l387 202q37 -63 104.5 -100t153.5 -37q53 0 92 20.5t39 57.5q0 14 -9.5 29.5t-36 32t-74.5 35t-124 40.5q-70 20 -133.5 52t-111.5 79t-76.5 111.5t-28.5 151.5q0 115 46 202.5t127 148t191.5 92.5t239.5 32q231 0 370.5 -73t200.5 -183l-348 -199 q-31 47 -101.5 86t-166.5 39q-45 0 -81 -16.5t-36 -57.5q0 -43 47 -66.5t164 -56.5q80 -23 150.5 -54.5t123 -78.5t82 -112.5t29.5 -155.5q0 -127 -45 -220t-127 -153.5t-197.5 -90.5t-257.5 -30q-92 0 -182 15.5t-168 48.5t-141.5 84t-101.5 125z" />
<glyph unicode="T" horiz-adv-x="1173" d="M217 997l78 369h1161l-78 -369h-358l-211 -997h-442l211 997h-361z" />
<glyph unicode="U" horiz-adv-x="1421" d="M193 395q0 68 14 137l176 834h440l-174 -821q-8 -33 -8 -70q0 -59 34 -97t107 -38q86 0 139.5 44t75.5 144l179 838h440l-182 -858q-53 -256 -228.5 -396.5t-478.5 -140.5q-268 0 -401 116t-133 308z" />
<glyph unicode="V" horiz-adv-x="1427" d="M264 1366h504l96 -760l383 760h486l-799 -1366h-381z" />
<glyph unicode="W" horiz-adv-x="1802" d="M266 1366h439l18 -618l295 618h332l30 -618l285 618h444l-663 -1366h-356l-50 686l-333 -686h-359z" />
<glyph unicode="X" horiz-adv-x="1392" d="M-20 0l602 725l-283 641h500l123 -319l260 319h487l-573 -657l317 -709h-510l-143 369l-283 -369h-497z" />
<glyph unicode="Y" horiz-adv-x="1404" d="M266 1366h494l135 -430l311 430h506l-680 -846l-110 -520h-441l111 518z" />
<glyph unicode="Z" horiz-adv-x="1267" d="M51 0l64 301l723 696h-549l78 369h1114l-66 -307l-717 -688h594l-78 -371h-1163z" />
<glyph unicode="[" horiz-adv-x="788" d="M72 -293l383 1800h653l-61 -286h-234l-260 -1227h233l-61 -287h-653z" />
<glyph unicode="\" horiz-adv-x="1079" d="M303 1458l330 115l469 -1544l-330 -115z" />
<glyph unicode="]" horiz-adv-x="788" d="M-61 -293l61 287h231l261 1227h-234l61 286h654l-383 -1800h-651z" />
<glyph unicode="^" horiz-adv-x="1130" d="M174 649l520 717h336l219 -748l-338 -79l-112 469l-310 -469z" />
<glyph unicode="_" horiz-adv-x="1146" d="M-104 -492l69 320h1145l-70 -320h-1144z" />
<glyph unicode="`" horiz-adv-x="614" d="M291 1368l196 234l377 -330l-149 -166z" />
<glyph unicode="a" horiz-adv-x="1091" d="M80 252q0 121 61.5 193.5t155.5 111.5t209 51.5t219 12.5q4 10 6 22t2 23q0 47 -32.5 64.5t-73.5 17.5q-45 0 -98.5 -16.5t-98.5 -45.5l-162 203q94 66 209 104.5t283 38.5q88 0 160.5 -19.5t125 -58.5t81 -99t28.5 -140q0 -29 -4 -57.5t-8 -51.5l-129 -606h-346l-25 80 q-59 -45 -126.5 -68.5t-166.5 -23.5q-129 0 -199.5 73.5t-70.5 190.5zM489 317q0 -33 23 -50t53 -17q41 0 86 22l37 172q-33 0 -67.5 -4t-64.5 -17t-48.5 -38t-18.5 -68z" />
<glyph unicode="b" horiz-adv-x="1208" d="M94 59l279 1307h432l-80 -371q31 14 85 25.5t108 11.5q172 0 270 -97t98 -290q0 -152 -52 -274.5t-144.5 -210.5t-221.5 -135.5t-282 -47.5q-141 0 -274.5 21.5t-217.5 60.5zM578 299q18 -4 39.5 -6t41.5 -2q43 0 79 24.5t60.5 64.5t39 93t14.5 113q0 66 -26.5 104.5 t-80.5 38.5q-18 0 -38.5 -4t-40.5 -10z" />
<glyph unicode="c" horiz-adv-x="1122" d="M139 401q0 139 45 256t128 200t200 129t258 46q186 0 310 -72.5t161 -242.5l-367 -115q-4 20 -12 43t-21.5 41.5t-34 29.5t-46.5 11q-41 0 -75 -24.5t-60.5 -65.5t-41 -98.5t-14.5 -120.5q0 -66 29 -102.5t72 -36.5q61 0 108 39.5t76 109.5l324 -152q-104 -162 -247 -229 t-335 -67q-102 0 -187 27.5t-144.5 81.5t-92.5 132t-33 180z" />
<glyph unicode="d" horiz-adv-x="1208" d="M141 395q0 119 38 233.5t108.5 205t173 144.5t231.5 54q78 0 126 -8t89 -25l78 367h432l-291 -1366h-364l-6 80q-59 -57 -116.5 -78.5t-141.5 -21.5q-86 0 -152.5 32.5t-112 90t-69 132t-23.5 160.5zM571 416q0 -49 20.5 -94.5t78.5 -45.5q53 0 90 31l84 400 q-16 10 -34.5 15t-47.5 5q-41 0 -76 -24.5t-60.5 -66.5t-40 -99.5t-14.5 -120.5z" />
<glyph unicode="e" horiz-adv-x="1136" d="M139 401q0 137 46 254t130 200t200 130t255 47q98 0 178 -24.5t138.5 -73.5t90 -123t31.5 -174q0 -53 -7 -109.5t-17 -95.5h-631q-2 -10 -2 -29q0 -63 43 -92.5t100 -29.5q53 0 98.5 15t84.5 50l210 -194q-45 -45 -93 -77t-104 -53.5t-125 -31.5t-155 -10 q-100 0 -186 26.5t-149.5 79.5t-99.5 132t-36 183zM590 631h250q2 10 3 21.5t1 21.5q0 43 -23.5 75.5t-70.5 32.5q-63 0 -104.5 -48t-55.5 -103z" />
<glyph unicode="f" horiz-adv-x="798" d="M145 0l154 723h-137l61 287h137l7 30q35 158 156.5 255.5t320.5 97.5q102 0 167.5 -19.5t100.5 -36.5l-92 -243q-23 10 -47.5 16t-63.5 6q-47 0 -76.5 -25.5t-37.5 -56.5l-4 -24h202l-61 -287h-201l-153 -723h-433z" />
<glyph unicode="g" horiz-adv-x="1163" d="M6 -162q0 43 16.5 77t43 59.5t60.5 43t71 27.5q-35 29 -55.5 67t-20.5 91q0 72 52 126t122 85q-49 35 -75.5 92t-26.5 117q0 104 46 181t122.5 127t178 75.5t212.5 25.5q76 0 127 -7t100 -24l170 154l178 -160l-139 -135q23 -29 37 -72t14 -86q0 -90 -43 -161.5 t-119 -121.5t-177 -77t-220 -27q-18 0 -45 2t-54.5 5.5t-53 8.5t-40.5 9q-41 -23 -41 -55q0 -18 10.5 -29.5t38 -19t74.5 -11.5t119 -8q88 -4 171 -17.5t147.5 -43t103.5 -79.5t39 -130q0 -106 -51 -175t-138.5 -110t-205 -57.5t-248.5 -16.5q-92 0 -181 11.5t-160 39 t-115 76.5t-44 123zM365 -106q0 -47 48 -67t146 -20q104 0 158.5 20.5t54.5 57.5q0 53 -129 60q-78 4 -133 8q-53 2 -107 10q-16 -12 -27 -28.5t-11 -40.5zM600 637q0 -41 28.5 -62.5t69.5 -21.5q27 0 50.5 11t42 29.5t28.5 42t10 48.5q0 41 -27.5 62.5t-68.5 21.5 q-55 0 -94 -37t-39 -94z" />
<glyph unicode="h" horiz-adv-x="1222" d="M82 0l291 1366h432l-86 -401q59 35 119.5 51t130.5 16q66 0 125 -15.5t104 -49t71.5 -85t26.5 -124.5q0 -41 -10 -92l-141 -666h-432l129 610q4 10 4 17.5v17.5q0 78 -82 78q-31 0 -57.5 -12.5t-47.5 -26.5l-145 -684h-432z" />
<glyph unicode="i" horiz-adv-x="593" d="M80 0l215 1010h430l-215 -1010h-430zM336 1208q0 49 22.5 84t58.5 57.5t81 33t92 10.5q84 0 136 -28t52 -99q0 -100 -71.5 -146.5t-178.5 -46.5q-35 0 -68.5 6.5t-62.5 20.5q-27 16 -44 41.5t-17 66.5z" />
<glyph unicode="j" horiz-adv-x="587" d="M-94 -178q31 18 58.5 35.5t51 42t40 57.5t26.5 80l207 973h430l-213 -1006q-39 -184 -145.5 -293.5t-270.5 -152.5zM332 1208q0 49 22.5 84t58.5 57.5t81 33t92 10.5q86 0 137 -28t51 -99q0 -100 -71.5 -146.5t-176.5 -46.5q-35 0 -69.5 6.5t-63.5 20.5q-27 16 -44 41.5 t-17 66.5z" />
<glyph unicode="k" horiz-adv-x="1214" d="M80 0l291 1366h432l-131 -612l291 256h450l-371 -336l191 -674h-445l-90 416l-120 -107l-66 -309h-432z" />
<glyph unicode="l" horiz-adv-x="595" d="M82 0l289 1366h432l-289 -1366h-432z" />
<glyph unicode="m" horiz-adv-x="1804" d="M80 0l215 1010h369l2 -90q63 53 134.5 82.5t162.5 29.5q197 0 272 -119q55 47 135 83t178 36q55 0 113.5 -12t107 -42t79 -81t30.5 -129q0 -23 -4 -52.5t-8 -49.5l-142 -666h-432l133 623q2 10 3.5 19t1.5 20q0 35 -23 48t-55 13q-23 0 -46.5 -10.5t-41.5 -26.5 l-146 -686h-432l133 623q2 10 3 19t1 20q0 35 -20.5 48t-52.5 13q-23 0 -48.5 -11.5t-44.5 -25.5l-145 -686h-432z" />
<glyph unicode="n" horiz-adv-x="1222" d="M80 0l215 1010h369l2 -90q66 53 137 82.5t155 29.5q66 0 126.5 -15.5t107.5 -47t75.5 -82.5t28.5 -123q0 -25 -4 -49.5t-8 -48.5l-141 -666h-432l129 610q6 20 6 43q0 70 -84 70q-31 0 -59.5 -14.5t-45.5 -24.5l-145 -684h-432z" />
<glyph unicode="o" horiz-adv-x="1196" d="M137 418q0 135 49.5 247.5t136.5 193.5t206.5 127t258.5 46q94 0 180.5 -27.5t151 -82t102.5 -136t38 -192.5q0 -135 -49.5 -248t-137.5 -193.5t-206.5 -126.5t-260.5 -46q-94 0 -179 27.5t-151 80.5q-63 55 -101 137t-38 193zM565 410q0 -129 84 -129q39 0 72 26.5 t57.5 71.5t38.5 102.5t14 118.5q0 129 -83 129q-39 0 -72 -26.5t-57.5 -71.5t-39 -102.5t-14.5 -118.5z" />
<glyph unicode="p" horiz-adv-x="1208" d="M0 -387l297 1399h365l6 -80q43 43 108.5 71.5t143.5 28.5q92 0 160.5 -30.5t113.5 -85t66.5 -126t21.5 -153.5q0 -111 -31.5 -227.5t-99.5 -213t-173.5 -158t-252.5 -61.5q-45 0 -105.5 8.5t-103.5 24.5l-84 -397h-432zM578 303q12 -10 36.5 -15t47.5 -5q55 0 92 32.5 t58.5 79.5t30.5 100.5t9 94.5q0 61 -24.5 103t-82.5 42q-25 0 -45 -10t-36 -20z" />
<glyph unicode="q" horiz-adv-x="1200" d="M137 399q0 150 54.5 267.5t151.5 199.5t231.5 124t291.5 42q137 0 250 -12t211 -31l-293 -1376h-432l80 379q-45 -6 -77 -9t-77 -3q-84 0 -155.5 30.5t-123.5 87t-82 133t-30 168.5zM567 412q0 -72 34 -106t87 -34q16 0 28.5 3.5t28.5 9.5l91 422q-14 2 -27.5 3t-30.5 1 q-47 0 -86 -24.5t-66.5 -65.5t-43 -95.5t-15.5 -113.5z" />
<glyph unicode="r" horiz-adv-x="864" d="M80 0l215 1010h379l4 -92q31 39 83 70.5t132 31.5q53 0 94 -9.5t68 -25.5l-131 -338q-27 14 -64 24.5t-76 10.5t-78.5 -14.5t-58.5 -30.5l-135 -637h-432z" />
<glyph unicode="s" horiz-adv-x="1052" d="M78 100l194 222q45 -37 118 -63t140 -26q129 0 129 50q0 12 -8 23t-29.5 23.5t-59.5 28t-97 37.5q-53 18 -96 40t-75 52.5t-49.5 74.5t-17.5 106q0 104 49.5 173.5t127 112.5t174 60.5t188.5 17.5q141 0 243.5 -33.5t166.5 -80.5l-187 -213q-33 29 -93 53t-136 24 q-57 0 -89 -12t-32 -39q0 -14 6 -24.5t24.5 -20.5t51.5 -21.5t84 -29.5q125 -43 199.5 -108.5t74.5 -178.5q0 -106 -44 -177t-117.5 -114t-173 -60t-209.5 -17q-297 0 -457 120z" />
<glyph unicode="t" horiz-adv-x="866" d="M166 723l61 287h142l53 250h432l-53 -250h225l-61 -287h-226l-75 -354q-2 -14 -3.5 -28.5t-1.5 -23.5q0 -18 13.5 -29.5t36.5 -11.5q16 0 34.5 5.5t35 11.5t27.5 12t15 8l72 -241q-94 -53 -192.5 -72.5t-180.5 -19.5q-61 0 -117.5 12t-99.5 39.5t-68.5 71.5t-25.5 110 q0 25 3 48.5t7 45.5l88 416h-141z" />
<glyph unicode="u" horiz-adv-x="1222" d="M137 246q0 25 3 49t7 49l144 666h432l-131 -611q-2 -10 -3 -27.5t-1 -27.5q0 -20 19.5 -38.5t54.5 -18.5q33 0 60.5 11t53.5 28l146 684h432l-215 -1010h-369l-4 90q-66 -53 -143.5 -83t-163.5 -30q-66 0 -124.5 13.5t-102.5 44.5t-69.5 82t-25.5 129z" />
<glyph unicode="v" horiz-adv-x="1214" d="M176 1010h457l63 -543l265 543h462l-632 -1010h-383z" />
<glyph unicode="w" horiz-adv-x="1619" d="M188 1010h422l21 -480l223 480h307l17 -480l225 480h438l-571 -1010h-338l-29 487l-235 -487h-338z" />
<glyph unicode="x" horiz-adv-x="1171" d="M-12 0l471 500l-262 510h460l86 -246l191 246h455l-459 -502l256 -508h-475l-82 244l-197 -244h-444z" />
<glyph unicode="y" horiz-adv-x="1214" d="M-16 -348l127 264q31 -14 66.5 -23.5t70.5 -9.5q47 0 78.5 24.5t54.5 59.5l47 78l-231 965h462l50 -510l270 510h465l-733 -1155q-80 -125 -175.5 -197t-234.5 -72q-92 0 -175 15.5t-142 50.5z" />
<glyph unicode="z" horiz-adv-x="1120" d="M47 0l51 242l561 477h-432l62 291h981l-60 -262l-538 -457h452l-61 -291h-1016z" />
<glyph unicode="{" horiz-adv-x="860" d="M158 606l30 193q88 0 143.5 36.5t76.5 129.5l49 219q35 158 125 226.5t243 78.5q37 2 83 4t91 3t86 1h66l-57 -266q-123 0 -179.5 -33t-72.5 -111l-39 -188q-18 -90 -69.5 -133t-160.5 -64q66 -14 106 -46.5t40 -102.5q0 -18 -4 -46t-8 -46l-29 -131q-4 -20 -7 -39 t-3 -37q0 -61 53 -86t141 -31l-55 -266q-61 0 -122.5 1t-121.5 5q-61 6 -119.5 21.5t-103.5 46t-71.5 77t-26.5 113.5q0 61 16 139l39 166q6 27 6 56q0 33 -12 52t-32.5 31.5t-47.5 17.5t-53 9z" />
<glyph unicode="|" horiz-adv-x="593" d="M88 -152l354 1663h349l-355 -1663h-348z" />
<glyph unicode="}" horiz-adv-x="860" d="M14 -129l31 266q123 0 182.5 33t75.5 111l41 194q18 88 69.5 132t159.5 65q-66 14 -105.5 47t-39.5 102q0 18 4 46t8 46l27 125q4 20 7 39t3 37q0 61 -55 86t-146 31l78 266q59 0 116.5 -1t117.5 -5q63 -6 120.5 -21.5t101.5 -46t69.5 -77t25.5 -113.5q0 -33 -5 -68 t-13 -71l-37 -160q-6 -29 -6 -55q0 -33 12 -52.5t32.5 -32t47.5 -18.5t53 -8l-31 -193q-88 0 -143 -36.5t-76 -128.5l-51 -226q-16 -78 -47 -133t-77 -92t-107.5 -55.5t-137.5 -24.5q-37 -2 -79.5 -4t-83.5 -3t-79 -1h-63z" />
<glyph unicode="~" horiz-adv-x="970" d="M186 909q18 72 48 148t77 138t110.5 102t149.5 40q72 0 120 -23.5t83 -51.5q29 -25 55.5 -45.5t55.5 -20.5q25 0 44 14.5t32.5 36t22.5 45t15 43.5h256q-16 -68 -45.5 -142.5t-74.5 -138t-106.5 -104.5t-143.5 -41q-68 0 -116 22.5t-81 49.5q-33 29 -64.5 50.5 t-68.5 21.5q-27 0 -45 -14.5t-31.5 -36t-21.5 -47t-15 -46.5h-256z" />
<glyph unicode="&#xa1;" horiz-adv-x="577" d="M-4 -377l190 895h435l-191 -895h-434zM254 807q0 94 67.5 148.5t178.5 54.5q76 0 130 -43t54 -123q0 -94 -67.5 -148.5t-178.5 -54.5q-76 0 -131 43q-53 43 -53 123z" />
<glyph unicode="&#xa2;" d="M252 592q0 94 30.5 185t93 166t157 131t219.5 81l55 252h336l-56 -248q43 -4 85 -16.5t79 -29.5t66 -35.5t45 -35.5l-229 -276q-35 29 -86.5 54.5t-137.5 25.5q-47 0 -89 -15.5t-74.5 -42t-51 -63.5t-18.5 -80q0 -63 45 -101t117 -38q78 0 139 23.5t119 60.5l112 -283 q-72 -47 -158.5 -79.5t-166.5 -37.5l-56 -253h-335l55 260q-63 18 -116.5 52t-93.5 82t-62.5 112.5t-22.5 148.5z" />
<glyph unicode="&#xa3;" d="M137 504l66 305h157l19 100q41 229 189.5 350t396.5 121q199 0 311.5 -84t150.5 -219l-380 -106q-10 35 -37 59.5t-72 24.5q-102 0 -127 -117l-25 -129h435l-66 -305h-432l-37 -174h565l-69 -330h-992l107 504h-160z" />
<glyph unicode="&#xa4;" horiz-adv-x="1511" d="M123 199l328 311q-63 115 -64 244q0 127 57 233l-321 303l184 166l303 -289q59 35 127 51.5t137 16.5q72 0 140.5 -16.5t130.5 -53.5l305 291l184 -166l-323 -303q29 -53 41 -110.5t12 -116.5q0 -66 -15.5 -128.5t-48.5 -117.5l334 -315l-176 -170l-330 311 q-59 -33 -124.5 -47t-133.5 -14q-63 0 -125.5 14t-119.5 45l-326 -309zM631 756q0 -53 17 -99.5t50 -81.5t77 -54t99 -19t100.5 19.5t78 54t50 80.5t17.5 100q0 53 -17.5 100t-50 82t-77.5 54.5t-101 19.5q-111 0 -177 -74t-66 -182z" />
<glyph unicode="&#xa5;" d="M168 395l65 305h218l-164 650h452l45 -478l242 478h465l-451 -650h213l-65 -305h-289l-84 -395h-424l84 395h-307z" />
<glyph unicode="&#xa6;" horiz-adv-x="593" d="M90 -152l133 633h348l-133 -633h-348zM309 879l133 632h349l-134 -632h-348z" />
<glyph unicode="&#xa7;" horiz-adv-x="1050" d="M47 -176l182 285q45 -37 114 -63t140 -26q23 0 48.5 2.5t47 10.5t36 23.5t14.5 41.5q0 31 -28 50.5t-70 37t-91 37t-91 48t-69.5 70.5t-27.5 105q0 53 21.5 102.5t52.5 90.5l522 -233q78 -35 118 -93.5t40 -146.5q0 -113 -41 -199t-115 -144.5t-175.5 -88t-219.5 -29.5 q-135 0 -232.5 29.5t-175.5 89.5zM289 936q0 111 41 196t109.5 143t161.5 88t198 30q156 0 256 -31t174 -90l-191 -283q-47 39 -109.5 63.5t-129.5 24.5q-18 0 -42 -2t-44.5 -10t-34.5 -22.5t-14 -38.5q0 -39 43 -62.5t98 -46.5q37 -14 76 -32.5t70.5 -46.5t51 -65.5 t19.5 -93.5q0 -53 -20.5 -101t-53.5 -89l-508 227q-152 68 -151 242z" />
<glyph unicode="&#xa8;" horiz-adv-x="876" d="M270 1264q0 47 21.5 83.5t56.5 61.5t78 37t86 12q70 0 121 -36t51 -95q0 -49 -21.5 -86t-55.5 -61.5t-76 -37t-85 -12.5q-31 0 -62 7.5t-56 23.5t-41.5 41t-16.5 62zM760 1264q0 47 21.5 83.5t56 61.5t77.5 37t86 12q70 0 121.5 -36t51.5 -95q0 -49 -22 -86t-55.5 -61.5 t-75.5 -37t-85 -12.5q-31 0 -62.5 7.5t-56.5 23.5t-41 41t-16 62z" />
<glyph unicode="&#xa9;" horiz-adv-x="1587" d="M221 608q0 143 44 279.5t133 244t220.5 173t307.5 65.5q174 0 306 -65.5t220 -173t132 -243.5t44 -280q0 -143 -44 -281.5t-132 -246t-220 -173t-306 -65.5q-177 0 -308 66t-220 173t-133 245.5t-44 281.5zM395 608q0 -117 33.5 -225.5t101.5 -192.5t167.5 -134 t228.5 -50t228 50t165.5 134t100.5 193t34 225q0 115 -34 223.5t-100.5 192.5t-165.5 134t-228 50q-131 0 -230.5 -50t-166 -134t-100.5 -192.5t-34 -223.5zM526 604q0 119 34 208t90.5 147.5t130 87t153.5 28.5q129 0 212 -54t134 -163l-172 -94q-31 63 -69 99t-101 36 q-39 0 -76 -17.5t-64.5 -54t-45 -92t-17.5 -131.5q0 -135 62.5 -212t150.5 -77q47 0 88 25t84 102l168 -100q-66 -117 -149.5 -161t-196.5 -44q-92 0 -169 32t-132 92.5t-85 146.5t-30 196z" />
<glyph unicode="&#xaa;" horiz-adv-x="759" d="M205 803q0 82 40 135t105.5 86t148.5 47t171 19q2 6 4 14t2 16q0 23 -19.5 33t-54.5 10t-70.5 -9t-62.5 -24l-100 160q61 33 129.5 51.5t167.5 18.5q123 0 197.5 -54.5t74.5 -170.5q0 -16 -2 -34t-6 -34l-94 -449h-246l4 54q-35 -29 -78 -48.5t-102 -19.5 q-92 0 -150.5 50.5t-58.5 148.5zM469 829q0 -23 13.5 -35t33.5 -12q57 0 102 41l21 103q-84 -6 -127 -27.5t-43 -69.5z" />
<glyph unicode="&#xab;" horiz-adv-x="1175" d="M119 512l409 477l226 -207l-250 -288l145 -279l-293 -164zM657 512l385 442l209 -221l-209 -239l136 -261l-293 -163z" />
<glyph unicode="&#xac;" d="M223 516v328h1053v-651h-346v323h-707z" />
<glyph unicode="&#xad;" horiz-adv-x="675" d="M123 412l70 325h602l-70 -325h-602z" />
<glyph unicode="&#xae;" horiz-adv-x="1589" d="M223 608q0 143 44 279.5t133 244t220.5 173t307.5 65.5q174 0 305 -65.5t219 -173t132 -243.5t44 -280q0 -143 -44 -281.5t-132 -246t-220 -173t-306 -65.5q-175 0 -308 66q-131 66 -219 173t-132 245.5t-44 281.5zM395 608q0 -117 33.5 -225.5t101.5 -192.5t167.5 -134 t230.5 -50q129 0 227 50t166 134t101.5 193t33.5 225q0 115 -33.5 223.5t-100.5 192.5t-166 134t-228 50q-131 0 -230.5 -50t-167 -134t-101.5 -192.5t-34 -223.5zM633 209v831h311q166 0 246 -66.5t80 -195.5q0 -102 -47 -161.5t-119 -84.5l174 -323h-203l-157 301h-95 v-301h-190zM823 684h107q78 0 110.5 20.5t32.5 79.5q0 49 -29.5 65.5t-105.5 16.5h-115v-182z" />
<glyph unicode="&#xaf;" horiz-adv-x="663" d="M252 1182l47 235h664l-48 -235h-663z" />
<glyph unicode="&#xb0;" horiz-adv-x="811" d="M283 1040q0 74 25.5 134.5t71.5 102.5t108.5 65.5t138.5 23.5t138 -23.5t108.5 -65.5t72 -102.5t25.5 -134.5t-25.5 -134t-71 -103t-109 -66.5t-138.5 -23.5q-76 0 -139.5 23.5t-108.5 66.5t-70.5 103.5t-25.5 133.5zM516 1038q0 -63 35 -95t76 -32t75.5 32t34.5 95 q0 66 -34.5 97.5t-75.5 31.5t-76 -31.5t-35 -97.5z" />
<glyph unicode="&#xb1;" d="M238 0v328h1052v-328h-1052zM238 670v327h352v371h346v-371h354v-327h-354v-250h-346v250h-352z" />
<glyph unicode="&#xb2;" horiz-adv-x="757" d="M213 666l23 157q96 47 182 95.5t176 113.5q27 18 53.5 45t26.5 64q0 23 -16.5 31t-41.5 8q-35 0 -66.5 -28t-51.5 -54l-191 123q66 72 157 116.5t214 44.5q43 0 92 -8t92 -29.5t72 -59.5t29 -95q0 -68 -32 -119t-78 -91t-99.5 -69.5t-96.5 -50.5h238l-43 -194h-639z" />
<glyph unicode="&#xb3;" horiz-adv-x="757" d="M233 772l183 135q12 -16 50 -35.5t71 -19.5q14 0 31.5 2t31.5 8t24.5 17.5t10.5 29.5q0 14 -14.5 23.5t-34 12.5t-40 4t-32.5 1l29 140q14 0 36.5 1t44 6t36 16t14.5 34t-24.5 29t-43.5 6q-33 0 -64.5 -15.5t-54.5 -38.5l-141 136q59 59 134 88.5t190 29.5q37 0 87 -6 t95 -26.5t77 -56.5t32 -93q0 -37 -13.5 -64.5t-36 -48t-51.5 -35t-61 -26.5q47 -10 77.5 -48t30.5 -91q0 -66 -33.5 -111t-86 -72.5t-115 -41t-121.5 -13.5q-90 0 -175 22.5t-143 100.5z" />
<glyph unicode="&#xb4;" horiz-adv-x="614" d="M291 1272l389 327l180 -223l-420 -270z" />
<glyph unicode="&#xb5;" horiz-adv-x="1306" d="M10 -387l295 1397h432l-110 -527q-4 -23 -10.5 -50t-6.5 -54q0 -35 16.5 -59.5t61.5 -24.5q41 0 69.5 26.5t51.5 98.5q6 18 11 40.5t9 41.5l107 508h432l-129 -607q-4 -23 -7 -41t-3 -34q0 -41 16.5 -56.5t44.5 -15.5q18 0 46 3t55 11l-52 -258q-47 -16 -95 -24t-95 -8 q-104 0 -159.5 37.5t-67.5 101.5q-51 -76 -111 -109q-37 -18 -69.5 -24t-59.5 -6q-66 0 -106.5 22.5t-55.5 50.5l-92 -440h-418z" />
<glyph unicode="&#xb6;" horiz-adv-x="1085" d="M219 883q0 109 45 197.5t120 152t170 98.5t198 35h163l-352 -1663h-219l172 813q-133 14 -215 101.5t-82 265.5zM662 -297l352 1663h223l-352 -1663h-223z" />
<glyph unicode="&#xb7;" horiz-adv-x="667" d="M279 754q0 88 60 146t153 58q92 0 152.5 -58t60.5 -146t-60.5 -146.5t-152.5 -58.5q-93 0 -154 57q-59 59 -59 148z" />
<glyph unicode="&#xb8;" horiz-adv-x="471" d="M-41 -422l139 305h332l-182 -305h-289z" />
<glyph unicode="&#xb9;" horiz-adv-x="747" d="M289 1227l346 133h213l-148 -694h-294l88 409l-144 -49z" />
<glyph unicode="&#xba;" horiz-adv-x="845" d="M244 907q0 98 30.5 181t88 143.5t138.5 94.5t179 34q68 0 128 -20.5t105 -59.5t72 -94.5t27 -124.5q0 -96 -30 -180t-88 -145.5t-142 -96.5t-191 -35q-68 0 -126 21.5t-101 60.5q-41 39 -65.5 95.5t-24.5 125.5zM522 928q1 -41 19 -72t59 -31q33 0 57.5 19.5t42 50.5 t26.5 70t9 77q0 41 -18.5 72t-59.5 31q-33 0 -57.5 -19.5t-41.5 -50.5t-26.5 -69.5t-9.5 -77.5z" />
<glyph unicode="&#xbb;" horiz-adv-x="1175" d="M143 307l211 240l-135 260l291 164l227 -443l-385 -442zM641 258l252 289l-145 278l290 164l238 -461l-408 -477z" />
<glyph unicode="&#xbc;" horiz-adv-x="1884" d="M240 154l1646 1253l146 -188l-1653 -1262zM346 1227l346 133h213l-148 -694h-294l88 409l-144 -49zM1098 124l41 191l407 393h291l-90 -416h82l-35 -168h-82l-24 -120h-283l25 120h-332zM1303 292h161l43 195z" />
<glyph unicode="&#xbd;" horiz-adv-x="1884" d="M150 154l1646 1253l146 -188l-1653 -1262zM281 1227l346 133h213l-148 -694h-294l88 409l-144 -49zM1135 4l23 157q96 47 182 95.5t176 113.5q27 18 53.5 45t26.5 64q0 23 -16.5 31t-41.5 8q-35 0 -66.5 -28t-51.5 -54l-191 123q66 72 157 116.5t214 44.5q43 0 92 -8 t92 -29.5t72 -59.5t29 -95q0 -68 -32 -119t-78 -91t-99.5 -69.5t-96.5 -50.5h238l-43 -194h-639z" />
<glyph unicode="&#xbe;" horiz-adv-x="1884" d="M240 154l1646 1253l146 -188l-1653 -1262zM262 772l183 135q12 -16 50 -35.5t71 -19.5q14 0 31.5 2t31.5 8t24.5 17.5t10.5 29.5q0 14 -14.5 23.5t-34 12.5t-40 4t-32.5 1l29 140q14 0 36.5 1t44 6t36 16t14.5 34t-24.5 29t-43.5 6q-33 0 -64.5 -15.5t-54.5 -38.5 l-141 136q59 59 134 88.5t190 29.5q37 0 87 -6t95 -26.5t77 -56.5t32 -93q0 -37 -13.5 -64.5t-36 -48t-51.5 -35t-61 -26.5q47 -10 77.5 -48t30.5 -91q0 -66 -33.5 -111t-86 -72.5t-115 -41t-121.5 -13.5q-90 0 -175 22.5t-143 100.5zM1108 124l41 191l407 393h291l-90 -416 h82l-35 -168h-82l-24 -120h-283l25 120h-332zM1313 292h161l43 195z" />
<glyph unicode="&#xbf;" horiz-adv-x="999" d="M2 -113q0 129 74 225.5t196 182.5q39 27 66 48.5t44 43t27.5 46t14.5 59.5l4 24h418l-12 -70q-20 -119 -91 -188q-43 -45 -96 -79t-98 -63.5t-76 -61t-31 -72.5q0 -29 19.5 -46.5t60.5 -17.5q53 0 108.5 27.5t102.5 74.5l223 -206q-92 -94 -223 -157t-313 -63 q-201 0 -309.5 75t-108.5 218zM477 805q0 94 67.5 148.5t178.5 54.5q76 0 130 -43t54 -123q0 -94 -67.5 -148.5t-177.5 -54.5q-77 0 -132 43q-53 43 -53 123z" />
<glyph unicode="&#xc0;" horiz-adv-x="1433" d="M-18 0l796 1366h461l217 -1366h-469l-29 203h-401l-115 -203h-460zM688 1702l196 234l377 -330l-149 -166zM700 522h246l-41 389z" />
<glyph unicode="&#xc1;" horiz-adv-x="1433" d="M-18 0l796 1366h461l217 -1366h-469l-29 203h-401l-115 -203h-460zM700 522h246l-41 389zM826 1606l389 327l180 -223l-420 -270z" />
<glyph unicode="&#xc2;" horiz-adv-x="1433" d="M-18 0l796 1366h461l217 -1366h-469l-29 203h-401l-115 -203h-460zM669 1604l289 203h262l205 -211l-131 -156l-240 145l-276 -145zM700 522h246l-41 389z" />
<glyph unicode="&#xc3;" horiz-adv-x="1433" d="M-18 0l796 1366h461l217 -1366h-469l-29 203h-401l-115 -203h-460zM598 1565q45 117 130 184.5t177 67.5q39 0 73 -13.5t65.5 -30t61.5 -29.5t61 -13q49 0 79.5 25.5t53.5 66.5l166 -80q-45 -115 -121 -190.5t-191 -75.5q-43 0 -78.5 13t-68.5 29.5t-63.5 30t-61.5 13.5 q-43 0 -70.5 -22.5t-62.5 -76.5zM700 522h246l-41 389z" />
<glyph unicode="&#xc4;" horiz-adv-x="1433" d="M-18 0l796 1366h461l217 -1366h-469l-29 203h-401l-115 -203h-460zM600 1598q0 47 21.5 83.5t56.5 61.5t78 37t86 12q70 0 121 -36t51 -95q0 -49 -21.5 -86t-55.5 -61.5t-76 -37t-85 -12.5q-31 0 -62 7.5t-56 23.5t-41.5 41t-16.5 62zM700 522h246l-41 389zM1090 1598 q0 47 21.5 83.5t56 61.5t77.5 37t86 12q70 0 121.5 -36t51.5 -95q0 -49 -22 -86t-55.5 -61.5t-75.5 -37t-85 -12.5q-31 0 -62.5 7.5t-56.5 23.5t-41 41t-16 62z" />
<glyph unicode="&#xc5;" horiz-adv-x="1433" d="M-18 0l796 1366h461l217 -1366h-469l-29 203h-401l-115 -203h-460zM700 522h246l-41 389zM727 1485q0 70 25.5 125t70.5 94t104.5 58.5t126.5 19.5q51 0 97.5 -13.5t81 -42t55 -71.5t20.5 -102q0 -72 -25.5 -126.5t-70.5 -92t-104.5 -57t-126.5 -19.5q-49 0 -95.5 13 t-81.5 40q-35 29 -56 72t-21 102zM911 1499q0 -39 25.5 -59t62.5 -20q53 0 89 34.5t36 89.5q0 39 -25.5 58.5t-60.5 19.5q-53 0 -90 -35t-37 -88z" />
<glyph unicode="&#xc6;" horiz-adv-x="1959" d="M-23 0l1063 1366h1121l-78 -369h-533l-32 -151h424l-70 -326h-424l-33 -149h574l-78 -371h-993l43 203h-373l-150 -203h-461zM782 516h246l105 485z" />
<glyph unicode="&#xc7;" horiz-adv-x="1353" d="M182 537q0 174 52.5 329.5t152.5 272t242.5 185.5t324.5 69q106 0 200.5 -22.5t168.5 -70t125 -120t74 -170.5l-402 -162q-8 33 -21.5 66.5t-35 60t-55 43t-82.5 16.5q-66 0 -119 -40t-90 -105.5t-57.5 -153.5t-20.5 -182q0 -104 46 -161.5t128 -57.5q90 0 145.5 52 t102.5 138l344 -194q-63 -96 -133 -164t-150 -111t-172 -63.5t-200 -20.5q-129 0 -234.5 38t-179.5 111t-114 178t-40 239zM432 -422l139 305h332l-182 -305h-289z" />
<glyph unicode="&#xc8;" horiz-adv-x="1189" d="M102 0l289 1366h1000l-78 -369h-559l-33 -151h450l-69 -326h-451l-30 -149h600l-78 -371h-1041zM596 1702l196 234l377 -330l-149 -166z" />
<glyph unicode="&#xc9;" horiz-adv-x="1189" d="M102 0l289 1366h1000l-78 -369h-559l-33 -151h450l-69 -326h-451l-30 -149h600l-78 -371h-1041zM703 1606l389 327l180 -223l-420 -270z" />
<glyph unicode="&#xca;" horiz-adv-x="1189" d="M102 0l289 1366h1000l-78 -369h-559l-33 -151h450l-69 -326h-451l-30 -149h600l-78 -371h-1041zM565 1604l289 203h262l205 -211l-131 -156l-240 145l-276 -145z" />
<glyph unicode="&#xcb;" horiz-adv-x="1189" d="M102 0l289 1366h1000l-78 -369h-559l-33 -151h450l-69 -326h-451l-30 -149h600l-78 -371h-1041zM479 1598q0 47 21.5 83.5t56.5 61.5t78 37t86 12q70 0 121 -36t51 -95q0 -49 -21.5 -86t-55.5 -61.5t-76 -37t-85 -12.5q-31 0 -62 7.5t-56 23.5t-41.5 41t-16.5 62z M969 1598q0 47 21.5 83.5t56 61.5t77.5 37t86 12q70 0 121.5 -36t51.5 -95q0 -49 -22 -86t-55.5 -61.5t-75.5 -37t-85 -12.5q-31 0 -62.5 7.5t-56.5 23.5t-41 41t-16 62z" />
<glyph unicode="&#xcc;" horiz-adv-x="645" d="M102 0l289 1366h440l-288 -1366h-441zM348 1702l196 234l377 -330l-149 -166z" />
<glyph unicode="&#xcd;" horiz-adv-x="645" d="M102 0l289 1366h440l-288 -1366h-441zM465 1606l389 327l180 -223l-420 -270z" />
<glyph unicode="&#xce;" horiz-adv-x="645" d="M102 0l289 1366h440l-288 -1366h-441zM290 1604l289 203h262l205 -211l-131 -156l-240 145l-276 -145z" />
<glyph unicode="&#xcf;" horiz-adv-x="645" d="M102 0l289 1366h440l-288 -1366h-441zM219 1598q0 47 21.5 83.5t56.5 61.5t78 37t86 12q70 0 121 -36t51 -95q0 -49 -21.5 -86t-55.5 -61.5t-76 -37t-85 -12.5q-31 0 -62 7.5t-56 23.5t-41.5 41t-16.5 62zM709 1598q0 47 21.5 83.5t56 61.5t77.5 37t86 12q70 0 121.5 -36 t51.5 -95q0 -49 -22 -86t-55.5 -61.5t-75.5 -37t-85 -12.5q-31 0 -62.5 7.5t-56.5 23.5t-41 41t-16 62z" />
<glyph unicode="&#xd0;" horiz-adv-x="1394" d="M100 0l125 584h-71l47 223h71l119 559h520q133 0 242 -37t186.5 -107.5t120.5 -173t43 -235.5q0 -180 -58.5 -329.5t-168 -257t-265 -167t-349.5 -59.5h-562zM618 369h82q76 0 139.5 30.5t108.5 85t70.5 128t25.5 161.5q0 100 -50 162.5t-158 62.5h-82l-41 -192h196 l-47 -223h-196z" />
<glyph unicode="&#xd1;" horiz-adv-x="1433" d="M102 0l289 1366h443l225 -616l131 616h430l-289 -1366h-407l-250 666l-142 -666h-430zM628 1565q45 117 130 184.5t177 67.5q39 0 73 -13.5t65.5 -30t61.5 -29.5t61 -13q49 0 79.5 25.5t53.5 66.5l166 -80q-45 -115 -121 -190.5t-191 -75.5q-43 0 -78.5 13t-68.5 29.5 t-63.5 30t-61.5 13.5q-43 0 -70.5 -22.5t-62.5 -76.5z" />
<glyph unicode="&#xd2;" horiz-adv-x="1454" d="M182 512q0 178 53.5 339t155 280.5t249.5 190.5t339 71q129 0 235.5 -36t183.5 -103.5t119 -167t42 -224.5q0 -178 -50.5 -340t-151 -284.5t-252 -194.5t-353.5 -72q-166 0 -277 49t-175 127t-91 174.5t-27 190.5zM637 532q0 -41 7.5 -76.5t25.5 -64.5q18 -27 49 -43 t76 -16q82 0 141 53t96 131t54.5 164t17.5 151q0 39 -8.5 76t-26.5 64.5t-49 44t-76 16.5q-84 0 -142.5 -53t-95 -130t-53 -164t-16.5 -153zM768 1702l196 234l377 -330l-149 -166z" />
<glyph unicode="&#xd3;" horiz-adv-x="1454" d="M182 512q0 178 53.5 339t155 280.5t249.5 190.5t339 71q129 0 235.5 -36t183.5 -103.5t119 -167t42 -224.5q0 -178 -50.5 -340t-151 -284.5t-252 -194.5t-353.5 -72q-166 0 -277 49t-175 127t-91 174.5t-27 190.5zM637 532q0 -41 7.5 -76.5t25.5 -64.5q18 -27 49 -43 t76 -16q82 0 141 53t96 131t54.5 164t17.5 151q0 39 -8.5 76t-26.5 64.5t-49 44t-76 16.5q-84 0 -142.5 -53t-95 -130t-53 -164t-16.5 -153zM793 1606l389 327l180 -223l-420 -270z" />
<glyph unicode="&#xd4;" horiz-adv-x="1454" d="M182 512q0 178 53.5 339t155 280.5t249.5 190.5t339 71q129 0 235.5 -36t183.5 -103.5t119 -167t42 -224.5q0 -178 -50.5 -340t-151 -284.5t-252 -194.5t-353.5 -72q-166 0 -277 49t-175 127t-91 174.5t-27 190.5zM637 532q0 -41 7.5 -76.5t25.5 -64.5q18 -27 49 -43 t76 -16q82 0 141 53t96 131t54.5 164t17.5 151q0 39 -8.5 76t-26.5 64.5t-49 44t-76 16.5q-84 0 -142.5 -53t-95 -130t-53 -164t-16.5 -153zM657 1604l289 203h262l205 -211l-131 -156l-240 145l-276 -145z" />
<glyph unicode="&#xd5;" horiz-adv-x="1454" d="M182 512q0 178 53.5 339t155 280.5t249.5 190.5t339 71q129 0 235.5 -36t183.5 -103.5t119 -167t42 -224.5q0 -178 -50.5 -340t-151 -284.5t-252 -194.5t-353.5 -72q-166 0 -277 49t-175 127t-91 174.5t-27 190.5zM614 1565q45 117 130 184.5t177 67.5q39 0 73 -13.5 t65.5 -30t61.5 -29.5t61 -13q49 0 79.5 25.5t53.5 66.5l166 -80q-45 -115 -121 -190.5t-191 -75.5q-43 0 -78.5 13t-68.5 29.5t-63.5 30t-61.5 13.5q-43 0 -70.5 -22.5t-62.5 -76.5zM637 532q0 -41 7.5 -76.5t25.5 -64.5q18 -27 49 -43t76 -16q82 0 141 53t96 131t54.5 164 t17.5 151q0 39 -8.5 76t-26.5 64.5t-49 44t-76 16.5q-84 0 -142.5 -53t-95 -130t-53 -164t-16.5 -153z" />
<glyph unicode="&#xd6;" horiz-adv-x="1454" d="M182 512q0 178 53.5 339t155 280.5t249.5 190.5t339 71q129 0 235.5 -36t183.5 -103.5t119 -167t42 -224.5q0 -178 -50.5 -340t-151 -284.5t-252 -194.5t-353.5 -72q-166 0 -277 49t-175 127t-91 174.5t-27 190.5zM620 1598q0 47 21.5 83.5t56.5 61.5t78 37t86 12 q70 0 121 -36t51 -95q0 -49 -21.5 -86t-55.5 -61.5t-76 -37t-85 -12.5q-31 0 -62 7.5t-56 23.5t-41.5 41t-16.5 62zM637 532q0 -41 7.5 -76.5t25.5 -64.5q18 -27 49 -43t76 -16q82 0 141 53t96 131t54.5 164t17.5 151q0 39 -8.5 76t-26.5 64.5t-49 44t-76 16.5 q-84 0 -142.5 -53t-95 -130t-53 -164t-16.5 -153zM1110 1598q0 47 21.5 83.5t56 61.5t77.5 37t86 12q70 0 121.5 -36t51.5 -95q0 -49 -22 -86t-55.5 -61.5t-75.5 -37t-85 -12.5q-31 0 -62.5 7.5t-56.5 23.5t-41 41t-16 62z" />
<glyph unicode="&#xd7;" d="M260 936l246 246l260 -262l252 249l231 -231l-250 -252l256 -256l-243 -246l-258 258l-248 -249l-234 231l250 250z" />
<glyph unicode="&#xd8;" horiz-adv-x="1454" d="M84 90l158 146q-33 66 -46.5 136t-13.5 140q0 178 53.5 339t155 280.5t249.5 190.5t339 71q238 0 389 -117l156 143l153 -162l-168 -155q23 -53 36.5 -112.5t13.5 -127.5q0 -178 -50.5 -340t-151 -284.5t-252 -194.5t-353.5 -72q-121 0 -210 26t-155 71l-149 -140z M637 532q0 -41 7.5 -76.5t25.5 -64.5q18 -27 49 -43t76 -16q82 0 141 53t96 131t54.5 164t17.5 151q0 39 -8.5 76t-26.5 64.5t-49 44t-76 16.5q-84 0 -142.5 -53t-95 -130t-53 -164t-16.5 -153z" />
<glyph unicode="&#xd9;" horiz-adv-x="1421" d="M193 395q0 68 14 137l176 834h440l-174 -821q-8 -33 -8 -70q0 -59 34 -97t107 -38q86 0 139.5 44t75.5 144l179 838h440l-182 -858q-53 -256 -228.5 -396.5t-478.5 -140.5q-268 0 -401 116t-133 308zM727 1702l196 234l377 -330l-149 -166z" />
<glyph unicode="&#xda;" horiz-adv-x="1421" d="M193 395q0 68 14 137l176 834h440l-174 -821q-8 -33 -8 -70q0 -59 34 -97t107 -38q86 0 139.5 44t75.5 144l179 838h440l-182 -858q-53 -256 -228.5 -396.5t-478.5 -140.5q-268 0 -401 116t-133 308zM793 1606l389 327l180 -223l-420 -270z" />
<glyph unicode="&#xdb;" horiz-adv-x="1421" d="M193 395q0 68 14 137l176 834h440l-174 -821q-8 -33 -8 -70q0 -59 34 -97t107 -38q86 0 139.5 44t75.5 144l179 838h440l-182 -858q-53 -256 -228.5 -396.5t-478.5 -140.5q-268 0 -401 116t-133 308zM678 1604l289 203h262l205 -211l-131 -156l-240 145l-276 -145z" />
<glyph unicode="&#xdc;" horiz-adv-x="1421" d="M193 395q0 68 14 137l176 834h440l-174 -821q-8 -33 -8 -70q0 -59 34 -97t107 -38q86 0 139.5 44t75.5 144l179 838h440l-182 -858q-53 -256 -228.5 -396.5t-478.5 -140.5q-268 0 -401 116t-133 308zM602 1598q0 47 21.5 83.5t56.5 61.5t78 37t86 12q70 0 121 -36t51 -95 q0 -49 -21.5 -86t-55.5 -61.5t-76 -37t-85 -12.5q-31 0 -62 7.5t-56 23.5t-41.5 41t-16.5 62zM1092 1598q0 47 21.5 83.5t56 61.5t77.5 37t86 12q70 0 121.5 -36t51.5 -95q0 -49 -22 -86t-55.5 -61.5t-75.5 -37t-85 -12.5q-31 0 -62.5 7.5t-56.5 23.5t-41 41t-16 62z" />
<glyph unicode="&#xdd;" horiz-adv-x="1404" d="M266 1366h494l135 -430l311 430h506l-680 -846l-110 -520h-441l111 518zM807 1606l389 327l180 -223l-420 -270z" />
<glyph unicode="&#xde;" horiz-adv-x="1247" d="M102 0l291 1366h416l-35 -178h154q96 0 180 -20.5t145.5 -66.5t97 -119t35.5 -177q0 -147 -53 -256t-144 -178.5t-211 -103.5t-253 -34h-143l-45 -233h-435zM655 584h129q66 0 111 42t45 105q0 53 -28.5 78t-73.5 25h-129z" />
<glyph unicode="&#xdf;" horiz-adv-x="1472" d="M150 0l153 723h-137l61 287h138q63 207 207.5 295t359.5 88q227 0 337.5 -92.5t110.5 -258.5q0 -14 -3 -35.5l-6 -43t-7 -41t-6 -29.5l-25 -98q100 -49 152.5 -140.5t52.5 -203.5q0 -100 -32.5 -186.5t-95 -150t-153 -99t-204.5 -35.5q-221 0 -344 104l143 258 q18 -16 53 -34.5t88 -18.5q57 0 100.5 38t43.5 101q0 49 -23.5 85t-60.5 60.5t-80 37t-80 16.5l80 372q2 10 3 23.5t1 24.5q0 29 -20.5 49t-55.5 20q-49 0 -71.5 -29.5t-32.5 -74.5l-215 -1012h-432z" />
<glyph unicode="&#xe0;" horiz-adv-x="1091" d="M80 252q0 121 61.5 193.5t155.5 111.5t209 51.5t219 12.5q4 10 6 22t2 23q0 47 -32.5 64.5t-73.5 17.5q-45 0 -98.5 -16.5t-98.5 -45.5l-162 203q94 66 209 104.5t283 38.5q88 0 160.5 -19.5t125 -58.5t81 -99t28.5 -140q0 -29 -4 -57.5t-8 -51.5l-129 -606h-346l-25 80 q-59 -45 -126.5 -68.5t-166.5 -23.5q-129 0 -199.5 73.5t-70.5 190.5zM467 1368l196 234l377 -330l-149 -166zM489 317q0 -33 23 -50t53 -17q41 0 86 22l37 172q-33 0 -67.5 -4t-64.5 -17t-48.5 -38t-18.5 -68z" />
<glyph unicode="&#xe1;" horiz-adv-x="1091" d="M80 252q0 121 61.5 193.5t155.5 111.5t209 51.5t219 12.5q4 10 6 22t2 23q0 47 -32.5 64.5t-73.5 17.5q-45 0 -98.5 -16.5t-98.5 -45.5l-162 203q94 66 209 104.5t283 38.5q88 0 160.5 -19.5t125 -58.5t81 -99t28.5 -140q0 -29 -4 -57.5t-8 -51.5l-129 -606h-346l-25 80 q-59 -45 -126.5 -68.5t-166.5 -23.5q-129 0 -199.5 73.5t-70.5 190.5zM489 317q0 -33 23 -50t53 -17q41 0 86 22l37 172q-33 0 -67.5 -4t-64.5 -17t-48.5 -38t-18.5 -68zM570 1272l389 327l180 -223l-420 -270z" />
<glyph unicode="&#xe2;" horiz-adv-x="1091" d="M80 252q0 121 61.5 193.5t155.5 111.5t209 51.5t219 12.5q4 10 6 22t2 23q0 47 -32.5 64.5t-73.5 17.5q-45 0 -98.5 -16.5t-98.5 -45.5l-162 203q94 66 209 104.5t283 38.5q88 0 160.5 -19.5t125 -58.5t81 -99t28.5 -140q0 -29 -4 -57.5t-8 -51.5l-129 -606h-346l-25 80 q-59 -45 -126.5 -68.5t-166.5 -23.5q-129 0 -199.5 73.5t-70.5 190.5zM407 1270l289 203h262l205 -211l-131 -156l-240 145l-276 -145zM489 317q0 -33 23 -50t53 -17q41 0 86 22l37 172q-33 0 -67.5 -4t-64.5 -17t-48.5 -38t-18.5 -68z" />
<glyph unicode="&#xe3;" horiz-adv-x="1091" d="M80 252q0 121 61.5 193.5t155.5 111.5t209 51.5t219 12.5q4 10 6 22t2 23q0 47 -32.5 64.5t-73.5 17.5q-45 0 -98.5 -16.5t-98.5 -45.5l-162 203q94 66 209 104.5t283 38.5q88 0 160.5 -19.5t125 -58.5t81 -99t28.5 -140q0 -29 -4 -57.5t-8 -51.5l-129 -606h-346l-25 80 q-59 -45 -126.5 -68.5t-166.5 -23.5q-129 0 -199.5 73.5t-70.5 190.5zM370 1231q45 117 130 184.5t177 67.5q39 0 73 -13.5t65.5 -30t61.5 -29.5t61 -13q49 0 79.5 25.5t53.5 66.5l166 -80q-45 -115 -121 -190.5t-191 -75.5q-43 0 -78.5 13t-68.5 29.5t-63.5 30t-61.5 13.5 q-43 0 -70.5 -22.5t-62.5 -76.5zM489 317q0 -33 23 -50t53 -17q41 0 86 22l37 172q-33 0 -67.5 -4t-64.5 -17t-48.5 -38t-18.5 -68z" />
<glyph unicode="&#xe4;" horiz-adv-x="1091" d="M80 252q0 121 61.5 193.5t155.5 111.5t209 51.5t219 12.5q4 10 6 22t2 23q0 47 -32.5 64.5t-73.5 17.5q-45 0 -98.5 -16.5t-98.5 -45.5l-162 203q94 66 209 104.5t283 38.5q88 0 160.5 -19.5t125 -58.5t81 -99t28.5 -140q0 -29 -4 -57.5t-8 -51.5l-129 -606h-346l-25 80 q-59 -45 -126.5 -68.5t-166.5 -23.5q-129 0 -199.5 73.5t-70.5 190.5zM364 1264q0 47 21.5 83.5t56.5 61.5t78 37t86 12q70 0 121 -36t51 -95q0 -49 -21.5 -86t-55.5 -61.5t-76 -37t-85 -12.5q-31 0 -62 7.5t-56 23.5t-41.5 41t-16.5 62zM489 317q0 -33 23 -50t53 -17 q41 0 86 22l37 172q-33 0 -67.5 -4t-64.5 -17t-48.5 -38t-18.5 -68zM854 1264q0 47 21.5 83.5t56 61.5t77.5 37t86 12q70 0 121.5 -36t51.5 -95q0 -49 -22 -86t-55.5 -61.5t-75.5 -37t-85 -12.5q-31 0 -62.5 7.5t-56.5 23.5t-41 41t-16 62z" />
<glyph unicode="&#xe5;" horiz-adv-x="1091" d="M80 252q0 121 61.5 193.5t155.5 111.5t209 51.5t219 12.5q4 10 6 22t2 23q0 47 -32.5 64.5t-73.5 17.5q-45 0 -98.5 -16.5t-98.5 -45.5l-162 203q94 66 209 104.5t283 38.5q88 0 160.5 -19.5t125 -58.5t81 -99t28.5 -140q0 -29 -4 -57.5t-8 -51.5l-129 -606h-346l-25 80 q-59 -45 -126.5 -68.5t-166.5 -23.5q-129 0 -199.5 73.5t-70.5 190.5zM489 317q0 -33 23 -50t53 -17q41 0 86 22l37 172q-33 0 -67.5 -4t-64.5 -17t-48.5 -38t-18.5 -68zM543 1327q0 70 25.5 125t70.5 94t104.5 58.5t126.5 19.5q51 0 97.5 -13.5t81 -42t55 -71.5t20.5 -102 q0 -72 -25.5 -126.5t-70.5 -92t-104.5 -57t-126.5 -19.5q-49 0 -95.5 13t-81.5 40q-35 29 -56 72t-21 102zM727 1341q0 -39 25.5 -59t62.5 -20q53 0 89 34.5t36 89.5q0 39 -25.5 58.5t-60.5 19.5q-53 0 -90 -35t-37 -88z" />
<glyph unicode="&#xe6;" horiz-adv-x="1691" d="M76 266q0 104 51 172t139 107t205 55t250 21q4 10 6 22t2 23q0 37 -29.5 59.5t-83.5 22.5q-57 0 -114.5 -18.5t-95.5 -43.5l-146 211q94 72 212 103.5t226 31.5q129 0 203 -31.5t109 -80.5q45 43 124.5 77.5t215.5 34.5q193 0 303 -100.5t110 -286.5q0 -51 -7 -105.5 t-17 -107.5h-621q-2 -8 -2 -22q0 -61 43 -95t103 -34q53 0 90 16t78 49l202 -194q-39 -37 -81 -69t-91 -55.5t-109.5 -35.5t-136.5 -12q-145 0 -226 39.5t-130 97.5q-94 -70 -192.5 -99.5t-235.5 -29.5q-72 0 -135.5 15t-112.5 49t-77.5 86t-28.5 128zM489 322q0 -72 72 -72 q45 0 86 22l37 172q-37 0 -73 -7t-62.5 -20.5t-43 -37t-16.5 -57.5zM1153 631h246q2 10 2 25.5v25.5q0 45 -26.5 72.5t-80.5 27.5q-59 0 -94 -45t-47 -106z" />
<glyph unicode="&#xe7;" horiz-adv-x="1122" d="M139 401q0 139 45 256t128 200t200 129t258 46q186 0 310 -72.5t161 -242.5l-367 -115q-4 20 -12 43t-21.5 41.5t-34 29.5t-46.5 11q-41 0 -75 -24.5t-60.5 -65.5t-41 -98.5t-14.5 -120.5q0 -66 29 -102.5t72 -36.5q61 0 108 39.5t76 109.5l324 -152q-104 -162 -247 -229 t-335 -67q-102 0 -187 27.5t-144.5 81.5t-92.5 132t-33 180zM262 -422l139 305h332l-182 -305h-289z" />
<glyph unicode="&#xe8;" horiz-adv-x="1136" d="M139 401q0 137 46 254t130 200t200 130t255 47q98 0 178 -24.5t138.5 -73.5t90 -123t31.5 -174q0 -53 -7 -109.5t-17 -95.5h-631q-2 -10 -2 -29q0 -63 43 -92.5t100 -29.5q53 0 98.5 15t84.5 50l210 -194q-45 -45 -93 -77t-104 -53.5t-125 -31.5t-155 -10 q-100 0 -186 26.5t-149.5 79.5t-99.5 132t-36 183zM496 1368l196 234l377 -330l-149 -166zM590 631h250q2 10 3 21.5t1 21.5q0 43 -23.5 75.5t-70.5 32.5q-63 0 -104.5 -48t-55.5 -103z" />
<glyph unicode="&#xe9;" horiz-adv-x="1136" d="M139 401q0 137 46 254t130 200t200 130t255 47q98 0 178 -24.5t138.5 -73.5t90 -123t31.5 -174q0 -53 -7 -109.5t-17 -95.5h-631q-2 -10 -2 -29q0 -63 43 -92.5t100 -29.5q53 0 98.5 15t84.5 50l210 -194q-45 -45 -93 -77t-104 -53.5t-125 -31.5t-155 -10 q-100 0 -186 26.5t-149.5 79.5t-99.5 132t-36 183zM584 1272l389 327l180 -223l-420 -270zM590 631h250q2 10 3 21.5t1 21.5q0 43 -23.5 75.5t-70.5 32.5q-63 0 -104.5 -48t-55.5 -103z" />
<glyph unicode="&#xea;" horiz-adv-x="1136" d="M139 401q0 137 46 254t130 200t200 130t255 47q98 0 178 -24.5t138.5 -73.5t90 -123t31.5 -174q0 -53 -7 -109.5t-17 -95.5h-631q-2 -10 -2 -29q0 -63 43 -92.5t100 -29.5q53 0 98.5 15t84.5 50l210 -194q-45 -45 -93 -77t-104 -53.5t-125 -31.5t-155 -10 q-100 0 -186 26.5t-149.5 79.5t-99.5 132t-36 183zM469 1270l289 203h262l205 -211l-131 -156l-240 145l-276 -145zM590 631h250q2 10 3 21.5t1 21.5q0 43 -23.5 75.5t-70.5 32.5q-63 0 -104.5 -48t-55.5 -103z" />
<glyph unicode="&#xeb;" horiz-adv-x="1136" d="M139 401q0 137 46 254t130 200t200 130t255 47q98 0 178 -24.5t138.5 -73.5t90 -123t31.5 -174q0 -53 -7 -109.5t-17 -95.5h-631q-2 -10 -2 -29q0 -63 43 -92.5t100 -29.5q53 0 98.5 15t84.5 50l210 -194q-45 -45 -93 -77t-104 -53.5t-125 -31.5t-155 -10 q-100 0 -186 26.5t-149.5 79.5t-99.5 132t-36 183zM409 1264q0 47 21.5 83.5t56.5 61.5t78 37t86 12q70 0 121 -36t51 -95q0 -49 -21.5 -86t-55.5 -61.5t-76 -37t-85 -12.5q-31 0 -62 7.5t-56 23.5t-41.5 41t-16.5 62zM590 631h250q2 10 3 21.5t1 21.5q0 43 -23.5 75.5 t-70.5 32.5q-63 0 -104.5 -48t-55.5 -103zM899 1264q0 47 21.5 83.5t56 61.5t77.5 37t86 12q70 0 121.5 -36t51.5 -95q0 -49 -22 -86t-55.5 -61.5t-75.5 -37t-85 -12.5q-31 0 -62.5 7.5t-56.5 23.5t-41 41t-16 62z" />
<glyph unicode="&#xec;" horiz-adv-x="593" d="M82 0l213 1010h430l-213 -1010h-430zM266 1368l196 234l377 -330l-149 -166z" />
<glyph unicode="&#xed;" horiz-adv-x="593" d="M82 0l213 1010h430l-213 -1010h-430zM359 1272l389 327l180 -223l-420 -270z" />
<glyph unicode="&#xee;" horiz-adv-x="593" d="M82 0l213 1010h430l-213 -1010h-430zM192 1270l289 203h262l205 -211l-131 -156l-240 145l-276 -145z" />
<glyph unicode="&#xef;" horiz-adv-x="593" d="M82 0l213 1010h430l-213 -1010h-430zM120 1264q0 47 21.5 83.5t56.5 61.5t78 37t86 12q70 0 121 -36t51 -95q0 -49 -21.5 -86t-55.5 -61.5t-76 -37t-85 -12.5q-31 0 -62 7.5t-56 23.5t-41.5 41t-16.5 62zM610 1264q0 47 21.5 83.5t56 61.5t77.5 37t86 12q70 0 121.5 -36 t51.5 -95q0 -49 -22 -86t-55.5 -61.5t-75.5 -37t-85 -12.5q-31 0 -62.5 7.5t-56.5 23.5t-41 41t-16 62z" />
<glyph unicode="&#xf0;" horiz-adv-x="1183" d="M141 379q0 150 55.5 260.5t146.5 185t211 115.5t249 51q-20 35 -56 62.5t-79 48t-89.5 35t-82.5 22.5l129 289q33 -4 76.5 -15.5t88 -27.5t85 -34.5t69.5 -37.5l133 117l183 -162l-123 -112q70 -92 102.5 -207t32.5 -232q0 -158 -40 -296t-123 -240.5t-209 -161.5 t-298 -59q-106 0 -191 28.5t-145.5 81.5t-92.5 126t-32 163zM567 410q0 -20 4 -44t13.5 -43.5t27 -31.5t41.5 -12q57 0 93 45t56.5 107.5t28 129t7.5 107.5v20t-2 21q-139 -10 -204 -87t-65 -212z" />
<glyph unicode="&#xf1;" horiz-adv-x="1222" d="M14 0l215 1010h369l2 -90q66 53 137 82.5t155 29.5q66 0 126.5 -15.5t107.5 -47t75.5 -82.5t28.5 -123q0 -25 -4 -49.5t-8 -48.5l-141 -666h-432l129 610q6 20 6 43q0 70 -84 70q-31 0 -59.5 -14.5t-45.5 -24.5l-145 -684h-432zM454 1231q45 117 130 184.5t177 67.5 q39 0 73 -13.5t65.5 -30t61.5 -29.5t61 -13q49 0 79.5 25.5t53.5 66.5l166 -80q-45 -115 -121 -190.5t-191 -75.5q-43 0 -78.5 13t-68.5 29.5t-63.5 30t-61.5 13.5q-43 0 -70.5 -22.5t-62.5 -76.5z" />
<glyph unicode="&#xf2;" horiz-adv-x="1196" d="M137 418q0 135 49.5 247.5t136.5 193.5t206.5 127t258.5 46q94 0 180.5 -27.5t151 -82t102.5 -136t38 -192.5q0 -135 -49.5 -248t-137.5 -193.5t-206.5 -126.5t-260.5 -46q-94 0 -179 27.5t-151 80.5q-63 55 -101 137t-38 193zM553 1368l196 234l377 -330l-149 -166z M565 410q0 -129 84 -129q39 0 72 26.5t57.5 71.5t38.5 102.5t14 118.5q0 129 -83 129q-39 0 -72 -26.5t-57.5 -71.5t-39 -102.5t-14.5 -118.5z" />
<glyph unicode="&#xf3;" horiz-adv-x="1196" d="M137 418q0 135 49.5 247.5t136.5 193.5t206.5 127t258.5 46q94 0 180.5 -27.5t151 -82t102.5 -136t38 -192.5q0 -135 -49.5 -248t-137.5 -193.5t-206.5 -126.5t-260.5 -46q-94 0 -179 27.5t-151 80.5q-63 55 -101 137t-38 193zM565 410q0 -129 84 -129q39 0 72 26.5 t57.5 71.5t38.5 102.5t14 118.5q0 129 -83 129q-39 0 -72 -26.5t-57.5 -71.5t-39 -102.5t-14.5 -118.5zM615 1272l389 327l180 -223l-420 -270z" />
<glyph unicode="&#xf4;" horiz-adv-x="1196" d="M137 418q0 135 49.5 247.5t136.5 193.5t206.5 127t258.5 46q94 0 180.5 -27.5t151 -82t102.5 -136t38 -192.5q0 -135 -49.5 -248t-137.5 -193.5t-206.5 -126.5t-260.5 -46q-94 0 -179 27.5t-151 80.5q-63 55 -101 137t-38 193zM450 1270l289 203h262l205 -211l-131 -156 l-240 145l-276 -145zM565 410q0 -129 84 -129q39 0 72 26.5t57.5 71.5t38.5 102.5t14 118.5q0 129 -83 129q-39 0 -72 -26.5t-57.5 -71.5t-39 -102.5t-14.5 -118.5z" />
<glyph unicode="&#xf5;" horiz-adv-x="1196" d="M137 418q0 135 49.5 247.5t136.5 193.5t206.5 127t258.5 46q94 0 180.5 -27.5t151 -82t102.5 -136t38 -192.5q0 -135 -49.5 -248t-137.5 -193.5t-206.5 -126.5t-260.5 -46q-94 0 -179 27.5t-151 80.5q-63 55 -101 137t-38 193zM407 1231q45 117 130 184.5t177 67.5 q39 0 73 -13.5t65.5 -30t61.5 -29.5t61 -13q49 0 79.5 25.5t53.5 66.5l166 -80q-45 -115 -121 -190.5t-191 -75.5q-43 0 -78.5 13t-68.5 29.5t-63.5 30t-61.5 13.5q-43 0 -70.5 -22.5t-62.5 -76.5zM565 410q0 -129 84 -129q39 0 72 26.5t57.5 71.5t38.5 102.5t14 118.5 q0 129 -83 129q-39 0 -72 -26.5t-57.5 -71.5t-39 -102.5t-14.5 -118.5z" />
<glyph unicode="&#xf6;" horiz-adv-x="1196" d="M137 418q0 135 49.5 247.5t136.5 193.5t206.5 127t258.5 46q94 0 180.5 -27.5t151 -82t102.5 -136t38 -192.5q0 -135 -49.5 -248t-137.5 -193.5t-206.5 -126.5t-260.5 -46q-94 0 -179 27.5t-151 80.5q-63 55 -101 137t-38 193zM422 1264q0 47 21.5 83.5t56.5 61.5t78 37 t86 12q70 0 121 -36t51 -95q0 -49 -21.5 -86t-55.5 -61.5t-76 -37t-85 -12.5q-31 0 -62 7.5t-56 23.5t-41.5 41t-16.5 62zM565 410q0 -129 84 -129q39 0 72 26.5t57.5 71.5t38.5 102.5t14 118.5q0 129 -83 129q-39 0 -72 -26.5t-57.5 -71.5t-39 -102.5t-14.5 -118.5z M912 1264q0 47 21.5 83.5t56 61.5t77.5 37t86 12q70 0 121.5 -36t51.5 -95q0 -49 -22 -86t-55.5 -61.5t-75.5 -37t-85 -12.5q-31 0 -62.5 7.5t-56.5 23.5t-41 41t-16 62z" />
<glyph unicode="&#xf7;" d="M231 516v328h1053v-328h-1053zM571 262q0 76 53.5 127t133.5 51t133 -51t53 -127q0 -78 -53 -128t-133 -50t-133 49q-53 51 -54 129zM571 1098q0 78 53.5 128t133.5 50t133 -50t53 -128q0 -76 -53 -127t-133 -51t-133 51t-54 127z" />
<glyph unicode="&#xf8;" horiz-adv-x="1196" d="M135 -23l121 136q-53 53 -84 129.5t-31 175.5q0 135 49.5 247.5t137.5 193.5t206.5 127t260.5 46q123 0 221 -43l125 141l121 -96l-115 -131q53 -55 85 -132t32 -177q0 -135 -49.5 -248t-136.5 -193.5t-206.5 -126.5t-259.5 -46q-61 0 -118.5 11t-108.5 34l-129 -144z M571 410q0 -129 82 -129q39 0 73 26.5t58.5 71.5t38 102.5t13.5 118.5q0 129 -84 129q-39 0 -72 -26.5t-57.5 -71.5t-38 -102.5t-13.5 -118.5z" />
<glyph unicode="&#xf9;" horiz-adv-x="1222" d="M137 246q0 25 3 49t7 49l144 666h432l-131 -611q-2 -10 -3 -27.5t-1 -27.5q0 -20 19.5 -38.5t54.5 -18.5q33 0 60.5 11t53.5 28l146 684h432l-215 -1010h-369l-4 90q-66 -53 -143.5 -83t-163.5 -30q-66 0 -124.5 13.5t-102.5 44.5t-69.5 82t-25.5 129zM561 1368l196 234 l377 -330l-149 -166z" />
<glyph unicode="&#xfa;" horiz-adv-x="1222" d="M137 246q0 25 3 49t7 49l144 666h432l-131 -611q-2 -10 -3 -27.5t-1 -27.5q0 -20 19.5 -38.5t54.5 -18.5q33 0 60.5 11t53.5 28l146 684h432l-215 -1010h-369l-4 90q-66 -53 -143.5 -83t-163.5 -30q-66 0 -124.5 13.5t-102.5 44.5t-69.5 82t-25.5 129zM658 1272l389 327 l180 -223l-420 -270z" />
<glyph unicode="&#xfb;" horiz-adv-x="1222" d="M137 246q0 25 3 49t7 49l144 666h432l-131 -611q-2 -10 -3 -27.5t-1 -27.5q0 -20 19.5 -38.5t54.5 -18.5q33 0 60.5 11t53.5 28l146 684h432l-215 -1010h-369l-4 90q-66 -53 -143.5 -83t-163.5 -30q-66 0 -124.5 13.5t-102.5 44.5t-69.5 82t-25.5 129zM501 1270l289 203 h262l205 -211l-131 -156l-240 145l-276 -145z" />
<glyph unicode="&#xfc;" horiz-adv-x="1222" d="M137 246q0 25 3 49t7 49l144 666h432l-131 -611q-2 -10 -3 -27.5t-1 -27.5q0 -20 19.5 -38.5t54.5 -18.5q33 0 60.5 11t53.5 28l146 684h432l-215 -1010h-369l-4 90q-66 -53 -143.5 -83t-163.5 -30q-66 0 -124.5 13.5t-102.5 44.5t-69.5 82t-25.5 129zM426 1264 q0 47 21.5 83.5t56.5 61.5t78 37t86 12q70 0 121 -36t51 -95q0 -49 -21.5 -86t-55.5 -61.5t-76 -37t-85 -12.5q-31 0 -62 7.5t-56 23.5t-41.5 41t-16.5 62zM916 1264q0 47 21.5 83.5t56 61.5t77.5 37t86 12q70 0 121.5 -36t51.5 -95q0 -49 -22 -86t-55.5 -61.5t-75.5 -37 t-85 -12.5q-31 0 -62.5 7.5t-56.5 23.5t-41 41t-16 62z" />
<glyph unicode="&#xfd;" horiz-adv-x="1214" d="M-16 -348l127 264q31 -14 66.5 -23.5t70.5 -9.5q47 0 78.5 24.5t54.5 59.5l47 78l-231 965h462l50 -510l270 510h465l-733 -1155q-80 -125 -175.5 -197t-234.5 -72q-92 0 -175 15.5t-142 50.5zM643 1272l389 327l180 -223l-420 -270z" />
<glyph unicode="&#xfe;" horiz-adv-x="1208" d="M-2 -387l373 1753h409l-80 -410q8 8 29 21.5t50.5 26t64.5 20.5t74 8q92 0 160.5 -30.5t113.5 -85t66.5 -126t21.5 -153.5q0 -111 -31.5 -227.5t-99.5 -213t-173.5 -158t-252.5 -61.5q-45 0 -105.5 8.5t-103.5 24.5l-84 -397h-432zM575 303q12 -10 37 -15t47 -5 q55 0 92 32.5t58.5 79.5t31 100.5t9.5 94.5q0 61 -24.5 103t-82.5 42q-25 0 -45 -10t-36 -20z" />
<glyph unicode="&#xff;" horiz-adv-x="1214" d="M-16 -348l127 264q31 -14 66.5 -23.5t70.5 -9.5q47 0 78.5 24.5t54.5 59.5l47 78l-231 965h462l50 -510l270 510h465l-733 -1155q-80 -125 -175.5 -197t-234.5 -72q-92 0 -175 15.5t-142 50.5zM422 1264q0 47 21.5 83.5t56.5 61.5t78 37t86 12q70 0 121 -36t51 -95 q0 -49 -21.5 -86t-55.5 -61.5t-76 -37t-85 -12.5q-31 0 -62 7.5t-56 23.5t-41.5 41t-16.5 62zM912 1264q0 47 21.5 83.5t56 61.5t77.5 37t86 12q70 0 121.5 -36t51.5 -95q0 -49 -22 -86t-55.5 -61.5t-75.5 -37t-85 -12.5q-31 0 -62.5 7.5t-56.5 23.5t-41 41t-16 62z" />
<glyph unicode="&#x152;" horiz-adv-x="2017" d="M203 610q0 180 67.5 321.5t189.5 238t292 147.5t374 51h1094l-80 -371h-545l-32 -151h436l-68 -326h-436l-33 -149h586l-78 -371h-1104q-129 0 -248.5 33t-212 105.5t-147.5 189t-55 282.5zM662 629q0 -43 11 -91.5t39.5 -87t81 -64.5t132.5 -26h94l137 648h-108 q-82 0 -153 -28t-123 -78t-81.5 -119.5t-29.5 -153.5z" />
<glyph unicode="&#x153;" horiz-adv-x="1742" d="M152 406q0 139 44 253.5t124.5 197.5t195.5 129t254 46q109 0 182.5 -32.5t118.5 -88.5q18 20 49 42t71 39.5t88 28.5t103 11q205 0 320 -102.5t115 -292.5q0 -53 -7.5 -102.5t-17.5 -102.5h-616q-2 -8 -2 -22q0 -55 39.5 -92t95.5 -37q57 0 98 16t78 49l198 -194 q-90 -92 -189 -132t-234 -40q-117 0 -189 27.5t-129 80.5q-35 -29 -70.5 -49.5t-77.5 -33.5t-90.5 -19t-109.5 -6q-94 0 -175 29.5t-140.5 85t-93 134t-33.5 177.5zM580 391q0 -113 77 -112q35 0 66 26.5t53.5 71.5t35.5 103.5t13 121.5q0 113 -77 113q-35 0 -66 -26.5 t-53.5 -72t-35.5 -104t-13 -121.5zM1208 631h244q2 10 2 20.5v20.5q0 49 -23.5 79.5t-72.5 30.5q-61 0 -97 -45t-53 -106z" />
<glyph unicode="&#x178;" horiz-adv-x="1404" d="M266 1366h494l135 -430l311 430h506l-680 -846l-110 -520h-441l111 518zM587 1598q0 47 21.5 83.5t56.5 61.5t78 37t86 12q70 0 121 -36t51 -95q0 -49 -21.5 -86t-55.5 -61.5t-76 -37t-85 -12.5q-31 0 -62 7.5t-56 23.5t-41.5 41t-16.5 62zM1077 1598q0 47 21.5 83.5 t56 61.5t77.5 37t86 12q70 0 121.5 -36t51.5 -95q0 -49 -22 -86t-55.5 -61.5t-75.5 -37t-85 -12.5q-31 0 -62.5 7.5t-56.5 23.5t-41 41t-16 62z" />
<glyph unicode="&#x2c6;" horiz-adv-x="761" d="M270 1270l289 203h262l205 -211l-131 -156l-240 145l-276 -145z" />
<glyph unicode="&#x2dc;" horiz-adv-x="841" d="M268 1231q45 117 130 184.5t177 67.5q39 0 73 -13.5t65.5 -30t61.5 -29.5t61 -13q49 0 79.5 25.5t53.5 66.5l166 -80q-45 -115 -121 -190.5t-191 -75.5q-43 0 -78.5 13t-68.5 29.5t-63.5 30t-61.5 13.5q-43 0 -70.5 -22.5t-62.5 -76.5z" />
<glyph unicode="&#x2000;" horiz-adv-x="968" />
<glyph unicode="&#x2001;" horiz-adv-x="1936" />
<glyph unicode="&#x2002;" horiz-adv-x="968" />
<glyph unicode="&#x2003;" horiz-adv-x="1936" />
<glyph unicode="&#x2004;" horiz-adv-x="645" />
<glyph unicode="&#x2005;" horiz-adv-x="484" />
<glyph unicode="&#x2006;" horiz-adv-x="322" />
<glyph unicode="&#x2007;" horiz-adv-x="322" />
<glyph unicode="&#x2008;" horiz-adv-x="242" />
<glyph unicode="&#x2009;" horiz-adv-x="387" />
<glyph unicode="&#x200a;" horiz-adv-x="107" />
<glyph unicode="&#x2010;" horiz-adv-x="675" d="M123 412l70 325h602l-70 -325h-602z" />
<glyph unicode="&#x2011;" horiz-adv-x="675" d="M123 412l70 325h602l-70 -325h-602z" />
<glyph unicode="&#x2012;" horiz-adv-x="675" d="M123 412l70 325h602l-70 -325h-602z" />
<glyph unicode="&#x2013;" horiz-adv-x="1024" d="M84 387l59 279h1024l-59 -279h-1024z" />
<glyph unicode="&#x2014;" horiz-adv-x="2048" d="M84 387l59 279h2048l-59 -279h-2048z" />
<glyph unicode="&#x2018;" horiz-adv-x="530" d="M285 1128q0 106 60.5 173t182.5 67q49 0 84 -15.5t56.5 -38t32 -52t10.5 -56.5q0 -37 -16.5 -67.5t-41 -53t-54.5 -39t-56 -22.5q18 -29 65 -64.5t109 -60.5l-78 -149q-63 23 -126.5 57.5t-114 81.5t-82 107.5t-31.5 131.5z" />
<glyph unicode="&#x2019;" horiz-adv-x="530" d="M207 891q53 16 112.5 46t88.5 62q-45 23 -74 64t-29 94q0 49 18.5 88t51.5 66.5t76 42t92 14.5q92 0 143 -51t51 -141q0 -86 -49 -157t-121.5 -124t-155.5 -90t-149 -55z" />
<glyph unicode="&#x201a;" horiz-adv-x="530" d="M-8 -131q53 16 112.5 46t88.5 62q-45 23 -74 64t-29 94q0 49 18.5 88t51.5 66.5t76 42t92 14.5q92 0 143 -51t51 -141q0 -86 -49 -157t-121.5 -124t-155.5 -90t-149 -55z" />
<glyph unicode="&#x201c;" horiz-adv-x="1040" d="M287 1128q0 106 60.5 173t182.5 67q49 0 84 -15.5t56.5 -38t32 -52t10.5 -56.5q0 -37 -16.5 -67.5t-41 -53t-54.5 -39t-56 -22.5q18 -29 65 -64.5t109 -60.5l-78 -149q-63 23 -126.5 57.5t-114 81.5t-82 107.5t-31.5 131.5zM799 1128q0 106 60.5 173t182.5 67 q49 0 84 -15.5t56.5 -38t32 -52t10.5 -56.5q0 -37 -16.5 -67.5t-41 -53t-54.5 -39t-56 -22.5q18 -29 65 -64.5t109 -60.5l-78 -149q-63 23 -126.5 57.5t-114 81.5t-82 107.5t-31.5 131.5z" />
<glyph unicode="&#x201d;" horiz-adv-x="1040" d="M207 891q53 16 112.5 46t88.5 62q-45 23 -74 64t-29 94q0 49 18.5 88t51.5 66.5t76 42t92 14.5q92 0 143 -51t51 -141q0 -86 -49 -157t-121.5 -124t-155.5 -90t-149 -55zM719 891q53 16 112.5 46t88.5 62q-45 23 -74 64t-29 94q0 49 18.5 88t51.5 66.5t76 42t92 14.5 q92 0 143 -51t51 -141q0 -86 -49 -157t-121.5 -124t-155.5 -90t-149 -55z" />
<glyph unicode="&#x201e;" horiz-adv-x="1040" d="M-6 -131q53 16 112.5 46t88.5 62q-45 23 -74 64t-29 94q0 49 18.5 88t51.5 66.5t76 42t92 14.5q92 0 143 -51t51 -141q0 -86 -49 -157t-121.5 -124t-155.5 -90t-149 -55zM512 -131q27 8 56.5 20.5t57 26.5t51 29.5t38.5 31.5q-45 23 -75 64t-30 94q0 49 19.5 88 t51.5 66.5t76 42t93 14.5q92 0 142 -51t50 -141q0 -86 -49 -157t-121.5 -124t-154.5 -90t-150 -55z" />
<glyph unicode="&#x2022;" horiz-adv-x="1052" d="M266 788q0 86 34 163t91.5 134.5t135 91t163.5 33.5t164 -33.5t135.5 -91t91 -134.5t33.5 -163t-33.5 -162.5t-91 -134t-135.5 -91t-164 -33.5q-86 -1 -164 32q-78 35 -135 92.5t-91 134t-34 162.5z" />
<glyph unicode="&#x2026;" horiz-adv-x="1708" d="M78 133q0 51 20.5 91t54 67.5t77.5 42t94 14.5q33 0 66.5 -9t61 -28.5t44 -48.5t16.5 -67q0 -51 -20.5 -91.5t-55.5 -68t-80 -41.5t-94 -14q-35 0 -67.5 9t-59.5 27q-25 20 -41 49t-16 68zM668 133q0 51 20.5 91t54 67.5t77.5 42t93 14.5q33 0 67 -9t61.5 -28.5t44 -48.5 t16.5 -67q0 -51 -20.5 -91.5t-55.5 -68t-80 -41.5t-94 -14q-35 0 -67.5 9t-59.5 27q-25 20 -41 49t-16 68zM1257 133q0 51 20.5 91t54.5 67.5t78 42t93 14.5q33 0 67 -9t61.5 -28.5t44 -48.5t16.5 -67q0 -51 -20.5 -91.5t-55.5 -68t-80 -41.5t-94 -14q-35 0 -67.5 9 t-59.5 27q-25 20 -41.5 49t-16.5 68z" />
<glyph unicode="&#x202f;" horiz-adv-x="387" />
<glyph unicode="&#x2039;" horiz-adv-x="653" d="M119 512l409 477l226 -207l-250 -288l145 -279l-293 -164z" />
<glyph unicode="&#x203a;" horiz-adv-x="653" d="M119 258l250 289l-146 278l293 164l238 -461l-410 -477z" />
<glyph unicode="&#x205f;" horiz-adv-x="484" />
<glyph unicode="&#x20ac;" horiz-adv-x="1259" d="M162 530l65 306h111q29 98 85 195t139 175t193.5 126t250.5 48q205 0 320.5 -93t150.5 -255l-361 -80q-39 100 -129 101q-31 0 -61.5 -17.5t-56 -46t-46 -68.5t-32.5 -85h241l-65 -306h-244q-6 -35 -6 -73q0 -63 33.5 -102.5t87.5 -39.5q59 0 99 31t69 82l331 -162 q-51 -82 -115.5 -137t-137 -89t-152.5 -48.5t-162 -14.5q-113 0 -204 37t-155.5 101.5t-99.5 152.5t-35 189v41t3 32h-117z" />
<glyph unicode="&#x2122;" horiz-adv-x="1345" d="M287 1200v166h485v-166h-160v-422h-166v422h-159zM848 778v588h196l132 -291l120 291h195v-588h-162v344l-137 -348h-31l-151 342v-338h-162z" />
<glyph unicode="&#x25fc;" horiz-adv-x="1013" d="M0 0v1014h1014v-1014h-1014z" />
</font>
</defs>
</svg>
