<?xml version="1.0" standalone="no"?>
<!DOCTYPE svg PUBLIC "-//W3C//DTD SVG 1.1//EN" "http://www.w3.org/Graphics/SVG/1.1/DTD/svg11.dtd" >
<svg xmlns="http://www.w3.org/2000/svg">
<metadata></metadata>
<defs>
<font id="interface_xboldregular" horiz-adv-x="1173" >
<font-face units-per-em="2048" ascent="1638" descent="-410" />
<missing-glyph horiz-adv-x="358" />
<glyph unicode="&#xfb01;" horiz-adv-x="1265" d="M23 750v249h137v33q0 86 32.5 153.5t92 114t143.5 70t186 23.5q143 0 226.5 -22.5t134.5 -51.5l-111 -229q-37 23 -85 37t-111 14q-70 0 -112 -30t-42 -93v-19h180v-249h-178v-750h-356v750h-137zM805 0v999h356v-999h-356z" />
<glyph unicode="&#xfb02;" horiz-adv-x="1265" d="M23 750v249h137v31q0 94 42 162t115.5 113t175 66.5t218.5 21.5q63 0 128.5 -5.5t125 -12.5t109.5 -16t87 -18v-1341h-356v1130q-20 4 -55 5.5t-58 1.5q-84 0 -131 -29t-47 -84v-25h172v-249h-170v-750h-356v750h-137z" />
<glyph unicode="&#xfb03;" horiz-adv-x="1996" d="M23 750v249h137v33q0 176 99 268.5t276 92.5q104 0 186 -20.5t129 -43.5l-82 -219q-33 14 -67.5 22.5t-77.5 8.5q-49 0 -79 -30t-30 -83v-29h377v33q0 86 32.5 153.5t92 114t143.5 70t187 23.5q143 0 226 -22.5t134 -51.5l-111 -229q-37 23 -85 37t-111 14 q-70 0 -112 -30t-42 -93v-19h180v-249h-178v-750h-356v750h-375v-750h-356v750h-137zM1536 0v999h356v-999h-356z" />
<glyph unicode="&#xfb04;" horiz-adv-x="1994" d="M23 750v249h137v33q0 176 99 268.5t276 92.5q104 0 186 -20.5t129 -43.5l-82 -219q-33 14 -67.5 22.5t-77.5 8.5q-49 0 -79 -30t-30 -83v-29h375v31q0 94 42 162t115.5 113t175 66.5t218.5 21.5q63 0 128.5 -5.5t125 -12.5t109.5 -16t87 -18v-1341h-356v1130 q-20 4 -55 5.5t-58 1.5q-84 0 -131 -29t-47 -84v-25h172v-249h-170v-750h-356v750h-373v-750h-356v750h-137z" />
<glyph horiz-adv-x="0" />
<glyph unicode="&#xd;" horiz-adv-x="370" />
<glyph unicode=" "  horiz-adv-x="358" />
<glyph unicode="&#x09;" horiz-adv-x="358" />
<glyph unicode="&#xa0;" horiz-adv-x="358" />
<glyph unicode="!" horiz-adv-x="540" d="M78 154q0 78 53 127t139 49q84 0 138.5 -49.5t54.5 -126.5q0 -78 -54.5 -126t-138.5 -48q-86 0 -139 47q-53 49 -53 127zM90 453v913h361v-913h-361z" />
<glyph unicode="&#x22;" horiz-adv-x="843" d="M74 760v606h291v-606h-291zM479 760v606h289v-606h-289z" />
<glyph unicode="#" horiz-adv-x="1380" d="M55 326v274h240v213h-240v274h240v250h301v-250h192v250h299v-250h242v-274h-242v-213h242v-274h-242v-248h-299v248h-192v-248h-301v248h-240zM592 596h201v223h-201v-223z" />
<glyph unicode="$" d="M20 203l234 215q27 -31 61.5 -59.5t75.5 -51t85 -36t89 -13.5q76 0 124 28.5t48 82.5q0 31 -11 54t-39 43.5t-72 39t-111 41.5q-92 29 -171 62.5t-137.5 81.5t-92 117t-33.5 169q0 82 27.5 150.5t78.5 119.5t121 84t156 47v340h254v-336q125 -16 217 -73.5t151 -137.5 l-233 -184q-41 55 -110.5 90t-139.5 35q-78 0 -122 -30.5t-44 -77.5q0 -57 55.5 -87t155.5 -61q86 -29 169 -62.5t147.5 -85t104.5 -127t40 -186.5q0 -90 -31 -161.5t-83 -123t-124 -84t-153 -44.5v-299h-254v297q-123 10 -237 62t-196 161z" />
<glyph unicode="%" horiz-adv-x="1642" d="M20 1044q0 66 24 127.5t70 108.5t114.5 74.5t156.5 27.5t156.5 -27.5t116 -74.5t71 -108.5t23.5 -127.5t-23.5 -127t-71 -107t-116 -73.5t-156.5 -27.5q-88 -1 -158 26q-68 29 -113.5 75t-69.5 107.5t-24 126.5zM59 143l1364 1252l166 -164l-1368 -1258zM281 1049 q-1 -62 28 -99q29 -35 76 -35t75.5 36t28.5 98q0 59 -28.5 95t-75.5 36t-75.5 -36t-28.5 -95zM891 317q0 66 23.5 126.5t70.5 107.5t114.5 75.5t157.5 28.5q88 0 157 -27.5t115 -74.5t69.5 -108.5t23.5 -127.5t-23.5 -127t-69.5 -107t-114.5 -73.5t-157.5 -27.5 q-90 0 -157.5 27.5t-114.5 72.5q-47 47 -70.5 108.5t-23.5 126.5zM1151 319q0 -59 29 -96q29 -35 75 -35q47 0 76 36t29 95t-28.5 96.5t-76.5 37.5q-47 0 -75.5 -37t-28.5 -97z" />
<glyph unicode="&#x26;" horiz-adv-x="1404" d="M51 397q0 150 81 257.5t226 179.5q-41 51 -69.5 107t-28.5 128q0 70 31 127t84 98t125.5 63.5t158.5 22.5q174 0 272.5 -62.5t158.5 -174.5l-254 -133q-27 51 -62 83.5t-82 32.5q-37 0 -61.5 -19.5t-24.5 -53.5q0 -23 15.5 -49.5t37.5 -55.5l232 -301q61 94 136 173 t167 130l166 -241q-92 -63 -158.5 -142.5t-122.5 -169.5l297 -397h-397l-109 143q-35 -35 -70.5 -64.5t-80.5 -52t-103.5 -34.5t-134.5 -12q-98 0 -177 32.5t-135 89t-87 132t-31 163.5zM393 399q0 -63 38 -103t99 -40q53 0 93.5 33t76.5 86l-172 231q-135 -76 -135 -207z " />
<glyph unicode="'" horiz-adv-x="438" d="M74 760v606h291v-606h-291z" />
<glyph unicode="(" horiz-adv-x="718" d="M76 698q0 158 40 289t107.5 234.5t157.5 180.5t192 126l136 -189q-121 -92 -197 -249.5t-76 -391.5q0 -236 76 -393.5t197 -249.5l-136 -186q-102 49 -192 125t-157.5 179t-107.5 234.5t-40 290.5z" />
<glyph unicode=")" horiz-adv-x="720" d="M10 55q121 92 197 250t76 393q0 233 -75 391t-196 250l133 189q100 -49 191.5 -126t159 -180.5t107.5 -234.5t40 -289q0 -160 -40 -291t-107.5 -234t-158.5 -179t-192 -125z" />
<glyph unicode="*" horiz-adv-x="931" d="M55 1235l117 166l188 -121v205h203v-205l195 121l119 -166l-226 -137l219 -137l-104 -177l-203 125v-215h-203v215l-196 -125l-105 177l224 135z" />
<glyph unicode="+" d="M70 537v282h370v389h291v-389h373v-282h-373v-383h-291v383h-370z" />
<glyph unicode="," horiz-adv-x="505" d="M4 -106q45 10 93 34.5t71 48.5q-35 16 -64.5 55.5t-29.5 102.5q0 72 45 125t137 53q84 0 135 -51t51 -137q0 -106 -94 -206.5t-299 -154.5z" />
<glyph unicode="-" horiz-adv-x="675" d="M55 412v288h566v-288h-566z" />
<glyph unicode="." horiz-adv-x="495" d="M63 145q0 74 49.5 122t135.5 48t135 -48t49 -122q0 -72 -49 -118.5t-135 -46.5t-135 47t-50 118z" />
<glyph unicode="/" horiz-adv-x="1093" d="M0 59l836 1512l258 -133l-834 -1514z" />
<glyph unicode="0" d="M39 676q0 143 30.5 271t97 224.5t170 152.5t249.5 56q145 0 249.5 -56t171 -152.5t97.5 -224.5t31 -271t-31 -271.5t-97.5 -224.5t-171 -152.5t-249.5 -56.5q-146 1 -250 56q-102 57 -169 153t-97.5 224t-30.5 272zM410 676q0 -199 41 -305q43 -104 135 -105 q92 0 135 105.5t43 304.5t-42 304t-136 105q-92 0 -134 -105.5t-42 -303.5z" />
<glyph unicode="1" d="M111 1077l493 279h273v-1356h-371v948l-242 -141z" />
<glyph unicode="2" d="M51 1053q33 63 81 122.5t113.5 104.5t150.5 72.5t194 27.5q104 0 191 -26.5t149.5 -77.5t97.5 -127t35 -172q0 -106 -39 -200.5t-100.5 -177.5t-138 -158.5t-152.5 -145.5h469v-295h-996v205q47 37 108.5 92t127.5 121.5t129.5 139.5t112.5 143.5t79.5 135t30.5 113.5 q0 127 -135 127q-68 0 -128 -53t-101 -125z" />
<glyph unicode="3" d="M20 252l265 188q47 -84 114.5 -125t151.5 -41t134 39t50 97q0 72 -60.5 112.5t-211.5 42.5v240q74 2 121 14t74.5 32.5t38 48.5t10.5 58q0 53 -39 86t-111 33q-78 0 -135 -35.5t-111 -109.5l-258 168q39 59 90.5 110.5t117 89t148.5 59t185 21.5q100 0 189 -25.5 t155 -72.5t103.5 -116.5t37.5 -157.5q0 -70 -17.5 -120t-45 -87t-62 -61.5t-71.5 -41.5q43 -14 83 -38.5t69.5 -62.5t48 -89t18.5 -119q0 -102 -42 -180t-115 -130t-169 -78t-205 -26q-389 0 -551 277z" />
<glyph unicode="4" d="M41 303v272l635 781h311v-781h146v-272h-146v-303h-348v303h-598zM367 575h272v351z" />
<glyph unicode="5" d="M63 231l267 187q41 -68 103.5 -107t139.5 -39q72 0 118 39t46 115q0 49 -18.5 87t-60.5 64.5t-110.5 40t-170.5 13.5h-223v725h876v-291h-559v-176h82q123 0 223.5 -29t172 -86t110.5 -144t39 -202t-40 -199t-108.5 -141t-163 -85t-202.5 -28q-188 0 -315.5 63.5 t-205.5 192.5z" />
<glyph unicode="6" d="M80 537q0 201 75.5 363.5t233.5 281.5q104 80 231.5 130t266.5 72l74 -256q-160 -33 -281 -103.5t-174 -168.5q35 16 82 27.5t108 11.5q94 0 170 -33t129.5 -92t83 -140t29.5 -177q0 -100 -34 -187.5t-98.5 -152t-159.5 -101.5t-220 -37q-117 0 -212 39t-162.5 112 t-104.5 177.5t-37 233.5zM436 489q0 -59 13.5 -101t35 -68.5t50 -39t61.5 -12.5q68 0 108.5 46t40.5 132t-44 138.5t-109 52.5q-47 0 -84 -10t-59 -25q-4 -16 -8.5 -48t-4.5 -65z" />
<glyph unicode="7" d="M76 1061v295h1032v-234l-530 -1122h-377l493 1061h-618z" />
<glyph unicode="8" d="M78 389q0 110 47 186q49 78 139 127q-78 49 -122 119t-44 180q0 74 32 142.5t94.5 121t153.5 84t210 31.5t210 -30.5t153.5 -83t94 -121t31.5 -141.5q0 -111 -44 -181.5t-120 -117.5q90 -49 137.5 -127t47.5 -189q0 -82 -32 -157.5t-95.5 -133t-158.5 -91.5t-224 -34 q-127 0 -223.5 34t-160 91.5t-95 133t-31.5 157.5zM426 414q0 -70 41 -117q43 -47 121 -47t120 46t42 116q0 68 -43 114.5t-119 46.5t-119 -46t-43 -113zM442 967q0 -60 39 -105t107 -45t106.5 45t38.5 107q0 61 -39 103t-106 42q-66 0 -106 -43t-40 -104z" />
<glyph unicode="9" d="M68 907q0 98 33.5 184.5t98 151t160 101t220.5 36.5q113 0 208 -35.5t164.5 -106.5t108.5 -174t39 -237q0 -170 -58.5 -312t-169.5 -259q-104 -106 -247.5 -179t-329.5 -104l-80 254q76 16 146.5 45t131 66t106.5 82t73 92q-33 -16 -85 -27.5t-108 -11.5q-96 0 -172 34 t-129 92t-81.5 138t-28.5 170zM432 913q0 -78 44 -129t116 -51q41 0 74 6q33 8 61 23q4 16 7 44t3 62q0 106 -45 165t-117 59t-107.5 -55.5t-35.5 -123.5z" />
<glyph unicode=":" horiz-adv-x="495" d="M63 145q0 74 49.5 122t135.5 48t135 -48t49 -122q0 -72 -49 -118.5t-135 -46.5t-135 47t-50 118zM63 831q0 74 49.5 121t135.5 47t135 -47t49 -121t-49 -120.5t-135 -46.5t-135 47t-50 120z" />
<glyph unicode=";" horiz-adv-x="505" d="M4 -106q45 10 93 34.5t71 48.5q-35 16 -64.5 55.5t-29.5 102.5q0 72 45 125t137 53q84 0 135 -51t51 -137q0 -106 -94 -206.5t-299 -154.5zM72 831q0 74 49 121t135 47t135 -47t49 -121t-49 -120.5t-135 -46.5t-135 47t-49 120z" />
<glyph unicode="&#x3c;" d="M53 541v256l981 342l86 -287l-594 -178l615 -197l-90 -293z" />
<glyph unicode="=" d="M70 287v280h1034v-280h-1034zM70 754v280h1034v-280h-1034z" />
<glyph unicode="&#x3e;" d="M35 477l614 197l-594 178l86 287l981 -342v-256l-997 -357z" />
<glyph unicode="?" horiz-adv-x="937" d="M-16 1130q35 55 81 102.5t104 83.5t131 56.5t165 20.5q217 0 335 -102.5t118 -272.5q0 -111 -51.5 -186.5t-123.5 -137.5q-63 -55 -96 -100t-33 -109v-32h-348v82q0 86 40 152.5t87 107.5q76 63 123 109t47 106q0 49 -29.5 77.5t-80.5 28.5q-72 0 -124.5 -42t-101.5 -113 zM250 154q0 78 54 127t138 49q86 0 139.5 -49.5t53.5 -126.5q0 -78 -53.5 -126t-139.5 -48q-84 0 -139 47q-53 49 -53 127z" />
<glyph unicode="@" horiz-adv-x="1736" d="M88 520q0 223 71.5 387t188.5 271.5t268.5 161t311.5 53.5q141 0 258 -33t200.5 -99.5t130 -166t46.5 -230.5v-868q0 -43 20.5 -62.5t52.5 -19.5q27 0 53.5 9t47.5 24l73 -230q-55 -29 -124.5 -46t-145.5 -17q-68 0 -126 19.5t-103 59.5t-71 100.5t-26 139.5v58 q-41 -20 -93 -33.5t-117 -13.5q-88 0 -160 36.5t-123 100t-79 148.5t-28 184q0 111 31 195.5t86 143t130 88t163 29.5q59 0 106.5 -11t83.5 -28v37q0 109 -83.5 158t-215.5 49q-84 0 -173 -32.5t-161.5 -104.5t-118.5 -185.5t-46 -275.5q0 -143 48 -274t134 -248l-262 -180 q-49 57 -94 131.5t-79 163t-54.5 191.5t-20.5 220zM952 451q0 -106 43 -158.5t103 -52.5q35 0 63.5 9t52.5 25v340q-23 10 -50 19.5t-64 9.5q-63 0 -105.5 -45t-42.5 -147z" />
<glyph unicode="A" horiz-adv-x="1386" d="M-10 0l530 1368h342l535 -1368h-393l-89 236h-458l-90 -236h-377zM537 514h294l-147 416z" />
<glyph unicode="B" horiz-adv-x="1253" d="M127 0v1366h543q104 0 191 -23.5t149.5 -69.5t97.5 -113.5t35 -155.5q0 -57 -15.5 -101.5t-40 -79.5t-56.5 -60.5t-64 -43.5q51 -14 96 -42t79 -69t53 -95t19 -122q0 -100 -35.5 -174t-98 -122t-148.5 -71.5t-187 -23.5h-618zM485 291h211q61 0 106.5 29.5t45.5 99.5 q0 74 -48 107.5t-114 33.5h-201v-270zM485 823h152q72 0 110.5 37t38.5 96q0 66 -45 96.5t-118 30.5h-138v-260z" />
<glyph unicode="C" horiz-adv-x="1304" d="M74 680q0 176 50 310t136 223.5t199.5 134.5t242.5 45q106 0 190.5 -22.5t151 -68t117.5 -111t92 -153.5l-297 -157q-39 98 -92 152t-143 54q-68 0 -119 -30.5t-85 -83.5t-51 -129t-17 -164q0 -180 75.5 -285.5t202.5 -105.5q92 0 148.5 48t91.5 128l297 -162 q-76 -164 -205 -248t-348 -84q-145 0 -263 49.5t-201 141.5t-128 223t-45 295z" />
<glyph unicode="D" horiz-adv-x="1376" d="M127 0v1366h373q92 0 196.5 -8t192.5 -37q102 -35 180 -96.5t130 -144.5t79 -183t27 -211q0 -109 -27 -209t-80 -183t-131 -145.5t-178 -99.5q-88 -31 -187.5 -40t-197.5 -9h-377zM494 313h94q164 0 254 97.5t90 271.5q0 172 -88 271.5t-254 99.5h-96v-740z" />
<glyph unicode="E" horiz-adv-x="1193" d="M127 0v1366h973v-313h-606v-226h493v-288h-493v-224h649v-315h-1016z" />
<glyph unicode="F" horiz-adv-x="1107" d="M127 0v1366h960v-315h-593v-250h473v-309h-473v-492h-367z" />
<glyph unicode="G" horiz-adv-x="1339" d="M74 680q0 172 47 305t131 224t199.5 137.5t255.5 46.5q109 0 193.5 -21.5t149 -62.5t111.5 -99.5t80 -130.5l-305 -155q-37 78 -87 120.5t-134 42.5q-113 0 -189.5 -101t-76.5 -308q0 -92 21.5 -167t62 -129t100 -84t137.5 -30q41 0 74 2t67 9v198h-194v271h536v-693 q-96 -37 -226 -60.5t-304 -23.5q-150 0 -269.5 49.5t-204.5 140.5t-130 222t-45 297z" />
<glyph unicode="H" horiz-adv-x="1417" d="M127 0v1366h367v-506h430v506h366v-1366h-366v541h-430v-541h-367z" />
<glyph unicode="I" horiz-adv-x="620" d="M127 0v1366h367v-1366h-367z" />
<glyph unicode="J" horiz-adv-x="634" d="M-70 -55q109 25 160 73t51 132v1216h367v-1245q0 -102 -37 -180t-103.5 -136.5t-159.5 -95.5t-204 -55z" />
<glyph unicode="K" horiz-adv-x="1376" d="M127 0v1366h367v-461l426 461h430l-494 -532l533 -834h-435l-352 578l-108 -107v-471h-367z" />
<glyph unicode="L" horiz-adv-x="1124" d="M127 0v1366h367v-1051h614v-315h-981z" />
<glyph unicode="M" horiz-adv-x="1671" d="M127 0v1366h377l340 -813l321 813h379v-1366h-354v668l-272 -676h-150l-287 680v-672h-354z" />
<glyph unicode="N" horiz-adv-x="1429" d="M127 0v1366h371l444 -723v723h361v-1366h-334l-484 772v-772h-358z" />
<glyph unicode="O" horiz-adv-x="1452" d="M76 684q0 145 41 274t123 225.5t203.5 153t281.5 56.5t281.5 -56.5t203.5 -153t124 -225.5t42 -274t-42 -274t-124 -226.5t-203.5 -155t-281.5 -57.5q-160 1 -283 58q-121 57 -202.5 154.5t-122.5 226.5t-41 274zM449 684q0 -86 17 -161t52 -130q37 -53 88 -83.5 t119 -30.5t119 30.5t87 85t53 129t17 160.5t-17 161t-53 128t-87 83.5t-119 30.5t-119 -30.5t-87 -83.5t-53 -128t-17 -161z" />
<glyph unicode="P" horiz-adv-x="1232" d="M127 0v1366h432q111 0 223.5 -12.5t204.5 -61.5q102 -55 153.5 -154.5t51.5 -222.5q0 -131 -57.5 -237.5t-165.5 -161.5q-70 -35 -149 -51t-169 -16h-164v-449h-360zM487 745h172q74 0 122 43t48 119t-48 117t-126 41h-168v-320z" />
<glyph unicode="Q" horiz-adv-x="1452" d="M76 684q0 145 41 274t123 225.5t203.5 153t281.5 56.5t281.5 -56.5t203.5 -153t124 -225.5t42 -274q0 -121 -28.5 -230.5t-84 -198.5t-138.5 -154.5t-193 -98.5q20 -41 83.5 -58.5t155.5 -17.5l-38 -254q-244 6 -390.5 87t-189.5 237q-119 29 -208 92.5t-149.5 154.5 t-90 202.5t-29.5 238.5zM449 684q0 -86 17 -161t52 -130q37 -53 88 -83.5t119 -30.5t119 30.5t87 85t53 129t17 160.5t-17 161t-53 128t-87 83.5t-119 30.5t-119 -30.5t-87 -83.5t-53 -128t-17 -161z" />
<glyph unicode="R" horiz-adv-x="1308" d="M127 0v1366h604q104 0 196.5 -26.5t160 -80t106.5 -133t39 -188.5q0 -143 -60.5 -246.5t-189.5 -159.5l309 -532h-411l-260 475h-134v-475h-360zM487 772h185q106 0 152 39t46 107q0 72 -44 110.5t-154 38.5h-185v-295z" />
<glyph unicode="S" horiz-adv-x="1185" d="M55 213l252 195q45 -57 122 -101.5t175 -44.5q72 0 123 25.5t51 85.5q0 29 -10 51t-41 42.5t-84 41t-139 47.5q-98 31 -177 65.5t-135.5 84t-86 116t-29.5 158.5q0 94 37 170t105.5 130t165.5 84t218 30q104 0 185 -20.5t143.5 -53.5t107.5 -76t74 -86l-246 -190 q-16 25 -40.5 51t-58.5 47.5t-77 36t-94 14.5q-82 0 -124 -28.5t-42 -75.5q0 -27 12.5 -47.5t44 -41t85 -40t133.5 -43.5q94 -29 172.5 -64t136 -86t89.5 -123.5t32 -173.5q0 -109 -44 -187.5t-118 -130.5t-172.5 -78t-206.5 -26q-184 0 -322.5 69t-216.5 173z" />
<glyph unicode="T" horiz-adv-x="1138" d="M4 1053v313h1131v-313h-379v-1053h-369v1053h-383z" />
<glyph unicode="U" horiz-adv-x="1415" d="M119 489v877h366v-852q0 -111 57.5 -170t166.5 -59q106 0 163.5 59t57.5 170v852h366v-877q0 -123 -42 -219t-119.5 -162.5t-186 -101.5t-241.5 -35t-241 35t-185.5 101.5t-119.5 163t-42 218.5z" />
<glyph unicode="V" horiz-adv-x="1370" d="M-10 1366h418l311 -840l278 840h383l-514 -1366h-286z" />
<glyph unicode="W" horiz-adv-x="1708" d="M-10 1366h368l158 -704l211 704h254l209 -704l162 704h368l-346 -1366h-274l-248 788l-244 -788h-274z" />
<glyph unicode="X" horiz-adv-x="1300" d="M-10 0l454 702l-426 664h416l217 -365l217 365h410l-424 -657l457 -709h-420l-246 406l-244 -406h-411z" />
<glyph unicode="Y" horiz-adv-x="1308" d="M-10 1366h413l259 -481l247 481h410l-477 -834v-532h-367v532z" />
<glyph unicode="Z" horiz-adv-x="1226" d="M59 0v266l631 787h-590v313h1053v-274l-625 -777h641v-315h-1110z" />
<glyph unicode="[" horiz-adv-x="731" d="M135 -293v1800h576v-258h-230v-1284h230v-258h-576z" />
<glyph unicode="\" horiz-adv-x="1093" d="M0 1438l258 133l836 -1512l-260 -135z" />
<glyph unicode="]" horiz-adv-x="731" d="M20 -35h230v1284h-230v258h576v-1800h-576v258z" />
<glyph unicode="^" horiz-adv-x="1130" d="M70 637l360 729h268l363 -715l-289 -86l-207 455l-203 -463z" />
<glyph unicode="_" horiz-adv-x="1146" d="M0 -170h1147v-281h-1147v281z" />
<glyph unicode="`" horiz-adv-x="745" d="M82 1300l125 218l457 -265l-89 -155z" />
<glyph unicode="a" horiz-adv-x="1073" d="M47 287q0 74 27.5 129t76 94t112 63.5t134.5 34.5q66 10 122 15.5t104 7.5v24q0 61 -39 90t-92 29q-59 0 -111.5 -22.5t-101.5 -61.5l-160 178q82 72 183 113t243 41q197 0 313.5 -95.5t116.5 -295.5v-631h-301l-29 78q-41 -39 -110.5 -66.5t-161.5 -27.5 q-70 0 -129.5 20.5t-103.5 60t-68.5 95t-24.5 127.5zM381 319q0 -43 29.5 -70.5t83.5 -27.5q39 0 70.5 12.5t58.5 32.5v187q-31 -2 -62 -5.5t-63 -9.5q-63 -10 -90 -44t-27 -75z" />
<glyph unicode="b" d="M104 59v1307h359v-371q41 12 87 19.5t105 7.5q109 0 195 -39t144.5 -106.5t89 -159.5t30.5 -197q0 -139 -42 -241.5t-117.5 -169t-179 -99.5t-226.5 -33q-135 0 -243.5 24t-201.5 58zM463 254q23 -6 44 -9t50 -3q92 0 149.5 64.5t57.5 197.5q0 129 -56.5 190.5 t-142.5 61.5q-29 0 -53.5 -5.5t-48.5 -13.5v-483z" />
<glyph unicode="c" horiz-adv-x="1067" d="M61 496q0 127 38 225t105.5 164.5t160 101.5t200.5 35q98 0 174 -22.5t132.5 -63.5t93 -96.5t59.5 -118.5l-272 -121q-33 92 -73 126t-99 34q-70 0 -119 -62.5t-49 -197.5q0 -127 49 -192.5t125 -65.5q66 0 110.5 38.5t67.5 110.5l270 -131q-59 -137 -169.5 -208.5 t-295.5 -71.5q-106 0 -199.5 33.5t-162 99t-107.5 162t-39 221.5z" />
<glyph unicode="d" horiz-adv-x="1177" d="M61 502q0 109 32 204t92.5 165.5t146.5 110.5t196 40q51 0 99.5 -7t87.5 -24v375h358v-1366h-311l-17 78q-33 -37 -90 -67.5t-155 -30.5q-100 0 -181 39.5t-138.5 109.5t-88.5 166t-31 207zM410 504q0 -123 48 -193.5t134 -70.5q37 0 71.5 15t51.5 40v440 q-23 10 -48.5 16.5t-60.5 6.5q-94 0 -145 -73t-51 -181z" />
<glyph unicode="e" horiz-adv-x="1107" d="M61 498q0 125 39 222t106.5 164.5t161 102.5t201.5 35q223 0 355.5 -144.5t134.5 -445.5h-649q4 -90 58 -140t138 -50q68 0 116 24.5t89 75.5l219 -172q-33 -41 -75 -75t-96 -60.5t-124.5 -40.5t-159.5 -14q-106 0 -199 32.5t-163 97t-111 162t-41 226.5zM412 623h311 q-6 80 -48 126t-102 46q-61 0 -107 -47.5t-54 -124.5z" />
<glyph unicode="f" horiz-adv-x="747" d="M23 750v249h137v33q0 176 99 268.5t276 92.5q104 0 186 -20.5t129 -43.5l-82 -219q-33 14 -67.5 22.5t-77.5 8.5q-49 0 -79 -30t-30 -83v-29h213v-249h-211v-750h-356v750h-137z" />
<glyph unicode="g" horiz-adv-x="1130" d="M53 -131q0 41 12.5 71.5t31 53t42 37t47.5 24.5q-43 29 -67.5 68t-24.5 102q0 55 37 104.5t76 71.5q-53 37 -93 103.5t-40 146.5q0 98 39 168t103.5 115t150.5 66.5t180 21.5q70 0 118 -9t95 -26l139 150l184 -144l-120 -133q35 -33 61.5 -87t26.5 -122q0 -90 -38 -156.5 t-102.5 -109.5t-149.5 -64.5t-179 -21.5q-59 0 -105.5 7t-64.5 13q-10 -6 -20.5 -22t-10.5 -31q0 -16 10 -26.5t41 -18.5t88.5 -12t153.5 -8q55 -2 97 -6.5t76 -10.5t60.5 -14t55.5 -18q78 -31 119.5 -90.5t41.5 -157.5q0 -53 -18.5 -98.5t-48.5 -79.5q-70 -74 -195 -106 t-284 -32q-117 0 -214.5 17.5t-166 52.5t-106.5 87t-38 124zM352 -98q0 -106 242 -107q225 0 225 80q0 35 -31.5 55.5t-132.5 26.5l-94 4q-55 4 -96 7t-76 7q-14 -12 -25.5 -30.5t-11.5 -42.5zM410 651q0 -59 41 -96t110 -37q72 0 111 37t39 94q0 59 -39 98t-111 39 t-111.5 -39t-39.5 -96z" />
<glyph unicode="h" horiz-adv-x="1204" d="M104 0v1366h359v-420q45 31 110.5 53.5t153.5 22.5q186 0 281.5 -103.5t95.5 -289.5v-629h-359v592q0 86 -35.5 126t-88.5 40q-49 0 -90.5 -21.5t-67.5 -44.5v-692h-359z" />
<glyph unicode="i" horiz-adv-x="565" d="M92 1231q0 68 49 109.5t142 41.5q92 0 142 -42t50 -109q0 -72 -50 -114t-142 -42q-93 0 -142 41q-49 43 -49 115zM104 0v999h357v-999h-357z" />
<glyph unicode="j" horiz-adv-x="571" d="M-37 -205q37 27 64.5 49.5t46 48t28 59.5t9.5 81v966h356v-979q0 -88 -22.5 -157.5t-65.5 -125.5t-102.5 -100.5t-133.5 -80.5zM98 1231q0 68 50.5 109.5t142.5 41.5q90 0 139 -42t49 -109q0 -72 -49 -114t-139 -42q-93 0 -144 41q-49 43 -49 115z" />
<glyph unicode="k" horiz-adv-x="1148" d="M104 0v1366h359v-635l278 268h383l-317 -323l358 -676h-391l-225 449l-86 -91v-358h-359z" />
<glyph unicode="l" horiz-adv-x="567" d="M104 0v1366h359v-1366h-359z" />
<glyph unicode="m" horiz-adv-x="1804" d="M104 0v999h314l16 -84q43 41 116 74t175 33q68 0 144.5 -26.5t121.5 -82.5q68 51 148 80t178 29q201 0 294 -100.5t93 -290.5v-631h-358v602q0 72 -27 113t-100 41q-45 0 -83 -19.5t-61 -36.5q6 -61 6 -131v-569h-356v602q0 72 -26.5 113t-94.5 41q-43 0 -80 -20.5 t-61 -43.5v-692h-359z" />
<glyph unicode="n" horiz-adv-x="1208" d="M104 0v999h312l18 -86q49 43 126 76t169 33q170 0 274.5 -96.5t104.5 -296.5v-629h-358v588q0 80 -35 124t-101 44q-47 0 -84.5 -19.5t-66.5 -46.5v-690h-359z" />
<glyph unicode="o" horiz-adv-x="1169" d="M61 504q0 111 35 205t102.5 163.5t165 109.5t222.5 40t222 -40t164.5 -109.5t102.5 -164t35 -204.5q0 -109 -35 -205t-102.5 -167t-164.5 -111.5t-222 -40.5h-6q-122 0 -218 40q-96 41 -163.5 112t-102.5 167t-35 205zM412 504q0 -111 43 -187q44 -75 129 -75h2 q86 0 129 75.5t43 186.5t-43 182.5t-129 71.5t-130 -72t-44 -182z" />
<glyph unicode="p" horiz-adv-x="1175" d="M104 -387v1386h312l16 -75q31 29 95.5 63.5t166.5 34.5q199 0 309.5 -136t110.5 -384q0 -109 -31.5 -205t-93 -167t-151.5 -112t-205 -41q-49 0 -92 8.5t-78 22.5v-395h-359zM463 268q20 -10 42.5 -16t57.5 -6q98 0 149.5 74.5t51.5 191.5q0 133 -46 192.5t-124 59.5 q-45 0 -80 -19.5t-51 -39.5v-437z" />
<glyph unicode="q" horiz-adv-x="1171" d="M61 489q0 121 40 219.5t115 168t182.5 107.5t242.5 38q123 0 229.5 -11.5t194.5 -25.5v-1372h-358v381q-31 -6 -70 -10t-92 -4q-111 0 -200 36.5t-151.5 104t-97.5 162t-35 206.5zM410 494q0 -119 58 -184.5t153 -65.5q31 0 50 6t36 12v488q-23 4 -41.5 5t-40.5 1 q-104 0 -159.5 -74t-55.5 -188z" />
<glyph unicode="r" horiz-adv-x="817" d="M104 0v999h320l18 -90q43 49 98.5 77t121.5 28q47 0 91 -10.5t78 -26.5l-73 -285q-35 16 -73 25.5t-75 9.5q-47 0 -87 -21.5t-60 -43.5v-662h-359z" />
<glyph unicode="s" horiz-adv-x="1026" d="M41 164l201 162q37 -45 105.5 -81t158.5 -36q27 0 52.5 2t46 10t32.5 21.5t12 36.5q0 39 -34.5 60t-133.5 44q-90 20 -163.5 47t-125 66t-79 93t-27.5 128t34 130t94 95t143 59.5t182 20.5q92 0 161.5 -13.5t124 -36t92 -51t64.5 -61.5l-201 -162q-35 37 -94 67t-137 30 q-47 0 -87 -12.5t-40 -51.5q0 -16 6 -28.5t26.5 -23.5t58.5 -22.5t99 -25.5q92 -20 162 -47t118 -66t71.5 -92t23.5 -127q0 -86 -38 -146.5t-101.5 -98.5t-148.5 -56t-177 -18q-184 0 -304 53t-177 131z" />
<glyph unicode="t" horiz-adv-x="815" d="M20 750v249h142v252h358v-252h232v-249h-232v-402q0 -51 11.5 -79.5t50.5 -28.5q37 0 70.5 16t60.5 37l92 -217q-68 -47 -146.5 -71.5t-183.5 -24.5q-88 0 -148.5 23.5t-97 66.5t-52 104.5t-15.5 136.5v439h-142z" />
<glyph unicode="u" horiz-adv-x="1206" d="M98 369v630h359v-589q0 -76 29.5 -120t99.5 -44q53 0 92 18.5t63 40.5v694h359v-999h-314l-16 84q-53 -47 -127 -75.5t-166 -28.5q-178 0 -278.5 97t-100.5 292z" />
<glyph unicode="v" horiz-adv-x="1159" d="M-8 999h389l213 -593l205 593h368l-426 -999h-309z" />
<glyph unicode="w" horiz-adv-x="1552" d="M-8 999h364l150 -530l153 530h234l154 -530l147 530h367l-355 -999h-274l-158 524l-156 -524h-272z" />
<glyph unicode="x" horiz-adv-x="1116" d="M-8 999h395l180 -272l178 272h365l-356 -491l370 -508h-397l-176 274l-184 -274h-369l367 494z" />
<glyph unicode="y" horiz-adv-x="1144" d="M-8 999h389l203 -583l200 583h369l-500 -1183q-53 -125 -144 -176.5t-214 -51.5q-78 0 -143.5 16.5t-124.5 43.5l90 241q29 -16 67.5 -28.5t71.5 -12.5q39 0 62.5 14.5t39.5 51.5l58 129z" />
<glyph unicode="z" horiz-adv-x="1083" d="M63 0v215l504 533h-481v251h920v-231l-492 -516h508v-252h-959z" />
<glyph unicode="{" horiz-adv-x="743" d="M31 596v174q98 10 136 49t38 117v164q0 59 7 114.5t29.5 101.5t63.5 82t109 56q119 39 295 43l22 -227q-115 -6 -153.5 -48t-38.5 -116v-195q0 -180 -168 -227q82 -27 125 -82t43 -147v-197q0 -37 9 -64.5t30.5 -48t58.5 -33t94 -16.5l-22 -223q-172 0 -295 41 q-68 23 -109 57.5t-63.5 80.5t-29.5 100.5t-7 115.5v162q0 76 -39 116t-135 50z" />
<glyph unicode="|" horiz-adv-x="579" d="M135 -152v1663h307v-1663h-307z" />
<glyph unicode="}" horiz-adv-x="743" d="M10 96q113 8 153 49t40 113v197q0 92 43 147t125 82q-168 47 -168 227v195q0 74 -39 116t-154 48l23 227q174 -4 295 -43q68 -20 108.5 -56t63 -82t30 -101.5t7.5 -114.5v-164q0 -78 37.5 -117t136.5 -49v-174q-96 -10 -135 -50t-39 -116v-162q0 -61 -7.5 -115.5 t-30 -100.5t-63.5 -80.5t-108 -57.5q-123 -41 -295 -41z" />
<glyph unicode="~" horiz-adv-x="970" d="M-4 967q6 82 28.5 149.5t60.5 116.5t91 75.5t123 26.5q68 0 117 -20.5t86 -44t67.5 -44t63.5 -20.5q37 0 61.5 29t34.5 100h246q-10 -180 -89 -275t-202 -95q-68 0 -116 20.5t-86 44t-71.5 44t-74.5 20.5q-80 0 -94 -127h-246z" />
<glyph unicode="&#xa1;" horiz-adv-x="540" d="M78 829q0 78 53 127.5t139 49.5q84 0 138.5 -49.5t54.5 -127.5t-54.5 -127t-138.5 -49q-86 0 -139 49t-53 127zM90 -383v913h361v-913h-361z" />
<glyph unicode="&#xa2;" d="M141 678q0 182 96.5 297t270.5 147v244h262v-242q39 -4 80 -15t78 -26.5t67.5 -33t51.5 -33.5l-142 -236q-47 33 -99 57.5t-128 24.5q-96 0 -145.5 -55t-49.5 -129q0 -76 51.5 -131t139.5 -55q61 0 114.5 17t114.5 56l123 -239q-63 -43 -132 -65.5t-124 -33.5v-250h-262 v256q-166 35 -266.5 150t-100.5 295z" />
<glyph unicode="&#xa3;" d="M47 504v268h152v131q0 227 126 352t355 125q96 0 170 -20.5t128 -58t91 -91t61 -116.5l-305 -117q-27 61 -62.5 88t-80.5 27q-53 0 -92 -38t-39 -116v-166h422v-268h-422v-211h563v-293h-915v504h-152z" />
<glyph unicode="&#xa4;" horiz-adv-x="1511" d="M0 199l328 311q-63 113 -64 244q0 127 58 233l-322 303l184 166l303 -289q59 35 127 51.5t138 16.5q72 0 140.5 -16.5t129.5 -53.5l305 291l184 -166l-323 -303q29 -53 41 -110.5t12 -116.5q0 -137 -63 -246l333 -315l-176 -170l-329 311q-59 -33 -125 -47t-133 -14 q-63 0 -126 14t-120 45l-326 -309zM508 756q0 -53 17 -99.5t50 -81.5t77 -54t100 -19q55 0 100 19.5t78 54t50 80.5t17 100q0 53 -17 100t-50 82t-78 54.5t-100 19.5t-100.5 -19.5t-77 -54.5t-49 -81t-17.5 -101z" />
<glyph unicode="&#xa5;" d="M-16 1356h389l215 -508l203 508h385l-328 -654h215v-268h-301v-434h-359v434h-311v268h223z" />
<glyph unicode="&#xa6;" horiz-adv-x="579" d="M135 -152v633h307v-633h-307zM135 879v632h307v-632h-307z" />
<glyph unicode="&#xa7;" horiz-adv-x="958" d="M45 -119l180 182q16 -20 40 -40.5t51.5 -36t55 -25.5t52.5 -10q49 0 74.5 19.5t25.5 52.5q0 20 -11 39.5t-36.5 42t-66.5 51t-101 67.5q-117 78 -181.5 159t-64.5 198q0 86 49.5 153.5t125.5 102.5q-55 55 -88 111.5t-33 154.5q0 63 28.5 116.5t78.5 92.5t116 60.5 t139 21.5q147 0 242.5 -46.5t179.5 -144.5l-188 -168q-59 57 -102.5 85t-88.5 28q-39 0 -60.5 -17.5t-21.5 -44.5q0 -18 8.5 -34.5t31 -36t62.5 -48t103 -71.5q117 -80 178.5 -167t61.5 -212q0 -96 -41 -151.5t-92 -90.5q45 -45 70.5 -108.5t25.5 -134.5q0 -82 -37 -142.5 t-94.5 -101.5t-129 -61.5t-141.5 -20.5q-238 0 -401 176zM381 592q0 -29 21.5 -51.5t56.5 -51.5l76 -57q18 16 25 33.5t7 46.5t-15 54.5t-44 47.5l-72 58q-55 -23 -55 -80z" />
<glyph unicode="&#xa8;" horiz-adv-x="888" d="M57 1292q0 66 44 111t122 45t122 -45t44 -111t-44 -109.5t-122 -43.5t-122 44t-44 109zM500 1292q0 66 44 111t122 45t121.5 -45t43.5 -111t-43.5 -109.5t-121.5 -43.5t-122 44t-44 109z" />
<glyph unicode="&#xa9;" horiz-adv-x="1587" d="M90 608q0 143 44 279.5t133 244t220 173t308 65.5q174 0 306 -65.5t220 -173t132 -243.5t44 -280q0 -143 -44 -281.5t-132 -246t-220 -173t-306 -65.5q-177 0 -308 66t-220 173t-133 245.5t-44 281.5zM264 608q0 -117 33.5 -225.5t101.5 -192.5t167.5 -134t228.5 -50 t228 50t165.5 134t100.5 193t34 225q0 115 -34 223.5t-100.5 192.5t-165.5 134t-228 50q-131 0 -230.5 -50t-166 -134t-100.5 -192.5t-34 -223.5zM395 604q0 119 34 208t90 147.5t130 87t154 28.5q129 0 212 -54t134 -163l-172 -94q-31 63 -69 99t-101 36q-39 0 -76 -17.5 t-64.5 -54t-45 -92t-17.5 -131.5q0 -135 62.5 -212t150.5 -77q47 0 88 25t84 102l168 -100q-66 -117 -149.5 -161t-196.5 -44q-92 0 -169 32t-132 92.5t-85 146.5t-30 196z" />
<glyph unicode="&#xaa;" horiz-adv-x="759" d="M47 834q0 74 39 122t99.5 77.5t134 44t145.5 18.5v20q0 41 -24.5 56.5t-61.5 15.5q-29 0 -68 -12.5t-75 -40.5l-127 125q47 47 124.5 76.5t169.5 29.5q141 0 220 -69.5t79 -211.5v-460h-217l-8 53q-35 -29 -82 -48.5t-112 -19.5q-49 0 -91 14.5t-75 43t-51.5 69.5 t-18.5 97zM279 842q0 -63 75 -64q33 0 61.5 12.5t51.5 30.5v121q-27 -4 -52.5 -8t-47.5 -10q-88 -23 -88 -82z" />
<glyph unicode="&#xab;" horiz-adv-x="1181" d="M20 512l359 459l248 -162l-244 -285l266 -284l-235 -170zM526 512l363 432l227 -166l-225 -254l254 -252l-219 -184z" />
<glyph unicode="&#xac;" d="M68 657v281h1034v-698h-297v417h-737z" />
<glyph unicode="&#xad;" horiz-adv-x="675" d="M55 412v288h566v-288h-566z" />
<glyph unicode="&#xae;" horiz-adv-x="1589" d="M92 608q0 143 44 279.5t133 244t220.5 173t307.5 65.5q174 0 305 -65.5t219 -173t132 -243.5t44 -280q0 -143 -44 -281.5t-132 -246t-220 -173t-306 -65.5q-175 0 -308 66q-131 66 -219 173t-132 245.5t-44 281.5zM264 608q0 -117 33.5 -225.5t101.5 -192.5t167.5 -134 t230.5 -50q129 0 227 50t165.5 134t101.5 193t34 225q0 115 -34 223.5t-100.5 192.5t-165.5 134t-228 50q-131 0 -230.5 -50t-167 -134t-101.5 -192.5t-34 -223.5zM502 209v831h311q166 0 246 -66.5t80 -195.5q0 -102 -47.5 -161.5t-118.5 -84.5l174 -323h-203l-158 301h-94 v-301h-190zM692 684h107q78 0 110.5 20.5t32.5 79.5q0 49 -29.5 65.5t-105.5 16.5h-115v-182z" />
<glyph unicode="&#xaf;" horiz-adv-x="772" d="M37 1204v213h700v-213h-700z" />
<glyph unicode="&#xb0;" horiz-adv-x="811" d="M72 1051q0 74 26.5 132t72.5 99t106.5 62.5t128.5 21.5t128 -21.5t106 -62.5t72.5 -100.5t26.5 -132.5q0 -74 -26.5 -132.5t-71.5 -100.5t-106.5 -63.5t-128.5 -21.5q-68 0 -128.5 22.5t-107.5 63.5q-45 41 -71.5 100.5t-26.5 133.5zM295 1049q0 -63 35 -95t76 -32 t75.5 31.5t34.5 95.5q0 66 -35 97.5t-75 31.5q-41 0 -76 -31.5t-35 -97.5z" />
<glyph unicode="&#xb1;" d="M70 0v281h1034v-281h-1034zM70 696v283h370v389h291v-389h373v-283h-373v-319h-291v319h-370z" />
<glyph unicode="&#xb2;" horiz-adv-x="706" d="M31 1186q47 86 134 140t210 54q57 0 109.5 -15t90 -44t60 -70t22.5 -90t-20.5 -92t-52 -80t-72.5 -68.5t-82 -60.5h232v-184h-594v121q76 63 148.5 120.5t131.5 114.5q29 29 43.5 51.5t14.5 51.5q0 59 -62 59q-61 0 -111 -96z" />
<glyph unicode="&#xb3;" horiz-adv-x="706" d="M37 817l180 103q25 -41 56.5 -57.5t68.5 -16.5q86 0 86 57q0 23 -22.5 39t-104.5 19v135q78 4 96.5 19t18.5 36q0 47 -72 47q-29 0 -59.5 -15.5t-55.5 -54.5l-176 101q57 76 133 113.5t193 37.5q123 0 200.5 -49t77.5 -141q0 -66 -31.5 -100.5t-72.5 -53.5q45 -14 81 -51 t36 -104q0 -53 -23.5 -94.5t-64.5 -69t-97.5 -40.5t-122.5 -13q-111 0 -191.5 36.5t-133.5 116.5z" />
<glyph unicode="&#xb4;" horiz-adv-x="745" d="M82 1253l457 265l125 -218l-494 -202z" />
<glyph unicode="&#xb5;" horiz-adv-x="1280" d="M115 -385v1384h358v-581q0 -74 31 -123t108 -49q47 0 77 17.5t45.5 46t20.5 64.5t5 72v549h358v-651q0 -72 18.5 -98.5t53.5 -26.5q31 0 72 14l24 -223q-35 -14 -83 -22t-89 -8q-90 0 -148.5 38.5t-80.5 98.5q-39 -70 -102.5 -103.5t-127.5 -33.5q-72 0 -123 25.5 t-75 55.5v-446h-342z" />
<glyph unicode="&#xb6;" horiz-adv-x="1085" d="M33 938q0 86 31.5 163t89 136t136.5 94t175 35h164v-1663h-219v813q-84 10 -154 47t-119 93.5t-76.5 129t-27.5 152.5zM727 -297v1663h223v-1663h-223z" />
<glyph unicode="&#xb7;" horiz-adv-x="653" d="M152 754q0 74 49 127t135 53t135 -53.5t49 -126.5q0 -74 -49 -126.5t-135 -52.5t-135 52.5t-49 126.5z" />
<glyph unicode="&#xb8;" horiz-adv-x="665" d="M125 -385l133 295h289l-178 -295h-244z" />
<glyph unicode="&#xb9;" horiz-adv-x="706" d="M61 1210l283 150h199v-684h-258v438l-133 -70z" />
<glyph unicode="&#xba;" horiz-adv-x="845" d="M53 989q0 76 23.5 143.5t70 120t115 83t158.5 30.5t159.5 -30.5t116.5 -83t71 -120t24 -143.5q0 -74 -24 -142.5t-70 -120.5t-115.5 -84t-161.5 -32t-162 31q-68 33 -114 85t-68.5 120.5t-22.5 142.5zM303 989q0 -82 29 -129q31 -47 88 -47q59 0 90 47t31 129 q0 86 -31 133t-88 47q-59 0 -89 -47t-30 -133z" />
<glyph unicode="&#xbb;" horiz-adv-x="1169" d="M37 776l225 174l381 -430l-381 -424l-223 172l240 252zM528 240l258 280l-251 289l239 162l375 -451l-379 -450z" />
<glyph unicode="&#xbc;" horiz-adv-x="1822" d="M96 1210l283 150h199v-684h-258v438l-133 -70zM174 135l1364 1251l166 -163l-1368 -1256zM1065 119v172l337 385h242v-395h82v-162h-82v-133h-258v133h-321zM1239 281h147v176z" />
<glyph unicode="&#xbd;" horiz-adv-x="1822" d="M79 1210l283 150h199v-684h-258v438l-133 -70zM143 135l1364 1251l166 -163l-1368 -1256zM1110 496q47 86 134 140t210 54q57 0 109.5 -15t90 -44t60 -70t22.5 -90t-20.5 -92t-52 -80t-72.5 -68.5t-82 -60.5h232v-184h-594v121q76 63 148.5 120.5t131.5 114.5 q29 29 43.5 51.5t14.5 51.5q0 59 -62 59q-61 0 -111 -96z" />
<glyph unicode="&#xbe;" horiz-adv-x="1822" d="M107 817l180 103q25 -41 56.5 -57.5t68.5 -16.5q86 0 86 57q0 23 -22.5 39t-104.5 19v135q78 4 96.5 19t18.5 36q0 47 -72 47q-29 0 -59.5 -15.5t-55.5 -54.5l-176 101q57 76 133 113.5t193 37.5q123 0 200.5 -49t77.5 -141q0 -66 -31.5 -100.5t-72.5 -53.5 q45 -14 81 -51t36 -104q0 -53 -23.5 -94.5t-64.5 -69t-97.5 -40.5t-122.5 -13q-111 0 -191.5 36.5t-133.5 116.5zM176 135l1364 1251l166 -163l-1368 -1256zM1053 119v172l337 385h242v-395h82v-162h-82v-133h-258v133h-321zM1227 281h147v176z" />
<glyph unicode="&#xbf;" horiz-adv-x="937" d="M20 -31q0 111 51.5 186.5t123.5 137.5q63 55 97 101t34 110v31h344v-80q0 -88 -38 -155t-87 -107q-37 -33 -69 -58.5t-53.5 -50.5t-33.5 -49.5t-12 -54.5q0 -51 29.5 -80t89.5 -29q53 0 104 39t98 110l256 -163q-35 -57 -80 -105.5t-103 -83.5t-132 -54.5t-166 -19.5 q-217 0 -335 103.5t-118 271.5zM303 834q0 78 53.5 127t139.5 49q84 0 138 -49.5t54 -126.5q0 -78 -54 -127.5t-138 -49.5q-87 1 -140 50t-53 127z" />
<glyph unicode="&#xc0;" horiz-adv-x="1386" d="M-10 0l530 1368h342l535 -1368h-393l-89 236h-458l-90 -236h-377zM330 1636l125 218l457 -265l-89 -155zM537 514h294l-147 416z" />
<glyph unicode="&#xc1;" horiz-adv-x="1386" d="M-10 0l530 1368h342l535 -1368h-393l-89 236h-458l-90 -236h-377zM426 1589l457 265l125 -218l-494 -202zM537 514h294l-147 416z" />
<glyph unicode="&#xc2;" horiz-adv-x="1386" d="M-10 0l530 1368h342l535 -1368h-393l-89 236h-458l-90 -236h-377zM331 1589l240 220h233l244 -224l-141 -137l-219 166l-228 -168zM537 514h294l-147 416z" />
<glyph unicode="&#xc3;" horiz-adv-x="1386" d="M-10 0l530 1368h342l535 -1368h-393l-89 236h-458l-90 -236h-377zM251 1530q35 119 103.5 188.5t161.5 69.5q51 0 98 -22.5t90 -45.5l49.5 -22t50.5 -10q35 0 61.5 28.5t47.5 79.5l170 -65q-29 -115 -94.5 -190t-169.5 -75q-43 0 -83 15.5t-75 36.5q-35 20 -65.5 34.5 t-65.5 14.5q-37 0 -61.5 -27.5t-51.5 -85.5zM537 514h294l-147 416z" />
<glyph unicode="&#xc4;" horiz-adv-x="1386" d="M-10 0l530 1368h342l535 -1368h-393l-89 236h-458l-90 -236h-377zM299 1628q0 66 44 111t122 45t122 -45t44 -111t-44 -109.5t-122 -43.5t-122 44t-44 109zM537 514h294l-147 416zM742 1628q0 66 44 111t122 45t121.5 -45t43.5 -111t-43.5 -109.5t-121.5 -43.5t-122 44 t-44 109z" />
<glyph unicode="&#xc5;" horiz-adv-x="1386" d="M-10 0l530 1368h342l535 -1368h-393l-89 236h-458l-90 -236h-377zM439 1556q0 45 15 90t47 79t79 55.5t110 21.5t111.5 -21.5t80.5 -55.5t47 -79t15 -90t-15 -89t-47 -77.5t-80 -55t-112 -21.5q-63 0 -110 20q-47 23 -79 56.5t-47 77.5t-15 89zM537 514h294l-147 416z M596 1558q0 -42 25 -71q27 -27 69 -27q43 0 69 27.5t26 70.5q0 45 -26 72t-69 27t-68.5 -27t-25.5 -72z" />
<glyph unicode="&#xc6;" horiz-adv-x="1933" d="M-10 0l798 1368h1051v-321h-545v-216h432v-292h-432v-220h588v-319h-954v268h-385l-154 -268h-399zM670 551h258v461z" />
<glyph unicode="&#xc7;" horiz-adv-x="1304" d="M74 680q0 176 50 310t136 223.5t199.5 134.5t242.5 45q106 0 190.5 -22.5t151 -68t117.5 -111t92 -153.5l-297 -157q-39 98 -92 152t-143 54q-68 0 -119 -30.5t-85 -83.5t-51 -129t-17 -164q0 -180 75.5 -285.5t202.5 -105.5q92 0 148.5 48t91.5 128l297 -162 q-76 -164 -205 -248t-348 -84q-145 0 -263 49.5t-201 141.5t-128 223t-45 295zM447 -385l133 295h289l-178 -295h-244z" />
<glyph unicode="&#xc8;" horiz-adv-x="1193" d="M127 0v1366h973v-313h-606v-226h493v-288h-493v-224h649v-315h-1016zM287 1636l125 218l457 -265l-89 -155z" />
<glyph unicode="&#xc9;" horiz-adv-x="1193" d="M127 0v1366h973v-313h-606v-226h493v-288h-493v-224h649v-315h-1016zM358 1589l457 265l125 -218l-494 -202z" />
<glyph unicode="&#xca;" horiz-adv-x="1193" d="M127 0v1366h973v-313h-606v-226h493v-288h-493v-224h649v-315h-1016zM254 1589l240 220h233l244 -224l-141 -137l-219 166l-228 -168z" />
<glyph unicode="&#xcb;" horiz-adv-x="1193" d="M127 0v1366h973v-313h-606v-226h493v-288h-493v-224h649v-315h-1016zM237 1628q0 66 44 111t122 45t122 -45t44 -111t-44 -109.5t-122 -43.5t-122 44t-44 109zM680 1628q0 66 44 111t122 45t121.5 -45t43.5 -111t-43.5 -109.5t-121.5 -43.5t-122 44t-44 109z" />
<glyph unicode="&#xcc;" horiz-adv-x="620" d="M-29 1636l125 218l457 -265l-89 -155zM127 0v1366h367v-1366h-367z" />
<glyph unicode="&#xcd;" horiz-adv-x="620" d="M70 1589l457 265l125 -218l-494 -202zM127 0v1366h367v-1366h-367z" />
<glyph unicode="&#xce;" horiz-adv-x="620" d="M-41 1589l240 220h233l244 -224l-141 -137l-219 166l-228 -168zM127 0v1366h367v-1366h-367z" />
<glyph unicode="&#xcf;" horiz-adv-x="620" d="M-70 1628q0 66 44 111t122 45t122 -45t44 -111t-44 -109.5t-122 -43.5t-122 44t-44 109zM127 0v1366h367v-1366h-367zM373 1628q0 66 44 111t122 45t121.5 -45t43.5 -111t-43.5 -109.5t-121.5 -43.5t-122 44t-44 109z" />
<glyph unicode="&#xd0;" horiz-adv-x="1376" d="M-14 565v264h141v537h373q92 0 196.5 -8t192.5 -37q102 -35 180 -96.5t130 -144.5t79 -183t27 -211q0 -109 -27 -209t-80 -183t-131 -145.5t-178 -99.5q-88 -31 -187.5 -40t-197.5 -9h-377v565h-141zM494 313h94q164 0 254 97.5t90 271.5q0 172 -88 271.5t-254 99.5h-96 v-224h249v-264h-249v-252z" />
<glyph unicode="&#xd1;" horiz-adv-x="1429" d="M127 0v1366h371l444 -723v723h361v-1366h-334l-484 772v-772h-358zM303 1530q35 119 103.5 188.5t161.5 69.5q51 0 98 -22.5t90 -45.5l49.5 -22t50.5 -10q35 0 61.5 28.5t47.5 79.5l170 -65q-29 -115 -94.5 -190t-169.5 -75q-43 0 -83 15.5t-75 36.5q-35 20 -65.5 34.5 t-65.5 14.5q-37 0 -61.5 -27.5t-51.5 -85.5z" />
<glyph unicode="&#xd2;" horiz-adv-x="1452" d="M76 684q0 145 41 274t123 225.5t203.5 153t281.5 56.5t281.5 -56.5t203.5 -153t124 -225.5t42 -274t-42 -274t-124 -226.5t-203.5 -155t-281.5 -57.5q-160 1 -283 58q-121 57 -202.5 154.5t-122.5 226.5t-41 274zM379 1636l125 218l457 -265l-89 -155zM449 684 q0 -86 17 -161t52 -130q37 -53 88 -83.5t119 -30.5t119 30.5t87 85t53 129t17 160.5t-17 161t-53 128t-87 83.5t-119 30.5t-119 -30.5t-87 -83.5t-53 -128t-17 -161z" />
<glyph unicode="&#xd3;" horiz-adv-x="1452" d="M76 684q0 145 41 274t123 225.5t203.5 153t281.5 56.5t281.5 -56.5t203.5 -153t124 -225.5t42 -274t-42 -274t-124 -226.5t-203.5 -155t-281.5 -57.5q-160 1 -283 58q-121 57 -202.5 154.5t-122.5 226.5t-41 274zM449 684q0 -86 17 -161t52 -130q37 -53 88 -83.5 t119 -30.5t119 30.5t87 85t53 129t17 160.5t-17 161t-53 128t-87 83.5t-119 30.5t-119 -30.5t-87 -83.5t-53 -128t-17 -161zM461 1589l457 265l125 -218l-494 -202z" />
<glyph unicode="&#xd4;" horiz-adv-x="1452" d="M76 684q0 145 41 274t123 225.5t203.5 153t281.5 56.5t281.5 -56.5t203.5 -153t124 -225.5t42 -274t-42 -274t-124 -226.5t-203.5 -155t-281.5 -57.5q-160 1 -283 58q-121 57 -202.5 154.5t-122.5 226.5t-41 274zM368 1589l240 220h233l244 -224l-141 -137l-219 166 l-228 -168zM449 684q0 -86 17 -161t52 -130q37 -53 88 -83.5t119 -30.5t119 30.5t87 85t53 129t17 160.5t-17 161t-53 128t-87 83.5t-119 30.5t-119 -30.5t-87 -83.5t-53 -128t-17 -161z" />
<glyph unicode="&#xd5;" horiz-adv-x="1452" d="M76 684q0 145 41 274t123 225.5t203.5 153t281.5 56.5t281.5 -56.5t203.5 -153t124 -225.5t42 -274t-42 -274t-124 -226.5t-203.5 -155t-281.5 -57.5q-160 1 -283 58q-121 57 -202.5 154.5t-122.5 226.5t-41 274zM292 1530q35 119 103.5 188.5t161.5 69.5q51 0 98 -22.5 t90 -45.5l49.5 -22t50.5 -10q35 0 61.5 28.5t47.5 79.5l170 -65q-29 -115 -94.5 -190t-169.5 -75q-43 0 -83 15.5t-75 36.5q-35 20 -65.5 34.5t-65.5 14.5q-37 0 -61.5 -27.5t-51.5 -85.5zM449 684q0 -86 17 -161t52 -130q37 -53 88 -83.5t119 -30.5t119 30.5t87 85t53 129 t17 160.5t-17 161t-53 128t-87 83.5t-119 30.5t-119 -30.5t-87 -83.5t-53 -128t-17 -161z" />
<glyph unicode="&#xd6;" horiz-adv-x="1452" d="M76 684q0 145 41 274t123 225.5t203.5 153t281.5 56.5t281.5 -56.5t203.5 -153t124 -225.5t42 -274t-42 -274t-124 -226.5t-203.5 -155t-281.5 -57.5q-160 1 -283 58q-121 57 -202.5 154.5t-122.5 226.5t-41 274zM331 1628q0 66 44 111t122 45t122 -45t44 -111 t-44 -109.5t-122 -43.5t-122 44t-44 109zM449 684q0 -86 17 -161t52 -130q37 -53 88 -83.5t119 -30.5t119 30.5t87 85t53 129t17 160.5t-17 161t-53 128t-87 83.5t-119 30.5t-119 -30.5t-87 -83.5t-53 -128t-17 -161zM774 1628q0 66 44 111t122 45t121.5 -45t43.5 -111 t-43.5 -109.5t-121.5 -43.5t-122 44t-44 109z" />
<glyph unicode="&#xd7;" horiz-adv-x="1175" d="M125 936l205 207l262 -260l256 254l199 -199l-256 -256l260 -260l-207 -205l-258 258l-256 -254l-199 199l254 254z" />
<glyph unicode="&#xd8;" horiz-adv-x="1452" d="M66 84l133 154q-61 92 -92 205.5t-31 240.5q0 145 41 274t123 225.5t203.5 153t281.5 56.5q117 0 211 -29t170 -82l117 135l172 -145l-133 -156q57 -90 85.5 -199.5t28.5 -232.5q0 -145 -42 -275t-124 -227.5t-203.5 -154t-281.5 -56.5q-111 0 -203 28t-166 77l-118 -137 zM451 684q0 -86 17 -161t52 -128t86 -83.5t119 -30.5t119 30.5t86 84t52 128t17 160.5t-17 160t-52 127t-86 83.5t-119 30.5t-119 -30.5t-86 -83.5t-52 -127t-17 -160z" />
<glyph unicode="&#xd9;" horiz-adv-x="1415" d="M119 489v877h366v-852q0 -111 57.5 -170t166.5 -59q106 0 163.5 59t57.5 170v852h366v-877q0 -123 -42 -219t-119.5 -162.5t-186 -101.5t-241.5 -35t-241 35t-185.5 101.5t-119.5 163t-42 218.5zM330 1636l125 218l457 -265l-89 -155z" />
<glyph unicode="&#xda;" horiz-adv-x="1415" d="M119 489v877h366v-852q0 -111 57.5 -170t166.5 -59q106 0 163.5 59t57.5 170v852h366v-877q0 -123 -42 -219t-119.5 -162.5t-186 -101.5t-241.5 -35t-241 35t-185.5 101.5t-119.5 163t-42 218.5zM469 1589l457 265l125 -218l-494 -202z" />
<glyph unicode="&#xdb;" horiz-adv-x="1415" d="M119 489v877h366v-852q0 -111 57.5 -170t166.5 -59q106 0 163.5 59t57.5 170v852h366v-877q0 -123 -42 -219t-119.5 -162.5t-186 -101.5t-241.5 -35t-241 35t-185.5 101.5t-119.5 163t-42 218.5zM356 1589l240 220h233l244 -224l-141 -137l-219 166l-228 -168z" />
<glyph unicode="&#xdc;" horiz-adv-x="1415" d="M119 489v877h366v-852q0 -111 57.5 -170t166.5 -59q106 0 163.5 59t57.5 170v852h366v-877q0 -123 -42 -219t-119.5 -162.5t-186 -101.5t-241.5 -35t-241 35t-185.5 101.5t-119.5 163t-42 218.5zM317 1628q0 66 44 111t122 45t122 -45t44 -111t-44 -109.5t-122 -43.5 t-122 44t-44 109zM760 1628q0 66 44 111t122 45t121.5 -45t43.5 -111t-43.5 -109.5t-121.5 -43.5t-122 44t-44 109z" />
<glyph unicode="&#xdd;" horiz-adv-x="1308" d="M-10 1366h413l259 -481l247 481h410l-477 -834v-532h-367v532zM428 1589l457 265l125 -218l-494 -202z" />
<glyph unicode="&#xde;" horiz-adv-x="1220" d="M127 0v1366h360v-199h72q111 0 223.5 -12t204.5 -61q102 -55 153.5 -154.5t51.5 -222.5q0 -131 -57.5 -237.5t-165.5 -162.5q-70 -35 -149 -51t-169 -16h-164v-250h-360zM487 547h172q74 0 122 43t48 119t-48 116.5t-126 40.5h-168v-319z" />
<glyph unicode="&#xdf;" horiz-adv-x="1318" d="M16 758v250h140v8q0 92 36.5 161.5t105.5 117.5t165 73t213 25q258 0 399.5 -109.5t141.5 -318.5v-203h-191q-37 0 -58.5 -16.5t-21.5 -45.5q0 -31 22.5 -53t92.5 -57q117 -57 171 -128t54 -183q0 -133 -96 -216t-264 -83q-129 0 -210 41.5t-138 105.5l182 156 q29 -39 61.5 -57.5t67.5 -18.5q31 0 51.5 15.5t20.5 49.5q0 39 -31 69t-127 75q-41 18 -77 43.5t-62.5 60.5t-42 82t-15.5 107q0 127 72 200.5t196 83.5q-4 80 -48 115t-136 35q-53 0 -87 -12.5t-53.5 -32t-27.5 -44t-8 -48.5v-1006h-358v758h-140z" />
<glyph unicode="&#xe0;" horiz-adv-x="1073" d="M47 287q0 74 27.5 129t76 94t112 63.5t134.5 34.5q66 10 122 15.5t104 7.5v24q0 61 -39 90t-92 29q-59 0 -111.5 -22.5t-101.5 -61.5l-160 178q82 72 183 113t243 41q197 0 313.5 -95.5t116.5 -295.5v-631h-301l-29 78q-41 -39 -110.5 -66.5t-161.5 -27.5 q-70 0 -129.5 20.5t-103.5 60t-68.5 95t-24.5 127.5zM223 1300l125 218l457 -265l-89 -155zM381 319q0 -43 29.5 -70.5t83.5 -27.5q39 0 70.5 12.5t58.5 32.5v187q-31 -2 -62 -5.5t-63 -9.5q-63 -10 -90 -44t-27 -75z" />
<glyph unicode="&#xe1;" horiz-adv-x="1073" d="M47 287q0 74 27.5 129t76 94t112 63.5t134.5 34.5q66 10 122 15.5t104 7.5v24q0 61 -39 90t-92 29q-59 0 -111.5 -22.5t-101.5 -61.5l-160 178q82 72 183 113t243 41q197 0 313.5 -95.5t116.5 -295.5v-631h-301l-29 78q-41 -39 -110.5 -66.5t-161.5 -27.5 q-70 0 -129.5 20.5t-103.5 60t-68.5 95t-24.5 127.5zM252 1253l457 265l125 -218l-494 -202zM381 319q0 -43 29.5 -70.5t83.5 -27.5q39 0 70.5 12.5t58.5 32.5v187q-31 -2 -62 -5.5t-63 -9.5q-63 -10 -90 -44t-27 -75z" />
<glyph unicode="&#xe2;" horiz-adv-x="1073" d="M47 287q0 74 27.5 129t76 94t112 63.5t134.5 34.5q66 10 122 15.5t104 7.5v24q0 61 -39 90t-92 29q-59 0 -111.5 -22.5t-101.5 -61.5l-160 178q82 72 183 113t243 41q197 0 313.5 -95.5t116.5 -295.5v-631h-301l-29 78q-41 -39 -110.5 -66.5t-161.5 -27.5 q-70 0 -129.5 20.5t-103.5 60t-68.5 95t-24.5 127.5zM168 1253l240 220h233l244 -224l-141 -137l-219 166l-228 -168zM381 319q0 -43 29.5 -70.5t83.5 -27.5q39 0 70.5 12.5t58.5 32.5v187q-31 -2 -62 -5.5t-63 -9.5q-63 -10 -90 -44t-27 -75z" />
<glyph unicode="&#xe3;" horiz-adv-x="1073" d="M47 287q0 74 27.5 129t76 94t112 63.5t134.5 34.5q66 10 122 15.5t104 7.5v24q0 61 -39 90t-92 29q-59 0 -111.5 -22.5t-101.5 -61.5l-160 178q82 72 183 113t243 41q197 0 313.5 -95.5t116.5 -295.5v-631h-301l-29 78q-41 -39 -110.5 -66.5t-161.5 -27.5 q-70 0 -129.5 20.5t-103.5 60t-68.5 95t-24.5 127.5zM114 1194q35 119 103.5 188.5t161.5 69.5q51 0 98 -22.5t90 -45.5l49.5 -22t50.5 -10q35 0 61.5 28.5t47.5 79.5l170 -65q-29 -115 -94.5 -190t-169.5 -75q-43 0 -83 15.5t-75 36.5q-35 20 -65.5 34.5t-65.5 14.5 q-37 0 -61.5 -27.5t-51.5 -85.5zM381 319q0 -43 29.5 -70.5t83.5 -27.5q39 0 70.5 12.5t58.5 32.5v187q-31 -2 -62 -5.5t-63 -9.5q-63 -10 -90 -44t-27 -75z" />
<glyph unicode="&#xe4;" horiz-adv-x="1073" d="M47 287q0 74 27.5 129t76 94t112 63.5t134.5 34.5q66 10 122 15.5t104 7.5v24q0 61 -39 90t-92 29q-59 0 -111.5 -22.5t-101.5 -61.5l-160 178q82 72 183 113t243 41q197 0 313.5 -95.5t116.5 -295.5v-631h-301l-29 78q-41 -39 -110.5 -66.5t-161.5 -27.5 q-70 0 -129.5 20.5t-103.5 60t-68.5 95t-24.5 127.5zM145 1292q0 66 44 111t122 45t122 -45t44 -111t-44 -109.5t-122 -43.5t-122 44t-44 109zM381 319q0 -43 29.5 -70.5t83.5 -27.5q39 0 70.5 12.5t58.5 32.5v187q-31 -2 -62 -5.5t-63 -9.5q-63 -10 -90 -44t-27 -75z M588 1292q0 66 44 111t122 45t121.5 -45t43.5 -111t-43.5 -109.5t-121.5 -43.5t-122 44t-44 109z" />
<glyph unicode="&#xe5;" horiz-adv-x="1073" d="M47 287q0 74 27.5 129t76 94t112 63.5t134.5 34.5q66 10 122 15.5t104 7.5v24q0 61 -39 90t-92 29q-59 0 -111.5 -22.5t-101.5 -61.5l-160 178q82 72 183 113t243 41q197 0 313.5 -95.5t116.5 -295.5v-631h-301l-29 78q-41 -39 -110.5 -66.5t-161.5 -27.5 q-70 0 -129.5 20.5t-103.5 60t-68.5 95t-24.5 127.5zM285 1335q0 45 15 90t47 79t79 55.5t110 21.5t111.5 -21.5t80.5 -55.5t47 -79t15 -90t-15 -89t-47 -77.5t-80 -55t-112 -21.5q-63 0 -110 20q-47 23 -79 56.5t-47 77.5t-15 89zM381 319q0 -43 29.5 -70.5t83.5 -27.5 q39 0 70.5 12.5t58.5 32.5v187q-31 -2 -62 -5.5t-63 -9.5q-63 -10 -90 -44t-27 -75zM442 1337q0 -42 25 -71q27 -27 69 -27q43 0 69 27.5t26 70.5q0 45 -26 72t-69 27t-68.5 -27t-25.5 -72z" />
<glyph unicode="&#xe6;" horiz-adv-x="1667" d="M47 285q0 70 25.5 123t69.5 92t105.5 64.5t133.5 39.5q59 12 120.5 18.5t119.5 8.5v37q0 53 -38 78.5t-98 25.5q-53 0 -111.5 -24.5t-97.5 -59.5l-161 182q31 27 70.5 54.5t91 49t113 35t132.5 13.5q127 0 200 -39t116 -94q47 53 124.5 93t198.5 40q209 0 333 -145.5 t124 -446.5h-631q4 -82 58.5 -133t134.5 -51q66 0 110.5 25.5t77.5 70.5l223 -172q-55 -80 -162.5 -135t-257.5 -55q-145 0 -228 45t-130 108q-33 -31 -70.5 -58.5t-85 -49t-104.5 -33.5t-127 -12q-84 0 -153.5 20t-120 59t-78 95.5t-27.5 130.5zM389 313q0 -41 27.5 -67.5 t77.5 -26.5q66 0 96.5 30t30.5 70v125q-35 -2 -75 -6t-73 -14q-84 -23 -84 -111zM987 623h295q-6 78 -42 124t-99 46q-74 0 -112 -49.5t-42 -120.5z" />
<glyph unicode="&#xe7;" horiz-adv-x="1067" d="M61 496q0 127 38 225t105.5 164.5t160 101.5t200.5 35q98 0 174 -22.5t132.5 -63.5t93 -96.5t59.5 -118.5l-272 -121q-33 92 -73 126t-99 34q-70 0 -119 -62.5t-49 -197.5q0 -127 49 -192.5t125 -65.5q66 0 110.5 38.5t67.5 110.5l270 -131q-59 -137 -169.5 -208.5 t-295.5 -71.5q-106 0 -199.5 33.5t-162 99t-107.5 162t-39 221.5zM311 -385l133 295h289l-178 -295h-244z" />
<glyph unicode="&#xe8;" horiz-adv-x="1107" d="M61 498q0 125 39 222t106.5 164.5t161 102.5t201.5 35q223 0 355.5 -144.5t134.5 -445.5h-649q4 -90 58 -140t138 -50q68 0 116 24.5t89 75.5l219 -172q-33 -41 -75 -75t-96 -60.5t-124.5 -40.5t-159.5 -14q-106 0 -199 32.5t-163 97t-111 162t-41 226.5zM240 1300 l125 218l457 -265l-89 -155zM412 623h311q-6 80 -48 126t-102 46q-61 0 -107 -47.5t-54 -124.5z" />
<glyph unicode="&#xe9;" horiz-adv-x="1107" d="M61 498q0 125 39 222t106.5 164.5t161 102.5t201.5 35q223 0 355.5 -144.5t134.5 -445.5h-649q4 -90 58 -140t138 -50q68 0 116 24.5t89 75.5l219 -172q-33 -41 -75 -75t-96 -60.5t-124.5 -40.5t-159.5 -14q-106 0 -199 32.5t-163 97t-111 162t-41 226.5zM289 1253 l457 265l125 -218l-494 -202zM412 623h311q-6 80 -48 126t-102 46q-61 0 -107 -47.5t-54 -124.5z" />
<glyph unicode="&#xea;" horiz-adv-x="1107" d="M61 498q0 125 39 222t106.5 164.5t161 102.5t201.5 35q223 0 355.5 -144.5t134.5 -445.5h-649q4 -90 58 -140t138 -50q68 0 116 24.5t89 75.5l219 -172q-33 -41 -75 -75t-96 -60.5t-124.5 -40.5t-159.5 -14q-106 0 -199 32.5t-163 97t-111 162t-41 226.5zM202 1253 l240 220h233l244 -224l-141 -137l-219 166l-228 -168zM412 623h311q-6 80 -48 126t-102 46q-61 0 -107 -47.5t-54 -124.5z" />
<glyph unicode="&#xeb;" horiz-adv-x="1107" d="M61 498q0 125 39 222t106.5 164.5t161 102.5t201.5 35q223 0 355.5 -144.5t134.5 -445.5h-649q4 -90 58 -140t138 -50q68 0 116 24.5t89 75.5l219 -172q-33 -41 -75 -75t-96 -60.5t-124.5 -40.5t-159.5 -14q-106 0 -199 32.5t-163 97t-111 162t-41 226.5zM178 1292 q0 66 44 111t122 45t122 -45t44 -111t-44 -109.5t-122 -43.5t-122 44t-44 109zM412 623h311q-6 80 -48 126t-102 46q-61 0 -107 -47.5t-54 -124.5zM621 1292q0 66 44 111t122 45t121.5 -45t43.5 -111t-43.5 -109.5t-121.5 -43.5t-122 44t-44 109z" />
<glyph unicode="&#xec;" horiz-adv-x="567" d="M-49 1300l125 218l457 -265l-89 -155zM104 0v995h359v-995h-359z" />
<glyph unicode="&#xed;" horiz-adv-x="567" d="M35 1253l457 265l125 -218l-494 -202zM104 0v995h359v-995h-359z" />
<glyph unicode="&#xee;" horiz-adv-x="567" d="M-70 1253l240 220h233l244 -224l-141 -137l-219 166l-228 -168zM104 0v995h359v-995h-359z" />
<glyph unicode="&#xef;" horiz-adv-x="567" d="M-99 1292q0 66 44 111t122 45t122 -45t44 -111t-44 -109.5t-122 -43.5t-122 44t-44 109zM104 0v995h359v-995h-359zM344 1292q0 66 44 111t122 45t121.5 -45t43.5 -111t-43.5 -109.5t-121.5 -43.5t-122 44t-44 109z" />
<glyph unicode="&#xf0;" horiz-adv-x="1175" d="M59 485q0 115 35 207t97.5 157.5t151.5 100.5t198 35q53 0 106 -12q-47 78 -154.5 130t-230.5 75l82 239q84 -10 167 -36.5t142 -61.5l113 131l190 -141l-106 -127q264 -246 264 -652q0 -123 -35 -224t-102.5 -174t-165.5 -112.5t-227 -39.5q-111 0 -207 30.5t-167 94 t-111 158.5t-40 222zM412 487q0 -121 48 -183t126 -62q72 0 122 59t50 209q0 56 -10 115q-8 61 -19 94q-29 10 -58.5 14t-54.5 4q-96 0 -150 -62.5t-54 -187.5z" />
<glyph unicode="&#xf1;" horiz-adv-x="1208" d="M104 0v999h312l18 -86q49 43 126 76t169 33q170 0 274.5 -96.5t104.5 -296.5v-629h-358v588q0 80 -35 124t-101 44q-47 0 -84.5 -19.5t-66.5 -46.5v-690h-359zM178 1194q35 119 103.5 188.5t161.5 69.5q51 0 98 -22.5t90 -45.5l49.5 -22t50.5 -10q35 0 61.5 28.5 t47.5 79.5l170 -65q-29 -115 -94.5 -190t-169.5 -75q-43 0 -83 15.5t-75 36.5q-35 20 -65.5 34.5t-65.5 14.5q-37 0 -61.5 -27.5t-51.5 -85.5z" />
<glyph unicode="&#xf2;" horiz-adv-x="1169" d="M61 504q0 111 35 205t102.5 163.5t165 109.5t222.5 40t222 -40t164.5 -109.5t102.5 -164t35 -204.5q0 -109 -35 -205t-102.5 -167t-164.5 -111.5t-222 -40.5q-126 -1 -224 40q-96 41 -163.5 112t-102.5 167t-35 205zM234 1300l125 218l457 -265l-89 -155zM412 504 q0 -111 43 -187q45 -76 131 -75q86 0 129 75.5t43 186.5t-43 182.5t-129 71.5t-130 -72t-44 -182z" />
<glyph unicode="&#xf3;" horiz-adv-x="1169" d="M61 504q0 111 35 205t102.5 163.5t165 109.5t222.5 40t222 -40t164.5 -109.5t102.5 -164t35 -204.5q0 -109 -35 -205t-102.5 -167t-164.5 -111.5t-222 -40.5q-126 -1 -224 40q-96 41 -163.5 112t-102.5 167t-35 205zM303 1253l457 265l125 -218l-494 -202zM412 504 q0 -111 43 -187q45 -76 131 -75q86 0 129 75.5t43 186.5t-43 182.5t-129 71.5t-130 -72t-44 -182z" />
<glyph unicode="&#xf4;" horiz-adv-x="1169" d="M61 504q0 111 35 205t102.5 163.5t165 109.5t222.5 40t222 -40t164.5 -109.5t102.5 -164t35 -204.5q0 -109 -35 -205t-102.5 -167t-164.5 -111.5t-222 -40.5q-126 -1 -224 40q-96 41 -163.5 112t-102.5 167t-35 205zM223 1253l240 220h233l244 -224l-141 -137l-219 166 l-228 -168zM412 504q0 -111 43 -187q45 -76 131 -75q86 0 129 75.5t43 186.5t-43 182.5t-129 71.5t-130 -72t-44 -182z" />
<glyph unicode="&#xf5;" horiz-adv-x="1169" d="M61 504q0 111 35 205t102.5 163.5t165 109.5t222.5 40t222 -40t164.5 -109.5t102.5 -164t35 -204.5q0 -109 -35 -205t-102.5 -167t-164.5 -111.5t-222 -40.5q-126 -1 -224 40q-96 41 -163.5 112t-102.5 167t-35 205zM155 1194q35 119 103.5 188.5t161.5 69.5 q51 0 98 -22.5t90 -45.5l49.5 -22t50.5 -10q35 0 61.5 28.5t47.5 79.5l170 -65q-29 -115 -94.5 -190t-169.5 -75q-43 0 -83 15.5t-75 36.5q-35 20 -65.5 34.5t-65.5 14.5q-37 0 -61.5 -27.5t-51.5 -85.5zM412 504q0 -111 43 -187q45 -76 131 -75q86 0 129 75.5t43 186.5 t-43 182.5t-129 71.5t-130 -72t-44 -182z" />
<glyph unicode="&#xf6;" horiz-adv-x="1169" d="M61 504q0 111 35 205t102.5 163.5t165 109.5t222.5 40t222 -40t164.5 -109.5t102.5 -164t35 -204.5q0 -109 -35 -205t-102.5 -167t-164.5 -111.5t-222 -40.5q-126 -1 -224 40q-96 41 -163.5 112t-102.5 167t-35 205zM196 1292q0 66 44 111t122 45t122 -45t44 -111 t-44 -109.5t-122 -43.5t-122 44t-44 109zM412 504q0 -111 43 -187q45 -76 131 -75q86 0 129 75.5t43 186.5t-43 182.5t-129 71.5t-130 -72t-44 -182zM639 1292q0 66 44 111t122 45t121.5 -45t43.5 -111t-43.5 -109.5t-121.5 -43.5t-122 44t-44 109z" />
<glyph unicode="&#xf7;" d="M70 537v282h1034v-282h-1034zM410 283q0 72 50 121t128 49q76 0 126 -49.5t50 -120.5q0 -72 -50 -121t-126 -49q-78 0 -129 49q-49 49 -49 121zM410 1085q0 72 50 121t128 49q76 0 126 -49t50 -121t-50 -122t-126 -50q-78 0 -128 50.5t-50 121.5z" />
<glyph unicode="&#xf8;" horiz-adv-x="1171" d="M61 502q0 111 35 204t102.5 162.5t166 108.5t223.5 39q141 0 250 -51l104 116l164 -133l-102 -112q109 -137 108 -334q0 -111 -35 -206t-102.5 -166t-164.5 -110.5t-222 -39.5q-150 0 -260 57l-105 -115l-160 133l103 115q-104 139 -105 332zM416 502q0 -113 43 -187 t129 -73q84 0 127 73.5t43 186.5q0 111 -43 180.5t-127 69.5q-86 0 -129 -70t-43 -180z" />
<glyph unicode="&#xf9;" horiz-adv-x="1206" d="M98 369v630h359v-589q0 -76 29.5 -120t99.5 -44q53 0 92 18.5t63 40.5v694h359v-999h-314l-16 84q-53 -47 -127 -75.5t-166 -28.5q-178 0 -278.5 97t-100.5 292zM242 1300l125 218l457 -265l-89 -155z" />
<glyph unicode="&#xfa;" horiz-adv-x="1206" d="M98 369v630h359v-589q0 -76 29.5 -120t99.5 -44q53 0 92 18.5t63 40.5v694h359v-999h-314l-16 84q-53 -47 -127 -75.5t-166 -28.5q-178 0 -278.5 97t-100.5 292zM354 1253l457 265l125 -218l-494 -202z" />
<glyph unicode="&#xfb;" horiz-adv-x="1206" d="M98 369v630h359v-589q0 -76 29.5 -120t99.5 -44q53 0 92 18.5t63 40.5v694h359v-999h-314l-16 84q-53 -47 -127 -75.5t-166 -28.5q-178 0 -278.5 97t-100.5 292zM241 1253l240 220h233l244 -224l-141 -137l-219 166l-228 -168z" />
<glyph unicode="&#xfc;" horiz-adv-x="1206" d="M98 369v630h359v-589q0 -76 29.5 -120t99.5 -44q53 0 92 18.5t63 40.5v694h359v-999h-314l-16 84q-53 -47 -127 -75.5t-166 -28.5q-178 0 -278.5 97t-100.5 292zM215 1292q0 66 44 111t122 45t122 -45t44 -111t-44 -109.5t-122 -43.5t-122 44t-44 109zM658 1292 q0 66 44 111t122 45t121.5 -45t43.5 -111t-43.5 -109.5t-121.5 -43.5t-122 44t-44 109z" />
<glyph unicode="&#xfd;" horiz-adv-x="1144" d="M-8 999h389l203 -583l200 583h369l-500 -1183q-53 -125 -144 -176.5t-214 -51.5q-78 0 -143.5 16.5t-124.5 43.5l90 241q29 -16 67.5 -28.5t71.5 -12.5q39 0 62.5 14.5t39.5 51.5l58 129zM315 1253l457 265l125 -218l-494 -202z" />
<glyph unicode="&#xfe;" horiz-adv-x="1175" d="M104 -385v1751h328v-442q31 29 95.5 63.5t166.5 34.5q199 0 309.5 -136t110.5 -384q0 -109 -31.5 -205t-93 -167t-151.5 -112t-205 -41q-49 0 -92 8.5t-78 22.5v-393h-359zM463 268q20 -10 42.5 -16t57.5 -6q98 0 149.5 74.5t51.5 191.5q0 133 -46 192.5t-124 59.5 q-45 0 -80 -19.5t-51 -39.5v-437z" />
<glyph unicode="&#xff;" horiz-adv-x="1144" d="M-8 999h389l203 -583l200 583h369l-500 -1183q-53 -125 -144 -176.5t-214 -51.5q-78 0 -143.5 16.5t-124.5 43.5l90 241q29 -16 67.5 -28.5t71.5 -12.5q39 0 62.5 14.5t39.5 51.5l58 129zM192 1292q0 66 44 111t122 45t122 -45t44 -111t-44 -109.5t-122 -43.5t-122 44 t-44 109zM635 1292q0 66 44 111t122 45t121.5 -45t43.5 -111t-43.5 -109.5t-121.5 -43.5t-122 44t-44 109z" />
<glyph unicode="&#x152;" horiz-adv-x="2009" d="M76 684q0 158 54 284t151.5 215t232.5 137t297 48h1104v-315h-606v-226h493v-288h-493v-224h649v-315h-1176q-168 0 -299 48t-222 137t-138 216t-47 283zM449 684q0 -86 25.5 -155.5t72.5 -119t111.5 -75t144.5 -25.5h139v748h-139q-76 0 -140.5 -24.5t-112.5 -73 t-74.5 -118t-26.5 -157.5z" />
<glyph unicode="&#x153;" horiz-adv-x="1773" d="M61 504q0 111 35 205t102.5 163.5t165 109.5t222.5 40q113 0 198.5 -35t143.5 -96q53 53 129 92t192 39q240 0 356.5 -153.5t118.5 -436.5h-634q10 -94 61 -141t129 -47q55 0 105.5 21.5t93.5 76.5l219 -174q-61 -84 -172 -136t-248 -52q-123 0 -208 39.5t-142 97.5 q-61 -66 -150.5 -101.5t-212.5 -35.5q-121 0 -214 40.5t-157.5 111.5t-98.5 167t-34 205zM412 504q0 -111 43 -187q45 -76 131 -75q86 0 129 75.5t43 186.5t-43 182.5t-129 71.5t-130 -72t-44 -182zM1090 623h305q-2 33 -12.5 63.5t-30 55t-46 39t-63.5 14.5 q-35 0 -61.5 -14.5t-47 -39t-31.5 -55.5t-13 -63z" />
<glyph unicode="&#x178;" horiz-adv-x="1308" d="M-10 1366h413l259 -481l247 481h410l-477 -834v-532h-367v532zM274 1628q0 66 44 111t122 45t122 -45t44 -111t-44 -109.5t-122 -43.5t-122 44t-44 109zM717 1628q0 66 44 111t122 45t121.5 -45t43.5 -111t-43.5 -109.5t-121.5 -43.5t-122 44t-44 109z" />
<glyph unicode="&#x2c6;" horiz-adv-x="827" d="M55 1253l240 220h233l244 -224l-141 -137l-219 166l-228 -168z" />
<glyph unicode="&#x2dc;" horiz-adv-x="870" d="M18 1194q35 119 103.5 188.5t161.5 69.5q51 0 98 -22.5t90 -45.5l49.5 -22t50.5 -10q35 0 61.5 28.5t47.5 79.5l170 -65q-29 -115 -94.5 -190t-169.5 -75q-43 0 -83 15.5t-75 36.5q-35 20 -65.5 34.5t-65.5 14.5q-37 0 -61.5 -27.5t-51.5 -85.5z" />
<glyph unicode="&#x2000;" horiz-adv-x="927" />
<glyph unicode="&#x2001;" horiz-adv-x="1854" />
<glyph unicode="&#x2002;" horiz-adv-x="927" />
<glyph unicode="&#x2003;" horiz-adv-x="1854" />
<glyph unicode="&#x2004;" horiz-adv-x="618" />
<glyph unicode="&#x2005;" horiz-adv-x="463" />
<glyph unicode="&#x2006;" horiz-adv-x="309" />
<glyph unicode="&#x2007;" horiz-adv-x="309" />
<glyph unicode="&#x2008;" horiz-adv-x="231" />
<glyph unicode="&#x2009;" horiz-adv-x="370" />
<glyph unicode="&#x200a;" horiz-adv-x="103" />
<glyph unicode="&#x2010;" horiz-adv-x="675" d="M55 412v288h566v-288h-566z" />
<glyph unicode="&#x2011;" horiz-adv-x="675" d="M55 412v288h566v-288h-566z" />
<glyph unicode="&#x2012;" horiz-adv-x="675" d="M55 412v288h566v-288h-566z" />
<glyph unicode="&#x2013;" horiz-adv-x="1024" d="M0 401v240h1024v-240h-1024z" />
<glyph unicode="&#x2014;" horiz-adv-x="2048" d="M0 401v240h2050v-240h-2050z" />
<glyph unicode="&#x2018;" horiz-adv-x="503" d="M57 1178q0 86 51.5 138t135.5 52q92 0 137 -53t45 -125q0 -66 -29.5 -103.5t-64.5 -56.5q23 -23 71 -47.5t93 -34.5l-45 -131q-102 27 -176 67t-122.5 87t-72 100t-23.5 107z" />
<glyph unicode="&#x2019;" horiz-adv-x="503" d="M8 948q45 10 92 35t72 47q-35 18 -64.5 56t-29.5 104q0 72 45 125t137 53q84 0 135 -52t51 -138q0 -53 -23.5 -106.5t-71.5 -100.5t-121.5 -87t-176.5 -67z" />
<glyph unicode="&#x201a;" horiz-adv-x="503" d="M8 -106q45 10 92 34.5t72 48.5q-35 16 -64.5 55.5t-29.5 102.5q0 72 45 125t137 53q84 0 135 -51t51 -137q0 -106 -94 -206.5t-299 -154.5z" />
<glyph unicode="&#x201c;" horiz-adv-x="958" d="M57 1178q0 86 51.5 138t135.5 52q92 0 137 -53t45 -125q0 -66 -29.5 -103.5t-64.5 -56.5q23 -23 71 -47.5t93 -34.5l-45 -131q-102 27 -176 67t-122.5 87t-72 100t-23.5 107zM514 1178q0 86 50 138t134 52q92 0 138.5 -53t46.5 -125q0 -66 -30 -103.5t-65 -56.5 q23 -23 70 -47.5t92 -34.5l-45 -131q-102 27 -176 67t-121 87t-70.5 100t-23.5 107z" />
<glyph unicode="&#x201d;" horiz-adv-x="958" d="M8 948q45 10 92 35t72 47q-35 18 -64.5 56t-29.5 104q0 72 45 125t137 53q84 0 135 -52t51 -138q0 -53 -23.5 -106.5t-71.5 -100.5t-121.5 -87t-176.5 -67zM465 948q45 10 92 35t70 47q-35 18 -65 56t-30 104q0 72 46.5 125t138.5 53q84 0 134 -52t50 -138 q0 -53 -23.5 -106.5t-70.5 -100.5t-122 -87t-175 -67z" />
<glyph unicode="&#x201e;" horiz-adv-x="958" d="M8 -106q45 10 92 34.5t72 48.5q-35 16 -64.5 55.5t-29.5 102.5q0 72 45 125t137 53q84 0 135 -51t51 -137q0 -106 -94 -206.5t-299 -154.5zM465 -106q45 10 92 34.5t70 48.5q-35 16 -65 55.5t-30 102.5q0 72 46.5 125t138.5 53q84 0 134 -51t50 -137q0 -53 -23.5 -106.5 t-70.5 -100.5t-122 -87t-175 -67z" />
<glyph unicode="&#x2022;" horiz-adv-x="1052" d="M102 788q0 86 34 163t91.5 134.5t135 91t163.5 33.5t164 -33.5t135.5 -91t91 -134.5t33.5 -163t-33.5 -162.5t-91 -134t-135.5 -91t-164 -33.5q-86 -1 -164 32q-78 35 -135 92.5t-91 134t-34 162.5z" />
<glyph unicode="&#x2026;" horiz-adv-x="1570" d="M63 145q0 74 49.5 122t135.5 48t135 -48t49 -122q0 -72 -49 -118.5t-135 -46.5t-135 47t-50 118zM602 145q0 74 49 122t135 48t135.5 -48t49.5 -122q0 -72 -49.5 -118.5t-135.5 -46.5t-135 47t-49 118zM1141 145q0 74 49 122t135 48t135 -48t49 -122q0 -72 -49 -118.5 t-135 -46.5t-135 47t-49 118z" />
<glyph unicode="&#x202f;" horiz-adv-x="370" />
<glyph unicode="&#x2039;" horiz-adv-x="679" d="M20 512l369 469l227 -170l-233 -285l260 -278l-207 -195z" />
<glyph unicode="&#x203a;" horiz-adv-x="679" d="M37 252l260 278l-234 285l228 170l368 -469l-415 -459z" />
<glyph unicode="&#x205f;" horiz-adv-x="463" />
<glyph unicode="&#x20ac;" d="M20 551v272h109q8 115 45 216.5t104.5 177t166 119.5t227.5 44q199 0 309.5 -78.5t167.5 -238.5l-297 -113q-29 76 -64.5 109t-97.5 33q-78 0 -122 -73t-52 -196h260v-272h-262q6 -135 53 -209t125 -74q59 0 97 33t73 107l289 -132q-27 -66 -68 -121t-98 -95t-133 -61.5 t-174 -21.5q-137 0 -237.5 44.5t-168 122t-103.5 182t-42 225.5h-107z" />
<glyph unicode="&#x2122;" horiz-adv-x="1312" d="M39 1204v162h485v-162h-159v-426h-166v426h-160zM600 778v588h193l131 -295l120 295h191v-588h-158v334l-137 -338h-31l-151 332v-328h-158z" />
<glyph unicode="&#x25fc;" horiz-adv-x="1003" d="M0 0v1004h1004v-1004h-1004z" />
</font>
</defs>
</svg>
